<?xml version="1.0" standalone="no"?>
<!DOCTYPE svg PUBLIC "-//W3C//DTD SVG 1.1//EN" "http://www.w3.org/Graphics/SVG/1.1/DTD/svg11.dtd" >
<svg xmlns="http://www.w3.org/2000/svg" xmlns:xlink="http://www.w3.org/1999/xlink" version="1.1">
<metadata>
Created by FontForge 20170731 at Fri Oct  8 20:14:55 1999
 By Aleksey,,,
Copyright (c) 1989 Adobe Systems Incorporated.  All Rights Reserved.ITC Berkeley Oldstyle is a trademark of International Typeface Corporation.
</metadata>
<defs>
<font id="Berkeley-Book" horiz-adv-x="519" >
  <font-face 
    font-family="Berkeley Book"
    font-weight="400"
    font-stretch="normal"
    units-per-em="1000"
    panose-1="2 2 5 0 0 0 0 0 0 0"
    ascent="744"
    descent="-256"
    x-height="426"
    cap-height="635"
    bbox="-86 -256 1062 841"
    underline-thickness="50"
    underline-position="-200"
    unicode-range="U+0020-FB02"
  />
<missing-glyph horiz-adv-x="259" 
 />
    <glyph glyph-name=".notdef" horiz-adv-x="259" 
 />
    <glyph glyph-name=".null" horiz-adv-x="0" 
 />
    <glyph glyph-name="nonmarkingreturn" horiz-adv-x="333" 
 />
    <glyph glyph-name="space" unicode=" " horiz-adv-x="259" 
 />
    <glyph glyph-name="space" unicode="&#xa0;" horiz-adv-x="259" 
 />
    <glyph glyph-name="exclam" unicode="!" horiz-adv-x="278" 
d="M144 -13q-18 0 -29.5 11t-11.5 29t11.5 29t29.5 11t29.5 -11t11.5 -29t-11.5 -29t-29.5 -11zM154 159h-26l-34 476h34q28 0 35.5 -10t7.5 -59q0 -27 -17 -407z" />
    <glyph glyph-name="quotedbl" unicode="&#x22;" horiz-adv-x="352" 
d="M275 573l-17 -204q-3 -31 -14 -31t-14 31l-17 204q-6 81 31 81t31 -81zM139 573l-17 -204q-3 -31 -14 -31t-14 31l-17 204q-6 81 31 81t31 -81z" />
    <glyph glyph-name="numbersign" unicode="#" 
d="M323 239l35 157h-161l-36 -157h162zM316 27h-42l35 155h-161l-35 -155h-42l35 155h-105l26 57h92l36 157h-104l26 57h91l35 155h42l-35 -155h162l35 155h42l-35 -155h105l-26 -57h-93l-35 -157h103l-26 -57h-91z" />
    <glyph glyph-name="dollar" unicode="$" 
d="M245 363v247q-50 -7 -85 -38.5t-35 -78.5q0 -52 31 -82t89 -48zM273 294v-267q53 8 90.5 46.5t37.5 91.5t-34 81.5t-94 47.5zM245 -70v70q-63 0 -105.5 16t-57 33.5t-14.5 33.5q0 9 7 14t17 5q40 0 70 -65q18 -13 83 -13v278q-80 26 -126 62.5t-46 102.5q0 70 49.5 113
t122.5 53v72h28v-70q69 0 110.5 -26t41.5 -52q0 -18 -19 -18q-39 0 -74 60q-20 12 -59 12v-257q103 -30 141.5 -71t38.5 -99q0 -72 -51.5 -119t-128.5 -61v-74h-28z" />
    <glyph glyph-name="percent" unicode="%" horiz-adv-x="796" 
d="M210 311q-62 0 -100 47.5t-38 111.5q0 77 45.5 130.5t120.5 53.5q62 0 100 -47.5t38 -111.5q0 -77 -45.5 -130.5t-120.5 -53.5zM228 338q48 0 73.5 35.5t25.5 96.5q0 22 -4.5 45.5t-14.5 50.5t-33 44t-55 17q-48 0 -73.5 -35.5t-25.5 -96.5q0 -22 4.5 -45.5t14.5 -50.5
t33 -44t55 -17zM558 -19q-62 0 -100 47.5t-38 111.5q0 77 45.5 130.5t120.5 53.5q62 0 100 -47.5t38 -111.5q0 -77 -45.5 -130.5t-120.5 -53.5zM576 8q48 0 73.5 35.5t25.5 96.5q0 22 -4.5 45.5t-14.5 50.5t-33 44t-55 17q-48 0 -73.5 -35.5t-25.5 -96.5q0 -22 4.5 -45.5
t14.5 -50.5t33 -44t55 -17zM587 677h38q-80 -89 -192 -322.5t-144 -381.5l-53 -20q19 117 150 381.5t201 342.5z" />
    <glyph glyph-name="ampersand" unicode="&#x26;" horiz-adv-x="815" 
d="M359 14q85 0 155 45l-296 311h-14q-47 1 -75 -41t-28 -92q0 -56 25.5 -105t86 -83.5t146.5 -34.5zM429 398l-13 17q33 42 102 42q16 0 82 -11t85 -11q31 0 52 7t29 16.5t12 19.5t7.5 17t9.5 7q9 0 9 -18v-52q0 -19 -20.5 -36t-68.5 -17q-31 0 -86 14l-2 -2
q43 -47 43 -117q0 -108 -82 -188q61 -48 108 -48q39 0 69 27l14 -18q-88 -66 -114 -66q-38 0 -126 60q-83 -60 -213 -60q-74 0 -136 21.5t-104.5 74t-42.5 128.5q0 72 43.5 123.5t114.5 69.5q-49 68 -49 116q0 60 50.5 100t112.5 40q60 0 89 -23l-11 -51q-6 -26 -14 -26
q-7 0 -7 9q0 25 -28.5 37t-57.5 12q-38 0 -64 -19.5t-26 -61.5q0 -58 140 -213.5t229 -214.5q61 54 61 145q0 70 -36.5 121.5t-102.5 51.5q-27 0 -58 -23z" />
    <glyph glyph-name="quotesingle" unicode="'" horiz-adv-x="185" 
d="M124 573l-17 -204q-3 -31 -14 -31t-14 31l-17 204q-6 81 31 81t31 -81z" />
    <glyph glyph-name="parenleft" unicode="(" horiz-adv-x="333" 
d="M291 712l8 -26q-53 -30 -91.5 -77t-59 -99.5t-29.5 -102t-9 -97.5q0 -54 11 -113.5t33 -121t63.5 -110.5t95.5 -69l-10 -26q-65 19 -115.5 69.5t-77 114.5t-39.5 123t-13 108q0 54 13.5 112.5t40.5 117.5t73 111.5t106 85.5z" />
    <glyph glyph-name="parenright" unicode=")" horiz-adv-x="333" 
d="M42 -130l-8 26q53 30 91.5 77t59 99.5t29.5 102t9 97.5q0 54 -11 113.5t-33 121t-63.5 110.5t-95.5 69l10 26q65 -19 115.5 -69.5t77 -114.5t39.5 -123t13 -108q0 -54 -13.5 -112.5t-40.5 -117.5t-73 -111.5t-106 -85.5z" />
    <glyph glyph-name="asterisk" unicode="*" horiz-adv-x="500" 
d="M92 439q22 1 77 18.5t55 31.5t-55 31.5t-77 18.5q12 35 36 62q13 -19 52 -54.5t53 -35.5q10 0 10 15q0 47 -28 125q4 0 12 1t14 1.5t9 0.5t9 -0.5t14 -1.5t12 -1q-28 -78 -28 -125q0 -15 10 -15q14 0 53 35.5t52 54.5q24 -27 36 -62q-22 -1 -77 -18.5t-55 -31.5t55 -31.5
t77 -18.5q-12 -35 -36 -62q-13 19 -52 54.5t-53 35.5q-10 0 -10 -15q0 -47 28 -125q-5 0 -18 -2t-17 -2t-17 2t-18 2q28 78 28 125q0 15 -10 15q-14 0 -53 -35.5t-52 -54.5q-24 27 -36 62z" />
    <glyph glyph-name="plus" unicode="+" 
d="M234 239v187h52v-187h187v-52h-187v-187h-52v187h-188v52h188z" />
    <glyph glyph-name="comma" unicode="," horiz-adv-x="259" 
d="M119 -159l-13 14q57 47 57 102q0 29 -19 34q-12 -4 -19 -4q-16 0 -26 10t-10 26t11 26.5t28 10.5q33 0 52 -29t19 -64q0 -77 -80 -126z" />
    <glyph glyph-name="hyphen" unicode="-" horiz-adv-x="333" 
d="M67 239h167q19 0 33.5 2t22 4t8.5 2q2 -2 2 -3q0 -5 -30 -57h-199q-16 0 -24.5 -3.5t-9.5 -3.5q-3 0 -3 3q0 4 33 56z" />
    <glyph glyph-name="hyphen" unicode="&#xad;" horiz-adv-x="333" 
d="M67 239h167q19 0 33.5 2t22 4t8.5 2q2 -2 2 -3q0 -5 -30 -57h-199q-16 0 -24.5 -3.5t-9.5 -3.5q-3 0 -3 3q0 4 33 56z" />
    <glyph glyph-name="period" unicode="." horiz-adv-x="259" 
d="M130 -13q-18 0 -29.5 11t-11.5 29t11.5 29t29.5 11t29.5 -11t11.5 -29t-11.5 -29t-29.5 -11z" />
    <glyph glyph-name="slash" unicode="/" horiz-adv-x="278" 
d="M301 654l-268 -673h-56l268 673h56z" />
    <glyph glyph-name="zero" unicode="0" 
d="M247 -19q-56 0 -98 31t-64 81.5t-32 103t-10 105.5q0 151 69 251.5t161 100.5q56 0 98 -31t63.5 -82t31.5 -103t10 -105q0 -151 -69 -251.5t-160 -100.5zM106 352q0 -37 3.5 -75.5t14 -87t27.5 -85t47.5 -62t70.5 -25.5q57 0 100.5 63.5t43.5 203.5q0 37 -3.5 75.5
t-14 86.5t-27.5 84.5t-47.5 62t-70.5 25.5q-57 0 -100.5 -63t-43.5 -203z" />
    <glyph glyph-name="one" unicode="1" 
d="M236 37v384q0 74 -1 110t-7 55t-12 21.5t-23 2.5h-74v27q64 0 120 8.5t58 8.5v-481q0 -69 4 -101.5t10 -38.5t19 -6h90v-27h-301v27h97q20 0 20 10z" />
    <glyph glyph-name="two" unicode="2" 
d="M124 55q43 1 61 1.5t22 1t42.5 1.5t112.5 3q36 1 53.5 5t27.5 18q5 6 9 6q8 0 8 -9q0 -8 -31 -82h-377q-15 0 -15 5t85 99.5t107 116.5q50 51 79 112.5t29 116.5q0 79 -36 119t-104 40q-78 0 -137 -47l-12 19q78 73 172 73q83 0 132.5 -48t49.5 -131q0 -45 -15 -89
t-47 -88t-55.5 -71.5t-64.5 -70.5z" />
    <glyph glyph-name="three" unicode="3" 
d="M73 548l-16 18q37 40 88 64t104 24q65 0 112 -33.5t47 -96.5q0 -88 -109 -150v-2q73 -8 116.5 -51t43.5 -115q0 -98 -83 -161.5t-184 -63.5q-88 0 -152 43l11 26q82 -39 137 -39q84 0 143.5 56.5t59.5 140.5q0 53 -36 95.5t-121 42.5h-38v27q62 0 106.5 36.5t44.5 93.5
q0 50 -33.5 78t-84.5 28q-93 0 -156 -61z" />
    <glyph glyph-name="four" unicode="4" 
d="M368 654v-347q88 0 107 19q5 5 10 5q7 0 7 -7q0 -3 -25 -69h-99v-256q-46 -23 -54 -23q-7 0 -7 11q0 3 3 69.5t3 84.5v114h-293v9q144 194 331 390h17zM313 307v269q-5 -6 -37 -41.5t-38.5 -43t-31.5 -36.5t-38 -45.5t-35 -44.5t-44 -58h224z" />
    <glyph glyph-name="five" unicode="5" 
d="M154 591l-35 -154q68 9 90 9q103 0 173 -50.5t70 -149.5q0 -44 -18.5 -89.5t-53 -85.5t-92.5 -65t-128 -25q-55 0 -108 25l9 25q52 -20 115 -20q24 0 56 11.5t67.5 34t60 67t24.5 100.5q0 92 -54.5 135.5t-149.5 43.5q-32 0 -59.5 -4.5t-31.5 -4.5q-7 0 -7 8q0 4 54 233
q98 -20 166 -20q102 0 115 20q5 8 11 8q7 0 7 -9t-13 -52q-38 -25 -107 -25q-76 0 -161 34z" />
    <glyph glyph-name="six" unicode="6" 
d="M434 654v-27q-119 0 -205 -72.5t-105 -190.5q95 76 164 76q86 0 137 -66t51 -153q0 -112 -69 -176t-147 -64q-21 0 -43.5 5t-53 23t-53.5 46.5t-39.5 82.5t-16.5 125q0 177 107 284t273 107zM263 392q-69 0 -143 -61q-5 -65 -5 -66q0 -40 8.5 -81.5t26 -82.5t50.5 -67
t76 -26q11 0 25 2.5t36 14.5t39 30.5t29.5 55.5t12.5 86q0 79 -39.5 137t-115.5 58z" />
    <glyph glyph-name="seven" unicode="7" 
d="M410 595q-135 -31 -227 -31q-116 0 -116 18q0 8 8 62q69 -22 163 -22q145 0 231 30q4 2 12 2q5 0 5 -5q0 -2 -5 -7q-3 -3 -5 -7q-85 -103 -164.5 -300.5t-79.5 -348.5q0 -10 -10 -10t-61 23q56 301 249 596z" />
    <glyph glyph-name="eight" unicode="8" 
d="M203 325q-47 -12 -75 -52.5t-28 -90.5q0 -75 44.5 -124.5t118.5 -49.5q68 0 111.5 40t43.5 107q0 66 -35.5 97t-110.5 53zM299 362q43 15 67.5 46t24.5 75q0 61 -40 102.5t-101 41.5q-57 0 -94.5 -33t-37.5 -89q0 -58 49.5 -96.5t131.5 -46.5zM60 484q0 63 56.5 116.5
t150.5 53.5q78 0 130 -44.5t52 -117.5q0 -90 -120 -143v-2q20 -5 34 -9.5t37.5 -17.5t38 -29t26 -44t11.5 -63q0 -88 -66.5 -145.5t-157.5 -57.5q-88 0 -149 50t-61 137q0 111 127 170q-109 45 -109 146z" />
    <glyph glyph-name="nine" unicode="9" 
d="M85 -19v27q119 0 205 72.5t105 190.5q-95 -76 -164 -76q-86 0 -137 66t-51 153q0 112 69 176t147 64q21 0 43.5 -5t53 -23t53.5 -46.5t39.5 -82.5t16.5 -125q0 -177 -107 -284t-273 -107zM256 243q69 0 143 61q5 65 5 66q0 40 -8.5 81.5t-26 82.5t-50.5 67t-76 26
q-11 0 -25 -2.5t-36 -14.5t-39 -30.5t-29.5 -55.5t-12.5 -86q0 -79 39.5 -137t115.5 -58z" />
    <glyph glyph-name="colon" unicode=":" horiz-adv-x="259" 
d="M130 362q-18 0 -29.5 11t-11.5 29t11.5 29t29.5 11t29.5 -11t11.5 -29t-11.5 -29t-29.5 -11zM130 -13q-18 0 -29.5 11t-11.5 29t11.5 29t29.5 11t29.5 -11t11.5 -29t-11.5 -29t-29.5 -11z" />
    <glyph glyph-name="semicolon" unicode=";" horiz-adv-x="259" 
d="M119 -159l-13 14q57 47 57 102q0 29 -19 34q-12 -4 -19 -4q-16 0 -26 10t-10 26t11 26.5t28 10.5q33 0 52 -29t19 -64q0 -77 -80 -126zM130 362q-18 0 -29.5 11t-11.5 29t11.5 29t29.5 11t29.5 -11t11.5 -29t-11.5 -29t-29.5 -11z" />
    <glyph glyph-name="less" unicode="&#x3c;" 
d="M30 239l459 209v-56l-393 -179l393 -179v-56l-459 209v52z" />
    <glyph glyph-name="equal" unicode="=" 
d="M46 262v52h427v-52h-427zM46 112v52h427v-52h-427z" />
    <glyph glyph-name="greater" unicode="&#x3e;" 
d="M30 448l459 -209v-52l-459 -209v56l393 179l-393 179v56z" />
    <glyph glyph-name="question" unicode="?" horiz-adv-x="370" 
d="M120 600q-27 0 -42.5 -5t-19 -10.5t-7 -10.5t-8.5 -5q-8 0 -8 8l27 61q38 16 77 16q74 0 126 -42t52 -115q0 -49 -28.5 -89.5t-74.5 -80.5q-4 -4 -13 -12l-13.5 -12t-10 -10t-8 -10t-2.5 -8q0 -18 33 -59q5 -6 15 -8t10 -8q0 -4 -53 -43q-38 41 -61 111q87 72 116 116.5
t29 93.5q0 59 -38 90.5t-98 31.5zM167 -13q-18 0 -29.5 11t-11.5 29t11.5 29t29.5 11t29.5 -11t11.5 -29t-11.5 -29t-29.5 -11z" />
    <glyph glyph-name="at" unicode="@" horiz-adv-x="800" 
d="M205 276q0 60 30.5 121t91.5 104t135 43q6 0 18 -1t18 -1q19 -1 26.5 8t15.5 10q10 0 10 -7q0 -3 -10 -47.5t-20.5 -104t-10.5 -99.5q0 -60 13 -79t49 -19q56 0 98.5 57.5t42.5 164.5q0 32 -4.5 61.5t-21.5 66t-44 63t-77 44.5t-116 18q-57 0 -118.5 -24.5t-114.5 -68.5
t-87.5 -114t-34.5 -153q0 -19 2 -39.5t10.5 -51.5t22 -58.5t38.5 -56t58 -49.5t83.5 -34t112.5 -13q59 1 109.5 15t75.5 27.5t53.5 33.5t34.5 23l14 -29q-149 -103 -294 -103q-93 0 -167.5 29.5t-119 78t-68 105t-23.5 114.5q0 171 123 286t290 115q86 0 150.5 -25
t100.5 -67.5t53 -90.5t17 -102q0 -104 -73 -190t-189 -86q-42 0 -51.5 27.5t-9.5 120.5l-2 2q-69 -141 -152 -141q-45 0 -66.5 34t-21.5 82zM478 520h-35q-55 0 -97 -38t-60 -86t-18 -91q0 -13 2 -26t8 -29.5t21 -26.5t36 -10q46 0 91.5 97.5t51.5 209.5z" />
    <glyph glyph-name="A" unicode="A" horiz-adv-x="611" 
d="M400 243h-235q-60 -149 -60 -191q0 -25 25 -25h40h25v-27h-203v27q36 0 44 2.5t14 17.5l253 600q35 11 52 11q6 0 6 -7q0 -5 -8.5 -12t-8.5 -19q0 -28 73 -240.5t105 -289.5q9 -21 14.5 -32t15 -21t19.5 -10h37v-27h-206v27h50q12 0 15.5 2t3.5 8q0 11 -71 206zM387 276
l-92 282q-72 -165 -117 -282h209z" />
    <glyph glyph-name="B" unicode="B" horiz-adv-x="537" 
d="M181 342v-169q0 -71 4 -99.5t10.5 -34.5t26.5 -6h54q48 0 82 13.5t50 36.5t22.5 44t6.5 44q0 29 -8 55.5t-28 54t-63 44.5t-103 17h-54zM116 37v437q0 87 -5 110.5t-23 23.5h-59v27h253q57 0 95.5 -15.5t54.5 -40.5t21.5 -44t5.5 -39q0 -48 -31.5 -83.5t-79.5 -55.5v-2
q69 -16 111.5 -60.5t42.5 -110.5q0 -77 -59.5 -130.5t-175.5 -53.5h-212v27h41q20 0 20 10zM181 592v-220q97 0 134 -9q43 27 63 52.5t20 67.5q0 55 -35.5 87t-68.5 32h-76q-37 0 -37 -10z" />
    <glyph glyph-name="C" unicode="C" horiz-adv-x="648" 
d="M382 -19q-149 0 -239.5 82t-90.5 230q0 158 112 259.5t272 101.5q82 0 164 -32l-5 -59q-1 -21 -12 -21q-7 0 -9 21q-3 18 -47.5 38t-103.5 20q-138 0 -220.5 -88.5t-82.5 -227.5q0 -130 81 -210.5t200 -80.5q65 0 126.5 27t67.5 69q2 17 11 17t9 -12q0 -25 -5 -83
q-105 -51 -228 -51z" />
    <glyph glyph-name="D" unicode="D" horiz-adv-x="685" 
d="M116 37v437q0 87 -5 110.5t-23 23.5h-59v27h302q146 0 227 -89.5t81 -217.5q0 -53 -16.5 -106.5t-52 -105t-103 -84t-157.5 -32.5h-255v27h41q20 0 20 10zM181 592v-419q0 -71 4 -99.5t10.5 -34.5t26.5 -6h82q267 0 267 272q0 72 -22.5 128.5t-54 87t-70.5 50t-66 25.5
t-46 6h-94q-37 0 -37 -10z" />
    <glyph glyph-name="E" unicode="E" horiz-adv-x="556" 
d="M29 608v27h470l-10 -69q-3 -17 -9 -17q-8 0 -10 12q-2 18 -30 27q-45 14 -148 14h-74q-37 0 -37 -10v-228h95q69 0 102 4t40 10t7 19v40h25v-166h-25v37q0 10 -1.5 14t-13.5 7.5t-34 4t-68 0.5h-127v-161q0 -71 4 -99.5t10.5 -34.5t26.5 -6h64q198 0 218 49q4 10 11 10
t7 -7q0 -4 -25 -85h-442v27h41q20 0 20 10v437q0 87 -5 110.5t-23 23.5h-59z" />
    <glyph glyph-name="F" unicode="F" horiz-adv-x="537" 
d="M116 37v437q0 87 -5 110.5t-23 23.5h-59v27h470l-10 -69q-3 -17 -9 -17q-8 0 -10 12q-2 18 -30 27q-45 14 -148 14h-74q-37 0 -37 -10v-228h95q69 0 102 4t40 10t7 19v40h25v-166h-25v37q0 10 -1.5 14t-13.5 7.5t-34 4t-68 0.5h-127v-161q0 -69 4 -101.5t10 -38.5t19 -6
h56v-27h-215v27h41q20 0 20 10z" />
    <glyph glyph-name="G" unicode="G" horiz-adv-x="685" 
d="M434 265v27h233v-27h-40q-23 0 -23 -10v-178q0 -13 6 -19.5t6 -10.5q0 -6 -16 -14q-121 -52 -244 -52q-142 0 -223 89.5t-81 232.5q0 161 114 256t279 95q105 0 171 -38l-12 -62q-2 -18 -12 -18q-9 0 -9 10q0 2 1 7t1 7q0 11 -19.5 25.5t-59 26.5t-84.5 12
q-33 0 -68.5 -7t-79 -27.5t-76.5 -53.5t-55.5 -91t-22.5 -133q0 -147 79.5 -222.5t191.5 -75.5q78 0 148 31v71q0 108 -6 128.5t-33 20.5h-66z" />
    <glyph glyph-name="H" unicode="H" horiz-adv-x="722" 
d="M539 331h-358v-158q0 -69 4 -101.5t10 -38.5t19 -6h56v-27h-215v27h41q20 0 20 10v437q0 87 -5 110.5t-23 23.5h-59v27h215v-27h-40q-23 0 -23 -10v-234h358v110q0 87 -5 110.5t-23 23.5h-59v27h215v-27h-40q-23 0 -23 -10v-425q0 -69 4 -101.5t10 -38.5t19 -6h56v-27
h-215v27h41q20 0 20 10v294z" />
    <glyph glyph-name="I" unicode="I" horiz-adv-x="315" 
d="M190 598v-425q0 -69 4 -101.5t10 -38.5t19 -6h56v-27h-215v27h41q20 0 20 10v437q0 87 -5 110.5t-23 23.5h-59v27h215v-27h-40q-23 0 -23 -10z" />
    <glyph glyph-name="J" unicode="J" horiz-adv-x="315" 
d="M142 26v448q0 87 -5 110.5t-23 23.5h-59v27h215v-27h-40q-23 0 -23 -10v-573q0 -98 -60.5 -155t-164.5 -57q-31 0 -51 6q-3 14 -6.5 30t-5.5 25t-2 11q0 9 10 9q8 0 11 -9q4 -20 27 -29.5t46 -9.5q58 0 94.5 45.5t36.5 134.5z" />
    <glyph glyph-name="K" unicode="K" horiz-adv-x="630" 
d="M189 558v-276q129 120 197.5 187t91.5 94t23 38q0 7 -13 7h-75v27h205v-27h-35q-11 0 -23 -13l-253 -251q62 -72 122 -145t88.5 -107t48.5 -52q10 -9 19 -11t43 -2v-27h-109q-14 1 -30 21q-3 4 -85.5 112.5t-139.5 171.5l-75 -64v-68q0 -69 4 -101.5t10 -38.5t19 -6h56
v-27h-215v27h41q20 0 20 10v437q0 87 -5 110.5t-23 23.5h-59v27h215v-27h-40q-23 0 -23 -10v-40z" />
    <glyph glyph-name="L" unicode="L" 
d="M29 608v27h215v-27h-40q-23 0 -23 -10v-425q0 -71 4 -99.5t10.5 -34.5t26.5 -6h64q198 0 218 49q4 10 11 10t7 -7q0 -4 -25 -85h-442v27h41q20 0 20 10v437q0 87 -5 110.5t-23 23.5h-59z" />
    <glyph glyph-name="M" unicode="M" horiz-adv-x="815" 
d="M118 37v497q0 74 -44 74h-45v27h144l241 -526l216 526h130v-27h-40q-23 0 -23 -10v-425q0 -69 4 -101.5t10 -38.5t19 -6h56v-27h-215v27h41q20 0 20 10v511l-2 2l-228 -543q-2 -6 -5 -6t-7 9l-237 527h-2v-364q0 -69 4 -101.5t10 -38.5t19 -6h56v-27h-183v27h41
q20 0 20 10z" />
    <glyph glyph-name="N" unicode="N" horiz-adv-x="722" 
d="M156 635l419 -522h2v349q0 69 -4 101.5t-10 38.5t-19 6h-56v27h183v-27h-41q-20 0 -20 -10v-591q0 -15 -7 -15q-3 0 -7 4l-443 552h-2v-375q0 -69 4 -101.5t10 -38.5t19 -6h56v-27h-183v27h41q20 0 20 10v497q0 74 -44 74h-45v27h127z" />
    <glyph glyph-name="O" unicode="O" horiz-adv-x="741" 
d="M52 308q0 143 91 244.5t236 101.5q149 0 230 -90t81 -237q0 -143 -91 -244.5t-236 -101.5q-149 0 -230 90t-81 237zM625 308q0 157 -77.5 236.5t-186.5 79.5q-32 0 -63.5 -8.5t-65 -30t-58.5 -53.5t-41 -85t-16 -120q0 -157 77.5 -236.5t186.5 -79.5q32 0 63.5 8.5t65 30
t58.5 53.5t41 85t16 120z" />
    <glyph glyph-name="P" unicode="P" 
d="M181 302v-129q0 -69 4 -101.5t10 -38.5t19 -6h56v-27h-215v27h41q20 0 20 10v437q0 87 -5 110.5t-23 23.5h-59v27h264q93 0 145 -48.5t52 -116.5q0 -86 -64.5 -133.5t-154.5 -47.5q-48 0 -90 13zM181 592v-263q39 -13 84 -13q70 0 115 35t45 102q0 20 -6 41t-21 47.5
t-50.5 43.5t-86.5 17h-43q-37 0 -37 -10z" />
    <glyph glyph-name="Q" unicode="Q" horiz-adv-x="741" 
d="M407 35l18 -21q105 25 153 105t47 189q0 157 -77.5 236.5t-186.5 79.5q-32 0 -63.5 -8.5t-65 -30t-58.5 -53.5t-41 -85t-16 -120q0 -76 20.5 -135.5t49 -92t65 -53.5t62 -27.5t45.5 -7.5q25 4 48 24zM52 308q0 143 91 244.5t236 101.5q149 0 230 -90t81 -237
q0 -121 -65.5 -213.5t-177.5 -122.5q123 -132 210 -132q25 0 62 17l10 -20q-98 -46 -138 -46q-59 0 -213 171h-15q-149 0 -230 90t-81 237z" />
    <glyph glyph-name="R" unicode="R" horiz-adv-x="574" 
d="M116 37v437q0 87 -5 110.5t-23 23.5h-59v27h264q93 0 145 -48.5t52 -116.5q0 -70 -45 -113.5t-117 -57.5q153 -220 204 -261q14 -11 57 -11v-27h-103q-16 0 -45.5 38.5t-177.5 248.5h-82v-114q0 -69 4 -101.5t10 -38.5t19 -6h56v-27h-215v27h41q20 0 20 10zM181 592v-278
h56q49 0 89 11t69.5 44t29.5 84q0 20 -6 41t-21 47.5t-50.5 43.5t-86.5 17h-43q-37 0 -37 -10z" />
    <glyph glyph-name="S" unicode="S" horiz-adv-x="481" 
d="M394 635v-68q0 -12 -9 -12q-8 0 -10 14q-4 27 -44.5 39.5t-74.5 12.5q-70 0 -106.5 -38t-36.5 -83q0 -48 34 -78.5t82 -48.5t96 -38t82 -59.5t34 -100.5q0 -89 -70 -141.5t-165 -52.5q-82 0 -150 27q-14 86 -14 89q0 11 10 11q11 0 13 -18q8 -37 59.5 -56.5t97.5 -19.5
q69 0 118.5 34.5t49.5 95.5q0 54 -33.5 87.5t-81 51.5t-95.5 37t-81.5 58.5t-33.5 101.5q0 74 67 124t154 50q67 0 108 -19z" />
    <glyph glyph-name="T" unicode="T" horiz-adv-x="574" 
d="M425 27v-27h-262v27h72q20 0 20 10v567q-191 0 -213 -49q-6 -13 -13 -13q-10 0 -10 8q0 9 27 85h483q27 -76 27 -85q0 -8 -10 -8q-6 0 -13 13q-22 49 -213 49v-431q0 -69 4 -101.5t10 -38.5t19 -6h72z" />
    <glyph glyph-name="U" unicode="U" horiz-adv-x="685" 
d="M466 608v27h183v-27h-41q-20 0 -20 -10v-364q0 -55 -15.5 -99.5t-40.5 -72.5t-59 -46.5t-70 -26.5t-75 -8q-30 0 -59 5t-61.5 20.5t-56.5 38.5t-39.5 63t-15.5 92v274q0 87 -5 110.5t-23 23.5h-59v27h215v-27h-40q-23 0 -23 -10v-383q0 -49 13.5 -86.5t33 -57.5
t46.5 -32.5t48 -16t43 -3.5q25 0 48 3.5t54 17t53.5 35.5t38.5 65t16 100v222q0 69 -4 101.5t-10 38.5t-19 6h-56z" />
    <glyph glyph-name="V" unicode="V" horiz-adv-x="611" 
d="M613 635v-27h-46q-7 0 -11 -11l-225 -576q-16 -40 -22 -40t-10 14q-5 19 -22.5 65t-46.5 117t-53.5 129.5t-61.5 146.5t-52 124q-9 22 -17.5 26.5t-32.5 4.5h-21v27h197v-27h-47q-20 0 -20 -6q0 -3 206 -500q180 427 180 488q0 12 -7 15t-23 3h-54v27h189z" />
    <glyph glyph-name="W" unicode="W" horiz-adv-x="944" 
d="M325 113l141 378l-35 86q-9 22 -17.5 26.5t-32.5 4.5h-34v27h210v-27h-47q-20 0 -20 -6q0 -3 28.5 -76t79.5 -202t85 -218q110 296 138 378t28 106q0 12 -6.5 15t-23.5 3h-54v27h177v-27h-36q-4 0 -6 -1.5t-5 -9.5l-215 -589q-9 -27 -15 -27q-5 0 -10 12q-2 5 -7.5 20.5
t-16 44.5t-27.5 75t-49.5 128t-74.5 187l-159 -440q-9 -27 -15 -27q-5 0 -10 12q-211 549 -228 584q-11 22 -17.5 26.5t-22.5 4.5h-33v27h202v-27h-52q-20 0 -20 -6q0 -4 28 -72.5t84.5 -205.5t87.5 -211z" />
    <glyph glyph-name="X" unicode="X" horiz-adv-x="611" 
d="M335 355l172 -251q29 -43 44.5 -60t26.5 -17h37v-27h-212v27h52q21 0 21 8q0 5 -28 47t-82 120t-74 108q-53 -59 -92 -121t-54.5 -98t-15.5 -50t24 -14h56v-27h-192v27h22q13 0 18 1t10.5 5t10.5 13q81 153 196 288q-19 28 -49.5 73.5t-47.5 71t-37.5 55t-33.5 45
t-20 20.5q-9 7 -18 8t-41 1v27h209v-27h-64q-6 0 -6 -4q0 -6 153 -224q18 22 42.5 51.5t37.5 45.5t29 36t24.5 31t16.5 23t11 19t3 12q0 7 -3.5 8.5t-18.5 1.5h-59v27h183v-27q-35 0 -42.5 -1t-11.5 -7q-1 -1 -197 -245z" />
    <glyph glyph-name="Y" unicode="Y" horiz-adv-x="537" 
d="M474 578l-163 -301v-104q0 -69 4 -101.5t10 -38.5t19 -6h56v-27h-215v27h41q20 0 20 10v171v68q-165 276 -178 296q-16 26 -24 31t-25 5h-34v27h205v-27h-46q-17 0 -17 -4t27 -51t75 -128.5t67 -114.5q141 265 141 284q0 10 -3.5 12t-11.5 2h-64v27h179v-27h-34
q-3 0 -5 -1t-4 -1.5t-3.5 -2.5t-3 -3t-3.5 -4.5t-3 -5t-3.5 -6t-3.5 -6.5z" />
    <glyph glyph-name="Z" unicode="Z" horiz-adv-x="556" 
d="M515 0h-477q-14 0 -14 6q0 4 18 31l379 565h-54q-263 0 -290 -53q-6 -12 -12 -12q-9 0 -9 9q0 3 24 89h416q11 0 11 -4q0 -3 -7 -14l-387 -584h108q281 0 302 64q4 12 11 12q8 0 8 -8q0 -6 -27 -101z" />
    <glyph glyph-name="bracketleft" unicode="[" horiz-adv-x="333" 
d="M128 705h146v-27h-63q-10 0 -13.5 -0.5t-6 -4t-2.5 -10.5v-590q0 -81 5 -119t10.5 -44t19.5 -6h50v-27h-137v645q0 123 -9 183z" />
    <glyph glyph-name="backslash" unicode="\" horiz-adv-x="278" 
d="M33 654l268 -673h-56l-268 673h56z" />
    <glyph glyph-name="bracketright" unicode="]" horiz-adv-x="333" 
d="M205 -123h-146v27h63q10 0 13.5 0.5t6 4t2.5 10.5v590q0 81 -5 119t-10.5 44t-19.5 6h-50v27h137v-645q0 -123 9 -183z" />
    <glyph glyph-name="asciicircum" unicode="^" 
d="M113 270h-62l183 365h52l183 -365h-62l-147 295z" />
    <glyph glyph-name="underscore" unicode="_" horiz-adv-x="500" 
d="M500 -125h-500v50h500v-50z" />
    <glyph glyph-name="grave" unicode="`" horiz-adv-x="259" 
d="M175 503l-13 -18q-99 64 -148 86q20 30 28 30q13 0 65.5 -40t67.5 -58z" />
    <glyph glyph-name="a" unicode="a" horiz-adv-x="426" 
d="M280 114v127q-42 -15 -68 -26t-56.5 -29.5t-45.5 -41.5t-15 -51q0 -61 57 -61q37 0 71 23.5t57 58.5zM280 268v67q0 13 -1.5 21.5t-7.5 21.5t-22 20.5t-42 7.5q-60 0 -97 -31q0 -34 -13 -60.5t-35 -26.5q-9 0 -15 6.5t-6 14.5q0 56 64.5 94.5t127.5 38.5q30 0 50.5 -7
t31.5 -16.5t16 -29.5t6 -34.5t1 -42.5v-159q0 -30 1.5 -45t7.5 -34t21 -29.5t40 -15.5l-32 -45q-29 0 -59 28.5t-34 66.5q-31 -36 -77.5 -65.5t-85.5 -29.5q-41 0 -64 25.5t-23 67.5q0 26 13.5 49.5t31 39.5t55.5 36t65 32t82 34z" />
    <glyph glyph-name="b" unicode="b" 
d="M143 336v-286q50 -39 109 -39q80 0 122 56t42 141q0 78 -37 132t-111 54q-60 0 -125 -58zM85 114v455q0 42 -4 62.5t-8.5 23.5t-15.5 3h-53v24q67 4 139 23v-338q55 41 89.5 58t74.5 17q82 0 126 -65.5t44 -152.5q0 -101 -58 -170.5t-157 -69.5q-81 0 -146 53l-20 -49
h-17q6 41 6 126z" />
    <glyph glyph-name="c" unicode="c" horiz-adv-x="426" 
d="M391 77l13 -16q-66 -77 -170 -77q-94 0 -146.5 62.5t-52.5 159.5q0 110 66.5 173t148.5 63q62 0 99.5 -32t37.5 -58q0 -11 -7.5 -18t-18.5 -7q-22 0 -39.5 26.5t-23.5 53.5q-17 11 -48 11q-16 0 -33.5 -4t-40 -16t-39.5 -31.5t-30 -54t-14 -79.5q0 -88 45 -146.5
t127 -58.5q76 0 126 49z" />
    <glyph glyph-name="d" unicode="d" horiz-adv-x="537" 
d="M376 90v286q-50 39 -109 39q-80 0 -122 -56t-42 -141q0 -78 37 -132t111 -54q60 0 125 58zM376 407v162q0 42 -4 62.5t-8.5 23.5t-15.5 3h-53v24q67 4 139 23v-530q0 -60 1 -88t6.5 -43.5t12 -17.5t22.5 -2h40v-24q-10 0 -70 -8t-70 -8v75q-55 -41 -89.5 -58t-74.5 -17
q-82 0 -126 65.5t-44 152.5q0 101 58 170.5t157 69.5q66 0 119 -35z" />
    <glyph glyph-name="e" unicode="e" horiz-adv-x="426" 
d="M384 79l14 -15q-75 -80 -183 -80q-88 0 -135.5 63t-47.5 153q0 59 19.5 113t64 91.5t105.5 37.5q58 0 97 -37.5t70 -99.5q-165 -52 -298 -83q4 -87 43.5 -140.5t122.5 -53.5q74 0 128 51zM90 248l225 60q-15 42 -44 74.5t-67 32.5q-50 0 -82 -53t-32 -114z" />
    <glyph glyph-name="f" unicode="f" horiz-adv-x="278" 
d="M160 402v-227q0 -60 1 -88t6.5 -43.5t12 -17.5t22.5 -2h40v-24h-196v24h37q19 0 19 10v368h-60v24h60v126q0 41 11 72.5t25.5 47.5t35 25.5t35 12t28.5 2.5q27 0 59.5 -14t32.5 -37q0 -8 -7.5 -13.5t-16.5 -5.5q-31 0 -64 41q-6 2 -17 2q-28 0 -46 -24t-18 -77v-158h81
v-24h-81z" />
    <glyph glyph-name="g" unicode="g" horiz-adv-x="463" 
d="M234 159q47 0 71 34.5t24 83.5q0 54 -29.5 96t-81.5 42q-47 0 -70.5 -33t-23.5 -82q0 -54 29 -97.5t81 -43.5zM203 -17q-47 -4 -85 -34t-38 -74q0 -37 27 -60t59.5 -30.5t69.5 -7.5q74 0 126 30t52 77q0 38 -31 64t-96 30zM289 32q24 -1 38.5 -2.5t43 -10t46 -21
t31.5 -38.5t14 -61q0 -51 -41 -86t-95 -49t-113 -14q-45 0 -82 7.5t-68 34.5t-31 72q0 48 29.5 77t81.5 53q-61 19 -61 59q0 5 1 10t4 11t5.5 10.5t7.5 11.5t8 11t9.5 11.5t8.5 10t9 10.5t8 9q-77 41 -77 123q0 72 48 121.5t119 49.5q5 0 53 -8q47 -10 86 -10q23 0 36 4
t15.5 8t5.5 8t8 4q8 0 8 -8t-5 -20q-1 -3 -3.5 -12t-3.5 -10.5t-4.5 -5.5t-9 -5t-14.5 -1q-6 0 -54 6q36 -40 36 -101q0 -69 -49 -114t-118 -45q-22 0 -52 7q-12 -12 -24.5 -31.5t-12.5 -31.5q0 -23 30 -31t128 -13z" />
    <glyph glyph-name="h" unicode="h" horiz-adv-x="537" 
d="M443 318v-143q0 -40 0.5 -64t2.5 -42t4 -26t8 -13t11 -5.5t16 -0.5h40v-24h-196v24h37q19 0 19 10v261q0 102 -83 102q-72 0 -150 -66v-156q0 -60 1 -88t6.5 -43.5t12 -17.5t22.5 -2h40v-24h-196v24h37q19 0 19 10v535q0 42 -4 62.5t-8.5 23.5t-15.5 3h-53v24
q67 4 139 23v-343q47 39 86.5 59.5t83.5 20.5q65 0 93 -35.5t28 -88.5z" />
    <glyph glyph-name="i" unicode="i" horiz-adv-x="259" 
d="M158 442v-267q0 -60 1 -88t6.5 -43.5t12 -17.5t22.5 -2h40v-24h-196v24h37q19 0 19 10v279q0 42 -4 62.5t-8.5 23.5t-15.5 3h-53v24q6 0 70 8q62 8 69 8zM86 588q0 15 11 26t26 11t26 -11t11 -26q0 -16 -11 -27t-26 -11t-26 11t-11 27z" />
    <glyph glyph-name="j" unicode="j" horiz-adv-x="259" 
d="M24 402v24q6 0 70 8q62 8 69 8v-516q0 -56 -19 -94.5t-48 -54.5t-50 -21.5t-38 -5.5q-25 0 -52.5 11t-27.5 33q0 20 27 20q33 0 60 -36q8 -4 14 -4q22 0 37 13t22.5 29t11.5 44t4.5 43.5t0.5 41.5v368q0 42 -4 62.5t-8.5 23.5t-15.5 3h-53zM91 588q0 15 11 26t26 11
t26 -11t11 -26q0 -16 -11 -27t-26 -11t-26 11t-11 27z" />
    <glyph glyph-name="k" unicode="k" 
d="M102 34v535q0 42 -4 62.5t-8.5 23.5t-15.5 3h-53v24q67 4 139 23v-505q75 48 126 92.5t67.5 67.5t16.5 33q0 9 -9 9h-68v24h189v-24h-14q-23 0 -44 -18l-146 -132q107 -136 152 -182t66 -46h18v-24h-96q-8 0 -32 28.5t-151 189.5l-75 -50q0 -74 3.5 -102.5t10.5 -35
t28 -6.5h40v-24h-196v24h37q19 0 19 10z" />
    <glyph glyph-name="l" unicode="l" horiz-adv-x="259" 
d="M100 34v535q0 42 -4 62.5t-8.5 23.5t-15.5 3h-53v24q67 4 139 23v-530q0 -60 1 -88t6.5 -43.5t12 -17.5t22.5 -2h40v-24h-196v24h37q19 0 19 10z" />
    <glyph glyph-name="m" unicode="m" horiz-adv-x="796" 
d="M19 402v24q6 0 70 8q62 8 69 8v-80q9 6 35.5 26.5t39 28.5t35 16.5t44.5 8.5q43 0 73 -22.5t37 -62.5q2 2 19.5 15.5t31.5 23t34 21.5t39 18.5t35 6.5q65 0 93 -35.5t28 -88.5v-143q0 -60 1 -88t6.5 -43.5t12 -17.5t22.5 -2h40v-24h-196v24h37q19 0 19 10v261
q0 102 -84 102q-11 0 -21 -2t-18 -4.5t-18 -7.5t-15 -8t-15.5 -10.5l-14 -10t-15 -12t-13.5 -11.5v-156q0 -60 1 -88t6.5 -43.5t12 -17.5t22.5 -2h40v-24h-196v24h37q19 0 19 10v261q0 102 -84 102q-11 0 -21 -2t-18 -4.5t-18 -7.5t-15 -8t-15.5 -10.5l-14 -10t-15 -12
t-13.5 -11.5v-156q0 -60 1 -88t6.5 -43.5t12 -17.5t22.5 -2h40v-24h-196v24h37q19 0 19 10v279q0 42 -4 62.5t-8.5 23.5t-15.5 3h-53z" />
    <glyph glyph-name="n" unicode="n" horiz-adv-x="537" 
d="M152 331v-156q0 -60 1 -88t6.5 -43.5t12 -17.5t22.5 -2h40v-24h-196v24h37q19 0 19 10v279q0 42 -4 62.5t-8.5 23.5t-15.5 3h-53v24q6 0 70 8q62 8 69 8v-80q47 39 86.5 59.5t83.5 20.5q65 0 93 -35.5t28 -88.5v-143q0 -40 0.5 -64t2.5 -42t4 -26t8 -13t11 -5.5t16 -0.5
h40v-24h-196v24h37q19 0 19 10v261q0 102 -83 102q-72 0 -150 -66z" />
    <glyph glyph-name="o" unicode="o" horiz-adv-x="500" 
d="M42 199q0 64 23 113.5t58 76t71 40t68 13.5q89 0 142.5 -61t53.5 -154q0 -64 -23 -113.5t-58 -76t-71 -40t-68 -13.5q-89 0 -142.5 61t-53.5 154zM105 218q0 -82 39 -143t115 -61q52 0 84 31t42 71t10 92q0 82 -39 143t-115 61q-52 0 -84 -31t-42 -71t-10 -92z" />
    <glyph glyph-name="p" unicode="p" horiz-adv-x="537" 
d="M161 336v-286q50 -39 109 -39q80 0 122 56t42 141q0 78 -37 132t-111 54q-60 0 -125 -58zM103 -213v526q0 42 -4 62.5t-8.5 23.5t-15.5 3h-53v24q6 0 70 8q62 8 69 8v-75q55 41 89.5 58t74.5 17q82 0 126 -65.5t44 -152.5q0 -101 -58 -170.5t-157 -69.5q-66 0 -119 35
v-91q0 -40 0.5 -64t2.5 -42t4 -26t8 -13t11 -5.5t16 -0.5h40v-24h-196v24h37q19 0 19 10z" />
    <glyph glyph-name="q" unicode="q" 
d="M42 202q0 101 58 170.5t157 69.5q81 0 146 -53l20 49h17q-6 -41 -6 -126v-432q0 -42 4 -62.5t8.5 -23.5t15.5 -3h53v-24q-67 -4 -139 -23v315q-55 -41 -89.5 -58t-74.5 -17q-82 0 -126 65.5t-44 152.5zM376 90v286q-50 39 -109 39q-80 0 -122 -56t-42 -141q0 -78 37 -132
t111 -54q60 0 125 58z" />
    <glyph glyph-name="r" unicode="r" horiz-adv-x="352" 
d="M107 34v279q0 42 -4 62.5t-8.5 23.5t-15.5 3h-53v24q6 0 70 8q62 8 69 8v-86q57 51 83.5 68.5t49.5 17.5q30 0 47 -22q-5 -32 -8.5 -46t-6 -17.5t-6.5 -3.5q-5 0 -9 7.5t-15 15t-34 7.5q-45 0 -101 -59v-149q0 -40 0.5 -64t2.5 -42t4 -26t8 -13t11 -5.5t16 -0.5h40v-24
h-196v24h37q19 0 19 10z" />
    <glyph glyph-name="s" unicode="s" horiz-adv-x="370" 
d="M186 409q-36 0 -68 -21t-32 -57q0 -29 26.5 -46.5t64 -27.5t75 -22t64 -39.5t26.5 -71.5q0 -69 -58 -104.5t-132 -35.5q-59 0 -112 19q-13 82 -13 86q0 9 11 9q7 0 12 -17q5 -26 46.5 -45t82.5 -19q43 0 78.5 24.5t35.5 67.5q0 32 -26 50t-63 27t-73.5 20t-62.5 37
t-26 69q0 52 45.5 91t111.5 39q67 0 112 -21q6 -54 6 -68q0 -7 -7 -7q-6 0 -11 9q-17 27 -41 39q-29 15 -72 15z" />
    <glyph glyph-name="t" unicode="t" horiz-adv-x="296" 
d="M136 521v-95h109q-2 -16 -5.5 -20t-9.5 -4h-94v-286q0 -20 2 -34t8.5 -29t21.5 -22.5t38 -7.5q31 0 68 16l9 -20q-60 -35 -118 -35q-42 0 -64.5 25t-22.5 67v326h-22q-17 0 -21 1t-4 6q0 6 10 16l81 96h14z" />
    <glyph glyph-name="u" unicode="u" horiz-adv-x="537" 
d="M13 402v24q6 0 70 8q62 8 69 8v-267q0 -31 0.5 -46t5 -37.5t14 -33t27.5 -18.5t44 -8q74 0 134 65v216q0 42 -4 62.5t-8.5 23.5t-15.5 3h-53v24q6 0 70 8q62 8 69 8v-289q0 -25 0.5 -36.5t4 -29.5t10.5 -27t21 -18t35 -13l-32 -45q-35 4 -59.5 28.5t-32.5 58.5
q-45 -42 -83 -64.5t-82 -22.5q-30 0 -52 8.5t-35 27.5t-20.5 36t-11 48t-4 49.5t-0.5 53.5v106q0 42 -4 62.5t-8.5 23.5t-15.5 3h-53z" />
    <glyph glyph-name="v" unicode="v" horiz-adv-x="463" 
d="M3 402v24h182v-24h-49q-16 0 -16 -6q0 -4 4.5 -16t16 -40.5t24.5 -59t37.5 -89t46.5 -112.5q113 238 113 307q0 16 -25 16h-46v24h170v-24h-33q-12 0 -19 -15q-50 -103 -169 -396q-5 -10 -11 -10t-15 21q-8 27 -60 157.5t-76 181.5q-17 37 -26 49t-22 12h-27z" />
    <glyph glyph-name="w" unicode="w" horiz-adv-x="704" 
d="M702 426v-24h-30q-8 0 -12 -4t-14 -23q-33 -71 -156 -380q-6 -14 -11 -14q-6 0 -14 18l-107 285l-119 -285q-9 -17 -14 -18q-7 0 -14 19l-132 341q-17 37 -26 49t-22 12h-27v24h182v-24h-49q-16 0 -16 -6q0 -8 44 -117q42 -106 76 -192q21 41 37 75.5t38 86t29 68.5
q-23 62 -31 73.5t-25 11.5h-26v24h180v-24h-52q-16 0 -16 -6t121 -309q78 183 95.5 230.5t17.5 68.5q0 16 -21 16h-44v24h158z" />
    <glyph glyph-name="x" unicode="x" horiz-adv-x="481" 
d="M21 402v24h193v-24h-42q-19 0 -19 -8q0 -4 19.5 -30t48.5 -63t34 -43q32 29 72.5 73t40.5 61q0 10 -18 10h-52v24h164v-24q-31 0 -37 -5q-15 -14 -69 -70t-87 -90q22 -29 49 -64.5t43.5 -57.5t32.5 -43t25.5 -31.5t12.5 -12.5q9 -4 47 -4v-24h-190v24h46q12 0 12 5
q0 7 -118 168q-24 -17 -72.5 -79.5t-48.5 -83.5q0 -10 17 -10h54v-24h-167v24h23q20 0 33 24q63 92 146 170q-69 92 -100.5 130.5t-41.5 46t-22 7.5h-29z" />
    <glyph glyph-name="y" unicode="y" horiz-adv-x="463" 
d="M2 402v24h182v-24h-49q-16 0 -16 -6q0 -7 132 -318q114 244 114 308q0 8 -3.5 11.5t-7.5 4t-13 0.5h-45v24h167v-24h-34h-6t-4.5 -1t-3 -1.5t-2.5 -3.5t-2.5 -5.5t-3.5 -9t-5 -12.5q-21 -52 -68.5 -165t-114 -263t-86.5 -176q-49 -13 -103 -13q-12 0 -12 12q0 5 16 12
q1 1 12.5 6t16.5 8t18 12t22 19t24 28t28 39t30 52.5t34 69.5l-142 331q-16 36 -25 48.5t-23 12.5h-27z" />
    <glyph glyph-name="z" unicode="z" horiz-adv-x="426" 
d="M68 426h311q11 0 11 -6q0 -5 -19 -27l-281 -344q109 4 210 5q49 1 63 4.5t19 12.5q5 8 11 8q8 0 8 -8q0 -9 -29 -71h-333q-23 0 -23 10q0 5 44 56q24 28 40 47q7 8 34.5 39.5t40.5 46.5t37 44t39 48t31.5 42.5t27.5 42.5h-151q-77 -2 -93 -23q-8 -10 -13 -10q-9 0 -9 9
q0 2 24 74z" />
    <glyph glyph-name="braceleft" unicode="{" horiz-adv-x="333" 
d="M145 415v138q0 90 33 121t99 31v-12q-45 -12 -62.5 -43.5t-17.5 -90.5v-128q0 -63 -16 -94.5t-65 -44.5v-2q49 -13 65 -44.5t16 -94.5v-128q0 -59 17.5 -90.5t62.5 -43.5v-12q-66 0 -99 31t-33 121v138q0 55 -15.5 82.5t-60.5 41.5q45 14 60.5 41.5t15.5 82.5z" />
    <glyph glyph-name="bar" unicode="|" horiz-adv-x="222" 
d="M85 -100v805h52v-805h-52z" />
    <glyph glyph-name="braceright" unicode="}" horiz-adv-x="333" 
d="M188 167v-138q0 -90 -33 -121t-99 -31v12q45 12 62.5 43.5t17.5 90.5v128q0 63 16 94.5t65 44.5v2q-49 13 -65 44.5t-16 94.5v128q0 59 -17.5 90.5t-62.5 43.5v12q66 0 99 -31t33 -121v-138q0 -55 15.5 -82.5t60.5 -41.5q-45 -14 -60.5 -41.5t-15.5 -82.5z" />
    <glyph glyph-name="asciitilde" unicode="~" 
d="M65 147l-36 42q45 86 125 86q36 0 114 -34t99 -34q19 0 36.5 12t27 24.5t24.5 35.5l36 -42q-20 -27 -33 -42t-38 -29.5t-54 -14.5q-36 0 -104 34q-66 34 -113 34q-51 0 -84 -72z" />
    <glyph glyph-name="exclamdown" unicode="&#xa1;" horiz-adv-x="278" 
d="M135 442q18 0 29.5 -11t11.5 -29t-11.5 -29t-29.5 -11t-29.5 11t-11.5 29t11.5 29t29.5 11zM125 270h26l34 -476h-34q-28 0 -35.5 10t-7.5 59q0 27 17 407z" />
    <glyph glyph-name="cent" unicode="&#xa2;" 
d="M282 521v-384q11 -2 29 -2q75 0 123 47l13 -16q-30 -34 -74 -54.5t-91 -20.5v-110h-27v110q-85 8 -131 69t-46 149q0 86 47.5 150.5t129.5 82.5v112h27v-109q40 0 71 -11t46.5 -26.5t23 -29t7.5 -23.5t-7.5 -17t-17.5 -7q-22 0 -40 26.5t-24 53.5q-16 10 -59 10zM255 142
v376q-60 -18 -89.5 -69t-29.5 -117t30 -119t89 -71z" />
    <glyph glyph-name="sterling" unicode="&#xa3;" 
d="M124 364v63q0 99 52 163t123 64q28 0 57 -16t29 -42q0 -21 -25 -21q-20 0 -37 15t-25 35q-9 3 -18 3q-49 0 -73 -58t-21 -137l3 -69h92v-27h-91q3 -57 3 -62q0 -65 -18 -114.5t-66 -93.5l2 -2q45 20 88 20t126 -27q61 -21 79 -21q23 0 41.5 14.5t18.5 38.5q0 16 -8 22
t-15.5 7.5t-7.5 5.5t15 7.5t24 3.5q4 0 11 -5t13.5 -18t6.5 -30q0 -43 -37 -72.5t-72 -29.5q-29 0 -150 45q-71 27 -98 27q-60 0 -128 -56l-13 21q42 22 68.5 52.5t37.5 68t14 67t2 68.5l-2 63h-81v27h80z" />
    <glyph glyph-name="currency" unicode="&#xa4;" 
d="M37 131l49 50q-49 53 -49 136t49 136l-49 50l35 35l51 -48q55 48 137 48t137 -48l51 48l35 -35l-49 -50q49 -53 49 -136t-49 -136l49 -50l-35 -35l-51 48q-55 -48 -137 -48t-137 48l-51 -48zM92 317q0 -71 49 -120.5t119 -49.5t119 49.5t49 120.5t-49 120.5t-119 49.5
t-119 -49.5t-49 -120.5z" />
    <glyph glyph-name="yen" unicode="&#xa5;" 
d="M475 218v-27h-169q0 -80 4 -116t9.5 -42t19.5 -6h56v-27h-208v27h41q20 0 20 10v154h-168v27h168v80h-168v27h151q-135 223 -150 247q-16 26 -23.5 31t-25.5 5h-35v27h198v-27h-46q-17 0 -17 -4q0 -7 159 -274q131 244 131 264q0 10 -3.5 12t-11.5 2h-64v27h179v-27h-34
q-7 0 -12 -4.5t-8 -9t-9 -16.5l-137 -253h153v-27h-169v-80h169z" />
    <glyph glyph-name="brokenbar" unicode="&#xa6;" horiz-adv-x="222" 
d="M85 -100v322h52v-322h-52zM85 383v322h52v-322h-52z" />
    <glyph glyph-name="section" unicode="&#xa7;" horiz-adv-x="500" 
d="M277 400q-62 0 -103.5 -27t-40.5 -76q-1 -70 94 -98q54 -3 98 25t43 79q1 69 -91 97zM374 513h-29q9 14 9 35q0 38 -31.5 58.5t-71.5 20.5q-39 0 -70 -19t-30 -56q-1 -35 37 -60.5t100 -46.5q30 -10 48.5 -18.5t41 -24t34 -38t11.5 -52.5q-1 -47 -44 -81.5t-96 -47.5v-2
q132 -40 133 -117q-1 -61 -54 -98.5t-117 -37.5q-70 0 -108 34t-38 72q0 31 25 47h25q-12 -17 -12 -40q0 -40 34.5 -63t75.5 -23q43 0 79 24.5t35 64.5q1 38 -23.5 58t-92.5 41q-35 11 -57.5 20t-51 25t-43.5 39t-15 52q1 100 142 139v2q-123 46 -124 119q1 55 50 85t109 30
q67 0 106 -30t39 -64q0 -25 -26 -47z" />
    <glyph glyph-name="dieresis" unicode="&#xa8;" horiz-adv-x="259" 
d="M76 507q-14 0 -23.5 9.5t-9.5 23.5t9.5 24t23.5 10t23.5 -10t9.5 -24t-9.5 -23.5t-23.5 -9.5zM184 507q-14 0 -23.5 9.5t-9.5 23.5t9.5 24t23.5 10t23.5 -10t9.5 -24t-9.5 -23.5t-23.5 -9.5z" />
    <glyph glyph-name="copyright" unicode="&#xa9;" horiz-adv-x="800" 
d="M215 316q0 91 64 146.5t143 55.5q70 0 127 -22q-3 -37 -5 -45.5t-7 -8.5q-6 0 -9 13q-4 13 -28.5 26t-64.5 13q-71 0 -110.5 -53t-39.5 -121q0 -65 39 -115t106 -50q33 0 70 17.5t42 44.5q2 10 9 10t7 -6q0 -2 -1 -10.5t-2 -22.5l-2 -28q-61 -29 -140 -29
q-88 0 -143 47.5t-55 137.5zM741 317q0 -140 -99.5 -238t-241.5 -98t-241.5 98t-99.5 238t99.5 238.5t241.5 98.5t241.5 -98.5t99.5 -238.5zM691 317q0 123 -84.5 209t-206.5 86q-120 0 -205.5 -86.5t-85.5 -208.5t85.5 -208t205.5 -86q122 0 206.5 85.5t84.5 208.5z" />
    <glyph glyph-name="ordfeminine" unicode="&#xaa;" horiz-adv-x="325" 
d="M200 455v72q-54 -19 -84 -38t-30 -47q0 -35 31 -35q26 0 48.5 13.5t34.5 34.5zM200 548v34q0 8 -1 13.5t-4.5 14t-14 13t-26.5 4.5q-42 0 -66 -20q0 -19 -9.5 -34.5t-26.5 -15.5q-15 0 -15 13q0 35 45.5 59.5t94.5 24.5q27 0 43 -5.5t22.5 -19t8 -24.5t1.5 -33v-97
q0 -25 1.5 -36.5t12.5 -24t34 -17.5l-30 -32q-23 0 -44 18.5t-24 43.5q-19 -22 -50 -42t-57 -20q-28 0 -47 18.5t-19 44.5q0 19 11 34.5t35 29.5t46.5 24t60.5 25q12 5 18 7z" />
    <glyph glyph-name="guillemotleft" unicode="&#xab;" horiz-adv-x="481" 
d="M364 407l27 -14q-34 -106 -98 -180q64 -74 98 -180l-27 -14q-42 118 -153 194q111 76 153 194zM216 407l27 -14q-34 -106 -98 -180q64 -74 98 -180l-27 -14q-42 118 -153 194q111 76 153 194z" />
    <glyph glyph-name="logicalnot" unicode="&#xac;" 
d="M46 262v52h427v-245h-52v193h-375z" />
    <glyph glyph-name="registered" unicode="&#xae;" horiz-adv-x="800" 
d="M741 317q0 -140 -99.5 -238t-241.5 -98t-241.5 98t-99.5 238t99.5 238.5t241.5 98.5t241.5 -98.5t99.5 -238.5zM691 317q0 123 -84.5 209t-206.5 86q-120 0 -205.5 -86.5t-85.5 -208.5t85.5 -208t205.5 -86q122 0 206.5 85.5t84.5 208.5zM466 406q0 28 -21 57.5t-65 29.5
q-25 0 -25 -10v-151h27q34 0 59 18.5t25 55.5zM261 144v22h26q10 0 10 9v239q0 55 -4 67t-19 12h-26v22h155q60 0 91.5 -29.5t31.5 -71.5q0 -37 -21.5 -60.5t-57.5 -31.5q78 -127 111 -156h19v-22h-82q-12 0 -48.5 62t-57.5 104h-34v-66q0 -56 3 -67t18 -11h27v-22h-142z
" />
    <glyph glyph-name="macron" unicode="&#xaf;" horiz-adv-x="259" 
d="M242 563v-40h-225v40h225z" />
    <glyph glyph-name="macron" unicode="&#x2c9;" horiz-adv-x="259" 
d="M242 563v-40h-225v40h225z" />
    <glyph glyph-name="degree" unicode="&#xb0;" horiz-adv-x="350" 
d="M175 400q44 0 75 33t31 78t-31 78t-75 33t-75 -33t-31 -78t31 -78t75 -33zM175 368q-60 0 -101.5 41.5t-41.5 101.5t41.5 101.5t101.5 41.5t101.5 -41.5t41.5 -101.5t-41.5 -101.5t-101.5 -41.5z" />
    <glyph glyph-name="plusminus" unicode="&#xb1;" 
d="M473 285v-52h-187v-141h-52v141h-188v52h188v141h52v-141h187zM46 0v52h427v-52h-427z" />
    <glyph glyph-name="twosuperior" unicode="&#xb2;" horiz-adv-x="310" 
d="M33 592l-8 20q49 42 116 42q58 0 94 -28t36 -78q0 -82 -125 -192l-64 -52l2 -2q12 3 119 3q39 0 55 2.5t24 12.5q4 6 8 6t4 -6t-21 -58h-244q-11 0 -11 4q0 3 86 91q65 65 85 101.5t20 76.5q0 39 -22 62.5t-61 23.5q-53 0 -93 -29z" />
    <glyph glyph-name="threesuperior" unicode="&#xb3;" horiz-adv-x="310" 
d="M39 588l-11 14q52 52 125 52q46 0 78.5 -20t32.5 -58q0 -31 -25 -55t-53 -35v-2q50 -4 81.5 -29.5t31.5 -67.5q0 -61 -53 -98t-130 -37q-57 0 -99 25l7 19q38 -17 89 -17q52 0 88 30.5t36 78.5q0 41 -27 59.5t-55 18.5h-36v23q37 0 63 20.5t26 54.5q0 27 -19 42t-49 15
q-64 0 -101 -33z" />
    <glyph glyph-name="acute" unicode="&#xb4;" horiz-adv-x="259" 
d="M82 485l-13 18q15 18 67.5 58t65.5 40q8 0 28 -30q-49 -22 -148 -86z" />
    <glyph glyph-name="mu" unicode="&#xb5;" horiz-adv-x="537" 
d="M511 29l-32 -45q-35 4 -59.5 28.5t-32.5 58.5q-45 -42 -83 -64.5t-82 -22.5q-37 2 -76 28v-78q0 -14 20.5 -57t20.5 -53q0 -17 -9.5 -29.5t-28.5 -12.5q-30 0 -40 28t-10 100v403q0 42 -4 62.5t-8.5 23.5t-15.5 3h-53v24q6 0 70 8q62 8 69 8v-267q0 -31 0.5 -46t5 -37.5
t14 -33t27.5 -18.5t44 -8q74 0 134 65v216q0 42 -4 62.5t-8.5 23.5t-15.5 3h-53v24q6 0 70 8q62 8 69 8v-289q0 -25 0.5 -36.5t4 -29.5t10.5 -27t21 -18t35 -13z" />
    <glyph glyph-name="mu" unicode="&#x3bc;" horiz-adv-x="537" 
d="M511 29l-32 -45q-35 4 -59.5 28.5t-32.5 58.5q-45 -42 -83 -64.5t-82 -22.5q-37 2 -76 28v-78q0 -14 20.5 -57t20.5 -53q0 -17 -9.5 -29.5t-28.5 -12.5q-30 0 -40 28t-10 100v403q0 42 -4 62.5t-8.5 23.5t-15.5 3h-53v24q6 0 70 8q62 8 69 8v-267q0 -31 0.5 -46t5 -37.5
t14 -33t27.5 -18.5t44 -8q74 0 134 65v216q0 42 -4 62.5t-8.5 23.5t-15.5 3h-53v24q6 0 70 8q62 8 69 8v-289q0 -25 0.5 -36.5t4 -29.5t10.5 -27t21 -18t35 -13z" />
    <glyph glyph-name="paragraph" unicode="&#xb6;" horiz-adv-x="500" 
d="M-13 474q0 64 46.5 112.5t132.5 48.5h280v-27h-40q-23 0 -23 -10v-497q0 -69 4 -101.5t10 -38.5t19 -6h56v-27h-134v680h-38v-680h-106v27h41q20 0 20 10v377q-48 -29 -97 -29q-75 0 -123 43.5t-48 117.5zM255 375v233h-77q-64 0 -100 -38.5t-36 -106.5q0 -54 33 -87
t87 -33q43 0 93 32z" />
    <glyph glyph-name="periodcentered" unicode="&#xb7;" horiz-adv-x="259" 
d="M89 213q0 18 11.5 29t29.5 11t29.5 -11t11.5 -29t-11.5 -29t-29.5 -11t-29.5 11t-11.5 29z" />
    <glyph glyph-name="periodcentered" unicode="&#x2219;" horiz-adv-x="259" 
d="M89 213q0 18 11.5 29t29.5 11t29.5 -11t11.5 -29t-11.5 -29t-29.5 -11t-29.5 11t-11.5 29z" />
    <glyph glyph-name="cedilla" unicode="&#xb8;" horiz-adv-x="259" 
d="M153 0h27l-10.5 -14t-12.5 -17.5t-5 -9.5q0 -9 39 -15q70 -12 70 -46q0 -30 -30 -46t-62 -16q-21 0 -43 8t-22 25q0 13 16 13q21 0 38 -27q8 -3 17 -3q17 0 32 9t15 25q0 23 -58 33q-48 8 -48 23t37 58z" />
    <glyph glyph-name="onesuperior" unicode="&#xb9;" horiz-adv-x="310" 
d="M177 654v-315q0 -26 3 -38.5t7 -14.5t14 -2h57v-22h-210v22h56q20 0 20 6v185q0 56 -1 85t-4.5 43.5t-6.5 16.5t-12 2h-52v22q38 0 84 5z" />
    <glyph glyph-name="ordmasculine" unicode="&#xba;" horiz-adv-x="350" 
d="M167 365q-66 0 -103.5 38t-37.5 97q0 77 50 115.5t107 38.5q66 0 104 -38t38 -98q0 -53 -27.5 -89.5t-61.5 -50t-69 -13.5zM181 389q48 0 68.5 34.5t20.5 82.5q0 49 -26 86.5t-75 37.5q-48 0 -68 -34.5t-20 -83.5q0 -48 25.5 -85.5t74.5 -37.5z" />
    <glyph glyph-name="guillemotright" unicode="&#xbb;" horiz-adv-x="481" 
d="M117 19l-27 14q34 106 98 180q-64 74 -98 180l27 14q42 -118 153 -194q-111 -76 -153 -194zM265 19l-27 14q34 106 98 180q-64 74 -98 180l27 14q42 -118 153 -194q-111 -76 -153 -194z" />
    <glyph glyph-name="onequarter" unicode="&#xbc;" horiz-adv-x="775" 
d="M595 136h-186v13q32 42 98 114t118 122h20v-210h20q19 0 30.5 3.5t16 7t5.5 3.5q5 0 5 -4q0 -5 -21 -49h-56v-144q-44 -16 -46 -16q-7 0 -7 7q0 8 0.5 23.5t1.5 36.5t1 32v61zM595 175v148q-80 -84 -134 -148h134zM563 679h38q-80 -89 -192 -322.5t-144 -381.5l-53 -20
q19 117 150 381.5t201 342.5zM185 654v-315q0 -26 3 -38.5t7 -14.5t14 -2h57v-22h-210v22h56q20 0 20 6v185q0 56 -1 85t-4.5 43.5t-6.5 16.5t-12 2h-52v22q38 0 84 5z" />
    <glyph glyph-name="onehalf" unicode="&#xbd;" horiz-adv-x="775" 
d="M563 679h38q-80 -89 -192 -322.5t-144 -381.5l-53 -20q19 117 150 381.5t201 342.5zM184 654v-315q0 -26 3 -38.5t7 -14.5t14 -2h57v-22h-210v22h56q20 0 20 6v185q0 56 -1 85t-4.5 43.5t-6.5 16.5t-12 2h-52v22q38 0 83 5zM473 333l-8 20q49 42 116 42q58 0 94 -28
t36 -78q0 -82 -125 -192l-64 -52l2 -2q12 3 119 3q39 0 55 2.5t24 12.5q4 6 8 6t4 -6t-21 -58h-244q-11 0 -11 4q0 3 86 91q65 65 85 101.5t20 76.5q0 39 -22 62.5t-61 23.5q-53 0 -93 -29z" />
    <glyph glyph-name="threequarters" unicode="&#xbe;" horiz-adv-x="775" 
d="M610 132h-186v13q32 42 98 114t118 122h20v-210h20q19 0 30.5 3.5t16 7t5.5 3.5q5 0 5 -4q0 -5 -21 -49h-56v-144q-44 -16 -46 -16q-7 0 -7 7q0 8 0.5 23.5t1.5 36.5t1 32v61zM610 175v148q-80 -84 -134 -148h134zM49 588l-11 14q52 52 125 52q46 0 78.5 -20t32.5 -58
q0 -31 -25 -55t-53 -35v-2q50 -4 81.5 -29.5t31.5 -67.5q0 -61 -53 -98t-130 -37q-57 0 -99 25l7 19q38 -17 89 -17q52 0 88 30.5t36 78.5q0 41 -27 59.5t-55 18.5h-36v23q37 0 63 20.5t26 54.5q0 27 -19 42t-49 15q-64 0 -101 -33zM578 679h38q-80 -89 -192 -322.5
t-144 -381.5l-53 -20q19 117 150 381.5t201 342.5z" />
    <glyph glyph-name="questiondown" unicode="&#xbf;" horiz-adv-x="370" 
d="M249 -171q27 0 42.5 5t19 10.5t7 10.5t8.5 5q8 0 8 -8l-27 -61q-38 -16 -77 -16q-74 0 -126 42t-52 115q0 49 28.5 89.5t74.5 80.5q4 4 13 12l13.5 12t10 10t8 10t2.5 8q0 18 -33 59q-5 6 -15 8t-10 8q0 4 53 43q38 -41 61 -111q-87 -72 -116 -116.5t-29 -93.5
q0 -59 38 -90.5t98 -31.5zM202 442q18 0 29.5 -11t11.5 -29t-11.5 -29t-29.5 -11t-29.5 11t-11.5 29t11.5 29t29.5 11z" />
    <glyph glyph-name="Agrave" unicode="&#xc0;" horiz-adv-x="611" 
d="M400 243h-235q-60 -149 -60 -191q0 -25 25 -25h40h25v-27h-203v27q36 0 44 2.5t14 17.5l253 600q35 11 52 11q6 0 6 -7q0 -5 -8.5 -12t-8.5 -19q0 -28 73 -240.5t105 -289.5q9 -21 14.5 -32t15 -21t19.5 -10h37v-27h-206v27h50q12 0 15.5 2t3.5 8q0 11 -71 206zM387 276
l-92 282q-72 -165 -117 -282h209zM351 712l-13 -18q-99 64 -148 86q20 30 28 30q13 0 65.5 -40t67.5 -58z" />
    <glyph glyph-name="Aacute" unicode="&#xc1;" horiz-adv-x="611" 
d="M400 243h-235q-60 -149 -60 -191q0 -25 25 -25h40h25v-27h-203v27q36 0 44 2.5t14 17.5l253 600q35 11 52 11q6 0 6 -7q0 -5 -8.5 -12t-8.5 -19q0 -28 73 -240.5t105 -289.5q9 -21 14.5 -32t15 -21t19.5 -10h37v-27h-206v27h50q12 0 15.5 2t3.5 8q0 11 -71 206zM387 276
l-92 282q-72 -165 -117 -282h209zM288 694l-13 18q15 18 67.5 58t65.5 40q8 0 28 -30q-49 -22 -148 -86z" />
    <glyph glyph-name="Acircumflex" unicode="&#xc2;" horiz-adv-x="611" 
d="M400 243h-235q-60 -149 -60 -191q0 -25 25 -25h40h25v-27h-203v27q36 0 44 2.5t14 17.5l253 600q35 11 52 11q6 0 6 -7q0 -5 -8.5 -12t-8.5 -19q0 -28 73 -240.5t105 -289.5q9 -21 14.5 -32t15 -21t19.5 -10h37v-27h-206v27h50q12 0 15.5 2t3.5 8q0 11 -71 206zM387 276
l-92 282q-72 -165 -117 -282h209zM181 713q95 39 135 97q40 -58 134 -97q-25 -19 -27 -19q-17 0 -55 21t-52 36q-14 -15 -52 -36t-55 -21q-2 0 -28 19z" />
    <glyph glyph-name="Atilde" unicode="&#xc3;" horiz-adv-x="611" 
d="M400 243h-235q-60 -149 -60 -191q0 -25 25 -25h40h25v-27h-203v27q36 0 44 2.5t14 17.5l253 600q35 11 52 11q6 0 6 -7q0 -5 -8.5 -12t-8.5 -19q0 -28 73 -240.5t105 -289.5q9 -21 14.5 -32t15 -21t19.5 -10h37v-27h-206v27h50q12 0 15.5 2t3.5 8q0 11 -71 206zM387 276
l-92 282q-72 -165 -117 -282h209zM417 787l17 -6q-9 -67 -65 -67q-25 0 -62 15q-47 18 -55 18q-23 0 -38 -28l-17 5q4 27 20.5 43.5t42.5 16.5q24 0 60 -15q39 -15 55 -15q27 0 42 33z" />
    <glyph glyph-name="Adieresis" unicode="&#xc4;" horiz-adv-x="611" 
d="M400 243h-235q-60 -149 -60 -191q0 -25 25 -25h40h25v-27h-203v27q36 0 44 2.5t14 17.5l253 600q35 11 52 11q6 0 6 -7q0 -5 -8.5 -12t-8.5 -19q0 -28 73 -240.5t105 -289.5q9 -21 14.5 -32t15 -21t19.5 -10h37v-27h-206v27h50q12 0 15.5 2t3.5 8q0 11 -71 206zM387 276
l-92 282q-72 -165 -117 -282h209zM272 716q-14 0 -23.5 9.5t-9.5 23.5t9.5 24t23.5 10t23.5 -10t9.5 -24t-9.5 -23.5t-23.5 -9.5zM380 716q-14 0 -23.5 9.5t-9.5 23.5t9.5 24t23.5 10t23.5 -10t9.5 -24t-9.5 -23.5t-23.5 -9.5z" />
    <glyph glyph-name="Aring" unicode="&#xc5;" horiz-adv-x="611" 
d="M400 243h-235q-60 -149 -60 -191q0 -25 25 -25h40h25v-27h-203v27q36 0 44 2.5t14 17.5l253 600q35 11 52 11q6 0 6 -7q0 -5 -8.5 -12t-8.5 -19q0 -28 73 -240.5t105 -289.5q9 -21 14.5 -32t15 -21t19.5 -10h37v-27h-206v27h50q12 0 15.5 2t3.5 8q0 11 -71 206zM387 276
l-92 282q-72 -165 -117 -282h209zM399 753q0 -37 -25.5 -62.5t-62.5 -25.5t-62.5 25.5t-25.5 62.5t25.5 62.5t62.5 25.5t62.5 -25.5t25.5 -62.5zM372 753q0 25 -18 43t-43 18t-43 -18t-18 -43t18 -43t43 -18t43 18t18 43z" />
    <glyph glyph-name="AE" unicode="&#xc6;" horiz-adv-x="870" 
d="M253 357h177v142q0 109 -15 109h-4q-39 -60 -158 -251zM430 37v290h-196q-99 -177 -123 -224t-24 -62q0 -14 27 -14h62v-27h-206v27h47q9 0 13 10q46 90 342 571h-76v27h517l-10 -69q-3 -17 -9 -17q-8 0 -10 12q-2 18 -30 27q-45 14 -148 14h-74q-37 0 -37 -10v-228h95
q69 0 102 4t40 10t7 19v40h25v-166h-25v37q0 10 -1.5 14t-13.5 7.5t-34 4t-68 0.5h-127v-161q0 -71 4 -99.5t10.5 -34.5t26.5 -6h64q198 0 218 49q4 10 11 10t7 -7q0 -4 -25 -85h-442v27h41q20 0 20 10z" />
    <glyph glyph-name="Ccedilla" unicode="&#xc7;" horiz-adv-x="648" 
d="M382 -19q-149 0 -239.5 82t-90.5 230q0 158 112 259.5t272 101.5q82 0 164 -32l-5 -59q-1 -21 -12 -21q-7 0 -9 21q-3 18 -47.5 38t-103.5 20q-138 0 -220.5 -88.5t-82.5 -227.5q0 -130 81 -210.5t200 -80.5q65 0 126.5 27t67.5 69q2 17 11 17t9 -12q0 -25 -5 -83
q-105 -51 -228 -51zM358 0h27l-10.5 -14t-12.5 -17.5t-5 -9.5q0 -9 39 -15q70 -12 70 -46q0 -30 -30 -46t-62 -16q-21 0 -43 8t-22 25q0 13 16 13q21 0 38 -27q7 -3 17 -3q17 0 32 9t15 25q0 23 -58 33q-48 8 -48 23t37 58z" />
    <glyph glyph-name="Egrave" unicode="&#xc8;" horiz-adv-x="556" 
d="M29 608v27h470l-10 -69q-3 -17 -9 -17q-8 0 -10 12q-2 18 -30 27q-45 14 -148 14h-74q-37 0 -37 -10v-228h95q69 0 102 4t40 10t7 19v40h25v-166h-25v37q0 10 -1.5 14t-13.5 7.5t-34 4t-68 0.5h-127v-161q0 -71 4 -99.5t10.5 -34.5t26.5 -6h64q198 0 218 49q4 10 11 10
t7 -7q0 -4 -25 -85h-442v27h41q20 0 20 10v437q0 87 -5 110.5t-23 23.5h-59zM334 712l-13 -18q-99 64 -148 86q20 30 28 30q13 0 65.5 -40t67.5 -58z" />
    <glyph glyph-name="Eacute" unicode="&#xc9;" horiz-adv-x="556" 
d="M29 608v27h470l-10 -69q-3 -17 -9 -17q-8 0 -10 12q-2 18 -30 27q-45 14 -148 14h-74q-37 0 -37 -10v-228h95q69 0 102 4t40 10t7 19v40h25v-166h-25v37q0 10 -1.5 14t-13.5 7.5t-34 4t-68 0.5h-127v-161q0 -71 4 -99.5t10.5 -34.5t26.5 -6h64q198 0 218 49q4 10 11 10
t7 -7q0 -4 -25 -85h-442v27h41q20 0 20 10v437q0 87 -5 110.5t-23 23.5h-59zM271 694l-13 18q15 18 67.5 58t65.5 40q8 0 28 -30q-49 -22 -148 -86z" />
    <glyph glyph-name="Ecircumflex" unicode="&#xca;" horiz-adv-x="556" 
d="M29 608v27h470l-10 -69q-3 -17 -9 -17q-8 0 -10 12q-2 18 -30 27q-45 14 -148 14h-74q-37 0 -37 -10v-228h95q69 0 102 4t40 10t7 19v40h25v-166h-25v37q0 10 -1.5 14t-13.5 7.5t-34 4t-68 0.5h-127v-161q0 -71 4 -99.5t10.5 -34.5t26.5 -6h64q198 0 218 49q4 10 11 10
t7 -7q0 -4 -25 -85h-442v27h41q20 0 20 10v437q0 87 -5 110.5t-23 23.5h-59zM164 713q95 39 135 97q40 -58 134 -97q-25 -19 -27 -19q-17 0 -55 21t-52 36q-14 -15 -52 -36t-55 -21q-2 0 -28 19z" />
    <glyph glyph-name="Edieresis" unicode="&#xcb;" horiz-adv-x="556" 
d="M29 608v27h470l-10 -69q-3 -17 -9 -17q-8 0 -10 12q-2 18 -30 27q-45 14 -148 14h-74q-37 0 -37 -10v-228h95q69 0 102 4t40 10t7 19v40h25v-166h-25v37q0 10 -1.5 14t-13.5 7.5t-34 4t-68 0.5h-127v-161q0 -71 4 -99.5t10.5 -34.5t26.5 -6h64q198 0 218 49q4 10 11 10
t7 -7q0 -4 -25 -85h-442v27h41q20 0 20 10v437q0 87 -5 110.5t-23 23.5h-59zM235 716q-14 0 -23.5 9.5t-9.5 23.5t9.5 24t23.5 10t23.5 -10t9.5 -24t-9.5 -23.5t-23.5 -9.5zM343 716q-14 0 -23.5 9.5t-9.5 23.5t9.5 24t23.5 10t23.5 -10t9.5 -24t-9.5 -23.5t-23.5 -9.5z" />
    <glyph glyph-name="Igrave" unicode="&#xcc;" horiz-adv-x="315" 
d="M190 598v-425q0 -69 4 -101.5t10 -38.5t19 -6h56v-27h-215v27h41q20 0 20 10v437q0 87 -5 110.5t-23 23.5h-59v27h215v-27h-40q-23 0 -23 -10zM173 712l-13 -18q-99 64 -148 86q20 30 28 30q13 0 65.5 -40t67.5 -58z" />
    <glyph glyph-name="Iacute" unicode="&#xcd;" horiz-adv-x="315" 
d="M190 598v-425q0 -69 4 -101.5t10 -38.5t19 -6h56v-27h-215v27h41q20 0 20 10v437q0 87 -5 110.5t-23 23.5h-59v27h215v-27h-40q-23 0 -23 -10zM130 694l-13 18q15 18 67.5 58t65.5 40q8 0 28 -30q-49 -22 -148 -86z" />
    <glyph glyph-name="Icircumflex" unicode="&#xce;" horiz-adv-x="315" 
d="M190 598v-425q0 -69 4 -101.5t10 -38.5t19 -6h56v-27h-215v27h41q20 0 20 10v437q0 87 -5 110.5t-23 23.5h-59v27h215v-27h-40q-23 0 -23 -10zM13 713q95 39 135 97q40 -58 134 -97q-25 -19 -27 -19q-17 0 -55 21t-52 36q-14 -15 -52 -36t-55 -21q-2 0 -28 19z" />
    <glyph glyph-name="Idieresis" unicode="&#xcf;" horiz-adv-x="315" 
d="M190 598v-425q0 -69 4 -101.5t10 -38.5t19 -6h56v-27h-215v27h41q20 0 20 10v437q0 87 -5 110.5t-23 23.5h-59v27h215v-27h-40q-23 0 -23 -10zM94 716q-14 0 -23.5 9.5t-9.5 23.5t9.5 24t23.5 10t23.5 -10t9.5 -24t-9.5 -23.5t-23.5 -9.5zM202 716q-14 0 -23.5 9.5
t-9.5 23.5t9.5 24t23.5 10t23.5 -10t9.5 -24t-9.5 -23.5t-23.5 -9.5z" />
    <glyph glyph-name="Eth" unicode="&#xd0;" horiz-adv-x="685" 
d="M181 592v-228h162v-33h-162v-158q0 -71 4 -99.5t10.5 -34.5t26.5 -6h82q267 0 267 272q0 72 -22.5 128.5t-54 87t-70.5 50t-66 25.5t-46 6h-94q-37 0 -37 -10zM17 331v33h99v110q0 87 -5 110.5t-23 23.5h-59v27h302q146 0 227 -89.5t81 -217.5q0 -53 -16.5 -106.5
t-52 -105t-103 -84t-157.5 -32.5h-255v27h41q20 0 20 10v294h-99z" />
    <glyph glyph-name="Ntilde" unicode="&#xd1;" horiz-adv-x="722" 
d="M156 635l419 -522h2v349q0 69 -4 101.5t-10 38.5t-19 6h-56v27h183v-27h-41q-20 0 -20 -10v-591q0 -15 -7 -15q-3 0 -7 4l-443 552h-2v-375q0 -69 4 -101.5t10 -38.5t19 -6h56v-27h-183v27h41q20 0 20 10v497q0 74 -44 74h-45v27h127zM473 787l17 -6q-9 -67 -65 -67
q-25 0 -62 15q-47 18 -55 18q-23 0 -38 -28l-17 5q4 27 20.5 43.5t42.5 16.5q24 0 60 -15q39 -15 55 -15q27 0 42 33z" />
    <glyph glyph-name="Ograve" unicode="&#xd2;" horiz-adv-x="741" 
d="M52 308q0 143 91 244.5t236 101.5q149 0 230 -90t81 -237q0 -143 -91 -244.5t-236 -101.5q-149 0 -230 90t-81 237zM625 308q0 157 -77.5 236.5t-186.5 79.5q-32 0 -63.5 -8.5t-65 -30t-58.5 -53.5t-41 -85t-16 -120q0 -157 77.5 -236.5t186.5 -79.5q32 0 63.5 8.5t65 30
t58.5 53.5t41 85t16 120zM416 712l-13 -18q-99 64 -148 86q20 30 28 30q13 0 65.5 -40t67.5 -58z" />
    <glyph glyph-name="Oacute" unicode="&#xd3;" horiz-adv-x="741" 
d="M52 308q0 143 91 244.5t236 101.5q149 0 230 -90t81 -237q0 -143 -91 -244.5t-236 -101.5q-149 0 -230 90t-81 237zM625 308q0 157 -77.5 236.5t-186.5 79.5q-32 0 -63.5 -8.5t-65 -30t-58.5 -53.5t-41 -85t-16 -120q0 -157 77.5 -236.5t186.5 -79.5q32 0 63.5 8.5t65 30
t58.5 53.5t41 85t16 120zM353 694l-13 18q15 18 67.5 58t65.5 40q8 0 28 -30q-49 -22 -148 -86z" />
    <glyph glyph-name="Ocircumflex" unicode="&#xd4;" horiz-adv-x="741" 
d="M52 308q0 143 91 244.5t236 101.5q149 0 230 -90t81 -237q0 -143 -91 -244.5t-236 -101.5q-149 0 -230 90t-81 237zM625 308q0 157 -77.5 236.5t-186.5 79.5q-32 0 -63.5 -8.5t-65 -30t-58.5 -53.5t-41 -85t-16 -120q0 -157 77.5 -236.5t186.5 -79.5q32 0 63.5 8.5t65 30
t58.5 53.5t41 85t16 120zM236 713q95 39 135 97q40 -58 134 -97q-25 -19 -27 -19q-17 0 -55 21t-52 36q-14 -15 -52 -36t-55 -21q-2 0 -28 19z" />
    <glyph glyph-name="Otilde" unicode="&#xd5;" horiz-adv-x="741" 
d="M52 308q0 143 91 244.5t236 101.5q149 0 230 -90t81 -237q0 -143 -91 -244.5t-236 -101.5q-149 0 -230 90t-81 237zM625 308q0 157 -77.5 236.5t-186.5 79.5q-32 0 -63.5 -8.5t-65 -30t-58.5 -53.5t-41 -85t-16 -120q0 -157 77.5 -236.5t186.5 -79.5q32 0 63.5 8.5t65 30
t58.5 53.5t41 85t16 120zM472 787l17 -6q-9 -67 -65 -67q-24 0 -62 15q-47 18 -55 18q-23 0 -38 -28l-17 5q4 27 20.5 43.5t42.5 16.5q24 0 60 -15q39 -15 55 -15q27 0 42 33z" />
    <glyph glyph-name="Odieresis" unicode="&#xd6;" horiz-adv-x="741" 
d="M52 308q0 143 91 244.5t236 101.5q149 0 230 -90t81 -237q0 -143 -91 -244.5t-236 -101.5q-149 0 -230 90t-81 237zM625 308q0 157 -77.5 236.5t-186.5 79.5q-32 0 -63.5 -8.5t-65 -30t-58.5 -53.5t-41 -85t-16 -120q0 -157 77.5 -236.5t186.5 -79.5q32 0 63.5 8.5t65 30
t58.5 53.5t41 85t16 120zM317 716q-14 0 -23.5 9.5t-9.5 23.5t9.5 24t23.5 10t23.5 -10t9.5 -24t-9.5 -23.5t-23.5 -9.5zM425 716q-14 0 -23.5 9.5t-9.5 23.5t9.5 24t23.5 10t23.5 -10t9.5 -24t-9.5 -23.5t-23.5 -9.5z" />
    <glyph glyph-name="multiply" unicode="&#xd7;" 
d="M223 213l-176 176l37 37l176 -176l176 176l37 -37l-176 -176l176 -176l-37 -37l-176 176l-178 -177l-36 37z" />
    <glyph glyph-name="Oslash" unicode="&#xd8;" horiz-adv-x="741" 
d="M220 67l280 516q-59 41 -139 41q-32 0 -63.5 -8.5t-65 -30t-58.5 -53.5t-41 -85t-16 -120q0 -179 103 -260zM524 567l-281 -517q59 -39 138 -39q32 0 63.5 8.5t65 30t58.5 53.5t41 85t16 120q0 175 -101 259zM220 9l-43 -79h-31l50 92q-70 39 -107 113.5t-37 172.5
q0 143 91 244.5t236 101.5q80 0 144 -29l43 80h33l-50 -93q69 -39 105 -113.5t36 -171.5q0 -143 -91 -244.5t-236 -101.5q-81 0 -143 28z" />
    <glyph glyph-name="Ugrave" unicode="&#xd9;" horiz-adv-x="685" 
d="M466 608v27h183v-27h-41q-20 0 -20 -10v-364q0 -55 -15.5 -99.5t-40.5 -72.5t-59 -46.5t-70 -26.5t-75 -8q-30 0 -59 5t-61.5 20.5t-56.5 38.5t-39.5 63t-15.5 92v274q0 87 -5 110.5t-23 23.5h-59v27h215v-27h-40q-23 0 -23 -10v-383q0 -49 13.5 -86.5t33 -57.5
t46.5 -32.5t48 -16t43 -3.5q25 0 48 3.5t54 17t53.5 35.5t38.5 65t16 100v222q0 69 -4 101.5t-10 38.5t-19 6h-56zM378 712l-13 -18q-99 64 -148 86q20 30 28 30q13 0 65.5 -40t67.5 -58z" />
    <glyph glyph-name="Uacute" unicode="&#xda;" horiz-adv-x="685" 
d="M466 608v27h183v-27h-41q-20 0 -20 -10v-364q0 -55 -15.5 -99.5t-40.5 -72.5t-59 -46.5t-70 -26.5t-75 -8q-30 0 -59 5t-61.5 20.5t-56.5 38.5t-39.5 63t-15.5 92v274q0 87 -5 110.5t-23 23.5h-59v27h215v-27h-40q-23 0 -23 -10v-383q0 -49 13.5 -86.5t33 -57.5
t46.5 -32.5t48 -16t43 -3.5q25 0 48 3.5t54 17t53.5 35.5t38.5 65t16 100v222q0 69 -4 101.5t-10 38.5t-19 6h-56zM335 694l-13 18q15 18 67.5 58t65.5 40q8 0 28 -30q-49 -22 -148 -86z" />
    <glyph glyph-name="Ucircumflex" unicode="&#xdb;" horiz-adv-x="685" 
d="M466 608v27h183v-27h-41q-20 0 -20 -10v-364q0 -55 -15.5 -99.5t-40.5 -72.5t-59 -46.5t-70 -26.5t-75 -8q-30 0 -59 5t-61.5 20.5t-56.5 38.5t-39.5 63t-15.5 92v274q0 87 -5 110.5t-23 23.5h-59v27h215v-27h-40q-23 0 -23 -10v-383q0 -49 13.5 -86.5t33 -57.5
t46.5 -32.5t48 -16t43 -3.5q25 0 48 3.5t54 17t53.5 35.5t38.5 65t16 100v222q0 69 -4 101.5t-10 38.5t-19 6h-56zM208 713q95 39 135 97q40 -58 134 -97q-25 -19 -27 -19q-17 0 -55 21t-52 36q-14 -15 -52 -36t-55 -21q-2 0 -28 19z" />
    <glyph glyph-name="Udieresis" unicode="&#xdc;" horiz-adv-x="685" 
d="M466 608v27h183v-27h-41q-20 0 -20 -10v-364q0 -55 -15.5 -99.5t-40.5 -72.5t-59 -46.5t-70 -26.5t-75 -8q-30 0 -59 5t-61.5 20.5t-56.5 38.5t-39.5 63t-15.5 92v274q0 87 -5 110.5t-23 23.5h-59v27h215v-27h-40q-23 0 -23 -10v-383q0 -49 13.5 -86.5t33 -57.5
t46.5 -32.5t48 -16t43 -3.5q25 0 48 3.5t54 17t53.5 35.5t38.5 65t16 100v222q0 69 -4 101.5t-10 38.5t-19 6h-56zM299 716q-14 0 -23.5 9.5t-9.5 23.5t9.5 24t23.5 10t23.5 -10t9.5 -24t-9.5 -23.5t-23.5 -9.5zM407 716q-14 0 -23.5 9.5t-9.5 23.5t9.5 24t23.5 10t23.5 -10
t9.5 -24t-9.5 -23.5t-23.5 -9.5z" />
    <glyph glyph-name="Yacute" unicode="&#xdd;" horiz-adv-x="537" 
d="M474 578l-163 -301v-104q0 -69 4 -101.5t10 -38.5t19 -6h56v-27h-215v27h41q20 0 20 10v171v68q-165 276 -178 296q-16 26 -24 31t-25 5h-34v27h205v-27h-46q-17 0 -17 -4t27 -51t75 -128.5t67 -114.5q141 265 141 284q0 10 -3.5 12t-11.5 2h-64v27h179v-27h-34
q-3 0 -5 -1t-4 -1.5t-3.5 -2.5t-3 -3t-3.5 -4.5t-3 -5t-3.5 -6t-3.5 -6.5zM261 694l-13 18q15 18 67.5 58t65.5 40q8 0 28 -30q-49 -22 -148 -86z" />
    <glyph glyph-name="Thorn" unicode="&#xde;" 
d="M116 37v437q0 87 -5 110.5t-23 23.5h-59v27h215v-27h-40q-23 0 -23 -10v-63h112q93 0 145 -48.5t52 -116.5q0 -86 -64.5 -133.5t-154.5 -47.5q-48 0 -90 13v-29q0 -69 4 -101.5t10 -38.5t19 -6h56v-27h-215v27h41q20 0 20 10zM181 492v-263q39 -13 84 -13q70 0 115 35
t45 102q0 20 -6 41t-21 47.5t-50.5 43.5t-86.5 17h-43q-37 0 -37 -10z" />
    <glyph glyph-name="germandbls" unicode="&#xdf;" horiz-adv-x="556" 
d="M102 426v89q0 70 31.5 116.5t71.5 63.5t83 17q74 0 124.5 -53.5t50.5 -127.5q-32 -4 -56.5 -11t-50 -19.5t-39.5 -35.5t-14 -55q0 -38 23.5 -67t56.5 -47.5l66 -37t56.5 -49t23.5 -71.5q0 -66 -48.5 -110t-113.5 -44q-37 0 -77.5 19t-40.5 52q0 21 22 21q37 0 68 -59
q15 -6 30 -6q44 0 76 29.5t32 73.5q0 33 -22.5 58t-54.5 43t-64.5 38t-55 52t-22.5 75q0 62 40.5 106.5t102.5 61.5q0 70 -36.5 105t-88.5 35q-53 0 -84.5 -34.5t-31.5 -94.5v-384q0 -60 1 -88t6.5 -43.5t12 -17.5t22.5 -2h40v-24h-196v24h37q19 0 19 10v368h-60v24h60z" />
    <glyph glyph-name="agrave" unicode="&#xe0;" horiz-adv-x="426" 
d="M280 114v127q-42 -15 -68 -26t-56.5 -29.5t-45.5 -41.5t-15 -51q0 -61 57 -61q37 0 71 23.5t57 58.5zM280 268v67q0 13 -1.5 21.5t-7.5 21.5t-22 20.5t-42 7.5q-60 0 -97 -31q0 -34 -13 -60.5t-35 -26.5q-9 0 -15 6.5t-6 14.5q0 56 64.5 94.5t127.5 38.5q30 0 50.5 -7
t31.5 -16.5t16 -29.5t6 -34.5t1 -42.5v-159q0 -30 1.5 -45t7.5 -34t21 -29.5t40 -15.5l-32 -45q-29 0 -59 28.5t-34 66.5q-31 -36 -77.5 -65.5t-85.5 -29.5q-41 0 -64 25.5t-23 67.5q0 26 13.5 49.5t31 39.5t55.5 36t65 32t82 34zM259 503l-13 -18q-99 64 -148 86
q20 30 28 30q13 0 65.5 -40t67.5 -58z" />
    <glyph glyph-name="aacute" unicode="&#xe1;" horiz-adv-x="426" 
d="M280 114v127q-42 -15 -68 -26t-56.5 -29.5t-45.5 -41.5t-15 -51q0 -61 57 -61q37 0 71 23.5t57 58.5zM280 268v67q0 13 -1.5 21.5t-7.5 21.5t-22 20.5t-42 7.5q-60 0 -97 -31q0 -34 -13 -60.5t-35 -26.5q-9 0 -15 6.5t-6 14.5q0 56 64.5 94.5t127.5 38.5q30 0 50.5 -7
t31.5 -16.5t16 -29.5t6 -34.5t1 -42.5v-159q0 -30 1.5 -45t7.5 -34t21 -29.5t40 -15.5l-32 -45q-29 0 -59 28.5t-34 66.5q-31 -36 -77.5 -65.5t-85.5 -29.5q-41 0 -64 25.5t-23 67.5q0 26 13.5 49.5t31 39.5t55.5 36t65 32t82 34zM166 485l-13 18q15 18 67.5 58t65.5 40
q8 0 28 -30q-49 -22 -148 -86z" />
    <glyph glyph-name="acircumflex" unicode="&#xe2;" horiz-adv-x="426" 
d="M280 114v127q-42 -15 -68 -26t-56.5 -29.5t-45.5 -41.5t-15 -51q0 -61 57 -61q37 0 71 23.5t57 58.5zM280 268v67q0 13 -1.5 21.5t-7.5 21.5t-22 20.5t-42 7.5q-60 0 -97 -31q0 -34 -13 -60.5t-35 -26.5q-9 0 -15 6.5t-6 14.5q0 56 64.5 94.5t127.5 38.5q30 0 50.5 -7
t31.5 -16.5t16 -29.5t6 -34.5t1 -42.5v-159q0 -30 1.5 -45t7.5 -34t21 -29.5t40 -15.5l-32 -45q-29 0 -59 28.5t-34 66.5q-31 -36 -77.5 -65.5t-85.5 -29.5q-41 0 -64 25.5t-23 67.5q0 26 13.5 49.5t31 39.5t55.5 36t65 32t82 34zM79 504q95 39 135 97q40 -58 134 -97
q-25 -19 -27 -19q-17 0 -55 21t-52 36q-14 -15 -52 -36t-55 -21q-2 0 -28 19z" />
    <glyph glyph-name="atilde" unicode="&#xe3;" horiz-adv-x="426" 
d="M280 114v127q-42 -15 -68 -26t-56.5 -29.5t-45.5 -41.5t-15 -51q0 -61 57 -61q37 0 71 23.5t57 58.5zM280 268v67q0 13 -1.5 21.5t-7.5 21.5t-22 20.5t-42 7.5q-60 0 -97 -31q0 -34 -13 -60.5t-35 -26.5q-9 0 -15 6.5t-6 14.5q0 56 64.5 94.5t127.5 38.5q30 0 50.5 -7
t31.5 -16.5t16 -29.5t6 -34.5t1 -42.5v-159q0 -30 1.5 -45t7.5 -34t21 -29.5t40 -15.5l-32 -45q-29 0 -59 28.5t-34 66.5q-31 -36 -77.5 -65.5t-85.5 -29.5q-41 0 -64 25.5t-23 67.5q0 26 13.5 49.5t31 39.5t55.5 36t65 32t82 34zM315 578l17 -6q-9 -67 -65 -67
q-25 0 -62 15q-47 18 -55 18q-23 0 -38 -28l-17 5q4 27 20.5 43.5t42.5 16.5q24 0 60 -15q39 -15 55 -15q27 0 42 33z" />
    <glyph glyph-name="adieresis" unicode="&#xe4;" horiz-adv-x="426" 
d="M280 114v127q-42 -15 -68 -26t-56.5 -29.5t-45.5 -41.5t-15 -51q0 -61 57 -61q37 0 71 23.5t57 58.5zM280 268v67q0 13 -1.5 21.5t-7.5 21.5t-22 20.5t-42 7.5q-60 0 -97 -31q0 -34 -13 -60.5t-35 -26.5q-9 0 -15 6.5t-6 14.5q0 56 64.5 94.5t127.5 38.5q30 0 50.5 -7
t31.5 -16.5t16 -29.5t6 -34.5t1 -42.5v-159q0 -30 1.5 -45t7.5 -34t21 -29.5t40 -15.5l-32 -45q-29 0 -59 28.5t-34 66.5q-31 -36 -77.5 -65.5t-85.5 -29.5q-41 0 -64 25.5t-23 67.5q0 26 13.5 49.5t31 39.5t55.5 36t65 32t82 34zM160 507q-14 0 -23.5 9.5t-9.5 23.5t9.5 24
t23.5 10t23.5 -10t9.5 -24t-9.5 -23.5t-23.5 -9.5zM268 507q-14 0 -23.5 9.5t-9.5 23.5t9.5 24t23.5 10t23.5 -10t9.5 -24t-9.5 -23.5t-23.5 -9.5z" />
    <glyph glyph-name="aring" unicode="&#xe5;" horiz-adv-x="426" 
d="M280 114v127q-42 -15 -68 -26t-56.5 -29.5t-45.5 -41.5t-15 -51q0 -61 57 -61q37 0 71 23.5t57 58.5zM280 268v67q0 13 -1.5 21.5t-7.5 21.5t-22 20.5t-42 7.5q-60 0 -97 -31q0 -34 -13 -60.5t-35 -26.5q-9 0 -15 6.5t-6 14.5q0 56 64.5 94.5t127.5 38.5q30 0 50.5 -7
t31.5 -16.5t16 -29.5t6 -34.5t1 -42.5v-159q0 -30 1.5 -45t7.5 -34t21 -29.5t40 -15.5l-32 -45q-29 0 -59 28.5t-34 66.5q-31 -36 -77.5 -65.5t-85.5 -29.5q-41 0 -64 25.5t-23 67.5q0 26 13.5 49.5t31 39.5t55.5 36t65 32t82 34zM302 559q0 -37 -25.5 -62.5t-62.5 -25.5
t-62.5 25.5t-25.5 62.5t25.5 62.5t62.5 25.5t62.5 -25.5t25.5 -62.5zM275 559q0 25 -17.5 43t-43.5 18t-43.5 -18t-17.5 -43t17.5 -43t43.5 -18t43.5 18t17.5 43z" />
    <glyph glyph-name="ae" unicode="&#xe6;" horiz-adv-x="667" 
d="M280 114v127q-42 -15 -68 -26t-56.5 -29.5t-45.5 -41.5t-15 -51q0 -61 57 -61q37 0 71 23.5t57 58.5zM338 248l225 60q-15 42 -44 74.5t-67 32.5q-50 0 -82 -53t-32 -114zM632 79l14 -15q-75 -80 -183 -80q-116 0 -165 112q-34 -43 -83.5 -77.5t-94.5 -34.5
q-41 0 -64 25.5t-23 67.5q0 26 13.5 49.5t31 39.5t55.5 36t65 32t82 34v67q0 13 -1.5 21.5t-7.5 21.5t-22 20.5t-42 7.5q-60 0 -97 -31q0 -34 -13 -60.5t-35 -26.5q-9 0 -15 6.5t-6 14.5q0 56 64.5 94.5t127.5 38.5q96 0 96 -74h2q51 74 138 74q58 0 97 -37.5t70 -99.5
q-165 -52 -298 -83q4 -87 43.5 -140.5t122.5 -53.5q74 0 128 51z" />
    <glyph glyph-name="ccedilla" unicode="&#xe7;" horiz-adv-x="426" 
d="M391 77l13 -16q-66 -77 -170 -77q-94 0 -146.5 62.5t-52.5 159.5q0 110 66.5 173t148.5 63q62 0 99.5 -32t37.5 -58q0 -11 -7.5 -18t-18.5 -7q-22 0 -39.5 26.5t-23.5 53.5q-17 11 -48 11q-16 0 -33.5 -4t-40 -16t-39.5 -31.5t-30 -54t-14 -79.5q0 -88 45 -146.5
t127 -58.5q76 0 126 49zM217 0h27l-10.5 -14t-12.5 -17.5t-5 -9.5q0 -9 39 -15q70 -12 70 -46q0 -30 -30 -46t-62 -16q-21 0 -43 8t-22 25q0 13 16 13q21 0 38 -27q8 -3 17 -3q17 0 32 9t15 25q0 23 -58 33q-48 8 -48 23t37 58z" />
    <glyph glyph-name="egrave" unicode="&#xe8;" horiz-adv-x="426" 
d="M384 79l14 -15q-75 -80 -183 -80q-88 0 -135.5 63t-47.5 153q0 59 19.5 113t64 91.5t105.5 37.5q58 0 97 -37.5t70 -99.5q-165 -52 -298 -83q4 -87 43.5 -140.5t122.5 -53.5q74 0 128 51zM90 248l225 60q-15 42 -44 74.5t-67 32.5q-50 0 -82 -53t-32 -114zM239 503
l-13 -18q-99 64 -148 86q20 30 28 30q13 0 65.5 -40t67.5 -58z" />
    <glyph glyph-name="eacute" unicode="&#xe9;" horiz-adv-x="426" 
d="M384 79l14 -15q-75 -80 -183 -80q-88 0 -135.5 63t-47.5 153q0 59 19.5 113t64 91.5t105.5 37.5q58 0 97 -37.5t70 -99.5q-165 -52 -298 -83q4 -87 43.5 -140.5t122.5 -53.5q74 0 128 51zM90 248l225 60q-15 42 -44 74.5t-67 32.5q-50 0 -82 -53t-32 -114zM176 485
l-13 18q15 18 67.5 58t65.5 40q8 0 28 -30q-49 -22 -148 -86z" />
    <glyph glyph-name="ecircumflex" unicode="&#xea;" horiz-adv-x="426" 
d="M384 79l14 -15q-75 -80 -183 -80q-88 0 -135.5 63t-47.5 153q0 59 19.5 113t64 91.5t105.5 37.5q58 0 97 -37.5t70 -99.5q-165 -52 -298 -83q4 -87 43.5 -140.5t122.5 -53.5q74 0 128 51zM90 248l225 60q-15 42 -44 74.5t-67 32.5q-50 0 -82 -53t-32 -114zM79 504
q95 39 135 97q40 -58 134 -97q-25 -19 -27 -19q-17 0 -55 21t-52 36q-14 -15 -52 -36t-55 -21q-2 0 -28 19z" />
    <glyph glyph-name="edieresis" unicode="&#xeb;" horiz-adv-x="426" 
d="M384 79l14 -15q-75 -80 -183 -80q-88 0 -135.5 63t-47.5 153q0 59 19.5 113t64 91.5t105.5 37.5q58 0 97 -37.5t70 -99.5q-165 -52 -298 -83q4 -87 43.5 -140.5t122.5 -53.5q74 0 128 51zM90 248l225 60q-15 42 -44 74.5t-67 32.5q-50 0 -82 -53t-32 -114zM160 507
q-14 0 -23.5 9.5t-9.5 23.5t9.5 24t23.5 10t23.5 -10t9.5 -24t-9.5 -23.5t-23.5 -9.5zM268 507q-14 0 -23.5 9.5t-9.5 23.5t9.5 24t23.5 10t23.5 -10t9.5 -24t-9.5 -23.5t-23.5 -9.5z" />
    <glyph glyph-name="igrave" unicode="&#xec;" horiz-adv-x="259" 
d="M158 442v-267q0 -60 1 -88t6.5 -43.5t12 -17.5t22.5 -2h40v-24h-196v24h37q19 0 19 10v279q0 42 -4 62.5t-8.5 23.5t-15.5 3h-53v24q6 0 70 8q62 8 69 8zM165 503l-13 -18q-99 64 -148 86q20 30 28 30q13 0 65.5 -40t67.5 -58z" />
    <glyph glyph-name="iacute" unicode="&#xed;" horiz-adv-x="259" 
d="M158 442v-267q0 -60 1 -88t6.5 -43.5t12 -17.5t22.5 -2h40v-24h-196v24h37q19 0 19 10v279q0 42 -4 62.5t-8.5 23.5t-15.5 3h-53v24q6 0 70 8q62 8 69 8zM82 485l-13 18q15 18 67.5 58t65.5 40q8 0 28 -30q-49 -22 -148 -86z" />
    <glyph glyph-name="icircumflex" unicode="&#xee;" horiz-adv-x="259" 
d="M158 442v-267q0 -60 1 -88t6.5 -43.5t12 -17.5t22.5 -2h40v-24h-196v24h37q19 0 19 10v279q0 42 -4 62.5t-8.5 23.5t-15.5 3h-53v24q6 0 70 8q62 8 69 8zM-30 504q95 39 135 97q40 -58 134 -97q-25 -19 -27 -19q-17 0 -55 21t-52 36q-14 -15 -52 -36t-55 -21q-2 0 -28 19
z" />
    <glyph glyph-name="idieresis" unicode="&#xef;" horiz-adv-x="259" 
d="M158 442v-267q0 -60 1 -88t6.5 -43.5t12 -17.5t22.5 -2h40v-24h-196v24h37q19 0 19 10v279q0 42 -4 62.5t-8.5 23.5t-15.5 3h-53v24q6 0 70 8q62 8 69 8zM56 507q-14 0 -23.5 9.5t-9.5 23.5t9.5 24t23.5 10t23.5 -10t9.5 -24t-9.5 -23.5t-23.5 -9.5zM164 507
q-14 0 -23.5 9.5t-9.5 23.5t9.5 24t23.5 10t23.5 -10t9.5 -24t-9.5 -23.5t-23.5 -9.5z" />
    <glyph glyph-name="eth" unicode="&#xf0;" horiz-adv-x="499" 
d="M105 218q0 -82 39 -143t115 -61q52 0 84 31t42 71t10 92q0 82 -39 143t-115 61q-52 0 -84 -31t-42 -71t-10 -92zM413 692l-94 -73q77 -73 108 -165.5t31 -167.5q0 -148 -59 -223.5t-161 -78.5q-89 0 -142.5 61t-53.5 154q0 64 23 113.5t58 76t71 40t68 13.5q66 0 112 -48
l2 2q-27 115 -95 193l-109 -84l-20 22l109 84q-59 61 -130 79l36 22q77 -26 130 -73l96 75z" />
    <glyph glyph-name="ntilde" unicode="&#xf1;" horiz-adv-x="537" 
d="M152 331v-156q0 -60 1 -88t6.5 -43.5t12 -17.5t22.5 -2h40v-24h-196v24h37q19 0 19 10v279q0 42 -4 62.5t-8.5 23.5t-15.5 3h-53v24q6 0 70 8q62 8 69 8v-80q47 39 86.5 59.5t83.5 20.5q65 0 93 -35.5t28 -88.5v-143q0 -40 0.5 -64t2.5 -42t4 -26t8 -13t11 -5.5t16 -0.5
h40v-24h-196v24h37q19 0 19 10v261q0 102 -83 102q-72 0 -150 -66zM370 578l17 -6q-9 -67 -65 -67q-24 0 -62 15q-47 18 -55 18q-23 0 -38 -28l-17 5q4 27 20.5 43.5t42.5 16.5q24 0 60 -15q39 -15 55 -15q27 0 42 33z" />
    <glyph glyph-name="ograve" unicode="&#xf2;" horiz-adv-x="500" 
d="M42 199q0 64 23 113.5t58 76t71 40t68 13.5q89 0 142.5 -61t53.5 -154q0 -64 -23 -113.5t-58 -76t-71 -40t-68 -13.5q-89 0 -142.5 61t-53.5 154zM105 218q0 -82 39 -143t115 -61q52 0 84 31t42 71t10 92q0 82 -39 143t-115 61q-52 0 -84 -31t-42 -71t-10 -92zM296 503
l-13 -18q-99 64 -148 86q20 30 28 30q13 0 65.5 -40t67.5 -58z" />
    <glyph glyph-name="oacute" unicode="&#xf3;" horiz-adv-x="500" 
d="M42 199q0 64 23 113.5t58 76t71 40t68 13.5q89 0 142.5 -61t53.5 -154q0 -64 -23 -113.5t-58 -76t-71 -40t-68 -13.5q-89 0 -142.5 61t-53.5 154zM105 218q0 -82 39 -143t115 -61q52 0 84 31t42 71t10 92q0 82 -39 143t-115 61q-52 0 -84 -31t-42 -71t-10 -92zM223 485
l-13 18q15 18 67.5 58t65.5 40q8 0 28 -30q-49 -22 -148 -86z" />
    <glyph glyph-name="ocircumflex" unicode="&#xf4;" horiz-adv-x="500" 
d="M42 199q0 64 23 113.5t58 76t71 40t68 13.5q89 0 142.5 -61t53.5 -154q0 -64 -23 -113.5t-58 -76t-71 -40t-68 -13.5q-89 0 -142.5 61t-53.5 154zM105 218q0 -82 39 -143t115 -61q52 0 84 31t42 71t10 92q0 82 -39 143t-115 61q-52 0 -84 -31t-42 -71t-10 -92zM116 504
q95 39 135 97q40 -58 134 -97q-25 -19 -27 -19q-17 0 -55 21t-52 36q-14 -15 -52 -36t-55 -21q-2 0 -28 19z" />
    <glyph glyph-name="otilde" unicode="&#xf5;" horiz-adv-x="500" 
d="M42 199q0 64 23 113.5t58 76t71 40t68 13.5q89 0 142.5 -61t53.5 -154q0 -64 -23 -113.5t-58 -76t-71 -40t-68 -13.5q-89 0 -142.5 61t-53.5 154zM105 218q0 -82 39 -143t115 -61q52 0 84 31t42 71t10 92q0 82 -39 143t-115 61q-52 0 -84 -31t-42 -71t-10 -92zM352 578
l17 -6q-9 -67 -65 -67q-24 0 -62 15q-47 18 -55 18q-23 0 -38 -28l-17 5q4 27 20.5 43.5t42.5 16.5q24 0 60 -15q39 -15 55 -15q27 0 42 33z" />
    <glyph glyph-name="odieresis" unicode="&#xf6;" horiz-adv-x="500" 
d="M42 199q0 64 23 113.5t58 76t71 40t68 13.5q89 0 142.5 -61t53.5 -154q0 -64 -23 -113.5t-58 -76t-71 -40t-68 -13.5q-89 0 -142.5 61t-53.5 154zM105 218q0 -82 39 -143t115 -61q52 0 84 31t42 71t10 92q0 82 -39 143t-115 61q-52 0 -84 -31t-42 -71t-10 -92zM197 507
q-14 0 -23.5 9.5t-9.5 23.5t9.5 24t23.5 10t23.5 -10t9.5 -24t-9.5 -23.5t-23.5 -9.5zM305 507q-14 0 -23.5 9.5t-9.5 23.5t9.5 24t23.5 10t23.5 -10t9.5 -24t-9.5 -23.5t-23.5 -9.5z" />
    <glyph glyph-name="divide" unicode="&#xf7;" 
d="M473 187h-427v52h427v-52zM260 305q-18 0 -29.5 11t-11.5 29t11.5 29t29.5 11t29.5 -11t11.5 -29t-11.5 -29t-29.5 -11zM259 121q18 0 29.5 -11t11.5 -29t-11.5 -29t-29.5 -11t-29.5 11t-11.5 29t11.5 29t29.5 11z" />
    <glyph glyph-name="oslash" unicode="&#xf8;" horiz-adv-x="500" 
d="M149 69l185 306q-35 37 -93 37q-52 0 -84 -31t-42 -71t-10 -92q0 -91 44 -149zM351 357l-186 -307q39 -36 94 -36q52 0 84 31t42 71t10 92q0 93 -44 149zM141 10l-37 -61h-28l45 74q-79 57 -79 176q0 64 23 113.5t58 76t71 40t68 13.5q56 0 98 -25l36 60h28l-44 -73
q78 -61 78 -177q0 -64 -23 -113.5t-58 -76t-71 -40t-68 -13.5q-56 0 -97 26z" />
    <glyph glyph-name="ugrave" unicode="&#xf9;" horiz-adv-x="537" 
d="M13 402v24q6 0 70 8q62 8 69 8v-267q0 -31 0.5 -46t5 -37.5t14 -33t27.5 -18.5t44 -8q74 0 134 65v216q0 42 -4 62.5t-8.5 23.5t-15.5 3h-53v24q6 0 70 8q62 8 69 8v-289q0 -25 0.5 -36.5t4 -29.5t10.5 -27t21 -18t35 -13l-32 -45q-35 4 -59.5 28.5t-32.5 58.5
q-45 -42 -83 -64.5t-82 -22.5q-30 0 -52 8.5t-35 27.5t-20.5 36t-11 48t-4 49.5t-0.5 53.5v106q0 42 -4 62.5t-8.5 23.5t-15.5 3h-53zM294 503l-13 -18q-99 64 -148 86q20 30 28 30q13 0 65.5 -40t67.5 -58z" />
    <glyph glyph-name="uacute" unicode="&#xfa;" horiz-adv-x="537" 
d="M13 402v24q6 0 70 8q62 8 69 8v-267q0 -31 0.5 -46t5 -37.5t14 -33t27.5 -18.5t44 -8q74 0 134 65v216q0 42 -4 62.5t-8.5 23.5t-15.5 3h-53v24q6 0 70 8q62 8 69 8v-289q0 -25 0.5 -36.5t4 -29.5t10.5 -27t21 -18t35 -13l-32 -45q-35 4 -59.5 28.5t-32.5 58.5
q-45 -42 -83 -64.5t-82 -22.5q-30 0 -52 8.5t-35 27.5t-20.5 36t-11 48t-4 49.5t-0.5 53.5v106q0 42 -4 62.5t-8.5 23.5t-15.5 3h-53zM222 485l-13 18q15 18 67.5 58t65.5 40q8 0 28 -30q-49 -22 -148 -86z" />
    <glyph glyph-name="ucircumflex" unicode="&#xfb;" horiz-adv-x="537" 
d="M13 402v24q6 0 70 8q62 8 69 8v-267q0 -31 0.5 -46t5 -37.5t14 -33t27.5 -18.5t44 -8q74 0 134 65v216q0 42 -4 62.5t-8.5 23.5t-15.5 3h-53v24q6 0 70 8q62 8 69 8v-289q0 -25 0.5 -36.5t4 -29.5t10.5 -27t21 -18t35 -13l-32 -45q-35 4 -59.5 28.5t-32.5 58.5
q-45 -42 -83 -64.5t-82 -22.5q-30 0 -52 8.5t-35 27.5t-20.5 36t-11 48t-4 49.5t-0.5 53.5v106q0 42 -4 62.5t-8.5 23.5t-15.5 3h-53zM124 504q95 39 135 97q40 -58 134 -97q-25 -19 -27 -19q-17 0 -55 21t-52 36q-14 -15 -52 -36t-55 -21q-2 0 -28 19z" />
    <glyph glyph-name="udieresis" unicode="&#xfc;" horiz-adv-x="537" 
d="M13 402v24q6 0 70 8q62 8 69 8v-267q0 -31 0.5 -46t5 -37.5t14 -33t27.5 -18.5t44 -8q74 0 134 65v216q0 42 -4 62.5t-8.5 23.5t-15.5 3h-53v24q6 0 70 8q62 8 69 8v-289q0 -25 0.5 -36.5t4 -29.5t10.5 -27t21 -18t35 -13l-32 -45q-35 4 -59.5 28.5t-32.5 58.5
q-45 -42 -83 -64.5t-82 -22.5q-30 0 -52 8.5t-35 27.5t-20.5 36t-11 48t-4 49.5t-0.5 53.5v106q0 42 -4 62.5t-8.5 23.5t-15.5 3h-53zM215 507q-14 0 -23.5 9.5t-9.5 23.5t9.5 24t23.5 10t23.5 -10t9.5 -24t-9.5 -23.5t-23.5 -9.5zM323 507q-14 0 -23.5 9.5t-9.5 23.5
t9.5 24t23.5 10t23.5 -10t9.5 -24t-9.5 -23.5t-23.5 -9.5z" />
    <glyph glyph-name="yacute" unicode="&#xfd;" horiz-adv-x="463" 
d="M2 402v24h182v-24h-49q-16 0 -16 -6q0 -7 132 -318q114 244 114 308q0 8 -3.5 11.5t-7.5 4t-13 0.5h-45v24h167v-24h-34h-6t-4.5 -1t-3 -1.5t-2.5 -3.5t-2.5 -5.5t-3.5 -9t-5 -12.5q-21 -52 -68.5 -165t-114 -263t-86.5 -176q-49 -13 -103 -13q-12 0 -12 12q0 5 16 12
q1 1 12.5 6t16.5 8t18 12t22 19t24 28t28 39t30 52.5t34 69.5l-142 331q-16 36 -25 48.5t-23 12.5h-27zM204 485l-13 18q15 18 67.5 58t65.5 40q8 0 28 -30q-49 -22 -148 -86z" />
    <glyph glyph-name="thorn" unicode="&#xfe;" horiz-adv-x="537" 
d="M161 336v-286q50 -39 109 -39q80 0 122 56t42 141q0 78 -37 132t-111 54q-60 0 -125 -58zM161 19v-91q0 -40 0.5 -64t2.5 -42t4 -26t8 -13t11 -5.5t16 -0.5h40v-24h-196v24h37q19 0 19 10v782q0 42 -4 62.5t-8.5 23.5t-15.5 3h-53v24q67 4 139 23v-338q55 41 89.5 58
t74.5 17q82 0 126 -65.5t44 -152.5q0 -101 -58 -170.5t-157 -69.5q-66 0 -119 35z" />
    <glyph glyph-name="ydieresis" unicode="&#xff;" horiz-adv-x="463" 
d="M2 402v24h182v-24h-49q-16 0 -16 -6q0 -7 132 -318q114 244 114 308q0 8 -3.5 11.5t-7.5 4t-13 0.5h-45v24h167v-24h-34h-6t-4.5 -1t-3 -1.5t-2.5 -3.5t-2.5 -5.5t-3.5 -9t-5 -12.5q-21 -52 -68.5 -165t-114 -263t-86.5 -176q-49 -13 -103 -13q-12 0 -12 12q0 5 16 12
q1 1 12.5 6t16.5 8t18 12t22 19t24 28t28 39t30 52.5t34 69.5l-142 331q-16 36 -25 48.5t-23 12.5h-27zM188 507q-14 0 -23.5 9.5t-9.5 23.5t9.5 24t23.5 10t23.5 -10t9.5 -24t-9.5 -23.5t-23.5 -9.5zM296 507q-14 0 -23.5 9.5t-9.5 23.5t9.5 24t23.5 10t23.5 -10t9.5 -24
t-9.5 -23.5t-23.5 -9.5z" />
    <glyph glyph-name="dotlessi" unicode="&#x131;" horiz-adv-x="259" 
d="M158 442v-267q0 -60 1 -88t6.5 -43.5t12 -17.5t22.5 -2h40v-24h-196v24h37q19 0 19 10v279q0 42 -4 62.5t-8.5 23.5t-15.5 3h-53v24q6 0 70 8q62 8 69 8z" />
    <glyph glyph-name="Lslash" unicode="&#x141;" 
d="M354 427l-173 -127v-127q0 -71 4 -99.5t10.5 -34.5t26.5 -6h64q198 0 218 49q4 10 11 10t7 -7q0 -4 -25 -85h-442v27h41q20 0 20 10v223l-84 -62v38l84 62v176q0 87 -5 110.5t-23 23.5h-59v27h215v-27h-40q-23 0 -23 -10v-261l173 127v-37z" />
    <glyph glyph-name="lslash" unicode="&#x142;" horiz-adv-x="259" 
d="M100 369v200q0 42 -4 62.5t-8.5 23.5t-15.5 3h-53v24q67 4 139 23v-300l71 56v-37l-71 -56v-193q0 -60 1 -88t6.5 -43.5t12 -17.5t22.5 -2h40v-24h-196v24h37q19 0 19 10v298l-73 -58v37z" />
    <glyph glyph-name="OE" unicode="&#x152;" horiz-adv-x="1000" 
d="M550 55v399q0 100 -6 124t-30 24h-77q-128 0 -217.5 -77t-89.5 -199q0 -132 77.5 -212.5t208.5 -80.5h77q38 0 47.5 4t9.5 18zM884 437v-166h-25v37q0 10 -1.5 14t-13.5 7.5t-34 4t-68 0.5h-127v-161q0 -71 4 -99.5t10.5 -34.5t26.5 -6h64q198 0 218 49q4 10 11 10t7 -7
q0 -4 -25 -85h-561q-81 0 -143 27.5t-96.5 72t-51.5 95.5t-17 105q0 105 58.5 183t147.5 115t192 37h473l-10 -69q-3 -17 -9 -17q-8 0 -10 12q-2 18 -30 27q-45 14 -148 14h-74q-37 0 -37 -10v-228h95q69 0 102 4t40 10t7 19v40h25z" />
    <glyph glyph-name="oe" unicode="&#x153;" horiz-adv-x="778" 
d="M42 199q0 64 23 113.5t58 76t71 40t68 13.5q55 -1 98 -28.5t67 -74.5q23 46 65 74.5t92 28.5q58 0 97 -37.5t70 -99.5q-165 -52 -298 -83q4 -87 43.5 -140.5t122.5 -53.5q74 0 128 51l14 -15q-75 -80 -183 -80q-53 0 -96 27.5t-65 76.5q-28 -48 -75.5 -75.5t-103.5 -28.5
q-89 0 -142.5 61t-53.5 154zM105 218q0 -82 39 -143t115 -61q52 0 84 31t42 71t10 92q0 82 -39 143t-115 61q-52 0 -84 -31t-42 -71t-10 -92zM453 248l225 60q-15 42 -44 74.5t-67 32.5q-50 0 -82 -53t-32 -114z" />
    <glyph glyph-name="Scaron" unicode="&#x160;" horiz-adv-x="481" 
d="M394 635v-68q0 -12 -9 -12q-8 0 -10 14q-4 27 -44.5 39.5t-74.5 12.5q-70 0 -106.5 -38t-36.5 -83q0 -48 34 -78.5t82 -48.5t96 -38t82 -59.5t34 -100.5q0 -89 -70 -141.5t-165 -52.5q-82 0 -150 27q-14 86 -14 89q0 11 10 11q11 0 13 -18q8 -37 59.5 -56.5t97.5 -19.5
q69 0 118.5 34.5t49.5 95.5q0 54 -33.5 87.5t-81 51.5t-95.5 37t-81.5 58.5t-33.5 101.5q0 74 67 124t154 50q67 0 108 -19zM106 791q26 19 28 19q17 0 55 -21t52 -36q14 15 52 36t55 21q2 0 27 -19q-94 -39 -134 -97q-40 58 -135 97z" />
    <glyph glyph-name="scaron" unicode="&#x161;" horiz-adv-x="370" 
d="M186 409q-36 0 -68 -21t-32 -57q0 -29 26.5 -46.5t64 -27.5t75 -22t64 -39.5t26.5 -71.5q0 -69 -58 -104.5t-132 -35.5q-59 0 -112 19q-13 82 -13 86q0 9 11 9q7 0 12 -17q5 -26 46.5 -45t82.5 -19q43 0 78.5 24.5t35.5 67.5q0 32 -26 50t-63 27t-73.5 20t-62.5 37
t-26 69q0 52 45.5 91t111.5 39q67 0 112 -21q6 -54 6 -68q0 -7 -7 -7q-6 0 -11 9q-17 27 -41 39q-29 15 -72 15zM51 582q26 19 28 19q17 0 55 -21t52 -36q14 15 52 36t55 21q2 0 27 -19q-94 -39 -134 -97q-40 58 -135 97z" />
    <glyph glyph-name="Ydieresis" unicode="&#x178;" horiz-adv-x="537" 
d="M474 578l-163 -301v-104q0 -69 4 -101.5t10 -38.5t19 -6h56v-27h-215v27h41q20 0 20 10v171v68q-165 276 -178 296q-16 26 -24 31t-25 5h-34v27h205v-27h-46q-17 0 -17 -4t27 -51t75 -128.5t67 -114.5q141 265 141 284q0 10 -3.5 12t-11.5 2h-64v27h179v-27h-34
q-3 0 -5 -1t-4 -1.5t-3.5 -2.5t-3 -3t-3.5 -4.5t-3 -5t-3.5 -6t-3.5 -6.5zM225 716q-14 0 -23.5 9.5t-9.5 23.5t9.5 24t23.5 10t23.5 -10t9.5 -24t-9.5 -23.5t-23.5 -9.5zM333 716q-14 0 -23.5 9.5t-9.5 23.5t9.5 24t23.5 10t23.5 -10t9.5 -24t-9.5 -23.5t-23.5 -9.5z" />
    <glyph glyph-name="Zcaron" unicode="&#x17d;" horiz-adv-x="556" 
d="M515 0h-477q-14 0 -14 6q0 4 18 31l379 565h-54q-263 0 -290 -53q-6 -12 -12 -12q-9 0 -9 9q0 3 24 89h416q11 0 11 -4q0 -3 -7 -14l-387 -584h108q281 0 302 64q4 12 11 12q8 0 8 -8q0 -6 -27 -101zM144 791q26 19 28 19q17 0 55 -21t52 -36q14 15 52 36t55 21
q2 0 27 -19q-94 -39 -134 -97q-40 58 -135 97z" />
    <glyph glyph-name="zcaron" unicode="&#x17e;" horiz-adv-x="426" 
d="M68 426h311q11 0 11 -6q0 -5 -19 -27l-281 -344q109 4 210 5q49 1 63 4.5t19 12.5q5 8 11 8q8 0 8 -8q0 -9 -29 -71h-333q-23 0 -23 10q0 5 44 56q24 28 40 47q7 8 34.5 39.5t40.5 46.5t37 44t39 48t31.5 42.5t27.5 42.5h-151q-77 -2 -93 -23q-8 -10 -13 -10q-9 0 -9 9
q0 2 24 74zM79 582q26 19 28 19q17 0 55 -21t52 -36q14 15 52 36t55 21q2 0 27 -19q-94 -39 -134 -97q-40 58 -135 97z" />
    <glyph glyph-name="florin" unicode="&#x192;" 
d="M292 426h79v-27h-84l-75 -379q-16 -79 -45 -136t-64 -84t-65 -38.5t-59 -11.5q-22 0 -43.5 8.5t-21.5 26.5q0 12 10.5 19t23.5 7q30 0 50 -34q26 3 45 12t40.5 32t38.5 69.5t31 116.5l77 392h-64v27h68q9 44 18.5 78t26.5 72.5t38.5 63.5t54 42t72.5 17q56 0 56 -31
q0 -21 -31 -21q-25 0 -46 25q-50 -3 -74.5 -44.5t-42.5 -131.5z" />
    <glyph glyph-name="circumflex" unicode="&#x2c6;" horiz-adv-x="259" 
d="M-5 504q95 39 135 97q40 -58 134 -97q-25 -19 -27 -19q-17 0 -55 21t-52 36q-14 -15 -52 -36t-55 -21q-2 0 -28 19z" />
    <glyph glyph-name="caron" unicode="&#x2c7;" horiz-adv-x="259" 
d="M-5 582q26 19 28 19q17 0 55 -21t52 -36q14 15 52 36t55 21q2 0 27 -19q-94 -39 -134 -97q-40 58 -135 97z" />
    <glyph glyph-name="breve" unicode="&#x2d8;" horiz-adv-x="259" 
d="M19 596h24q-1 -33 26 -50.5t61 -17.5t61 17.5t26 50.5h24q3 -48 -29.5 -76.5t-81.5 -28.5t-81.5 28.5t-29.5 76.5z" />
    <glyph glyph-name="dotaccent" unicode="&#x2d9;" horiz-adv-x="259" 
d="M130 507q-14 0 -23.5 9.5t-9.5 23.5t9.5 24t23.5 10t23.5 -10t9.5 -24t-9.5 -23.5t-23.5 -9.5z" />
    <glyph glyph-name="ring" unicode="&#x2da;" horiz-adv-x="259" 
d="M218 559q0 -37 -25.5 -62.5t-62.5 -25.5t-62.5 25.5t-25.5 62.5t25.5 62.5t62.5 25.5t62.5 -25.5t25.5 -62.5zM191 559q0 25 -17.5 43t-43.5 18t-43.5 -18t-17.5 -43t17.5 -43t43.5 -18t43.5 18t17.5 43z" />
    <glyph glyph-name="ogonek" unicode="&#x2db;" horiz-adv-x="259" 
d="M148 0h39q-47 -23 -67 -41t-20 -44q0 -19 13 -31.5t33 -12.5t48 11l-9 -22q-28 -10 -55 -10q-31 0 -53.5 15t-22.5 45q0 33 28.5 56t65.5 34z" />
    <glyph glyph-name="tilde" unicode="&#x2dc;" horiz-adv-x="259" 
d="M231 578l17 -6q-9 -67 -65 -67q-25 0 -62 15q-47 18 -55 18q-23 0 -38 -28l-17 5q4 27 20.5 43.5t42.5 16.5q24 0 60 -15q39 -15 55 -15q27 0 42 33z" />
    <glyph glyph-name="hungarumlaut" unicode="&#x2dd;" horiz-adv-x="259" 
d="M42 475l-18 12q9 25 45.5 82t49.5 57q9 0 33 -19q-45 -43 -110 -132zM146 475l-18 12q9 25 45.5 82t49.5 57q9 0 33 -19q-45 -43 -110 -132z" />
    <glyph glyph-name="endash" unicode="&#x2013;" horiz-adv-x="500" 
d="M0 187v52h500v-52h-500z" />
    <glyph glyph-name="emdash" unicode="&#x2014;" horiz-adv-x="1000" 
d="M0 187v52h1000v-52h-1000z" />
    <glyph glyph-name="quoteleft" unicode="&#x2018;" horiz-adv-x="185" 
d="M114 654l14 -15q-58 -50 -58 -99q0 -28 20 -36q12 4 20 4q15 0 24.5 -9t9.5 -24q0 -16 -10.5 -25t-26.5 -9q-29 0 -48 28.5t-19 58.5q0 74 74 126z" />
    <glyph glyph-name="quoteright" unicode="&#x2019;" horiz-adv-x="185" 
d="M71 441l-14 15q58 50 58 99q0 28 -20 36q-12 -4 -20 -4q-15 0 -24.5 9t-9.5 24q0 16 10.5 25t26.5 9q29 0 48 -28.5t19 -58.5q0 -74 -74 -126z" />
    <glyph glyph-name="quotesinglbase" unicode="&#x201a;" horiz-adv-x="185" 
d="M71 -159l-14 15q58 50 58 99q0 28 -20 36q-12 -4 -20 -4q-15 0 -24.5 9t-9.5 24q0 16 10.5 25t26.5 9q29 0 48 -28.5t19 -58.5q0 -74 -74 -126z" />
    <glyph glyph-name="quotedblleft" unicode="&#x201c;" horiz-adv-x="352" 
d="M275 654l14 -15q-58 -50 -58 -99q0 -28 20 -36q12 4 20 4q15 0 24.5 -9t9.5 -24q0 -16 -10.5 -25t-26.5 -9q-29 0 -48 28.5t-19 58.5q0 74 74 126zM121 654l14 -15q-58 -50 -58 -99q0 -28 20 -36q12 4 20 4q15 0 24.5 -9t9.5 -24q0 -16 -10.5 -25t-26.5 -9
q-29 0 -48 28.5t-19 58.5q0 74 74 126z" />
    <glyph glyph-name="quotedblright" unicode="&#x201d;" horiz-adv-x="352" 
d="M77 441l-14 15q58 50 58 99q0 28 -20 36q-12 -4 -20 -4q-15 0 -24.5 9t-9.5 24q0 16 10.5 25t26.5 9q29 0 48 -28.5t19 -58.5q0 -74 -74 -126zM231 441l-14 15q58 50 58 99q0 28 -20 36q-12 -4 -20 -4q-15 0 -24.5 9t-9.5 24q0 16 10.5 25t26.5 9q29 0 48 -28.5t19 -58.5
q0 -74 -74 -126z" />
    <glyph glyph-name="quotedblbase" unicode="&#x201e;" horiz-adv-x="352" 
d="M77 -159l-14 15q58 50 58 99q0 28 -20 36q-12 -4 -20 -4q-15 0 -24.5 9t-9.5 24q0 16 10.5 25t26.5 9q29 0 48 -28.5t19 -58.5q0 -74 -74 -126zM231 -159l-14 15q58 50 58 99q0 28 -20 36q-12 -4 -20 -4q-15 0 -24.5 9t-9.5 24q0 16 10.5 25t26.5 9q29 0 48 -28.5
t19 -58.5q0 -74 -74 -126z" />
    <glyph glyph-name="dagger" unicode="&#x2020;" horiz-adv-x="500" 
d="M263 -66h-26q0 22 2 69t2 62q0 48 -1.5 77.5t-10.5 70.5t-26 72q37 54 37 170q-80 -5 -143 -35q-9 27 -34 45q25 18 34 45q62 -30 143 -35q0 88 -33 141q31 14 43 38q12 -24 43 -38q-33 -53 -33 -141q81 5 143 35q9 -27 34 -45q-25 -18 -34 -45q-63 30 -143 35
q0 -116 37 -170q-17 -31 -26 -72t-10.5 -70.5t-1.5 -77.5q0 -15 2 -62t2 -69z" />
    <glyph glyph-name="daggerdbl" unicode="&#x2021;" horiz-adv-x="500" 
d="M265 -66h-30q4 10 4 32q0 117 -28 188q29 39 29 97q-80 -2 -139 -27q-8 19 -29 37q21 18 29 37q59 -25 139 -27q0 47 -6.5 71.5t-22.5 51.5q29 45 29 104q-80 -2 -139 -27q-8 19 -29 37q21 18 29 37q59 -25 139 -27q0 47 -28 101q23 14 38 35q15 -21 38 -35
q-28 -54 -28 -101q80 2 139 27q8 -19 29 -37q-21 -18 -29 -37q-59 25 -139 27q0 -59 29 -104q-16 -27 -22.5 -51.5t-6.5 -71.5q80 2 139 27q8 -19 29 -37q-21 -18 -29 -37q-59 25 -139 27q0 -58 29 -97q-28 -71 -28 -188q0 -22 4 -32z" />
    <glyph glyph-name="bullet" unicode="&#x2022;" horiz-adv-x="500" 
d="M117 317q0 55 39 94t94 39t94 -39t39 -94t-39 -94t-94 -39t-94 39t-39 94z" />
    <glyph glyph-name="ellipsis" unicode="&#x2026;" horiz-adv-x="1000" 
d="M167 -13q-18 0 -29.5 11t-11.5 29t11.5 29t29.5 11t29.5 -11t11.5 -29t-11.5 -29t-29.5 -11zM500 -13q-18 0 -29.5 11t-11.5 29t11.5 29t29.5 11t29.5 -11t11.5 -29t-11.5 -29t-29.5 -11zM833 -13q-18 0 -29.5 11t-11.5 29t11.5 29t29.5 11t29.5 -11t11.5 -29t-11.5 -29
t-29.5 -11z" />
    <glyph glyph-name="perthousand" unicode="&#x2030;" horiz-adv-x="1111" 
d="M187 311q-62 0 -100 47.5t-38 111.5q0 77 45.5 130.5t120.5 53.5q62 0 100 -47.5t38 -111.5q0 -77 -45.5 -130.5t-120.5 -53.5zM205 338q48 0 73.5 35.5t25.5 96.5q0 22 -4.5 45.5t-14.5 50.5t-33 44t-55 17q-48 0 -73.5 -35.5t-25.5 -96.5q0 -22 4.5 -45.5t14.5 -50.5
t33 -44t55 -17zM535 -19q-62 0 -100 47.5t-38 111.5q0 77 45.5 130.5t120.5 53.5q62 0 100 -47.5t38 -111.5q0 -77 -45.5 -130.5t-120.5 -53.5zM553 8q48 0 73.5 35.5t25.5 96.5q0 22 -4.5 45.5t-14.5 50.5t-33 44t-55 17q-48 0 -73.5 -35.5t-25.5 -96.5q0 -22 4.5 -45.5
t14.5 -50.5t33 -44t55 -17zM896 -19q-62 0 -100 47.5t-38 111.5q0 77 45.5 130.5t120.5 53.5q62 0 100 -47.5t38 -111.5q0 -77 -45.5 -130.5t-120.5 -53.5zM914 8q48 0 73.5 35.5t25.5 96.5q0 22 -4.5 45.5t-14.5 50.5t-33 44t-55 17q-48 0 -73.5 -35.5t-25.5 -96.5
q0 -22 4.5 -45.5t14.5 -50.5t33 -44t55 -17zM564 677h38q-80 -89 -192 -322.5t-144 -381.5l-53 -20q19 117 150 381.5t201 342.5z" />
    <glyph glyph-name="guilsinglleft" unicode="&#x2039;" horiz-adv-x="333" 
d="M216 407l27 -14q-34 -106 -98 -180q64 -74 98 -180l-27 -14q-42 118 -153 194q111 76 153 194z" />
    <glyph glyph-name="guilsinglright" unicode="&#x203a;" horiz-adv-x="333" 
d="M117 19l-27 14q34 106 98 180q-64 74 -98 180l27 14q42 -118 153 -194q-111 -76 -153 -194z" />
    <glyph glyph-name="fraction" unicode="&#x2044;" horiz-adv-x="167" 
d="M267 679h38q-80 -89 -192 -322.5t-144 -381.5l-53 -20q19 117 150 381.5t201 342.5z" />
    <glyph glyph-name="fraction" unicode="&#x2215;" horiz-adv-x="167" 
d="M267 679h38q-80 -89 -192 -322.5t-144 -381.5l-53 -20q19 117 150 381.5t201 342.5z" />
    <glyph glyph-name="Euro" unicode="&#x20ac;" 
d="M478 529h-17q-7 46 -42.5 69.5t-90.5 23.5q-88 0 -129 -60.5t-51 -180.5h279l-12 -30h-269q-1 -8 -1 -29v-33h243l-12 -29h-229q8 -120 54 -183.5t127 -63.5q52 0 88.5 23t44.5 73h17l-4 -68q-46 -59 -157 -59q-211 0 -231 278h-66l13 29h50q-1 8 -1 33q0 21 1 29h-63
l13 30h52q13 138 66 205.5t166 67.5q114 0 157 -56z" />
    <glyph glyph-name="trademark" unicode="&#x2122;" horiz-adv-x="990" 
d="M252 611v-249q0 -56 3 -67t18 -11h40v-22h-173v22h42q10 0 10 9v318q-107 0 -125 -33q-6 -14 -12 -14q-8 0 -8 7q1 10 20 64h310q19 -54 20 -64q0 -7 -8 -7q-6 0 -12 14q-18 33 -125 33zM488 291v248q0 19 -1 29.5t-4.5 22.5t-12 17t-22.5 5h-18v22h113l129 -264l111 264
h104v-22h-29q-10 0 -10 -10v-238q0 -58 3 -69.5t18 -11.5h33v-22h-153v22h29q7 0 8.5 3t1.5 16v273h-2l-131 -310h-2l-137 299h-2v-163q0 -86 3 -102t20 -16h31v-22h-119v22h28q11 0 11 7z" />
    <glyph glyph-name="minus" unicode="&#x2212;" 
d="M46 187v52h427v-52h-427z" />
    <glyph glyph-name="fi" unicode="&#xfb01;" horiz-adv-x="537" 
d="M160 426h134q6 0 70 8q62 8 69 8v-267q0 -40 0.5 -64t2.5 -42t4 -26t8 -13t11 -5.5t16 -0.5h40v-24h-196v24h37q19 0 19 10v279q0 42 -4 62.5t-8.5 23.5t-15.5 3h-187v-227q0 -60 1 -88t6.5 -43.5t12 -17.5t22.5 -2h49v-24h-205v24h37q19 0 19 10v368h-60v24h60v106
q0 51 18.5 88t48.5 56t60 27.5t59 8.5q34 0 61 -5.5t41.5 -12.5t24 -16t12.5 -15.5t3 -10.5q0 -22 -27 -22q-30 0 -56 39q-19 16 -58 16q-63 0 -96 -35t-33 -87v-137z" />
    <glyph glyph-name="fl" unicode="&#xfb02;" horiz-adv-x="537" 
d="M42 402v24h60v143q0 39 14 67.5t32.5 42.5t44.5 22t41.5 9.5t32.5 1.5q53 0 102 -22l67 15v-530q0 -60 1 -88t6.5 -43.5t12 -17.5t22.5 -2h40v-24h-196v24h37q19 0 19 10v539q0 23 -3.5 39.5t-14.5 34.5t-36 28t-63 10q-14 0 -28.5 -3.5t-32 -13t-29 -30.5t-11.5 -51
v-161h81v-24h-81v-227q0 -60 1 -88t6.5 -43.5t12 -17.5t22.5 -2h40v-24h-196v24h37q19 0 19 10v368h-60z" />
    </font>
</defs>
</svg>
