<?xml version="1.0" standalone="no"?>
<!DOCTYPE svg PUBLIC "-//W3C//DTD SVG 1.1//EN" "http://www.w3.org/Graphics/SVG/1.1/DTD/svg11.dtd" >
<svg xmlns="http://www.w3.org/2000/svg" xmlns:xlink="http://www.w3.org/1999/xlink" version="1.1">
<metadata>
Created by FontForge 20170731 at Sat Dec 24 00:08:13 2022
 By Aleksey,,,
Copyright (c) 2014 by International TypeFounders, Inc. All rights reserved.
</metadata>
<defs>
<font id="ByronRR-Medium" horiz-adv-x="1488" >
  <font-face 
    font-family="ByronRR Medium"
    font-weight="500"
    font-stretch="normal"
    units-per-em="2048"
    panose-1="2 0 5 0 0 0 0 0 0 0"
    ascent="1638"
    descent="-410"
    x-height="559"
    cap-height="1368"
    bbox="-635 -449 2841 1665"
    underline-thickness="75"
    underline-position="-314"
    unicode-range="U+000D-FB02"
  />
<missing-glyph horiz-adv-x="1024" 
d="M895 0h-768v1561h768v-1561zM256 1432v-1305h512v1305h-512z" />
    <glyph glyph-name=".notdef" horiz-adv-x="1024" 
d="M895 0h-768v1561h768v-1561zM256 1432v-1305h512v1305h-512z" />
    <glyph glyph-name=".null" horiz-adv-x="0" 
 />
    <glyph glyph-name="nonmarkingreturn" horiz-adv-x="682" 
 />
    <glyph glyph-name="NULL" horiz-adv-x="0" 
 />
    <glyph glyph-name="NULL" horiz-adv-x="0" 
 />
    <glyph glyph-name="CR" unicode="&#xd;" horiz-adv-x="272" 
 />
    <glyph glyph-name="space" unicode=" " horiz-adv-x="272" 
 />
    <glyph glyph-name="space" unicode="&#xa0;" horiz-adv-x="272" 
 />
    <glyph glyph-name="exclam" unicode="!" horiz-adv-x="770" 
d="M688 795q0 -18 -22 -52l-340 -550q-13 -23 -37 -23q-33 0 -33 31q0 13 10 30l285 557q12 24 12 52v12q0 29 27 29q30 0 57 -27q41 -30 41 -59zM281 63q0 -65 -64 -65q-28 0 -47.5 18.5t-19.5 44.5q0 28 19.5 48t45.5 20q27 0 46.5 -19.5t19.5 -46.5z" />
    <glyph glyph-name="quotedbl" unicode="&#x22;" horiz-adv-x="366" 
d="M776 1329l-4 -24l-115 -238h-39l60 264q9 47 51 47q47 0 47 -49zM567 1329l-4 -24l-114 -238h-39l59 264q9 47 51 47q47 0 47 -49z" />
    <glyph glyph-name="numbersign" unicode="#" horiz-adv-x="780" 
d="M815 659h170l-33 -61h-168l-133 -248h170l-33 -61h-167l-162 -305h-66l162 305h-184l-160 -305h-68l162 305h-168l31 61h170l131 248h-170l33 61h170l147 279h66l-148 -279h183l147 279h66zM586 350l131 248h-182l-132 -248h183z" />
    <glyph glyph-name="dollar" unicode="$" horiz-adv-x="940" 
d="M1104 932q0 -52 -33.5 -87.5t-83.5 -35.5q-41 0 -41 20q0 13 15 13h14q88 0 88 86q0 95 -121 147l-215 -381l51 -71q90 -134 90 -261q0 -162 -123 -276q-120 -111 -299 -111q-50 0 -108 15l-8 2l-119 -213q-7 -10 -18 -10q-15 0 -15 12q0 9 10 24l113 197
q-205 73 -205 225q0 65 33.5 105.5t87.5 40.5q38 0 66 -27t28 -65q0 -27 -16 -27q-10 0 -16 25q-9 61 -60 61q-37 0 -62.5 -30.5t-25.5 -73.5q0 -132 188 -197l318 559q-115 161 -115 268q0 114 86 191q87 78 217 78q46 0 105 -17l67 119q7 14 21 14t14 -12q0 -1 -2 -6
t-4 -8l-65 -117q143 -58 143 -176zM705 721l206 366q-50 11 -75 11q-98 0 -164 -51q-66 -54 -66 -125q0 -73 84 -183zM752 322q0 93 -60 190l-30 47l-7 10l-303 -540q37 -6 62 -6q146 0 241 83q97 84 97 216z" />
    <glyph glyph-name="percent" unicode="%" horiz-adv-x="915" 
d="M506 709q0 -97 -76 -170q-73 -76 -170 -76q-71 0 -114.5 45.5t-43.5 118.5q0 88 64 155q65 68 145 68q45 0 45 -23q0 -16 -18 -16h-12q-55 0 -101 -70q-41 -68 -41 -155q0 -90 66 -90q26 0 51 14q52 32 90 104q37 70 37 142q0 52 -37 82q-18 15 -18 22q0 14 18 14
q30 0 60 -30q55 -58 55 -135zM754 993q0 -6 -4 -14l-523 -1133q-9 -20 -26 -20q-19 0 -19 16q0 11 6 23l521 1128q9 21 26 21q19 0 19 -21zM862 238q0 -97 -76 -170q-76 -76 -172 -76q-69 0 -113 45.5t-44 118.5q0 89 63 155q65 68 146 68q47 0 47 -23q0 -13 -31 -16
q-55 0 -100 -70q-43 -67 -43 -155q0 -90 67 -90q23 0 51 14q50 30 88 102q39 76 39 138q0 5 -8 51q-3 9 -31 37q-16 11 -16 22q0 14 19 14q27 0 57 -30q57 -57 57 -135z" />
    <glyph glyph-name="ampersand" unicode="&#x26;" horiz-adv-x="925" 
d="M897 51q0 -19 -31.5 -33t-74.5 -14q-86 0 -162 49q-106 -78 -228 -78q-102 0 -170 56q-67 58 -67 143q0 147 229 217l21 6q-8 74 -8 86q0 116 59 193q60 78 145 78q62 0 109 -47q43 -46 43 -117q0 -152 -227 -201q36 -141 137 -242q114 111 114 234q0 19 -3 36t-3 19
q-3 19 15 19q23 0 26 -72q0 -138 -119 -266l3 -2q78 -60 129 -60q11 0 25.5 5.5t19.5 5.5q15 0 18 -15zM692 643q0 70 -57 70q-47 0 -82 -62q-35 -57 -35 -151q0 -41 6 -68q74 27 121 86t47 125zM590 84l-4 4q-92 92 -158 254l-4 10q-137 -59 -137 -159q0 -61 49 -107
q49 -43 121 -43q68 0 133 41z" />
    <glyph glyph-name="quotesingle" unicode="'" horiz-adv-x="157" 
d="M567 1329l-4 -24l-114 -238h-39l59 264q9 47 51 47q47 0 47 -49z" />
    <glyph glyph-name="parenleft" unicode="(" horiz-adv-x="376" 
d="M842 1061q0 -15 -72 -43q-187 -71 -309 -182q-150 -135 -252 -332q-103 -193 -103 -354q0 -75 21 -158q4 -20 4 -21v-2q0 -12 -12 -12q-17 0 -25 16q-53 86 -53 269q0 524 571 764q163 69 215 69q15 0 15 -14z" />
    <glyph glyph-name="parenright" unicode=")" horiz-adv-x="636" 
d="M637 791q0 -521 -571 -764q-162 -70 -216 -70q-14 0 -14 12q0 15 72 43q175 66 309 185q150 135 252 331t102 355q0 62 -20 157l-4 21v2q0 12 12 12q15 0 25 -16q53 -83 53 -268z" />
    <glyph glyph-name="asterisk" unicode="*" horiz-adv-x="438" 
d="M713 948q0 -28 -45 -37l-207 -49l22 -178q0 -33 -30 -33q-29 0 -29 41v152l-184 -148q-19 -16 -37 -16q-25 0 -25 27q0 24 35 45l186 118l-131 50q-28 12 -28 30q0 25 24 25q16 0 31 -6l133 -70l53 186q6 23 17.5 35.5t25.5 12.5q27 0 27 -29q0 -12 -6 -27l-74 -172
l180 66q15 6 31 6q31 0 31 -29z" />
    <glyph glyph-name="plus" unicode="+" horiz-adv-x="790" 
d="M791 322q0 -14 -15 -24.5t-33 -10.5h-264l-170 -267q-14 -26 -41 -26q-12 0 -12 10q0 7 6 16l168 267h-262q-18 0 -18 10q0 14 16 25.5t29 11.5h266l168 262q19 31 43 31q12 0 12 -13q0 -6 -4 -14l-172 -266h266q17 0 17 -12z" />
    <glyph glyph-name="comma" unicode="," horiz-adv-x="372" 
d="M223 66q0 -100 -117 -164q-80 -45 -135 -45q-26 0 -26 16q0 14 28 23q146 50 146 108q0 15 -6 27l-11 22q-6 12 -6 25q0 59 62 59q28 0 46.5 -21t18.5 -50z" />
    <glyph glyph-name="hyphen" unicode="-" horiz-adv-x="614" 
d="M614 362q0 -29 -29 -49t-73 -20q-24 0 -86 12t-90 12q-72 0 -115 -32q-16 -13 -24 -13q-13 0 -13 17q0 33 45 53q48 25 107 25q23 0 31 -2q8 0 71 -13q44 -10 82 -10q35 0 53 18l19 19q4 4 8 4q14 0 14 -21z" />
    <glyph glyph-name="hyphen" unicode="&#x2010;" horiz-adv-x="614" 
d="M614 362q0 -29 -29 -49t-73 -20q-24 0 -86 12t-90 12q-72 0 -115 -32q-16 -13 -24 -13q-13 0 -13 17q0 33 45 53q48 25 107 25q23 0 31 -2q8 0 71 -13q44 -10 82 -10q35 0 53 18l19 19q4 4 8 4q14 0 14 -21z" />
    <glyph glyph-name="period" unicode="." horiz-adv-x="335" 
d="M186 61q0 -26 -19.5 -45.5t-45.5 -19.5q-66 0 -66 65q0 66 66 66q27 0 46 -19.5t19 -46.5z" />
    <glyph glyph-name="slash" unicode="/" horiz-adv-x="544" 
d="M1296 1366q0 -6 -8 -18l-1229 -1342q-12 -12 -24 -12q-21 0 -21 16q0 12 13 25l1226 1339q12 12 25 12q18 0 18 -20z" />
    <glyph glyph-name="zero" unicode="0" horiz-adv-x="794" 
d="M766 635q0 -234 -186 -447q-77 -89 -179 -149q-95 -59 -170 -59q-86 0 -145 65q-59 68 -59 162q0 195 188 436q177 223 344 223q95 0 151 -62t56 -169zM672 723q0 102 -92 102q-87 0 -201 -147q-105 -134 -184 -303q-76 -162 -76 -256q0 -40 26.5 -69.5t63.5 -29.5
q102 0 237 191q226 317 226 512z" />
    <glyph glyph-name="one" unicode="1" horiz-adv-x="516" 
d="M625 815q0 -6 -13 -22q-199 -255 -376 -582q-79 -147 -115 -188q-28 -31 -96 -31q-52 0 -52 22q0 11 11 33l26 37l393 598q-20 -15 -30 -25q-51 -33 -156 -98q-88 -55 -154 -55q-57 0 -57 20q0 19 88 56q48 20 164 86q143 83 166 100l125 88q9 6 18 6q8 0 29 -12
q29 -23 29 -33z" />
    <glyph glyph-name="two" unicode="2" horiz-adv-x="774" 
d="M748 688q0 -195 -256 -305l-211 -90q-84 -35 -140 -74q-78 -55 -116 -160q89 62 172 62q48 0 112 -25l97 -39q22 -10 49 -10q41 0 82 35q22 16 28 16q15 0 15 -14q0 -17 -41 -47q-89 -68 -154 -68q-56 0 -129 33q-113 49 -145 49q-42 0 -68 -26l-23 -21q-9 -6 -14 -6
q-20 0 -20 37q0 156 237 297l185 110q231 138 231 299q0 51 -30.5 82t-78.5 31q-44 0 -94 -29q-73 -46 -125 -116q-51 -68 -51 -129q0 -66 57 -66q27 0 27 -14q0 -23 -55 -23q-51 0 -88 37q-37 40 -37 94q0 110 106 199q109 86 246 86q103 0 166 -57q66 -57 66 -148z" />
    <glyph glyph-name="three" unicode="3" horiz-adv-x="708" 
d="M680 729q0 -71 -76 -141q-72 -69 -180 -96h8q195 0 195 -158q0 -133 -140 -246q-141 -108 -317 -108q-98 0 -162 45q-63 45 -63 118q0 40 28 88q16 25 29 25q6 0 8 -2q6 -6 6 -12q0 -3 -4 -11q-30 -55 -30 -86q0 -51 41.5 -81.5t107.5 -30.5q119 0 229 88
q142 112 142 229q0 109 -117 109q-31 0 -68 -13q-18 -6 -24 -6q-17 0 -17 15q0 7 48 32q103 47 161 95q90 75 90 174q0 96 -104 96q-70 0 -129 -59q-47 -50 -47 -93q0 -6 8 -30q8 -16 8 -21q0 -12 -20 -12q-28 0 -55 27q-29 29 -29 65q0 67 76 113q76 49 176 49
q97 0 157 -45q64 -46 64 -117z" />
    <glyph glyph-name="four" unicode="4" horiz-adv-x="651" 
d="M705 346q0 -6 -15 -24q-60 -54 -170 -54q-66 0 -153 23l-136 -254q-27 -47 -104 -47q-35 0 -35 20q0 9 8 17l13 20l176 264l-6 2q-56 17 -103 17q-46 0 -110 -21q-40 -12 -43 -12q-27 0 -27 22q0 12 16 31q128 166 205 285l109 168q42 68 67 86q41 26 84 26q33 0 33 -22
t-16 -43q-105 -168 -267 -330l-151 -151l8 4q100 33 164 33q40 0 90 -13h4l227 291q15 21 27 21q16 0 16 -17q0 -6 -8 -22l-190 -287l6 -2q113 -49 178 -49q34 0 76 20q9 6 18 6t9 -8z" />
    <glyph glyph-name="five" unicode="5" horiz-adv-x="716" 
d="M772 891q0 -10 -10 -27q-73 -110 -207 -110q-75 0 -149 47l-150 -213q96 41 168 41q93 0 156 -60q61 -58 61 -151q0 -187 -166 -328q-128 -110 -274 -110q-89 0 -145 46t-56 121q0 53 27 91q14 20 28 20q13 0 13 -12q0 -1 -11 -27q-20 -33 -20 -72q0 -47 37 -77
q33 -33 86 -33q103 0 207 104q147 144 147 314q0 57 -31.5 92t-83.5 35q-94 0 -192 -64q-36 -22 -45 -22q-17 0 -17 14q0 1 1 2.5t2 4.5t2 5l8 10l248 342q1 2 4 6.5t5 7t6 5t9 2.5q10 0 23 -8q79 -43 135 -43q69 0 117 28l32 21q20 8 25 8q10 0 10 -10z" />
    <glyph glyph-name="six" unicode="6" horiz-adv-x="751" 
d="M848 752q0 -11 -12 -11q-8 0 -21 13q-56 71 -139 71q-70 0 -146 -43q-112 -62 -219 -227l-4 -8q100 63 178 63q89 0 150 -61t61 -150q0 -166 -127 -293q-123 -126 -288 -126q-102 0 -164 65q-62 68 -62 174q0 119 66 260q67 140 174 244q165 162 348 162q102 0 168 -72
q37 -40 37 -61zM582 428q0 63 -31.5 103t-81.5 40q-78 0 -152 -71q-71 -71 -116 -170q-47 -103 -47 -185q0 -52 29.5 -87t72.5 -35q88 0 176 94q69 72 107 155q43 87 43 156z" />
    <glyph glyph-name="seven" unicode="7" horiz-adv-x="636" 
d="M788 860l-2 -10q-37 -37 -96 -94q-68 -62 -155 -172q-159 -197 -211 -293q-56 -103 -56 -195q0 -25 4 -43l11 -35v-6q0 -22 -33 -45q-52 -37 -66 -37q-47 0 -47 117q0 260 338 574l195 178l-6 -2q-73 -31 -140 -31q-80 0 -135 27l-51 24q-23 10 -41 10q-70 0 -70 -82
q0 -26 9 -38l4 -7q2 -2 2 -6q0 -8 -13 -8q-39 0 -39 70q0 58 43 98q43 43 105 43q40 0 90 -12l115 -29q66 -8 78 -8q59 0 102 22q3 2 13.5 8t17.5 9q3 1 6.5 1.5l3.5 0.5q24 0 24 -29z" />
    <glyph glyph-name="eight" unicode="8" horiz-adv-x="735" 
d="M735 702q0 -135 -207 -188l-16 -4l6 -8q98 -128 98 -232q0 -118 -102 -204q-100 -86 -235 -86q-123 0 -201 63q-78 66 -78 164q0 111 86 194q88 85 248 115l10 2q-74 92 -74 168q0 86 70 141q67 58 172 58q92 0 158 -54q65 -53 65 -129zM649 715q0 54 -35 92
q-34 37 -88 37t-90 -39q-37 -40 -37 -96q0 -74 90 -164q160 62 160 170zM487 250q0 43 -18 90q-22 60 -98 145q-119 -34 -187.5 -108t-68.5 -170q0 -78 45 -129q47 -53 112 -53q90 0 152 65q63 66 63 160z" />
    <glyph glyph-name="nine" unicode="9" horiz-adv-x="831" 
d="M805 641q0 -156 -90 -315q-86 -155 -238 -260q-127 -86 -260 -86q-92 0 -174 57q-43 30 -43 55q0 12 12 12q11 0 17 -6q75 -69 153 -69q91 0 197 77q101 76 170 201q-83 -57 -168 -57q-87 0 -148 67q-59 68 -59 162q0 166 137 291q120 111 258 111q105 0 170 -68
q66 -69 66 -172zM715 723q0 111 -99 111q-78 0 -153 -72q-80 -74 -129 -172q-51 -96 -51 -178q0 -49 32 -86q30 -37 76 -37q89 0 174 98q150 173 150 336z" />
    <glyph glyph-name="colon" unicode=":" horiz-adv-x="595" 
d="M444 434q0 -26 -18.5 -45.5t-44.5 -19.5q-66 0 -66 65q0 26 19 46t45 20q27 0 46 -19.5t19 -46.5zM213 61q0 -26 -20 -45.5t-46 -19.5q-65 0 -65 65q0 66 65 66q27 0 46.5 -19.5t19.5 -46.5z" />
    <glyph glyph-name="semicolon" unicode=";" horiz-adv-x="608" 
d="M457 428q0 -26 -19 -46t-45 -20q-67 0 -67 66q0 26 19.5 46t45.5 20q27 0 46.5 -19.5t19.5 -46.5zM223 66q0 -100 -117 -164q-80 -45 -135 -45q-26 0 -26 16q0 14 28 23q146 50 146 110q0 13 -6 25l-11 22q-6 12 -6 25q0 59 62 59q28 0 46.5 -21t18.5 -50z" />
    <glyph glyph-name="less" unicode="&#x3c;" horiz-adv-x="409" 
d="M223 682l99 -96l-21 -19l-96 97l-96 -97l-21 19l98 96l-98 96l21 21l96 -97l96 97l21 -21z" />
    <glyph glyph-name="equal" unicode="=" horiz-adv-x="851" 
d="M879 412q0 -14 -16 -25.5t-32 -11.5h-575q-18 0 -18 12q0 14 16 25.5t29 11.5h579q17 0 17 -12zM764 231q0 -12 -16.5 -24t-30.5 -12h-576q-18 0 -18 12q0 14 14.5 24.5t30.5 10.5h580q16 0 16 -11z" />
    <glyph glyph-name="greater" unicode="&#x3e;" horiz-adv-x="409" 
d="M223 682l99 -96l-21 -19l-96 97l-96 -97l-21 19l98 96l-98 96l21 21l96 -97l96 97l21 -21z" />
    <glyph glyph-name="question" unicode="?" horiz-adv-x="933" 
d="M866 731q0 -80 -67 -135q-63 -50 -248 -133q-17 -7 -60.5 -28.5t-70.5 -33.5q-82 -43 -82 -98q0 -32 23 -54t55 -22q46 0 61 35l10 17q6 12 15 12q14 0 14 -19q0 -32 -31 -57t-71 -25q-51 0 -86 35q-35 41 -35 90q0 89 102 162q57 43 219 131l78 45q66 41 66 101
q0 44 -35 74t-86 30q-71 0 -127 -41q-55 -40 -55 -92q0 -39 32 -39q10 0 23 8q14 10 14 15q1 0 5 1t6 1q14 0 14 -15q0 -12 -4 -16q-23 -29 -66 -29q-63 0 -63 72q0 71 76 129q75 57 174 57q86 0 143 -51q57 -48 57 -127zM336 61q0 -26 -20 -45.5t-46 -19.5q-65 0 -65 65
q0 66 65 66q27 0 46.5 -19.5t19.5 -46.5z" />
    <glyph glyph-name="at" unicode="@" horiz-adv-x="1835" 
d="M1978 772q0 -170 -96 -274q-94 -99 -262 -99q-254 0 -254 140q0 25 10 45q-194 -150 -344 -150q-129 0 -129 119q0 143 182 287q116 94 226 129t291 32l75 -2q49 -3 49 -22q0 -8 -6 -14l-198 -318q-18 -29 -25 -45q-18 -41 -18 -57q0 -78 129 -78q131 0 204 82
q74 83 74 229q0 211 -133 338t-352 127q-232 0 -412 -162q-106 -96 -170 -217q-63 -120 -63 -227q0 -188 155 -307q110 -82 297 -82q176 0 297 47q15 6 27 6q33 0 33 -41q0 -36 -113 -63q-111 -27 -250 -27q-235 0 -371 115q-161 140 -161 360q0 159 131 346
q237 332 610 332q250 0 410 -154q157 -151 157 -395zM1466 762l103 166l-19 2q-56 6 -108 6q-163 0 -256 -90q-61 -60 -107 -146q-45 -80 -45 -137q0 -69 72 -69q77 0 186 81q109 78 174 187z" />
    <glyph glyph-name="A" unicode="A" 
d="M1722 1346q0 -86 -297 -86q-82 0 -196 12q-173 18 -252 18q-172 0 -297 -76q-127 -77 -127 -178q0 -30 16 -63l6 -15l5 -10q0 -10 -15 -10q-19 0 -33 30.5t-14 71.5q0 148 146 246q143 98 362 98q77 0 162 -16l254 -51q58 -10 104 -10q84 0 148 43q12 6 18 6q10 0 10 -10
zM2132 1382q0 -12 -14 -20q-93 -73 -179 -180q-55 -66 -94 -135q-29 -50 -141 -285q-173 -361 -350 -565q-61 -70 -125 -125q46 14 71 14q22 0 84 -27q11 -8 29 -8q9 0 33 17q8 10 20 10q17 0 17 -19q0 -14 -6 -20q-40 -55 -109 -55q-18 0 -35 10l-37 22q-15 9 -32 9
q-16 0 -41 -7l-37 -12q-18 -6 -41 -6q-37 0 -37 23q0 15 31 43q75 66 133 143q136 179 174 313l-297 21l-8 -11q-128 -160 -226 -258q-103 -95 -229 -170q-196 -118 -358 -118q-105 0 -176 65q-70 67 -70 168q0 70 39 135q12 27 26 27q15 0 15 -16q0 -9 -6 -21l-15 -29
q-20 -39 -20 -94q0 -75 53 -131q53 -53 127 -53q123 0 289 113q184 125 487 493q291 355 469 494q166 130 381 215q121 47 182 47q23 0 23 -17zM2048 1350q-88 -18 -221 -88q-88 -48 -156 -103q-229 -191 -414 -469q-15 -20 -45 -65q-2 -5 -6 -11l273 -14l6 16
q72 189 166 328q67 98 200 234q94 97 197 172z" />
    <glyph glyph-name="B" unicode="B" horiz-adv-x="1695" 
d="M1886 1094q0 -147 -227 -220q-47 -15 -47 -24q0 -4 14 -29q19 -25 45 -65q72 -116 72 -256q0 -205 -162 -367q-161 -158 -369 -158q-114 0 -202 60q-82 55 -82 100q0 15 14 15q9 0 23 -17q79 -104 194 -104q77 0 154 41q147 80 233 223q90 146 90 303q0 69 -20 141
q-4 17 -39 88q-14 31 -14 39q0 19 30 37l45 27q129 76 129 190q0 119 -116 189q-115 69 -314 69q-286 0 -557 -176q-160 -108 -237 -213q-90 -116 -90 -211q0 -41 32 -84q35 -35 74 -35q6 3 14 5h7q10 0 10 -11q0 -6 -4 -8q-18 -14 -37 -14q-66 0 -111 57t-45 143
q0 241 258 420q257 178 613 178q262 0 442 -98q180 -94 180 -235zM1640 1194q0 -5 -14 -12l-18 -4q-49 -9 -88 -45q-76 -57 -209 -291q-155 -269 -258 -418q-97 -133 -219 -240q-236 -211 -469 -211q-120 0 -201 66q-82 64 -82 162q0 96 39 96q14 0 14 -14q0 -1 -1 -5t-1 -6
l-6 -22q-10 -42 -10 -51q0 -65 55 -111q55 -43 135 -43q153 0 344 139q151 109 273 250q128 151 315 438q160 242 254 297q73 43 123 43q24 0 24 -18z" />
    <glyph glyph-name="C" unicode="C" horiz-adv-x="1138" 
d="M1534 1077q0 -176 -150 -317q-151 -139 -340 -139q-109 0 -178 57q-71 59 -71 143q0 90 45 90q12 0 12 -10v-8l-6 -12q-8 -28 -8 -45q0 -144 151 -144q186 0 336 164q127 139 127 287q0 90 -68 149q-69 60 -174 60q-277 0 -577 -291q-338 -329 -338 -686q0 -150 88 -252
q87 -100 227 -100q92 0 219 47q131 48 201 110l47 39q4 1 9.5 4.5t7.5 3.5l6 4q14 0 14 -14q0 -13 -14 -27q-82 -88 -232 -155q-148 -62 -274 -62q-187 0 -307 123q-123 126 -123 314q0 198 102 389q103 195 289 344q305 250 631 250q157 0 252 -86q96 -90 96 -230z" />
    <glyph glyph-name="D" unicode="D" horiz-adv-x="1335" 
d="M1444 733q0 -318 -248 -538q-248 -222 -598 -222q-184 0 -309 70q-125 72 -125 174q0 64 37 64q10 0 10 -11l-2 -10l-6 -8q-6 -12 -6 -33q0 -75 102 -133q98 -55 238 -55q305 0 534 221q227 217 227 518q0 256 -180 436q-178 178 -440 178q-230 0 -408 -149
q-174 -146 -174 -346q0 -119 86 -184q17 -14 17 -21q0 -12 -15 -12q-12 0 -51 22q-133 84 -133 250q0 195 203 336q204 145 473 145q319 0 545 -200q223 -205 223 -492zM1206 889q0 -15 -22 -15h-15q-68 0 -170 -169q-163 -277 -235 -363q-125 -149 -277 -149q-94 0 -94 36
q0 13 13 13q8 0 10 -2l18 -4q18 -7 39 -7q93 0 166 119l164 258q191 299 373 299q30 0 30 -16z" />
    <glyph glyph-name="E" unicode="E" horiz-adv-x="1183" 
d="M1567 1118q0 -103 -80 -180q-79 -76 -191 -76q-81 0 -155 56q-45 33 -45 59q0 18 14 18q10 0 23 -16q50 -68 137 -68q94 0 162 68q65 68 65 168q0 93 -72 153t-184 60q-171 0 -307 -109q-137 -110 -137 -241q0 -20 10 -82q4 -14 4 -25q0 -12 -20 -18q-133 -23 -236 -84
q-264 -159 -264 -428q0 -156 102 -258q103 -103 264 -103q187 0 320 133q106 103 106 211q0 75 -61 93l-27 8q-10 3 -10 14q0 18 27 18q56 0 102 -55q45 -54 45 -123q0 -134 -151 -237q-152 -101 -355 -101q-213 0 -352 121q-137 125 -137 312q0 179 133 321q71 71 158 115
t258 71q32 6 32 25l-4 20q-22 78 -22 129q0 139 129 238q129 100 309 100q174 0 293 -88q117 -89 117 -219z" />
    <glyph glyph-name="F" unicode="F" horiz-adv-x="1118" 
d="M2005 1386q0 -61 -61 -104q-62 -41 -156 -41q-68 0 -201 19q-274 38 -430 38q-268 0 -438 -92q-170 -87 -170 -233q0 -112 90 -133q20 -3 20 -17q0 -16 -20 -16q-53 0 -94 53q-41 52 -41 127q0 168 174 287q171 119 418 119q178 0 434 -58q217 -47 291 -47q142 0 151 103
q3 28 15 28q18 0 18 -33zM1647 1192q0 -15 -27 -21q-91 -17 -184 -139q-122 -157 -242 -395l-4 -8h8l184 16q74 7 91 14q20 8 43 37q6 6 12 6q12 0 12 -20q0 -50 -67 -68q-115 -34 -302 -34h-6l-8 -13q-135 -203 -176 -256q-79 -102 -152 -161q-209 -170 -450 -170
q-137 0 -215 63q-82 64 -82 168q0 80 35 80q14 0 14 -15l-4 -12q-10 -27 -10 -51q0 -72 53 -119q51 -45 135 -45q211 0 465 213q157 135 266 299l4 6q-85 -3 -161 -35q-53 -24 -70 -77q-7 -17 -16 -17q-17 0 -17 25q0 62 84 106q84 43 217 49q21 29 37 58q27 46 115 174
q167 237 284 315q70 45 113 45q21 0 21 -18z" />
    <glyph glyph-name="G" unicode="G" horiz-adv-x="1171" 
d="M1581 1026q0 -107 -70 -180q-68 -74 -165 -74q-68 0 -113 39q-47 38 -47 98q0 62 28 62q13 0 13 -17v-16l-4 -14q0 -2 -1 -8.5t-1 -8.5q0 -80 96 -80q80 0 139 68q62 68 62 160q0 118 -101 200q-98 82 -243 82q-286 0 -570 -288q-201 -201 -201 -408q0 -136 91 -221
q92 -86 233 -86q244 0 467 180l31 25q23 20 39 20q14 0 14 -24q0 -51 -66 -148q-297 -432 -733 -432q-170 0 -291 65q-120 64 -120 158q0 66 34 66q13 0 13 -17v-10l-6 -16q-1 -6 -2 -12.5t-2 -10.5t-1 -6q0 -59 91 -102q90 -43 213 -43q198 0 409 143q140 96 225 203
q-167 -86 -331 -86q-198 0 -322 112q-123 111 -123 289q0 277 250 486q250 210 582 210q211 0 346 -102q137 -101 137 -256z" />
    <glyph glyph-name="H" unicode="H" horiz-adv-x="1478" 
d="M2271 1307q0 -13 -16 -13q-13 0 -19 2q-36 4 -53 4q-179 0 -317 -202q-156 -231 -226 -408q144 0 234 90q17 17 22 17q6 1 10.5 -3t4.5 -12q0 -35 -47 -65q-92 -68 -236 -68h-6q-73 -186 -172 -327q-53 -73 -100 -123q-51 -53 -152 -129q25 10 82 10q36 0 61 -10
q44 -13 54 -13q13 0 43 17q15 10 30 10t15 -14q0 -13 -19 -29q-61 -55 -147 -55q-22 0 -43 6l-64 18q-20 4 -32 4q-14 0 -66 -10q-12 -4 -29 -4q-26 0 -26 18q0 15 41 45q82 56 108 89q62 67 127 198q40 88 140 289l-261 4l-6 -12q-130 -257 -362 -455q-239 -201 -490 -201
q-120 0 -198 60q-74 59 -74 158q0 90 35 90q16 0 16 -17q0 -2 -1 -8t-1 -8q-10 -42 -10 -57q0 -63 53 -107q58 -43 137 -43q210 0 422 188q139 121 340 422h-18q-141 0 -211 -26q-65 -23 -96 -92q-10 -23 -23 -23q-12 0 -12 23q0 36 41 77q88 88 323 88h19l10 19
q118 210 235 354q99 125 187 197q-88 -39 -178 -39q-52 0 -166 18l-88 15q-76 12 -140 12q-169 0 -294 -78q-123 -74 -123 -182q0 -94 86 -103q26 -3 26 -16q0 -18 -30 -18q-63 0 -107 53q-45 51 -45 123q0 124 127 219q129 94 295 94q97 0 205 -27l178 -45q55 -14 110 -14
q102 0 179 41q20 8 22 8q17 0 17 -16q0 -9 -31 -51q-90 -116 -166 -244q-20 -36 -61 -118t-72 -146l-31 -64h252q113 193 152 256q60 93 135 180q192 213 385 213q106 0 106 -34z" />
    <glyph glyph-name="I" unicode="I" horiz-adv-x="1050" 
d="M1706 1341q0 -11 -23 -34q-116 -106 -264 -320q-154 -223 -260 -434l-4 -8q79 10 125 43q10 6 19.5 12t14.5 9.5t7 4.5q4 4 14 4q17 0 17 -14q0 -31 -68 -61q-63 -32 -154 -45h-4l-10 -17q-158 -256 -354 -381q-196 -127 -402 -127q-278 0 -278 236q0 63 27 63
q16 0 16 -16q0 -8 -2 -12q-4 -28 -4 -45q0 -78 50.5 -123t139.5 -45q165 0 348 127q189 135 314 336q-98 16 -156 79q-59 68 -59 160q0 137 104 271q104 137 275 223q110 57 268 100q141 41 256 41q47 0 47 -27zM1663 1341q-180 -9 -442 -182q-338 -225 -338 -454
q0 -58 39 -103q38 -41 92 -41h6l4 6q152 300 356 516q8 8 26.5 27t36 36.5t34.5 33.5q108 106 186 161z" />
    <glyph glyph-name="J" unicode="J" horiz-adv-x="876" 
d="M1546 1317q0 -10 -18 -19l-45 -30q-10 -8 -23.5 -19.5t-34 -29t-34.5 -29.5q-81 -84 -148 -184q-155 -224 -325 -531l-7 -8q82 3 150 53l43 31l10 2q14 0 14 -16q0 -15 -47 -45q-92 -60 -198 -72l-150 -254q48 3 107 27l30 12q6 4 15 4q16 0 16 -16q0 -22 -61 -46
q-65 -22 -140 -28q-148 -215 -342 -340q-195 -127 -376 -127q-92 0 -146.5 41.5t-54.5 111.5q0 148 186 246q186 101 463 101q48 0 113 -7h8l186 283q-97 15 -162 86q-63 69 -63 166q0 261 295 463q296 203 674 203q49 0 59 -13q6 -6 6 -16zM1481 1309h-31
q-127 -12 -322 -97q-112 -46 -208 -114q-125 -90 -201 -209q-78 -125 -78 -227q0 -132 135 -166q207 371 426 596q46 48 125 114q91 75 154 103zM522 100q-9 -1 -17.5 -2t-13.5 -1t-9.5 -0.5l-4.5 -0.5q-183 -26 -385 -108q-99 -39 -170 -107q-69 -63 -69 -121
q0 -26 27 -44.5t67 -18.5q84 0 180 47q170 83 395 356z" />
    <glyph glyph-name="K" unicode="K" horiz-adv-x="1644" 
d="M2367 1278q0 -68 -36 -68q-13 0 -13 15q0 6 4 14q9 24 9 33q0 74 -99 74q-193 0 -405 -209l-199 -195q-241 -235 -428 -293q141 -21 141 -182q0 -51 -6 -145q-4 -41 -4 -91q0 -190 113 -190q68 0 137 72q10 10 21 10q16 0 16 -14q0 -26 -45 -62q-85 -70 -189 -70
q-87 0 -139 64q-51 63 -51 168q0 96 31 223q16 57 16 98q0 71 -82 86l-8 -10l-47 -84q-82 -147 -217 -282q-137 -132 -276.5 -197.5t-303.5 -65.5q-159 0 -254 89q-53 50 -53 75q0 19 16 19q11 0 23 -15q86 -108 229 -108q196 0 385 145q191 148 342 416l183 322
q83 144 184 245q30 33 164 133l16 13q-93 -35 -276 -35q-88 0 -170 6q-153 10 -166 10q-255 0 -457 -190q-170 -159 -170 -340q0 -55 23 -103l18 -34l6 -21q0 -10 -14 -10q-5 0 -17 8q-75 75 -75 221q0 227 188 391q187 166 449 166q27 0 98 -6q140 -15 233 -31
q121 -22 183 -22q118 0 217 57q23 13 33 13q14 0 14 -15q0 -14 -47 -55q-72 -62 -96 -86q-75 -72 -142 -203l-180 -342q54 16 139 90q89 74 162 160l107 127q128 152 284 242q154 86 301 86q180 0 180 -117z" />
    <glyph glyph-name="L" unicode="L" horiz-adv-x="1556" 
d="M1870 1137q0 -65 -45 -113q-42 -45 -109 -45q-30 0 -30 18q0 17 22 17h18q44 0 74 37q31 39 31 82q0 69 -64 112q-62 45 -163 45q-74 0 -154 -26q-134 -47 -238 -166q-105 -121 -215 -355q-126 -262 -157 -315q-54 -94 -144 -188l-6 -7l19 -8q305 -137 483 -137
q125 0 217 68q94 67 94 157q0 6 -4 29t-4 29q0 18 16 18q29 0 29 -80q0 -135 -121 -235q-118 -97 -293 -97q-173 0 -362 76l-186 74q-186 -145 -365 -145q-84 0 -135 35t-51 92q0 85 94 143q92 59 225 59q85 0 160 -20l63 -19q82 103 138 211l188 357q128 241 305 372
q181 131 377 131q128 0 211 -59q82 -60 82 -147zM483 162l-6 2l-92 31q-55 16 -133 16q-82 0 -133 -29t-51 -76q0 -79 125 -79q146 0 290 135z" />
    <glyph glyph-name="M" unicode="M" horiz-adv-x="2002" 
d="M2331 1284q0 -2 -1.5 -4l-4.5 -6t-5 -8l-24 -27q-190 -206 -316 -395q-52 -76 -133 -219q-178 -316 -178 -463q0 -54 31.5 -88.5t79.5 -34.5q56 0 108 37l37 26q9 9 21 9q16 0 16 -15q0 -8 -6 -14q-27 -40 -90 -68q-61 -28 -117 -28q-89 0 -145 59q-58 61 -58 158
q0 177 174 448q36 59 140 203q55 77 219 266q-26 -19 -78 -63q-188 -168 -369 -371q-200 -228 -415 -577q-9 -18 -64 -99q-26 -26 -78 -26q-20 0 -20 14q0 15 12 45l92 238q47 122 80 221q95 285 174 657l-27 -57q-96 -212 -315 -559q-128 -201 -272 -336
q-110 -99 -242 -152q-134 -55 -268 -55q-128 0 -209 66q-80 68 -80 174q0 55 20 55q17 0 17 -21v-16q0 -75 80 -137q82 -60 180 -60q163 0 350 132q194 140 363 368q99 133 225 350q97 166 192 396q-55 -21 -139 -21q-42 0 -69 4l-144 15q-61 6 -106 6q-278 0 -434 -172
q-115 -127 -115 -273q0 -49 22 -81.5t56 -32.5q2 0 7.5 1t6.5 1l12 4h6q13 0 13 -13q0 -38 -70 -38q-59 0 -100 59q-41 55 -41 145q0 194 153 332q158 137 375 137q84 0 262 -30q117 -21 172 -21q106 0 191 43l37 19q12 6 24 6q25 0 25 -37v-6q0 -33 -23 -158
q-25 -130 -69 -301q-43 -169 -164 -543q112 157 268 336q192 219 391 408q145 136 228 190q27 17 71 17q58 0 58 -19z" />
    <glyph glyph-name="N" unicode="N" horiz-adv-x="1789" 
d="M2554 1114q0 -90 -41 -90q-14 0 -14 12q0 2 1 6.5t1 6.5q4 10 4 45q0 67 -45 112q-47 47 -111 47q-89 0 -207 -106q-116 -110 -219 -285l-514 -864q-4 -7 -14 -14q-9 -9 -19 -9q-26 0 -26 66q0 15 16 162q59 508 59 649v39l-4 90l-6 78l-14 80q-53 -207 -191 -471
q-357 -688 -804 -688q-136 0 -230 67t-94 168q0 59 35 100q9 15 20 15q15 0 15 -15q0 -7 -7 -24q-18 -49 -18 -74q0 -71 61 -117q62 -45 162 -45q292 0 586 312q141 153 231 315q105 188 187 432l55 166q21 63 37 63q8 0 20 -8q25 -19 50 -104q51 -182 51 -373
q0 -137 -41 -448q-16 -115 -33 -195q20 30 33 57l125 240q286 550 415 702q102 123 234 123q101 0 176 -69q78 -69 78 -154z" />
    <glyph glyph-name="O" unicode="O" horiz-adv-x="1267" 
d="M1528 991q0 -178 -92 -373q-92 -192 -254 -354q-287 -284 -570 -284q-177 0 -293 131q-114 132 -114 340q0 197 123 399q124 205 321 336q73 51 176 96q24 8 31 8q14 0 14 -14q0 -11 -57 -45q-217 -123 -371 -379q-151 -257 -151 -487q0 -136 82 -234q84 -96 200 -96
q216 0 428 203q182 173 293 401q111 231 111 432q0 117 -64 193q-65 77 -159 77q-117 0 -217 -100q-88 -88 -88 -176q0 -61 55 -82q14 -3 14 -16q0 -17 -22 -17q-36 0 -62 33q-26 41 -26 78q0 115 100 215q115 115 262 115q135 0 234 -117q96 -119 96 -283z" />
    <glyph glyph-name="P" unicode="P" horiz-adv-x="1310" 
d="M1855 1020q0 -184 -137 -324q-136 -139 -313 -139q-137 0 -137 100q0 50 26 50q15 0 15 -17v-8l-2 -10l-2 -10q0 -54 71 -54q86 0 187 84q90 78 149 193q57 114 57 211q0 121 -112 202q-113 82 -277 82q-174 0 -358 -69q-183 -68 -346 -193q-213 -168 -213 -323
q0 -44 29 -84q30 -37 67 -37q1 0 4 1t6 1h13q14 0 14 -10t-12 -19q-12 -10 -35 -10q-59 0 -103 59q-43 58 -43 140q0 241 263 421q263 181 620 181q255 0 412 -115q157 -118 157 -303zM1640 1194q0 -5 -14 -12l-18 -4q-49 -9 -88 -45q-76 -57 -209 -291q-155 -269 -258 -418
q-97 -133 -219 -240q-236 -211 -469 -211q-120 0 -201 66q-82 64 -82 162q0 96 39 96q14 0 14 -14q0 -1 -1 -5t-1 -6l-6 -22q-10 -42 -10 -51q0 -65 55 -111q55 -43 135 -43q153 0 344 139q151 109 273 250q128 151 315 438q160 242 254 297q73 43 123 43q24 0 24 -18z" />
    <glyph glyph-name="Q" unicode="Q" horiz-adv-x="1517" 
d="M1749 997q0 -356 -256 -659q-254 -300 -604 -350q58 -14 158 -49l182 -64q69 -22 121 -33q60 -16 112 -16q101 0 150 98l10 21q5 10 14 10q17 0 17 -21q0 -78 -86 -137q-83 -57 -201 -57q-74 0 -133 12q-221 48 -453 156l-166 76q-107 49 -190 49q-92 0 -164 -66
q-31 -28 -41 -28q-14 0 -14 14q0 4 8 20q80 115 225 115q66 0 119 -12q-90 81 -123 151q-43 93 -43 201q0 137 84 313q91 183 227 322q319 334 676 334q167 0 269 -111t102 -289zM1630 1059q0 141 -64.5 220t-179.5 79q-139 0 -282 -90q-247 -154 -420 -432
q-170 -274 -170 -514q0 -124 80 -213q80 -86 197 -86q116 0 241 61q128 63 225 168q159 169 267 401q106 239 106 406z" />
    <glyph glyph-name="R" unicode="R" horiz-adv-x="1837" 
d="M1966 999q0 -148 -117 -256q-115 -106 -272 -106q-31 0 -68 6l-43 6q-27 3 -36 8v-4q0 -10 1 -36t1 -31q13 -144 59 -303q68 -244 176 -244q72 0 72 74q0 12 -10 45q-11 25 -11 37t15 12q39 0 39 -96q0 -63 -40 -102.5t-106 -39.5q-136 0 -225 160q-92 160 -92 395
q0 197 39 197q8 0 12 -4q77 -25 135 -25q141 0 246 111q106 109 106 258q0 128 -98 207q-97 78 -258 78q-212 0 -467 -129q-192 -97 -319 -230q-121 -133 -121 -242q0 -72 67 -96q23 -10 23 -22q0 -15 -19 -15q-6 0 -32 11q-95 50 -95 172q0 236 263 422q263 184 602 184
q248 0 409 -115q164 -112 164 -287zM1640 1194q0 -5 -14 -12l-18 -4q-49 -9 -88 -45q-76 -57 -209 -291q-155 -269 -258 -418q-97 -133 -219 -240q-236 -211 -469 -211q-120 0 -201 66q-82 64 -82 162q0 96 39 96q14 0 14 -14q0 -1 -1 -5t-1 -6l-6 -22q-10 -42 -10 -51
q0 -65 55 -111q55 -43 135 -43q153 0 344 139q151 109 273 250q128 151 315 438q160 242 254 297q73 43 123 43q24 0 24 -18z" />
    <glyph glyph-name="S" unicode="S" horiz-adv-x="1378" 
d="M1747 1161q0 -50 -41 -94q-42 -45 -96 -45q-29 0 -29 18q0 12 12 15l17 4q59 15 59 100q0 79 -72 133q-73 54 -178 54q-117 0 -198 -66q-82 -67 -82 -164q0 -84 96 -203q121 -149 156 -223q39 -74 39 -176q0 -233 -197 -383q-198 -151 -496 -151q-255 0 -413 116
q-160 118 -160 299q0 143 104 244q108 102 250 102q100 0 168 -59t68 -150q0 -73 -29 -73q-12 0 -12 16v12q4 16 4 39q0 68 -47 115t-121 47q-106 0 -180 -86q-76 -85 -76 -207q0 -162 123 -270q123 -105 315 -105q223 0 389 138t166 325q0 85 -31 152q-29 62 -122 172
q-129 147 -129 272q0 133 108 221q112 89 277 89q144 0 251 -66q107 -67 107 -162z" />
    <glyph glyph-name="T" unicode="T" horiz-adv-x="1040" 
d="M2023 1362q0 -62 -81 -105q-82 -43 -197 -43q-131 0 -395 41q-198 29 -283 29q-167 0 -289 -98q-123 -99 -123 -232q0 -18 7 -49q1 -3 3 -8t3 -8v-10q0 -13 -15 -13q-18 0 -32 39q-19 55 -19 96q0 162 131 281q134 119 314 119q147 0 428 -80q213 -61 305 -61
q138 0 184 67l25 37q11 14 22 14q12 0 12 -16zM1651 1176q0 -15 -27 -21q-142 -35 -270 -264l-170 -303q-156 -276 -377 -443q-219 -165 -438 -165q-131 0 -207 61q-80 62 -80 158q0 98 39 98q14 0 14 -14q0 -11 -8 -27q-10 -33 -10 -57q0 -64 51 -103q53 -41 127 -41
q110 0 227 60q334 172 586 532l219 314q65 95 156 163q87 66 149 66q19 0 19 -14z" />
    <glyph glyph-name="U" unicode="U" horiz-adv-x="1521" 
d="M2013 1352q0 -16 -61 -86q-67 -75 -205 -265q-288 -397 -440 -663q-88 -152 -88 -242q0 -65 51 -65q27 0 57 12q30 10 82 49q19 19 31 29q23 20 33 20q12 0 12 -14t-27 -41q-105 -111 -221 -111q-50 0 -88 35q-37 40 -37 90q0 47 23 121l10 31l4 8l-8 -8
q-275 -272 -496 -272q-111 0 -186 81q-78 84 -78 201q0 169 100 338q59 99 144 207q98 122 217 229q-3 -1 -103 -32q-110 -29 -149 -29q-31 0 -31 20q0 15 43 21q20 3 82 18q17 4 65.5 19t71.5 22l203 64q15 6 23 6q18 0 18 -17q0 -12 -23 -38l-59 -60q-216 -216 -367 -473
q-106 -178 -106 -334q0 -79 47 -135q50 -53 121 -53q93 0 217 102q129 111 231 232q113 133 324 430q138 195 236 315l88 109l32 41q3 0 9 6l-13 -4q-104 -34 -143 -43q-102 -21 -219 -21q-103 0 -248 23l-242 41q-84 16 -194 16q-281 0 -492 -135q-209 -138 -209 -320
q0 -72 49 -133q15 -18 15 -22q0 -15 -19 -15q-44 0 -73 97q-27 76 -27 131q0 205 199 352q196 147 469 147q203 0 524 -86q183 -49 309 -49q74 0 150 13q130 22 256 81l45 21q23 10 37 10q3 0 7 -1t5 -1q12 -9 12 -20z" />
    <glyph glyph-name="V" unicode="V" horiz-adv-x="1484" 
d="M1827 1147q0 -188 -78 -385q-71 -189 -213 -350q-133 -149 -319 -267q-256 -165 -461 -165q-131 0 -219 94q-88 91 -88 233q0 245 215 535q213 284 577 524q-52 -18 -84 -25q-143 -28 -321 -28q-33 0 -138 6q-47 4 -112 4q-216 0 -363 -100q-151 -103 -151 -240
q0 -18 10 -45q8 -19 47 -55q31 -28 31 -45t-17 -17q-39 0 -84 51q-59 68 -59 158q0 167 147 281q151 112 369 112q84 0 172 -12l207 -31q49 -8 106 -8h15q36 0 96 8q62 7 102 17l54 16l20 4l23 4q22 0 22 -20t-35 -47l-122 -101q-86 -71 -218 -227q-127 -154 -219 -297
q-174 -274 -174 -508q0 -91 47 -143.5t129 -52.5q199 0 463 231q112 97 213 219q348 416 348 733q0 73 -39 131q-39 54 -90 54q-41 0 -68.5 -29.5t-27.5 -75.5v-6q0 -25 -16 -25q-19 0 -19 37q0 58 37 95q41 38 94 38q85 0 138 -77q53 -80 53 -203z" />
    <glyph glyph-name="W" unicode="W" horiz-adv-x="1886" 
d="M2118 1018q0 -225 -101 -440q-98 -215 -278 -383q-235 -215 -459 -215q-144 0 -203 135q-6 -4 -34 -22t-48 -30q-145 -83 -264 -83t-199 92q-79 88 -79 231q0 372 319 721q94 104 330 289q-72 -19 -90 -21q-47 -6 -101 -6q-86 0 -209 14q-132 15 -176 15
q-181 0 -325 -105q-142 -106 -142 -237q0 -42 25 -78q23 -34 57 -37h13q18 0 18 -14q0 -21 -37 -21q-51 0 -94 58q-41 59 -41 133q0 159 135 276q138 117 326 117q101 0 342 -55q108 -23 162 -23q95 0 200 45q35 15 45 15q13 0 13 -13t-29 -39l-76 -67q-239 -214 -393 -500
q-152 -289 -152 -526q0 -101 43 -162q47 -62 117 -62q68 0 185 66q92 54 133 98q-23 94 -23 152q0 286 186 512q101 125 203 125q56 0 92 -51q37 -49 37 -129q0 -110 -59 -234q-47 -91 -107 -166q-68 -84 -233 -227l-17 -14q27 -127 134 -127q149 0 391 266q184 205 291 418
q104 204 104 419q0 105 -51 179q-51 75 -123 75q-50 0 -86 -36q-37 -34 -37 -82q0 -17 4 -29q0 -1 1 -5t1 -7q0 -15 -14 -15q-6 0 -12 6q-15 18 -15 46q0 63 47 110t113 47q108 0 172 -110q68 -112 68 -289zM1481 862q0 78 -64 78q-47 0 -92 -51q-89 -99 -149 -268
q-62 -174 -62 -324q0 -35 2 -49q156 146 260 321q105 179 105 293z" />
    <glyph glyph-name="X" unicode="X" horiz-adv-x="1388" 
d="M2056 1237q0 -80 -35 -80q-16 0 -16 17q0 10 2 10l4 20l3 14q3 14 3 25q0 84 -98 84q-132 0 -291 -156q-98 -98 -117 -120q-128 -149 -264 -383q8 0 29.5 -1t36.5 -1q103 0 162 6q106 12 161 73q16 19 25 19q10 0 10 -14q0 -46 -61 -80q-95 -56 -359 -56h-34
q-24 -34 -50 -88q-57 -114 -80 -170q-34 -87 -34 -166q0 -70 43 -116q44 -47 108 -47q70 0 137 55q15 12 27 12t12 -12q0 -17 -12 -29q-63 -78 -186 -78q-103 0 -164 70q-64 70 -64 184q0 2 1 23.5t1 30.5l-10 -11q-301 -301 -612 -301q-114 0 -191 56q-75 57 -75 141
q0 52 32 92q28 41 62 41q14 0 14 -12q0 -13 -12 -19q-58 -43 -58 -96q0 -62 58 -102q58 -43 145 -43q192 0 410 176q106 84 168 153q81 93 172 250l8 15q-10 0 -20 0.5t-16 1t-7 0.5q-31 2 -76 2h-10q-106 0 -168 -21q-45 -15 -90 -84q-13 -20 -23 -20q-12 0 -12 16
q0 32 33 68q27 36 74 57q70 33 211 33q26 0 53 -2q15 0 37 -1t30 -1h15q46 72 88 190q35 113 35 182q0 131 -95 220q-93 90 -229 90q-206 0 -365 -170q-133 -139 -133 -285q0 -55 27 -113l8 -24q0 -12 -14 -12q-7 0 -19 8q-73 70 -73 203q0 176 161 307q165 127 392 127
q226 0 340 -138q80 -95 104 -274l29 31q57 65 188 196q183 162 359 162q68 0 110 -39q45 -36 45 -96z" />
    <glyph glyph-name="Y" unicode="Y" horiz-adv-x="1130" 
d="M1786 1327q0 -13 -27 -37l-24 -20q-62 -62 -101 -109q-117 -138 -305 -469q-135 -237 -233 -362q-95 -117 -230 -211q-204 -139 -430 -139q-222 0 -360 129q-51 51 -51 77q0 15 16 15q11 0 27 -19q114 -147 297 -147q196 0 403 160q89 68 147 133q61 68 203 258l12 16
q-194 -153 -370 -153q-114 0 -182 53q-70 55 -70 143q0 176 242 365l153 118q-30 -13 -117 -36q-124 -31 -151 -31q-23 0 -23 18q0 19 41 25q49 7 131 29q103 28 177 63q27 12 38 12q17 0 17 -14q0 -17 -39 -53q-171 -159 -262 -289q-78 -113 -78 -215q0 -61 43 -100
t111 -39q48 0 116 20q160 54 334 277l172 219q52 65 123 133q52 49 156 131l-66 -23q-109 -34 -223 -34q-134 0 -291 34l-188 41q-142 29 -254 29q-268 0 -449 -111q-180 -107 -180 -270q0 -58 33 -108q12 -18 12 -25q0 -12 -12 -12q-8 0 -25 20q-49 61 -49 146
q0 189 166 327q163 138 391 138q164 0 332 -52l237 -71q155 -45 289 -45q146 0 250 43l80 32q15 6 24 6q17 0 17 -16z" />
    <glyph glyph-name="Z" unicode="Z" horiz-adv-x="1751" 
d="M2091 1262q0 -74 -70 -123q-67 -52 -166 -52q-97 0 -213 46l-96 36l-20 -24q-39 -46 -168 -254q-68 -113 -92 -166h16q274 0 274 86q0 19 -14 29l-12 8q-8 8 -8 12q0 12 18 12q22 0 38.5 -20t16.5 -47q0 -131 -333 -131h-25l-4 -10q-87 -164 -133 -232q-40 -56 -129 -151
q-72 -75 -170 -142q60 -29 211 -88q284 -106 444 -106q102 0 170 45q72 44 72 106q0 20 -21 54q-6 12 -6 16q0 12 12 12q50 0 50 -84q0 -99 -97 -162t-243 -63q-203 0 -709 184l-22 8l-11 -4l-92 -39q-122 -45 -256 -45q-120 0 -197 45q-79 46 -79 115q0 68 73 117t181 49
q83 0 237 -49q106 -33 158 -55q2 0 16 -7q104 80 178 166q136 160 213 314l4 8h-8q-11 0 -26 0.5t-26 1.5h-11q-232 0 -285 -105q-9 -18 -18 -18q-15 0 -15 18q0 16 19 48q25 31 55 51q66 41 158 53q58 4 166 4h20q42 83 121 213q87 142 201 266l-15 4l-139 45
q-174 50 -313 50q-191 0 -330 -80t-139 -191q0 -45 37 -75q12 -9 12 -17q0 -14 -14 -14q-10 0 -29 16q-49 46 -49 111q0 145 147 250q144 106 346 106q91 0 191 -20q149 -29 350 -115l14 -6q120 82 219 117q77 26 150 26q94 0 154 -45q61 -43 61 -108zM2056 1266
q0 43 -41 67q-39 29 -102 29q-59 0 -141 -31q-88 -36 -166 -102l8 -4q149 -76 278 -76q63 0 113 35q51 36 51 82zM578 106l-11 7q-221 100 -356 100q-145 0 -145 -78q0 -46 61 -80q59 -30 152 -30q158 0 299 81z" />
    <glyph glyph-name="bracketleft" unicode="[" horiz-adv-x="561" 
d="M1012 1028q0 -20 -27 -20q-2 0 -7 1t-7 1l-31 10q-38 12 -70 12q-181 0 -321 -227l-416 -660q-35 -56 -35 -73q0 -41 43 -62q49 -22 148 -22q31 0 51 2q31 0 35 2h22q33 0 33 -27q0 -39 -180 -39q-114 0 -180 37.5t-66 102.5q0 36 19 65l380 604q55 88 105 162
q59 86 139 139q86 56 180 56q71 0 127 -21q58 -18 58 -43z" />
    <glyph glyph-name="backslash" unicode="\" horiz-adv-x="1460" 
d="M1407 10q0 -16 -23 -16q-15 0 -24 12l-1229 1342q-8 12 -8 18q0 20 18 20q16 0 25 -12l1227 -1339q14 -14 14 -25z" />
    <glyph glyph-name="bracketright" unicode="]" horiz-adv-x="651" 
d="M940 952q0 -38 -18 -65l-381 -604q-87 -136 -105 -162q-63 -91 -139 -141q-85 -54 -180 -54q-71 0 -127 21q-58 18 -58 43q0 20 27 20q1 0 6.5 -1t7.5 -1l31 -10q38 -12 68 -12q85 0 168 53q75 51 153 174l418 659q35 56 35 74q0 41 -43 62q-43 22 -150 22q-29 0 -49 -2
q-31 0 -35 -2h-22q-33 0 -33 27q0 39 180 39q114 0 180 -37.5t66 -102.5z" />
    <glyph glyph-name="asciicircum" unicode="^" horiz-adv-x="409" 
d="M223 682l99 -96l-21 -19l-96 97l-96 -97l-21 19l98 96l-98 96l21 21l96 -97l96 97l21 -21z" />
    <glyph glyph-name="underscore" unicode="_" horiz-adv-x="737" 
d="M739 -164v-76h-739v76h739z" />
    <glyph glyph-name="grave" unicode="`" horiz-adv-x="350" 
d="M283 688q0 -14 -27 -14q-60 0 -127 49q-61 43 -61 78q0 18 41 18h4q31 0 43 -12q3 -3 20.5 -19t32.5 -28q6 -8 27 -25q47 -35 47 -47z" />
    <glyph glyph-name="a" unicode="a" horiz-adv-x="747" 
d="M870 528q0 -7 -6 -16l-198 -317q-45 -73 -45 -121q0 -7 5 -24t5 -23q0 -41 -90 -41q-43 0 -43 45q0 38 22 102q-196 -149 -344 -149q-59 0 -94 32t-35 86q0 145 182 289q113 91 228 127q107 39 288 33l76 -2q49 0 49 -21zM610 311l103 166l-19 2q-56 6 -108 6
q-163 0 -256 -90q-60 -61 -107 -143q-45 -80 -45 -139q0 -29 21.5 -49.5t50.5 -20.5q76 0 186 82q110 79 174 186z" />
    <glyph glyph-name="b" unicode="b" horiz-adv-x="708" 
d="M1051 1079q0 -12 -15 -12q-10 0 -41 8q-19 6 -57 10q-134 0 -260 -196l-262 -412q155 96 266 96q59 0 96 -33t37 -85q0 -93 -76 -191q-78 -100 -196 -168q-43 -24 -90 -45q-114 -51 -258 -51h-142q-53 6 -53 23q0 7 25 49l514 807q159 249 362 249q65 0 129 -28
q21 -9 21 -21zM682 436q0 76 -70 76q-65 0 -151 -53q-87 -54 -170 -180l-135 -207q120 -6 127 -6q91 0 149 22q75 29 141 111q109 136 109 237z" />
    <glyph glyph-name="c" unicode="c" horiz-adv-x="616" 
d="M780 535q0 -64 -43 -64q-21 0 -39 4l-43 10q-53 11 -98 11q-131 0 -221 -97q-148 -151 -148 -272q0 -35 27.5 -59.5t67.5 -24.5q100 0 213 61q26 11 28 11q15 0 15 -13q0 -8 -17 -18q-149 -96 -325 -96q-64 0 -103 33.5t-39 89.5q0 168 219 317q187 129 385 129
q35 0 111 -6q10 -3 10 -16z" />
    <glyph glyph-name="d" unicode="d" horiz-adv-x="745" 
d="M1483 1079q0 -12 -15 -12q-6 0 -8 2l-22 8q-28 8 -52 8q-149 0 -278 -202l-438 -695q-43 -67 -43 -112v-23q4 -16 4 -26q0 -18 -33 -29q-46 -16 -66 -16q-30 0 -30 43q0 46 18 110q-75 -64 -172 -106q-100 -41 -172 -41q-121 0 -121 121q0 141 189 292q85 67 157 99
q118 53 351 53h12l233 362q90 139 205 189q72 29 133 29q76 0 129 -29q19 -10 19 -25zM586 270l133 209q-82 15 -158 15q-99 0 -172 -52q-79 -58 -141 -155q-62 -103 -62 -170q0 -66 66 -66q64 0 158 60q130 85 176 159z" />
    <glyph glyph-name="e" unicode="e" horiz-adv-x="643" 
d="M739 455q0 -91 -159 -176q-162 -89 -381 -115q-6 -15 -6 -31q0 -90 96 -90q108 0 248 90q17 10 22 10q10 0 10 -10q0 -17 -24 -35q-138 -108 -318 -108q-69 0 -114 39t-45 96q0 84 61 172q69 95 170 158q162 104 301 104q61 0 100 -29t39 -75zM666 479q0 43 -64 43
q-105 0 -221 -90q-109 -85 -170 -225l-2 -8l6 2q176 36 309 121q142 86 142 157z" />
    <glyph glyph-name="f" unicode="f" horiz-adv-x="366" 
d="M1077 1075q0 -12 -14 -12q-2 0 -6 1t-6 1l-21 8q-30 12 -65 12q-138 0 -287 -233l-197 -305h92q25 0 25 -19q0 -22 -31 -22h-110l-322 -506q-106 -165 -231 -256q-130 -92 -254 -92q-100 0 -166 51q-16 13 -16 25q0 8 12 8q10 0 14 -4l17 -11q40 -24 92 -24
q201 0 422 344l299 465h-105q-20 0 -20 18q0 23 32 23h115l219 336q66 102 146 170q92 77 219 77q38 0 84 -12q63 -15 63 -43z" />
    <glyph glyph-name="g" unicode="g" horiz-adv-x="761" 
d="M872 522q-7 -14 -10 -18l-456 -713q-143 -223 -345 -223q-115 0 -198 57q-68 47 -68 78q0 16 15 16q13 0 26 -16q69 -78 168 -78q153 0 291 211l180 277q-83 -57 -137 -78q-85 -39 -162 -39q-59 0 -95 32.5t-36 84.5q0 133 152 270q193 172 485 172q64 0 119 -6l30 -4
q41 -3 41 -23zM569 268l146 215q-35 9 -90 9q-150 0 -260 -76q-74 -51 -132 -140q-55 -85 -55 -153q0 -70 66 -70q14 0 26 4q76 15 164 78q87 61 135 133z" />
    <glyph glyph-name="h" unicode="h" horiz-adv-x="722" 
d="M1051 1079q0 -12 -15 -12q-6 0 -10 2l-20 4q-62 12 -68 12q-134 0 -260 -196l-270 -422q137 96 251 96q113 0 113 -96q0 -57 -53 -143l-146 -230q-10 -13 -10 -35q0 -14 2 -18v-10q0 -45 -92 -45q-57 0 -57 39q0 13 20 51l180 286q43 67 43 105q0 41 -47 41
q-72 0 -166 -64q-94 -66 -147 -151l-152 -238l-8 -18q-7 -26 -16.5 -32.5t-40.5 -6.5q-82 0 -82 22q0 9 14 31l11 19l514 809q156 249 362 249q65 0 129 -28q21 -9 21 -21z" />
    <glyph glyph-name="i" unicode="i" horiz-adv-x="335" 
d="M610 793q0 -33 -30 -60q-29 -26 -64 -26q-43 0 -43 45q0 36 29 59q27 27 65 27q43 0 43 -45zM442 520q0 -12 -14 -37l-240 -374q-7 -11 -14 -31q-13 -38 -39 -60q-33 -26 -88 -26q-47 0 -47 26q0 10 37 68l235 375q15 25 19 39q13 36 47 45q21 8 51 8q53 0 53 -33z" />
    <glyph glyph-name="j" unicode="j" horiz-adv-x="321" 
d="M596 793q0 -25 -10 -37q-34 -49 -84 -49q-43 0 -43 45q0 34 28 59q27 27 64 27q45 0 45 -45zM426 520q0 -12 -12 -33l-39 -65l-15 -23l-393 -626q-142 -222 -338 -222q-106 0 -200 60q-64 40 -64 74q0 18 17 18q10 0 10 -4l41 -39q54 -51 139 -51q146 0 266 188l402 627
q7 7 18 37q27 61 51 76q24 16 58 16q59 0 59 -33z" />
    <glyph glyph-name="k" unicode="k" horiz-adv-x="708" 
d="M1051 1075q0 -12 -15 -12q-3 1 -6.5 1.5l-3.5 0.5l-20 6q-38 10 -68 10q-137 0 -260 -196l-270 -432q141 112 260 112q131 0 131 -108q0 -105 -94 -166q-43 -26 -80 -37q-73 -22 -166 -25l-13 -2q24 -75 66 -127q45 -51 84 -51q14 0 37 10l3 1q4 0 7 1q12 0 12 -12
q0 -2 -4 -14q-39 -51 -112 -51q-57 0 -105 45q-37 37 -59 80q-45 83 -45 116q0 29 53 35l94 14q92 15 152 62q59 50 59 113q0 57 -67 57q-72 0 -179 -72q-102 -72 -159 -162l-140 -225q-21 -35 -32 -43q-9 -6 -43 -6q-68 0 -68 25q0 10 2 10l12 18l11 17l514 806
q160 250 362 250q69 0 129 -26q21 -12 21 -23z" />
    <glyph glyph-name="l" unicode="l" horiz-adv-x="327" 
d="M1065 1075q0 -12 -14 -12h-11l-20 6q-41 12 -68 12q-134 0 -260 -196l-551 -860q-18 -27 -63 -27q-64 0 -64 20q0 11 13 31l12 19l514 806q160 250 362 250q68 0 129 -28q21 -9 21 -21z" />
    <glyph glyph-name="m" unicode="m" horiz-adv-x="1150" 
d="M1192 455q0 -55 -47 -129l-154 -244q-16 -26 -16 -43v-19q0 -43 -92 -43q-62 0 -62 35q0 1 1 6.5t1 6.5q0 5 11 20q1 1 2.5 4.5t5.5 10t8 12.5l192 303q31 51 31 84q0 43 -43 43q-58 0 -149 -60q-129 -87 -181 -172l-151 -245l-12 -19l-15 -10q-20 -8 -49 -8
q-63 0 -63 22q0 7 6 19l10 16l197 309q43 67 43 115q0 39 -37 39q-72 0 -178 -74q-102 -70 -158 -160l-156 -256q-18 -30 -78 -30q-59 0 -59 26q0 13 10 23l6 10l271 451l6 20q12 39 98 39q45 0 45 -35q0 -8 -4 -16q-2 -3 -4 -8.5t-5.5 -15t-6.5 -17.5l-2 -6
q143 104 266 104q106 0 106 -98q0 -4 -1 -9.5t-3 -16t-4 -19.5l8 6q180 133 293 133t113 -104z" />
    <glyph glyph-name="n" unicode="n" horiz-adv-x="745" 
d="M786 457q0 -53 -47 -127l-153 -244q-17 -27 -17 -43q0 -2 2 -6v-12q0 -43 -94 -43q-59 0 -59 34q0 2 1 7t1 6q3 13 8 20l16 27l193 303q31 51 31 84q0 43 -41 43q-56 0 -150 -60q-130 -84 -184 -172l-156 -256q-18 -30 -78 -30q-59 0 -59 26q0 13 10 23l6 10l271 451
l6 20q12 39 98 39q45 0 45 -35q0 -8 -4 -16q-2 -3 -4 -8.5t-5.5 -15t-6.5 -17.5l-2 -6q47 34 106 59q96 45 154 45q112 0 112 -106z" />
    <glyph glyph-name="o" unicode="o" horiz-adv-x="733" 
d="M803 440q0 -102 -127 -223q-108 -105 -244 -170q-132 -63 -246 -63q-51 0 -94 32q-37 34 -37 80v6q0 81 62 158q101 126 258 213q155 88 282 88q65 0 105.5 -33.5t40.5 -87.5zM668 434q0 70 -86 70q-128 0 -267 -142q-127 -127 -127 -241q0 -80 82 -80q110 0 234 121
q164 164 164 272z" />
    <glyph glyph-name="p" unicode="p" horiz-adv-x="774" 
d="M829 446q0 -83 -77 -186q-76 -101 -201 -174q-153 -90 -334 -90q-17 0 -35 2h-43h-12l-229 -352q-21 -34 -35 -41q-11 -8 -45 -8q-64 0 -64 22q0 8 13 31l12 16l479 754q26 41 37 80l4 20q6 39 102 39q35 0 35 -24q0 -12 -35 -80q16 10 36.5 24t25.5 17q136 77 235 77
q57 0 94 -36t37 -91zM700 432q0 80 -77 80q-57 0 -136 -49q-118 -73 -180 -174l-141 -221q40 -5 84 -5q96 0 139 9q74 16 123 59q79 69 133 156q55 88 55 145z" />
    <glyph glyph-name="q" unicode="q" horiz-adv-x="776" 
d="M870 520q0 -17 -16 -43l-537 -835q-18 -27 -65 -27q-64 0 -64 20q0 13 13 29l12 21l272 417q-168 -125 -297 -125q-58 0 -95.5 34t-37.5 87q0 135 176 279q71 59 162 106q122 64 275 64h14l127 -2q61 0 61 -25zM584 266l133 209q-88 10 -148 10q-90 0 -163 -39
q-86 -47 -152 -149q-68 -103 -68 -184q0 -29 20 -50.5t48 -21.5q72 0 172 68q102 67 158 157z" />
    <glyph glyph-name="r" unicode="r" horiz-adv-x="546" 
d="M739 471q0 -7 -10 -20q-31 -31 -67 -31q-23 0 -60 43q-19 22 -43 22q-18 0 -47 -16q-159 -93 -219 -190l-164 -254q-18 -27 -66 -27q-63 0 -63 20q0 13 12 31l13 19l237 376l17 35l10 33q15 41 88 41q57 0 57 -33q0 -23 -45 -88q12 11 94 66q86 57 135 57q32 0 78 -43
q9 -12 17 -16l16 -11q10 -7 10 -14z" />
    <glyph glyph-name="s" unicode="s" horiz-adv-x="425" 
d="M604 535q-2 -6 -2 -9q-2 -4 -22 -32q-19 -19 -41 -19q-18 0 -80 19q-43 14 -72 14q-72 0 -72 -78q0 -8 9 -55q15 -48 18 -72q16 -82 16 -131q0 -84 -59 -143q-59 -56 -149 -56q-72 0 -118 38.5t-46 99.5q0 25 16 65q9 25 29 25q10 0 10 -8q0 -11 -2 -13q-21 -47 -21 -71
q0 -37 27 -64t64 -27q54 0 94 52q37 49 37 127q0 49 -4 82q-7 86 -7 104q0 170 230 170h12q30 0 61 -2l41 -2q31 -3 31 -14z" />
    <glyph glyph-name="t" unicode="t" horiz-adv-x="450" 
d="M696 819q0 -5 -10 -12q-47 -24 -84 -70q-24 -29 -110 -157l-27 -39h4q20 0 41 6q42 9 57 16l25 10q2 0 5 1t5 1q10 0 10 -10q0 -30 -63 -51q-55 -18 -105 -18h-4l-217 -342q-35 -56 -35 -84q0 -43 41 -43q38 0 68 30l16 17q10 10 21 10q14 0 14 -12q-1 -2 -2 -6.5
t-2 -6.5q-47 -86 -158 -86q-51 0 -84.5 32t-33.5 79q0 48 53 131l192 297q-20 4 -28 4q-42 0 -64 -14l-31 -19l-14 -4q-10 0 -10 8q0 12 20 29q42 39 101 39q29 0 53 -8q115 167 197 227q85 60 135 60q24 0 24 -15z" />
    <glyph glyph-name="u" unicode="u" horiz-adv-x="739" 
d="M848 537q0 -11 -14 -31l-189 -295q-45 -68 -45 -127l4 -49q0 -55 -84 -55q-41 0 -41 67q0 19 6 74q-175 -131 -303 -131q-114 0 -114 104q0 55 47 129l108 166q35 52 47 113q18 61 105 61q53 0 53 -35q0 -24 -20 -53l-187 -291q-39 -59 -39 -90q0 -51 51 -51q65 0 166 72
q97 72 156 164l152 239q27 43 88 43q53 0 53 -24z" />
    <glyph glyph-name="v" unicode="v" horiz-adv-x="624" 
d="M707 471q0 -107 -146 -203l-149 -98l-109 -80l-88 -74q-36 -28 -68 -28q-38 0 -38 14q0 1 10 18q44 61 80 160q32 101 32 166q0 106 -67 146q-23 16 -23 22q0 18 33 35q42 20 51 20q27 0 51 -24q62 -68 62 -170q0 -101 -86 -275l18 15q220 169 303 272q33 39 33 90
q0 66 -57 66q-22 0 -70 -39q-6 -6 -12 -6q-12 0 -12 14q0 21 34 45q45 31 93 31q52 0 88 -33q37 -37 37 -84z" />
    <glyph glyph-name="w" unicode="w" horiz-adv-x="1054" 
d="M1096 442q0 -66 -33 -139q-56 -134 -186 -223q-133 -92 -261 -92q-53 0 -89 29.5t-40 76.5q-135 -106 -258 -106q-56 0 -96 37q-37 37 -37 94q0 58 54 143l137 217l12 23q9 21 18 30q24 21 82 21q43 0 43 -25q0 -18 -34 -73l-185 -289q-22 -36 -22 -68q0 -61 65 -61
q106 0 209 160l207 325q15 27 88 27q43 0 43 -21q0 -10 -14 -32l-189 -297q-32 -56 -32 -103q0 -67 57 -67q102 0 231 170q121 157 121 264q0 49 -35 49q-21 0 -47 -29q-5 -8 -12 -8q-16 0 -16 17q0 6 8 18q42 57 110 57q43 0 72 -35.5t29 -89.5z" />
    <glyph glyph-name="x" unicode="x" horiz-adv-x="575" 
d="M752 563q0 -12 -15 -12q-2 0 -6 1t-6 1q-30 6 -41 6q-36 0 -86 -35q-44 -30 -90 -80q-31 -31 -86 -94l-10 -12q-11 -37 -15 -78q-14 -101 -14 -133q0 -94 59 -94q34 0 68 30q19 19 29 19t10 -10q0 -14 -17 -31q-50 -53 -139 -53q-127 0 -127 143q0 27 6 57l-12 -14
q-174 -201 -276 -201q-66 0 -66 62q0 41 23 41q14 0 14 -15q0 -2 -1 -4.5t-1 -3.5q0 -2 -1 -7t-1 -7q0 -29 37 -29q47 0 112 56q134 119 187 200l4 15l10 118q0 9 1 25t1 22q0 68 -43 68t-82 -45l-22 -25q-6 -6 -15 -6q-12 0 -12 17q0 9 12 24q71 86 168 86q107 0 107 -162
v-4l4 7q159 188 268 188q64 0 64 -31z" />
    <glyph glyph-name="y" unicode="y" horiz-adv-x="755" 
d="M850 522q0 -18 -16 -39l-424 -667q-157 -248 -365 -248q-127 0 -231 90q-33 26 -33 45q0 16 14 16q11 0 21 -10l32 -26q66 -54 146 -54q152 0 278 193l179 272q-138 -102 -265 -102q-52 0 -86 29.5t-34 74.5q0 51 38 113l162 252l10 28l7 27q12 43 84 43q61 0 61 -37
q0 -18 -29 -65l-170 -264q-43 -67 -43 -103q0 -45 56 -45t151 59q99 59 150 142l157 250q37 57 93 57q57 0 57 -31z" />
    <glyph glyph-name="z" unicode="z" horiz-adv-x="591" 
d="M674 498q0 -11 -23 -31l-469 -406q70 21 115 21q43 0 117 -27l49 -16q12 -4 29 -4q55 0 55 37q0 12 -4 20q0 2 -1 8t-1 9q0 12 12 12q33 0 33 -51t-45 -80q-43 -35 -113 -35q-40 0 -70 12l-73 29q-61 22 -111 22q-38 0 -90 -18q-16 -4 -18 -4q-11 0 -25 22q-14 24 -14 27
q0 14 18 29l473 415l-39 -8q-41 -10 -82 -10q-33 0 -92 21q-41 16 -76 16q-63 0 -63 -43q0 -1 1 -4.5t1 -5.5v-13q0 -10 -10 -10q-25 0 -25 33q0 48 51 82q53 35 123 35q48 0 125 -25t111 -25q29 0 53 9l25 8q4 2 16 2q13 0 25 -21t12 -32z" />
    <glyph glyph-name="braceleft" unicode="{" horiz-adv-x="765" 
d="M1313 1153q0 -20 -29 -20q-2 0 -7 1t-7 1l-31 10q-33 10 -65 10q-163 0 -300 -229l-172 -285q-24 -41 -45 -53q-20 -14 -69 -17q14 -35 14 -55q0 -32 -18 -59l-281 -432q-35 -56 -35 -76q0 -36 31 -58q36 -20 135 -20q65 0 88 4h21q35 0 35 -27q0 -38 -181 -38
q-101 0 -161 36.5t-60 98.5q0 39 19 67l309 486q6 12 6 24q0 44 -64 111l43 2q113 6 134 43l51 86q144 239 176 283q39 53 98 102q83 65 193 65q69 0 119 -20q53 -18 53 -41z" />
    <glyph glyph-name="bar" unicode="|" horiz-adv-x="620" 
d="M348 1419v-1474h-76v1474h76z" />
    <glyph glyph-name="braceright" unicode="}" horiz-adv-x="571" 
d="M946 1079q0 -34 -20 -67l-281 -437q-6 -12 -6 -24q0 -39 66 -111l-46 -2q-110 -6 -131 -43l-82 -135q-125 -207 -172 -272q-48 -68 -102 -113q-83 -65 -192 -65q-67 0 -117 20q-53 18 -53 41q0 20 26 20q3 0 7.5 -1t6.5 -1l31 -10q25 -10 66 -10q167 0 301 229l201 336
q22 37 43 51q20 14 69 17q-14 44 -14 55q0 26 20 59l250 383q35 56 35 76q0 36 -31 58q-36 20 -135 20q-50 0 -86 -4h-22q-35 0 -35 27q0 38 180 38q101 0 162 -37t61 -98z" />
    <glyph glyph-name="asciitilde" unicode="~" horiz-adv-x="409" 
d="M223 682l99 -96l-21 -19l-96 97l-96 -97l-21 19l98 96l-98 96l21 21l96 -97l96 97l21 -21z" />
    <glyph glyph-name="exclamdown" unicode="&#xa1;" horiz-adv-x="565" 
d="M592 492q0 -68 -66 -68q-26 0 -45.5 19.5t-19.5 45.5q0 66 63 66q28 0 48 -18.5t20 -44.5zM485 352q0 -7 -10 -30l-285 -558q-12 -24 -12 -51v-12q0 -29 -26 -29q-28 0 -58 27q-39 26 -39 59q0 17 21 52l342 550q16 23 35 23q32 0 32 -31z" />
    <glyph glyph-name="cent" unicode="&#xa2;" horiz-adv-x="561" 
d="M725 535q0 -64 -41 -64q-27 0 -39 4l-45 10q-39 9 -72 11l-254 -449q91 14 168 57q22 11 27 11q14 0 14 -13q0 -12 -47 -39q-75 -41 -188 -65l-45 -78q-7 -10 -17 -10q-16 0 -16 12q0 6 4 12l8 13l27 45q-36 -4 -59 -4q-150 0 -150 123q0 141 160 274q161 136 364 166
l47 86q7 14 23 14q12 0 12 -10q0 -3 -1 -7t-1 -5l-43 -74q7 0 21.5 1t21.5 1q34 0 111 -6q10 0 10 -16zM238 43l254 453q-74 -3 -125 -29q-47 -26 -86 -68q-148 -151 -148 -272q0 -35 27 -59.5t67 -24.5h11z" />
    <glyph glyph-name="sterling" unicode="&#xa3;" horiz-adv-x="1247" 
d="M1411 961q0 -57 -37 -103q-35 -41 -86 -41q-31 0 -31 21q0 12 25 12q92 3 92 108q0 58 -49 101q-45 39 -117 39q-149 0 -256 -113q-51 -54 -92 -119q-65 -105 -119 -243l62 4q33 4 94 4q121 0 121 -64q0 -13 -6 -28q-5 -16 -16.5 -24.5t-20.5 -8.5q-17 0 -17 12
q0 4 13 17q12 18 12 24q0 29 -90 29q-24 0 -49.5 -1t-45 -2t-35.5 -2t-25.5 -2t-10.5 -1l-2 -9q-92 -270 -186 -409l-4 -6l8 -4q299 -150 389 -150q68 0 110 33q45 31 45 80q0 38 -40 59l-19 10q-14 7 -14 19q0 14 18 14q37 0 62 -35q26 -33 26 -78q0 -80 -73 -135t-175 -55
q-128 0 -260 66l-153 77q-146 -88 -250 -88q-81 0 -131 33q-51 34 -51 84q0 62 65 109q62 45 158 45q43 0 51 -4q45 -3 127 -35l10 -4q17 28 33 62.5t24.5 54.5t26.5 65.5t23 58.5l30 84l19 56h-78q-156 0 -156 71q0 18 15.5 34.5t30.5 16.5q16 0 16 -14q0 -6 -19 -16
q-10 -2 -10 -19q0 -33 121 -33q23 0 58 1.5t36 1.5q45 126 99 227q77 139 198 219q127 80 262 80q103 0 174 -53q70 -52 70 -133zM381 104q-115 68 -199 68q-51 0 -87 -24.5t-36 -59.5q0 -34 36 -56t93 -22q114 0 193 94z" />
    <glyph glyph-name="currency" unicode="&#xa4;" horiz-adv-x="1228" 
d="M1020 555q0 -143 -102 -266l90 -90l-33 -39l-94 96q-111 -102 -271 -102q-152 0 -268 96l-90 -90l-37 39l90 90q-96 119 -96 266q0 161 96 268l-92 92l37 39l92 -92q121 103 268 103q162 0 271 -103l90 92l39 -39l-92 -92q102 -114 102 -268zM956 555q0 144 -102 246
q-100 100 -244 100q-139 0 -241 -102q-103 -100 -103 -244t103 -244t241 -100t244 100q102 102 102 244z" />
    <glyph glyph-name="yen" unicode="&#xa5;" horiz-adv-x="1660" 
d="M2138 1237q0 -80 -35 -80q-16 0 -16 17l2 10l4 20l4 15q0 5 1 14t1 10q0 84 -98 84q-68 0 -135 -37q-89 -50 -158 -119q-97 -97 -172 -186q-65 -85 -164 -242q16 -2 64 -2q93 0 161 7q112 12 164 73q16 19 25 19q10 0 10 -15q0 -46 -61 -80q-94 -55 -334 -55h-58
l-47 -117q18 -2 66 -2q249 0 311 68q15 18 25 18t10 -12q0 -125 -379 -125h-59q-17 -51 -76 -153q-63 -108 -113 -168q-49 -55 -178 -152q52 10 84 10q22 0 60 -10q43 -12 55 -12q10 0 18 4q8 0 23 12q20 10 31 10q16 0 16 -16q0 -13 -19 -29q-59 -53 -163 -53q-42 0 -58 4
l-63 21q-14 4 -35 4q-35 0 -66 -10l-28 -7q-27 0 -27 21q0 18 41 45q115 78 189 190q123 184 157 297q1 0 -4.5 0t-9.5 0.5t-13.5 0.5t-19.5 1q-17 0 -42 1t-32 1h-10q-105 0 -170 -20q-48 -15 -90 -84q-13 -20 -22 -20q-11 0 -11 16q0 29 31 68q38 41 74 57q67 33 221 33
h49l55 -4h13l55 120h-45q-49 0 -74 4h-10q-111 0 -164 -20q-54 -19 -84 -68q-11 -20 -22 -20h-2q-11 7 -11 14q0 66 94 109q81 35 220 35q16 0 51 -2l53 -2h14l9 14q79 137 79 278q0 137 -92 226q-94 88 -231 88q-199 0 -363 -170q-133 -139 -133 -285q0 -55 27 -113l8 -24
q0 -12 -16 -12q-3 0 -19 8q-71 71 -71 203q0 176 161 307q165 127 392 127q403 0 444 -412l27 31q143 162 219 223q86 68 186 106q79 29 143 29q69 0 111 -39q45 -36 45 -96z" />
    <glyph glyph-name="section" unicode="&#xa7;" horiz-adv-x="956" 
d="M498 682l96 -96l-21 -19l-96 97l-96 -97l-19 19l97 96l-97 96l19 21l96 -97l96 97l21 -21z" />
    <glyph glyph-name="dieresis" unicode="&#xa8;" horiz-adv-x="428" 
d="M358 743q0 -63 -55 -63q-35 0 -35 39q0 26 18 45.5t40 19.5q32 0 32 -41zM158 743q0 -63 -56 -63q-34 0 -34 39q0 26 17.5 45.5t39.5 19.5q33 0 33 -41z" />
    <glyph glyph-name="copyright" unicode="&#xa9;" horiz-adv-x="1761" 
d="M1761 684q0 -294 -207 -504q-210 -207 -503 -207q-294 0 -502 205q-207 207 -207 496q0 302 205 510q203 209 500 209t505 -205q209 -206 209 -504zM1706 684q0 273 -190 463t-465 190q-267 0 -461 -188q-193 -187 -193 -455q0 -281 189 -473q186 -192 461 -192
q276 0 466 190q193 190 193 465zM1325 565h64q-53 -305 -340 -305q-162 0 -258 113q-97 112 -97 305q0 189 103 307q101 119 264 119q251 0 307 -230h-68q-22 60 -36 78q-67 99 -207 99q-137 0 -215 -103q-82 -101 -82 -268q0 -165 78 -266q75 -97 211 -97q242 0 276 248z
" />
    <glyph glyph-name="ordfeminine" unicode="&#xaa;" horiz-adv-x="1148" 
d="M1260 1327l-5 -10l-139 -223q-36 -54 -33 -86q0 -7 4.5 -18.5t4.5 -12.5q0 -29 -64 -29q-31 0 -31 33q0 17 17 70q-135 -105 -242 -105q-90 0 -90 84q0 96 129 201q77 63 158 88q77 24 202 24h54q35 0 35 -16zM1077 1176l72 116l-12 2q-32 4 -78 4q-115 0 -178 -63
q-47 -47 -74 -100q-33 -56 -33 -97q0 -49 51 -49q53 0 129 55q76 58 123 132z" />
    <glyph glyph-name="guillemotleft" unicode="&#xab;" horiz-adv-x="651" 
d="M664 442q0 -14 -2 -16q-10 -17 -224 -201l-14 -12l6 -4q90 -78 90 -109q0 -10 -6 -16q-8 -16 -25 -29q-20 -14 -26 -14q-14 0 -23 12l-53 62l-51 55q-6 6 -6 16q0 16 35 43l88 72q53 44 92 80q90 84 100 84q19 0 19 -23zM444 446q0 -4 -4 -16q-20 -45 -223 -201l-12 -12
l6 -4q90 -81 90 -109q0 -10 -6 -16q-14 -20 -25 -29q-20 -14 -26 -14q-15 0 -23 14l-53 60l-53 55q-6 6 -6 16q0 13 34 43l88 72l45.5 38.5t47.5 41.5q90 84 102 84q18 0 18 -23z" />
    <glyph glyph-name="logicalnot" unicode="&#xac;" horiz-adv-x="1210" 
d="M1143 616v-483h-101v381h-974v102h1075z" />
    <glyph glyph-name="minus" unicode="&#xad;" horiz-adv-x="790" 
d="M791 322q0 -14 -15 -24.5t-33 -10.5h-575q-18 0 -18 10q0 14 16 25.5t29 11.5h579q17 0 17 -12z" />
    <glyph glyph-name="minus" unicode="&#x2212;" horiz-adv-x="790" 
d="M791 322q0 -14 -15 -24.5t-33 -10.5h-575q-18 0 -18 10q0 14 16 25.5t29 11.5h579q17 0 17 -12z" />
    <glyph glyph-name="registered" unicode="&#xae;" horiz-adv-x="1486" 
d="M1487 821q0 -240 -168 -405q-165 -168 -406 -168q-237 0 -403 166q-168 165 -168 397q0 241 164 414q165 168 403 168q241 0 410 -166q168 -168 168 -406zM1430 821q0 215 -150 365q-155 149 -367 149q-209 0 -364 -149q-152 -149 -152 -357q0 -218 148 -372
q149 -152 364 -152q219 0 369 150q152 152 152 366zM1145 520h-53q-10 30 -13 78l-4 57q-12 138 -119 138h-200v-273h-49v588h262q174 0 174 -150q0 -100 -94 -143q67 -40 73 -151l4 -56q0 -26 19 -88zM1092 952q0 115 -127 115h-209v-233h202q60 0 97 32.5t37 85.5z" />
    <glyph glyph-name="macron" unicode="&#xaf;" horiz-adv-x="489" 
d="M422 727q0 -25 -29 -25h-293q-32 0 -32 25q0 27 28 27h293q33 0 33 -27z" />
    <glyph glyph-name="degree" unicode="&#xb0;" horiz-adv-x="221" 
d="M494 811q0 -59 -117 -127q-92 -53 -150 -53q-63 0 -63 57q0 64 100 121q86 51 160 51q70 0 70 -49zM426 784q0 35 -45 35q-37 0 -96 -33q-62 -30 -62 -73q0 -35 47 -35q34 0 90 29q66 38 66 77z" />
    <glyph glyph-name="plusminus" unicode="&#xb1;" horiz-adv-x="817" 
d="M899 500q0 -13 -14 -24t-31 -11h-266l-168 -266q-15 -27 -43 -27q-10 0 -10 10q0 8 6 17l168 266h-262q-19 0 -19 10q0 16 16 27q17 10 27 10h268l168 262q19 31 43 31q11 0 11 -12q0 -5 -5 -15l-170 -266h267q14 0 14 -12zM600 29q0 -12 -15 -23.5t-32 -11.5h-576
q-18 0 -18 12q0 14 16 25q10 10 29 10h580q16 0 16 -12z" />
    <glyph glyph-name="acute" unicode="&#xb4;" horiz-adv-x="409" 
d="M342 780q0 -13 -16 -24q-107 -82 -232 -82q-26 0 -26 16q0 13 24 19q64 21 133 71q33 23 54 23q63 0 63 -23z" />
    <glyph glyph-name="paragraph" unicode="&#xb6;" horiz-adv-x="929" 
d="M862 1366v-61h-108v-1688h-70v1688h-186v-1688h-70v973q-170 6 -264 108q-96 107 -96 281q0 159 86 268q49 58 106 86q65 33 260 33h342zM428 655v650q-89 -6 -137 -29q-65 -34 -105 -117q-39 -77 -39 -178q0 -154 93 -250q70 -70 188 -76z" />
    <glyph glyph-name="periodcentered" unicode="&#xb7;" horiz-adv-x="417" 
d="M377 348q0 -27 -19.5 -46t-46.5 -19q-65 0 -65 63q0 68 65 68q26 0 46 -20t20 -46z" />
    <glyph glyph-name="cedilla" unicode="&#xb8;" horiz-adv-x="352" 
d="M240 -12h45l-58 -68q45 -6 45 -43q0 -35 -45 -63q-47 -29 -102 -29q-57 0 -57 25q0 16 26 16h21q88 0 88 53q0 13 -15 19q-12 9 -12 14q0 8 4 10l8 8z" />
    <glyph glyph-name="ordmasculine" unicode="&#xba;" horiz-adv-x="1095" 
d="M1206 1257q0 -70 -88 -155q-78 -75 -172 -119q-89 -45 -172 -45q-38 0 -65 23t-27 55v4q6 62 45 110q67 85 180 150q110 61 197 61q102 0 102 -84zM1112 1253q0 50 -59 50q-88 0 -187 -99q-90 -90 -90 -170q0 -57 58 -57q74 0 163 86q115 112 115 190z" />
    <glyph glyph-name="guillemotright" unicode="&#xbb;" horiz-adv-x="555" 
d="M641 319q0 -16 -35 -43l-88 -71q-53 -44 -92 -80q-90 -84 -100 -84q-21 0 -21 22q0 13 4 17q11 19 223 201l15 12l-6 4q-90 78 -90 109q0 24 30 45q17 14 27 14t22 -12l54 -62l51 -55q6 -6 6 -17zM422 324q0 -16 -35 -43l-88 -72q-53 -44 -92 -80q-90 -84 -103 -84
q-18 0 -18 23q0 10 4 16q6 14 223 201l15 12l-6 4q-91 76 -91 109q0 11 5 16q15 22 24 29q17 14 27 14t22 -12l53 -62l54 -55q6 -6 6 -16z" />
    <glyph glyph-name="questiondown" unicode="&#xbf;" horiz-adv-x="743" 
d="M715 494q0 -66 -66 -66q-27 0 -46 19t-19 47q0 26 19.5 45.5t45.5 19.5q66 0 66 -65zM627 240q0 -90 -103 -162q-85 -59 -217 -131l-78 -45q-67 -40 -67 -101q0 -44 35 -74t86 -30q71 0 127 41q55 40 55 92q0 39 -31 39q-16 0 -28 -12l-11 -11q-3 -1 -6.5 -1.5l-3.5 -0.5
q-14 0 -14 15q0 10 6 16q23 29 65 29q64 0 64 -72q0 -69 -78 -129q-72 -57 -172 -57q-89 0 -143 51q-58 49 -58 127q0 81 66 135q49 41 250 133l129 60q82 49 82 100q0 76 -78 76q-44 0 -62 -35l-8 -17q-9 -12 -16 -12q-15 0 -15 19q0 32 31 57t72 25q52 0 86 -37
q35 -38 35 -88z" />
    <glyph glyph-name="Agrave" unicode="&#xc0;" 
d="M1722 1346q0 -86 -297 -86q-82 0 -196 12q-173 18 -252 18q-172 0 -297 -76q-127 -77 -127 -178q0 -30 16 -63l6 -15l5 -10q0 -10 -15 -10q-19 0 -33 30.5t-14 71.5q0 148 146 246q143 98 362 98q77 0 162 -16l254 -51q58 -10 104 -10q84 0 148 43q12 6 18 6q10 0 10 -10
zM2132 1382q0 -12 -14 -20q-93 -73 -179 -180q-55 -66 -94 -135q-29 -50 -141 -285q-173 -361 -350 -565q-61 -70 -125 -125q46 14 71 14q22 0 84 -27q11 -8 29 -8q9 0 33 17q8 10 20 10q17 0 17 -19q0 -14 -6 -20q-40 -55 -109 -55q-18 0 -35 10l-37 22q-15 9 -32 9
q-16 0 -41 -7l-37 -12q-18 -6 -41 -6q-37 0 -37 23q0 15 31 43q75 66 133 143q136 179 174 313l-297 21l-8 -11q-128 -160 -226 -258q-103 -95 -229 -170q-196 -118 -358 -118q-105 0 -176 65q-70 67 -70 168q0 70 39 135q12 27 26 27q15 0 15 -16q0 -9 -6 -21l-15 -29
q-20 -39 -20 -94q0 -75 53 -131q53 -53 127 -53q123 0 289 113q184 125 487 493q291 355 469 494q166 130 381 215q121 47 182 47q23 0 23 -17zM2048 1350q-88 -18 -221 -88q-88 -48 -156 -103q-229 -191 -414 -469q-15 -20 -45 -65q-2 -5 -6 -11l273 -14l6 16
q72 189 166 328q67 98 200 234q94 97 197 172zM1653 1507q0 -14 -27 -14q-60 0 -127 49q-61 43 -61 78q0 18 41 18h4q31 0 43 -12q3 -3 20.5 -19t32.5 -28q6 -9 27 -25q47 -35 47 -47z" />
    <glyph glyph-name="Aacute" unicode="&#xc1;" 
d="M1722 1346q0 -86 -297 -86q-82 0 -196 12q-173 18 -252 18q-172 0 -297 -76q-127 -77 -127 -178q0 -30 16 -63l6 -15l5 -10q0 -10 -15 -10q-19 0 -33 30.5t-14 71.5q0 148 146 246q143 98 362 98q77 0 162 -16l254 -51q58 -10 104 -10q84 0 148 43q12 6 18 6q10 0 10 -10
zM2132 1382q0 -12 -14 -20q-93 -73 -179 -180q-55 -66 -94 -135q-29 -50 -141 -285q-173 -361 -350 -565q-61 -70 -125 -125q46 14 71 14q22 0 84 -27q11 -8 29 -8q9 0 33 17q8 10 20 10q17 0 17 -19q0 -14 -6 -20q-40 -55 -109 -55q-18 0 -35 10l-37 22q-15 9 -32 9
q-16 0 -41 -7l-37 -12q-18 -6 -41 -6q-37 0 -37 23q0 15 31 43q75 66 133 143q136 179 174 313l-297 21l-8 -11q-128 -160 -226 -258q-103 -95 -229 -170q-196 -118 -358 -118q-105 0 -176 65q-70 67 -70 168q0 70 39 135q12 27 26 27q15 0 15 -16q0 -9 -6 -21l-15 -29
q-20 -39 -20 -94q0 -75 53 -131q53 -53 127 -53q123 0 289 113q184 125 487 493q291 355 469 494q166 130 381 215q121 47 182 47q23 0 23 -17zM2048 1350q-88 -18 -221 -88q-88 -48 -156 -103q-229 -191 -414 -469q-15 -20 -45 -65q-2 -5 -6 -11l273 -14l6 16
q72 189 166 328q67 98 200 234q94 97 197 172zM1853 1599q0 -13 -16 -24q-107 -82 -231 -82q-27 0 -27 16q0 13 25 19q64 21 133 71q33 23 53 23q63 0 63 -23z" />
    <glyph glyph-name="Acircumflex" unicode="&#xc2;" 
d="M1722 1346q0 -86 -297 -86q-82 0 -196 12q-173 18 -252 18q-172 0 -297 -76q-127 -77 -127 -178q0 -30 16 -63l6 -15l5 -10q0 -10 -15 -10q-19 0 -33 30.5t-14 71.5q0 148 146 246q143 98 362 98q77 0 162 -16l254 -51q58 -10 104 -10q84 0 148 43q12 6 18 6q10 0 10 -10
zM2132 1382q0 -12 -14 -20q-93 -73 -179 -180q-55 -66 -94 -135q-29 -50 -141 -285q-173 -361 -350 -565q-61 -70 -125 -125q46 14 71 14q22 0 84 -27q11 -8 29 -8q9 0 33 17q8 10 20 10q17 0 17 -19q0 -14 -6 -20q-40 -55 -109 -55q-18 0 -35 10l-37 22q-15 9 -32 9
q-16 0 -41 -7l-37 -12q-18 -6 -41 -6q-37 0 -37 23q0 15 31 43q75 66 133 143q136 179 174 313l-297 21l-8 -11q-128 -160 -226 -258q-103 -95 -229 -170q-196 -118 -358 -118q-105 0 -176 65q-70 67 -70 168q0 70 39 135q12 27 26 27q15 0 15 -16q0 -9 -6 -21l-15 -29
q-20 -39 -20 -94q0 -75 53 -131q53 -53 127 -53q123 0 289 113q184 125 487 493q291 355 469 494q166 130 381 215q121 47 182 47q23 0 23 -17zM2048 1350q-88 -18 -221 -88q-88 -48 -156 -103q-229 -191 -414 -469q-15 -20 -45 -65q-2 -5 -6 -11l273 -14l6 16
q72 189 166 328q67 98 200 234q94 97 197 172zM1847 1509q0 -24 -47 -24q-27 0 -45 96q0 1 -1 2t-1 2l-10 -4q-155 -63 -197 -63q-24 0 -24 18l4 8q1 0 12 4.5t30 11t42 13.5q19 6 46 14.5t36 11.5l73 27q28 8 29 8q13 0 16 -10l17 -51l18 -53q0 -2 1 -5.5t1 -5.5z" />
    <glyph glyph-name="Atilde" unicode="&#xc3;" 
d="M1722 1346q0 -86 -297 -86q-82 0 -196 12q-173 18 -252 18q-172 0 -297 -76q-127 -77 -127 -178q0 -30 16 -63l6 -15l5 -10q0 -10 -15 -10q-19 0 -33 30.5t-14 71.5q0 148 146 246q143 98 362 98q77 0 162 -16l254 -51q58 -10 104 -10q84 0 148 43q12 6 18 6q10 0 10 -10
zM2132 1382q0 -12 -14 -20q-93 -73 -179 -180q-55 -66 -94 -135q-29 -50 -141 -285q-173 -361 -350 -565q-61 -70 -125 -125q46 14 71 14q22 0 84 -27q11 -8 29 -8q9 0 33 17q8 10 20 10q17 0 17 -19q0 -14 -6 -20q-40 -55 -109 -55q-18 0 -35 10l-37 22q-15 9 -32 9
q-16 0 -41 -7l-37 -12q-18 -6 -41 -6q-37 0 -37 23q0 15 31 43q75 66 133 143q136 179 174 313l-297 21l-8 -11q-128 -160 -226 -258q-103 -95 -229 -170q-196 -118 -358 -118q-105 0 -176 65q-70 67 -70 168q0 70 39 135q12 27 26 27q15 0 15 -16q0 -9 -6 -21l-15 -29
q-20 -39 -20 -94q0 -75 53 -131q53 -53 127 -53q123 0 289 113q184 125 487 493q291 355 469 494q166 130 381 215q121 47 182 47q23 0 23 -17zM2048 1350q-88 -18 -221 -88q-88 -48 -156 -103q-229 -191 -414 -469q-15 -20 -45 -65q-2 -5 -6 -11l273 -14l6 16
q72 189 166 328q67 98 200 234q94 97 197 172zM1886 1561q0 -9 -4 -17q-43 -55 -113 -55q-31 0 -106 35q-75 37 -113 37q-18 0 -49 -21q-16 -8 -18 -8q-13 0 -13 10q0 20 35 41q47 29 78 29q23 0 107 -35t110 -35h6q28 3 62 27l8 4q10 0 10 -12z" />
    <glyph glyph-name="Adieresis" unicode="&#xc4;" 
d="M1722 1346q0 -86 -297 -86q-82 0 -196 12q-173 18 -252 18q-172 0 -297 -76q-127 -77 -127 -178q0 -30 16 -63l6 -15l5 -10q0 -10 -15 -10q-19 0 -33 30.5t-14 71.5q0 148 146 246q143 98 362 98q77 0 162 -16l254 -51q58 -10 104 -10q84 0 148 43q12 6 18 6q10 0 10 -10
zM2132 1382q0 -12 -14 -20q-93 -73 -179 -180q-55 -66 -94 -135q-29 -50 -141 -285q-173 -361 -350 -565q-61 -70 -125 -125q46 14 71 14q22 0 84 -27q11 -8 29 -8q9 0 33 17q8 10 20 10q17 0 17 -19q0 -14 -6 -20q-40 -55 -109 -55q-18 0 -35 10l-37 22q-15 9 -32 9
q-16 0 -41 -7l-37 -12q-18 -6 -41 -6q-37 0 -37 23q0 15 31 43q75 66 133 143q136 179 174 313l-297 21l-8 -11q-128 -160 -226 -258q-103 -95 -229 -170q-196 -118 -358 -118q-105 0 -176 65q-70 67 -70 168q0 70 39 135q12 27 26 27q15 0 15 -16q0 -9 -6 -21l-15 -29
q-20 -39 -20 -94q0 -75 53 -131q53 -53 127 -53q123 0 289 113q184 125 487 493q291 355 469 494q166 130 381 215q121 47 182 47q23 0 23 -17zM2048 1350q-88 -18 -221 -88q-88 -48 -156 -103q-229 -191 -414 -469q-15 -20 -45 -65q-2 -5 -6 -11l273 -14l6 16
q72 189 166 328q67 98 200 234q94 97 197 172zM1829 1563q0 -64 -55 -64q-35 0 -35 39q0 26 17.5 46t39.5 20q33 0 33 -41zM1628 1563q0 -64 -55 -64q-35 0 -35 39q0 26 17.5 46t39.5 20q33 0 33 -41z" />
    <glyph glyph-name="Aring" unicode="&#xc5;" 
d="M1722 1346q0 -86 -297 -86q-82 0 -196 12q-173 18 -252 18q-172 0 -297 -76q-127 -77 -127 -178q0 -30 16 -63l6 -15l5 -10q0 -10 -15 -10q-19 0 -33 30.5t-14 71.5q0 148 146 246q143 98 362 98q77 0 162 -16l254 -51q58 -10 104 -10q84 0 148 43q12 6 18 6q10 0 10 -10
zM2132 1382q0 -12 -14 -20q-93 -73 -179 -180q-55 -66 -94 -135q-29 -50 -141 -285q-173 -361 -350 -565q-61 -70 -125 -125q46 14 71 14q22 0 84 -27q11 -8 29 -8q9 0 33 17q8 10 20 10q17 0 17 -19q0 -14 -6 -20q-40 -55 -109 -55q-18 0 -35 10l-37 22q-15 9 -32 9
q-16 0 -41 -7l-37 -12q-18 -6 -41 -6q-37 0 -37 23q0 15 31 43q75 66 133 143q136 179 174 313l-297 21l-8 -11q-128 -160 -226 -258q-103 -95 -229 -170q-196 -118 -358 -118q-105 0 -176 65q-70 67 -70 168q0 70 39 135q12 27 26 27q15 0 15 -16q0 -9 -6 -21l-15 -29
q-20 -39 -20 -94q0 -75 53 -131q53 -53 127 -53q123 0 289 113q184 125 487 493q291 355 469 494q166 130 381 215q121 47 182 47q23 0 23 -17zM2048 1350q-88 -18 -221 -88q-88 -48 -156 -103q-229 -191 -414 -469q-15 -20 -45 -65q-2 -5 -6 -11l273 -14l6 16
q72 189 166 328q67 98 200 234q94 97 197 172zM1993 1622q0 -45 -74 -98q-79 -58 -141 -58q-52 0 -52 41q0 52 82 107q74 51 131 51q54 0 54 -43zM1931 1595q0 25 -28 25q-15 0 -23 -4q-33 -11 -65 -39q-31 -25 -31 -43q0 -25 28 -25q15 0 29 7q90 35 90 79z" />
    <glyph glyph-name="AE" unicode="&#xc6;" horiz-adv-x="2484" 
d="M1722 1346q0 -86 -295 -86q-34 0 -249 20q-110 10 -195 10q-175 0 -303 -76q-125 -73 -125 -180q0 -37 16 -61q11 -18 11 -25q0 -10 -15 -10q-20 0 -34.5 30t-14.5 70q0 146 146 246q144 100 360 100q81 0 166 -16l252 -51q55 -10 106 -10q84 0 148 43q12 6 14 6
q12 0 12 -10zM2841 1133q0 -111 -80 -191q-81 -78 -189 -78q-123 0 -190 88q-12 15 -12 27q0 18 16 18q4 0 20 -16q53 -68 148 -68q90 0 153 66q64 70 64 164q0 100 -76 164q-73 61 -196 61q-72 0 -154 -29q-120 -43 -197 -139q-77 -89 -77 -190q0 -34 10 -80q4 -24 4 -25
q0 -11 -21 -18q-132 -23 -235 -84q-109 -62 -191 -185q174 80 347 80q183 0 305 -98q125 -98 125 -242q0 -161 -144 -272q-141 -111 -348 -111q-204 0 -344 119q-57 50 -84 99.5t-45 128.5q-113 -158 -219 -250q46 14 72 14q19 0 55.5 -18.5t54.5 -16.5q12 0 25 10
q19 17 26 17q21 0 21 -19q0 -23 -35 -45q-45 -30 -82 -30q-15 0 -35 10l-35 22q-15 9 -32 9q-18 0 -43 -7l-35 -12q-24 -6 -43 -6q-37 0 -37 23q0 19 31 43q160 144 303 432l4 8q-197 -33 -318 -33h-32q-143 -203 -367 -344q-231 -143 -399 -143q-107 0 -178 65
q-68 65 -68 166q0 75 37 137q12 27 29 27q14 0 14 -16q0 -9 -6 -21l-15 -29q-20 -39 -20 -94q0 -77 51 -131q54 -51 131 -51q129 0 334 137q194 132 319 309q-137 18 -223 95q-84 78 -84 174q0 39 23 90q14 33 39 33q12 0 12 -15q0 -14 -10 -31q-17 -25 -17 -67
q0 -92 82 -162q84 -69 203 -78l14 17q287 387 549 596q163 131 383 215q124 47 182 47q21 0 21 -17q0 -10 -14 -20q-87 -72 -176 -180q-93 -114 -195 -332q2 1 15 6t16 6t15.5 6t18.5 6.5t19.5 6t23.5 7t25.5 6.5t31 7t35 6.5t40.5 7.5q32 6 32 33q0 13 -8 51.5t-8 77.5
q0 86 74 172q150 178 393 178q151 0 260 -86q111 -86 111 -208zM2048 1350q-88 -18 -221 -88q-76 -40 -154 -103q-171 -135 -274 -278l-139 -191q-49 -68 -140 -176q221 6 346 41l9 16q165 326 186 361q80 133 190 246q94 97 197 172zM2335 362q0 56 -27 109
q-80 182 -313 182q-213 0 -377 -92q-53 -115 -53 -203q0 -142 104 -243q107 -101 252 -101q164 0 289 107t125 241z" />
    <glyph glyph-name="Ccedilla" unicode="&#xc7;" horiz-adv-x="1138" 
d="M1534 1077q0 -176 -150 -317q-151 -139 -340 -139q-109 0 -178 57q-71 59 -71 143q0 90 45 90q12 0 12 -10v-8l-6 -12q-8 -28 -8 -45q0 -144 151 -144q186 0 336 164q127 139 127 287q0 90 -68 149q-69 60 -174 60q-277 0 -577 -291q-338 -329 -338 -686q0 -147 88 -252
q87 -100 225 -100q148 0 305 83q40 24 117 74q40 26 49 39q12 12 23 12q12 0 12 -14q0 -50 -182 -149q-143 -76 -314 -97l-57 -65q45 -6 45 -43q0 -38 -45 -64q-45 -28 -102 -28q-58 0 -58 22q0 19 27 19h21q88 0 88 51q0 14 -15 20q-12 9 -12 15q0 10 4 10l8 8l51 57
q-181 9 -297 131q-112 121 -112 306q0 198 102 389q103 195 289 344q305 250 631 250q157 0 252 -86q96 -90 96 -230z" />
    <glyph glyph-name="Egrave" unicode="&#xc8;" horiz-adv-x="1183" 
d="M1567 1118q0 -103 -80 -180q-79 -76 -191 -76q-81 0 -155 56q-45 33 -45 59q0 18 14 18q10 0 23 -16q50 -68 137 -68q94 0 162 68q65 68 65 168q0 93 -72 153t-184 60q-171 0 -307 -109q-137 -110 -137 -241q0 -20 10 -82q4 -14 4 -25q0 -12 -20 -18q-133 -23 -236 -84
q-264 -159 -264 -428q0 -156 102 -258q103 -103 264 -103q187 0 320 133q106 103 106 211q0 75 -61 93l-27 8q-10 3 -10 14q0 18 27 18q56 0 102 -55q45 -54 45 -123q0 -134 -151 -237q-152 -101 -355 -101q-213 0 -352 121q-137 125 -137 312q0 179 133 321q71 71 158 115
t258 71q32 6 32 25l-4 20q-22 78 -22 129q0 139 129 238q129 100 309 100q174 0 293 -88q117 -89 117 -219zM1282 1507q0 -14 -27 -14q-60 0 -127 49q-61 43 -61 78q0 18 41 18h4q31 0 43 -12q3 -3 20.5 -19t32.5 -28q6 -9 27 -25q47 -35 47 -47z" />
    <glyph glyph-name="Eacute" unicode="&#xc9;" horiz-adv-x="1183" 
d="M1567 1118q0 -103 -80 -180q-79 -76 -191 -76q-81 0 -155 56q-45 33 -45 59q0 18 14 18q10 0 23 -16q50 -68 137 -68q94 0 162 68q65 68 65 168q0 93 -72 153t-184 60q-171 0 -307 -109q-137 -110 -137 -241q0 -20 10 -82q4 -14 4 -25q0 -12 -20 -18q-133 -23 -236 -84
q-264 -159 -264 -428q0 -156 102 -258q103 -103 264 -103q187 0 320 133q106 103 106 211q0 75 -61 93l-27 8q-10 3 -10 14q0 18 27 18q56 0 102 -55q45 -54 45 -123q0 -134 -151 -237q-152 -101 -355 -101q-213 0 -352 121q-137 125 -137 312q0 179 133 321q71 71 158 115
t258 71q32 6 32 25l-4 20q-22 78 -22 129q0 139 129 238q129 100 309 100q174 0 293 -88q117 -89 117 -219zM1444 1599q0 -13 -17 -24q-107 -82 -231 -82q-27 0 -27 16q0 13 25 19q64 21 133 71q33 23 53 23q64 0 64 -23z" />
    <glyph glyph-name="Ecircumflex" unicode="&#xca;" horiz-adv-x="1183" 
d="M1567 1118q0 -103 -80 -180q-79 -76 -191 -76q-81 0 -155 56q-45 33 -45 59q0 18 14 18q10 0 23 -16q50 -68 137 -68q94 0 162 68q65 68 65 168q0 93 -72 153t-184 60q-171 0 -307 -109q-137 -110 -137 -241q0 -20 10 -82q4 -14 4 -25q0 -12 -20 -18q-133 -23 -236 -84
q-264 -159 -264 -428q0 -156 102 -258q103 -103 264 -103q187 0 320 133q106 103 106 211q0 75 -61 93l-27 8q-10 3 -10 14q0 18 27 18q56 0 102 -55q45 -54 45 -123q0 -134 -151 -237q-152 -101 -355 -101q-213 0 -352 121q-137 125 -137 312q0 179 133 321q71 71 158 115
t258 71q32 6 32 25l-4 20q-22 78 -22 129q0 139 129 238q129 100 309 100q174 0 293 -88q117 -89 117 -219zM1417 1509q0 -24 -47 -24q-27 0 -45 96q0 1 -1 2t-1 2l-10 -4q-155 -63 -197 -63q-24 0 -24 18l4 8q1 0 12 4.5t30 11t42 13.5q19 6 46 14.5t36 11.5l73 27
q28 8 29 8q13 0 16 -10l17 -51l18 -53q0 -2 1 -5.5t1 -5.5z" />
    <glyph glyph-name="Edieresis" unicode="&#xcb;" horiz-adv-x="1183" 
d="M1567 1118q0 -103 -80 -180q-79 -76 -191 -76q-81 0 -155 56q-45 33 -45 59q0 18 14 18q10 0 23 -16q50 -68 137 -68q94 0 162 68q65 68 65 168q0 93 -72 153t-184 60q-171 0 -307 -109q-137 -110 -137 -241q0 -20 10 -82q4 -14 4 -25q0 -12 -20 -18q-133 -23 -236 -84
q-264 -159 -264 -428q0 -156 102 -258q103 -103 264 -103q187 0 320 133q106 103 106 211q0 75 -61 93l-27 8q-10 3 -10 14q0 18 27 18q56 0 102 -55q45 -54 45 -123q0 -134 -151 -237q-152 -101 -355 -101q-213 0 -352 121q-137 125 -137 312q0 179 133 321q71 71 158 115
t258 71q32 6 32 25l-4 20q-22 78 -22 129q0 139 129 238q129 100 309 100q174 0 293 -88q117 -89 117 -219zM1382 1563q0 -64 -55 -64q-35 0 -35 39q0 26 18 46t40 20q32 0 32 -41zM1182 1563q0 -64 -56 -64q-34 0 -34 39q0 26 17.5 46t39.5 20q33 0 33 -41z" />
    <glyph glyph-name="Igrave" unicode="&#xcc;" horiz-adv-x="1050" 
d="M1706 1341q0 -11 -23 -34q-116 -106 -264 -320q-154 -223 -260 -434l-4 -8q79 10 125 43q10 6 19.5 12t14.5 9.5t7 4.5q4 4 14 4q17 0 17 -14q0 -31 -68 -61q-63 -32 -154 -45h-4l-10 -17q-158 -256 -354 -381q-196 -127 -402 -127q-278 0 -278 236q0 63 27 63
q16 0 16 -16q0 -8 -2 -12q-4 -28 -4 -45q0 -78 50.5 -123t139.5 -45q165 0 348 127q189 135 314 336q-98 16 -156 79q-59 68 -59 160q0 137 104 271q104 137 275 223q110 57 268 100q141 41 256 41q47 0 47 -27zM1663 1341q-180 -9 -442 -182q-338 -225 -338 -454
q0 -58 39 -103q38 -41 92 -41h6l4 6q152 300 356 516q8 8 26.5 27t36 36.5t34.5 33.5q108 106 186 161zM1622 1507q0 -14 -27 -14q-60 0 -127 49q-61 43 -61 78q0 18 41 18h4q31 0 43 -12q3 -3 20.5 -19t32.5 -28q6 -9 27 -25q47 -35 47 -47z" />
    <glyph glyph-name="Iacute" unicode="&#xcd;" horiz-adv-x="1050" 
d="M1706 1341q0 -11 -23 -34q-116 -106 -264 -320q-154 -223 -260 -434l-4 -8q79 10 125 43q10 6 19.5 12t14.5 9.5t7 4.5q4 4 14 4q17 0 17 -14q0 -31 -68 -61q-63 -32 -154 -45h-4l-10 -17q-158 -256 -354 -381q-196 -127 -402 -127q-278 0 -278 236q0 63 27 63
q16 0 16 -16q0 -8 -2 -12q-4 -28 -4 -45q0 -78 50.5 -123t139.5 -45q165 0 348 127q189 135 314 336q-98 16 -156 79q-59 68 -59 160q0 137 104 271q104 137 275 223q110 57 268 100q141 41 256 41q47 0 47 -27zM1663 1341q-180 -9 -442 -182q-338 -225 -338 -454
q0 -58 39 -103q38 -41 92 -41h6l4 6q152 300 356 516q8 8 26.5 27t36 36.5t34.5 33.5q108 106 186 161zM1731 1599q0 -13 -17 -24q-107 -82 -231 -82q-27 0 -27 16q0 13 25 19q64 21 133 71q33 23 53 23q64 0 64 -23z" />
    <glyph glyph-name="Icircumflex" unicode="&#xce;" horiz-adv-x="1050" 
d="M1706 1341q0 -11 -23 -34q-116 -106 -264 -320q-154 -223 -260 -434l-4 -8q79 10 125 43q10 6 19.5 12t14.5 9.5t7 4.5q4 4 14 4q17 0 17 -14q0 -31 -68 -61q-63 -32 -154 -45h-4l-10 -17q-158 -256 -354 -381q-196 -127 -402 -127q-278 0 -278 236q0 63 27 63
q16 0 16 -16q0 -8 -2 -12q-4 -28 -4 -45q0 -78 50.5 -123t139.5 -45q165 0 348 127q189 135 314 336q-98 16 -156 79q-59 68 -59 160q0 137 104 271q104 137 275 223q110 57 268 100q141 41 256 41q47 0 47 -27zM1663 1341q-180 -9 -442 -182q-338 -225 -338 -454
q0 -58 39 -103q38 -41 92 -41h6l4 6q152 300 356 516q8 8 26.5 27t36 36.5t34.5 33.5q108 106 186 161zM1745 1509q0 -24 -47 -24q-27 0 -45 96q0 1 -1 2t-1 2l-11 -4q-155 -63 -196 -63q-25 0 -25 18l4 8q1 0 12 4.5t30 11t42 13.5q19 6 46 14.5t36 11.5l74 27q28 8 29 8
q13 0 16 -10l16 -51l19 -53q0 -2 1 -5.5t1 -5.5z" />
    <glyph glyph-name="Idieresis" unicode="&#xcf;" horiz-adv-x="1050" 
d="M1706 1341q0 -11 -23 -34q-116 -106 -264 -320q-154 -223 -260 -434l-4 -8q79 10 125 43q10 6 19.5 12t14.5 9.5t7 4.5q4 4 14 4q17 0 17 -14q0 -31 -68 -61q-63 -32 -154 -45h-4l-10 -17q-158 -256 -354 -381q-196 -127 -402 -127q-278 0 -278 236q0 63 27 63
q16 0 16 -16q0 -8 -2 -12q-4 -28 -4 -45q0 -78 50.5 -123t139.5 -45q165 0 348 127q189 135 314 336q-98 16 -156 79q-59 68 -59 160q0 137 104 271q104 137 275 223q110 57 268 100q141 41 256 41q47 0 47 -27zM1663 1341q-180 -9 -442 -182q-338 -225 -338 -454
q0 -58 39 -103q38 -41 92 -41h6l4 6q152 300 356 516q8 8 26.5 27t36 36.5t34.5 33.5q108 106 186 161zM1724 1563q0 -64 -55 -64q-35 0 -35 39q0 26 18 46t40 20q32 0 32 -41zM1524 1563q0 -64 -56 -64q-34 0 -34 39q0 26 17.5 46t39.5 20q33 0 33 -41z" />
    <glyph glyph-name="Ntilde" unicode="&#xd1;" horiz-adv-x="1789" 
d="M2554 1114q0 -90 -41 -90q-14 0 -14 12q0 2 1 6.5t1 6.5q4 10 4 45q0 67 -45 112q-47 47 -111 47q-89 0 -207 -106q-116 -110 -219 -285l-514 -864q-4 -7 -14 -14q-9 -9 -19 -9q-26 0 -26 66q0 15 16 162q59 508 59 649v39l-4 90l-6 78l-14 80q-53 -207 -191 -471
q-357 -688 -804 -688q-136 0 -230 67t-94 168q0 59 35 100q9 15 20 15q15 0 15 -15q0 -7 -7 -24q-18 -49 -18 -74q0 -71 61 -117q62 -45 162 -45q292 0 586 312q141 153 231 315q105 188 187 432l55 166q21 63 37 63q8 0 20 -8q25 -19 50 -104q51 -182 51 -373
q0 -137 -41 -448q-16 -115 -33 -195q20 30 33 57l125 240q286 550 415 702q102 123 234 123q101 0 176 -69q78 -69 78 -154zM2068 1561q0 -9 -4 -17q-43 -55 -112 -55q-32 0 -107 35q-75 37 -112 37q-19 0 -50 -21q-16 -8 -18 -8q-12 0 -12 10q0 20 35 41q47 29 77 29
q23 0 107 -35t110 -35h7q26 3 61 27l8 4q10 0 10 -12z" />
    <glyph glyph-name="Ograve" unicode="&#xd2;" horiz-adv-x="1267" 
d="M1528 991q0 -178 -92 -373q-92 -192 -254 -354q-287 -284 -570 -284q-177 0 -293 131q-114 132 -114 340q0 197 123 399q124 205 321 336q73 51 176 96q24 8 31 8q14 0 14 -14q0 -11 -57 -45q-217 -123 -371 -379q-151 -257 -151 -487q0 -136 82 -234q84 -96 200 -96
q216 0 428 203q182 173 293 401q111 231 111 432q0 117 -64 193q-65 77 -159 77q-117 0 -217 -100q-88 -88 -88 -176q0 -61 55 -82q14 -3 14 -16q0 -17 -22 -17q-36 0 -62 33q-26 41 -26 78q0 115 100 215q115 115 262 115q135 0 234 -117q96 -119 96 -283zM1260 1507
q0 -14 -27 -14q-60 0 -127 49q-62 44 -62 78q0 18 41 18h5q31 0 43 -12q3 -3 20.5 -19t32.5 -28q8 -11 26 -25q48 -36 48 -47z" />
    <glyph glyph-name="Oacute" unicode="&#xd3;" horiz-adv-x="1267" 
d="M1528 991q0 -178 -92 -373q-92 -192 -254 -354q-287 -284 -570 -284q-177 0 -293 131q-114 132 -114 340q0 197 123 399q124 205 321 336q73 51 176 96q24 8 31 8q14 0 14 -14q0 -11 -57 -45q-217 -123 -371 -379q-151 -257 -151 -487q0 -136 82 -234q84 -96 200 -96
q216 0 428 203q182 173 293 401q111 231 111 432q0 117 -64 193q-65 77 -159 77q-117 0 -217 -100q-88 -88 -88 -176q0 -61 55 -82q14 -3 14 -16q0 -17 -22 -17q-36 0 -62 33q-26 41 -26 78q0 115 100 215q115 115 262 115q135 0 234 -117q96 -119 96 -283zM1380 1599
q0 -13 -16 -24q-107 -82 -231 -82q-27 0 -27 16q0 13 24 19q65 21 134 71q33 23 53 23q63 0 63 -23z" />
    <glyph glyph-name="Ocircumflex" unicode="&#xd4;" horiz-adv-x="1267" 
d="M1528 991q0 -178 -92 -373q-92 -192 -254 -354q-287 -284 -570 -284q-177 0 -293 131q-114 132 -114 340q0 197 123 399q124 205 321 336q73 51 176 96q24 8 31 8q14 0 14 -14q0 -11 -57 -45q-217 -123 -371 -379q-151 -257 -151 -487q0 -136 82 -234q84 -96 200 -96
q216 0 428 203q182 173 293 401q111 231 111 432q0 117 -64 193q-65 77 -159 77q-117 0 -217 -100q-88 -88 -88 -176q0 -61 55 -82q14 -3 14 -16q0 -17 -22 -17q-36 0 -62 33q-26 41 -26 78q0 115 100 215q115 115 262 115q135 0 234 -117q96 -119 96 -283zM1389 1509
q0 -24 -48 -24q-27 0 -45 96q0 1 -1 2t-1 2l-10 -4q-155 -63 -197 -63q-24 0 -24 18l4 8q1 0 12 4.5t30 11t42 13.5q19 6 46 14.5t36 11.5l74 27l28 8q14 0 17 -10l16 -51l18 -53q0 -2 1.5 -5.5t1.5 -5.5z" />
    <glyph glyph-name="Otilde" unicode="&#xd5;" horiz-adv-x="1267" 
d="M1528 991q0 -178 -92 -373q-92 -192 -254 -354q-287 -284 -570 -284q-177 0 -293 131q-114 132 -114 340q0 197 123 399q124 205 321 336q73 51 176 96q24 8 31 8q14 0 14 -14q0 -11 -57 -45q-217 -123 -371 -379q-151 -257 -151 -487q0 -136 82 -234q84 -96 200 -96
q216 0 428 203q182 173 293 401q111 231 111 432q0 117 -64 193q-65 77 -159 77q-117 0 -217 -100q-88 -88 -88 -176q0 -61 55 -82q14 -3 14 -16q0 -17 -22 -17q-36 0 -62 33q-26 41 -26 78q0 115 100 215q115 115 262 115q135 0 234 -117q96 -119 96 -283zM1425 1561
q0 -9 -4 -17q-43 -55 -112 -55q-32 0 -107 35q-75 37 -112 37q-18 0 -50 -21q-16 -8 -18 -8q-12 0 -12 10q0 20 34 41q47 29 78 29q23 0 107 -35t110 -35h7q26 3 61 27l8 4q10 0 10 -12z" />
    <glyph glyph-name="Odieresis" unicode="&#xd6;" horiz-adv-x="1267" 
d="M1528 991q0 -178 -92 -373q-92 -192 -254 -354q-287 -284 -570 -284q-177 0 -293 131q-114 132 -114 340q0 197 123 399q124 205 321 336q73 51 176 96q24 8 31 8q14 0 14 -14q0 -11 -57 -45q-217 -123 -371 -379q-151 -257 -151 -487q0 -136 82 -234q84 -96 200 -96
q216 0 428 203q182 173 293 401q111 231 111 432q0 117 -64 193q-65 77 -159 77q-117 0 -217 -100q-88 -88 -88 -176q0 -61 55 -82q14 -3 14 -16q0 -17 -22 -17q-36 0 -62 33q-26 41 -26 78q0 115 100 215q115 115 262 115q135 0 234 -117q96 -119 96 -283zM1372 1563
q0 -64 -55 -64q-35 0 -35 39q0 26 17.5 46t39.5 20q33 0 33 -41zM1171 1563q0 -64 -55 -64q-35 0 -35 39q0 26 18 46t40 20q32 0 32 -41z" />
    <glyph glyph-name="Oslash" unicode="&#xd8;" horiz-adv-x="1249" 
d="M1755 1335q0 -4 -8 -12l-6 -4l-256 -199q18 -67 18 -127q0 -180 -92 -375q-92 -192 -254 -354q-287 -284 -569 -284q-226 0 -336 192l-174 -133q-15 -12 -23 -12q-14 0 -14 16q0 13 14 27l178 135q-53 124 -53 246q0 196 121 397q122 202 324 338q63 44 176 96q24 8 30 8
q15 0 15 -14q0 -11 -58 -45q-217 -123 -368 -379q-154 -257 -154 -487q0 -50 19 -121l1095 841q-9 116 -69 185q-62 71 -154 71q-117 0 -217 -100q-88 -88 -88 -176q0 -61 55 -82q15 -3 15 -16q0 -17 -23 -17q-38 0 -61 33q-27 37 -27 78q0 115 100 215q112 115 263 115
q208 0 299 -234l247 191q6 6 17 6q18 0 18 -19zM1378 1038l-1079 -829q82 -174 250 -174q207 0 428 203q167 151 276 368q107 209 125 432z" />
    <glyph glyph-name="Ugrave" unicode="&#xd9;" horiz-adv-x="1521" 
d="M2013 1352q0 -16 -61 -86q-67 -75 -205 -265q-288 -397 -440 -663q-88 -152 -88 -242q0 -65 51 -65q27 0 57 12q30 10 82 49q19 19 31 29q23 20 33 20q12 0 12 -14t-27 -41q-105 -111 -221 -111q-50 0 -88 35q-37 40 -37 90q0 47 23 121l10 31l4 8l-8 -8
q-275 -272 -496 -272q-111 0 -186 81q-78 84 -78 201q0 169 100 338q59 99 144 207q98 122 217 229q-3 -1 -103 -32q-110 -29 -149 -29q-31 0 -31 20q0 15 43 21q20 3 82 18q17 4 65.5 19t71.5 22l203 64q15 6 23 6q18 0 18 -17q0 -12 -23 -38l-59 -60q-216 -216 -367 -473
q-106 -178 -106 -334q0 -79 47 -135q50 -53 121 -53q93 0 217 102q129 111 231 232q113 133 324 430q138 195 236 315l88 109l32 41q3 0 9 6l-13 -4q-104 -34 -143 -43q-102 -21 -219 -21q-103 0 -248 23l-242 41q-84 16 -194 16q-281 0 -492 -135q-209 -138 -209 -320
q0 -72 49 -133q15 -18 15 -22q0 -15 -19 -15q-44 0 -73 97q-27 76 -27 131q0 205 199 352q196 147 469 147q203 0 524 -86q183 -49 309 -49q74 0 150 13q130 22 256 81l45 21q23 10 37 10q3 0 7 -1t5 -1q12 -9 12 -20zM1534 1507q0 -14 -27 -14q-60 0 -127 49q-61 43 -61 78
q0 18 41 18h4q31 0 43 -12q3 -3 20.5 -19t32.5 -28q6 -9 27 -25q47 -35 47 -47z" />
    <glyph glyph-name="Uacute" unicode="&#xda;" horiz-adv-x="1521" 
d="M2013 1352q0 -16 -61 -86q-67 -75 -205 -265q-288 -397 -440 -663q-88 -152 -88 -242q0 -65 51 -65q27 0 57 12q30 10 82 49q19 19 31 29q23 20 33 20q12 0 12 -14t-27 -41q-105 -111 -221 -111q-50 0 -88 35q-37 40 -37 90q0 47 23 121l10 31l4 8l-8 -8
q-275 -272 -496 -272q-111 0 -186 81q-78 84 -78 201q0 169 100 338q59 99 144 207q98 122 217 229q-3 -1 -103 -32q-110 -29 -149 -29q-31 0 -31 20q0 15 43 21q20 3 82 18q17 4 65.5 19t71.5 22l203 64q15 6 23 6q18 0 18 -17q0 -12 -23 -38l-59 -60q-216 -216 -367 -473
q-106 -178 -106 -334q0 -79 47 -135q50 -53 121 -53q93 0 217 102q129 111 231 232q113 133 324 430q138 195 236 315l88 109l32 41q3 0 9 6l-13 -4q-104 -34 -143 -43q-102 -21 -219 -21q-103 0 -248 23l-242 41q-84 16 -194 16q-281 0 -492 -135q-209 -138 -209 -320
q0 -72 49 -133q15 -18 15 -22q0 -15 -19 -15q-44 0 -73 97q-27 76 -27 131q0 205 199 352q196 147 469 147q203 0 524 -86q183 -49 309 -49q74 0 150 13q130 22 256 81l45 21q23 10 37 10q3 0 7 -1t5 -1q12 -9 12 -20zM1599 1599q0 -13 -16 -24q-107 -82 -231 -82
q-27 0 -27 16q0 13 25 19q64 21 133 71q33 23 53 23q63 0 63 -23z" />
    <glyph glyph-name="Ucircumflex" unicode="&#xdb;" horiz-adv-x="1521" 
d="M2013 1352q0 -16 -61 -86q-67 -75 -205 -265q-288 -397 -440 -663q-88 -152 -88 -242q0 -65 51 -65q27 0 57 12q30 10 82 49q19 19 31 29q23 20 33 20q12 0 12 -14t-27 -41q-105 -111 -221 -111q-50 0 -88 35q-37 40 -37 90q0 47 23 121l10 31l4 8l-8 -8
q-275 -272 -496 -272q-111 0 -186 81q-78 84 -78 201q0 169 100 338q59 99 144 207q98 122 217 229q-3 -1 -103 -32q-110 -29 -149 -29q-31 0 -31 20q0 15 43 21q20 3 82 18q17 4 65.5 19t71.5 22l203 64q15 6 23 6q18 0 18 -17q0 -12 -23 -38l-59 -60q-216 -216 -367 -473
q-106 -178 -106 -334q0 -79 47 -135q50 -53 121 -53q93 0 217 102q129 111 231 232q113 133 324 430q138 195 236 315l88 109l32 41q3 0 9 6l-13 -4q-104 -34 -143 -43q-102 -21 -219 -21q-103 0 -248 23l-242 41q-84 16 -194 16q-281 0 -492 -135q-209 -138 -209 -320
q0 -72 49 -133q15 -18 15 -22q0 -15 -19 -15q-44 0 -73 97q-27 76 -27 131q0 205 199 352q196 147 469 147q203 0 524 -86q183 -49 309 -49q74 0 150 13q130 22 256 81l45 21q23 10 37 10q3 0 7 -1t5 -1q12 -9 12 -20zM1673 1509q0 -24 -47 -24q-27 0 -45 96q0 1 -1 2t-1 2
l-10 -4q-155 -63 -197 -63q-24 0 -24 18l4 8q1 0 12 4.5t30 11t42 13.5q19 6 46 14.5t36 11.5l73 27q28 8 29 8q13 0 16 -10l17 -51l18 -53q0 -2 1 -5.5t1 -5.5z" />
    <glyph glyph-name="Udieresis" unicode="&#xdc;" horiz-adv-x="1521" 
d="M2013 1352q0 -16 -61 -86q-67 -75 -205 -265q-288 -397 -440 -663q-88 -152 -88 -242q0 -65 51 -65q27 0 57 12q30 10 82 49q19 19 31 29q23 20 33 20q12 0 12 -14t-27 -41q-105 -111 -221 -111q-50 0 -88 35q-37 40 -37 90q0 47 23 121l10 31l4 8l-8 -8
q-275 -272 -496 -272q-111 0 -186 81q-78 84 -78 201q0 169 100 338q59 99 144 207q98 122 217 229q-3 -1 -103 -32q-110 -29 -149 -29q-31 0 -31 20q0 15 43 21q20 3 82 18q17 4 65.5 19t71.5 22l203 64q15 6 23 6q18 0 18 -17q0 -12 -23 -38l-59 -60q-216 -216 -367 -473
q-106 -178 -106 -334q0 -79 47 -135q50 -53 121 -53q93 0 217 102q129 111 231 232q113 133 324 430q138 195 236 315l88 109l32 41q3 0 9 6l-13 -4q-104 -34 -143 -43q-102 -21 -219 -21q-103 0 -248 23l-242 41q-84 16 -194 16q-281 0 -492 -135q-209 -138 -209 -320
q0 -72 49 -133q15 -18 15 -22q0 -15 -19 -15q-44 0 -73 97q-27 76 -27 131q0 205 199 352q196 147 469 147q203 0 524 -86q183 -49 309 -49q74 0 150 13q130 22 256 81l45 21q23 10 37 10q3 0 7 -1t5 -1q12 -9 12 -20zM1653 1563q0 -64 -56 -64q-34 0 -34 39q0 26 17.5 46
t39.5 20q33 0 33 -41zM1452 1563q0 -64 -55 -64q-35 0 -35 39q0 26 17.5 46t39.5 20q33 0 33 -41z" />
    <glyph glyph-name="Yacute" unicode="&#xdd;" horiz-adv-x="1130" 
d="M1786 1327q0 -13 -27 -37l-24 -20q-62 -62 -101 -109q-117 -138 -305 -469q-135 -237 -233 -362q-95 -117 -230 -211q-204 -139 -430 -139q-222 0 -360 129q-51 51 -51 77q0 15 16 15q11 0 27 -19q114 -147 297 -147q196 0 403 160q89 68 147 133q61 68 203 258l12 16
q-194 -153 -370 -153q-114 0 -182 53q-70 55 -70 143q0 176 242 365l153 118q-30 -13 -117 -36q-124 -31 -151 -31q-23 0 -23 18q0 19 41 25q49 7 131 29q103 28 177 63q27 12 38 12q17 0 17 -14q0 -17 -39 -53q-171 -159 -262 -289q-78 -113 -78 -215q0 -61 43 -100
t111 -39q48 0 116 20q160 54 334 277l172 219q52 65 123 133q52 49 156 131l-66 -23q-109 -34 -223 -34q-134 0 -291 34l-188 41q-142 29 -254 29q-268 0 -449 -111q-180 -107 -180 -270q0 -58 33 -108q12 -18 12 -25q0 -12 -12 -12q-8 0 -25 20q-49 61 -49 146
q0 189 166 327q163 138 391 138q164 0 332 -52l237 -71q155 -45 289 -45q146 0 250 43l80 32q15 6 24 6q17 0 17 -16zM1458 1599q0 -13 -16 -24q-107 -82 -232 -82q-26 0 -26 16q0 13 24 19q64 21 133 71q33 23 54 23q63 0 63 -23z" />
    <glyph glyph-name="germandbls" unicode="&#xdf;" horiz-adv-x="892" 
d="M1208 924q0 -116 -92 -193q-64 -51 -190 -90q-115 -35 -115 -80q0 -27 6 -57l21 -76q24 -92 24 -164q0 -131 -71 -211q-69 -78 -187 -78q-89 0 -145 50t-56 129q0 59 23 59q16 0 16 -16l-4 -15q-2 -6 -2 -24q0 -59 39 -95q41 -38 98 -38q61 0 111 47q36 36 45 65
q37 112 37 312v53q0 66 10 86q12 24 27 39q22 25 129 86q211 123 211 264q0 64 -37 104q-40 43 -94 43q-58 0 -107 -34q-107 -74 -203 -226l-524 -837q-95 -154 -235 -250q-141 -99 -267 -99q-94 0 -145 54q-8 12 -8 20q0 12 10 12q7 0 37 -18q44 -27 84 -27q188 0 385 308
l350 546q-70 -20 -113 -20q-28 0 -28 16t41 25q115 27 182 121l143 203q172 245 377 245q89 0 154 -71q63 -69 63 -168z" />
    <glyph glyph-name="agrave" unicode="&#xe0;" horiz-adv-x="747" 
d="M870 528q0 -7 -6 -16l-198 -317q-45 -73 -45 -121q0 -7 5 -24t5 -23q0 -41 -90 -41q-43 0 -43 45q0 38 22 102q-196 -149 -344 -149q-59 0 -94 32t-35 86q0 145 182 289q113 91 228 127q107 39 288 33l76 -2q49 0 49 -21zM610 311l103 166l-19 2q-56 6 -108 6
q-163 0 -256 -90q-60 -61 -107 -143q-45 -80 -45 -139q0 -29 21.5 -49.5t50.5 -20.5q76 0 186 82q110 79 174 186zM743 688q0 -14 -26 -14q-60 0 -127 49q-62 44 -62 78q0 18 41 18h4q31 0 43 -12q3 -2 21 -18.5t33 -28.5q8 -10 26 -25q47 -35 47 -47z" />
    <glyph glyph-name="aacute" unicode="&#xe1;" horiz-adv-x="747" 
d="M870 528q0 -7 -6 -16l-198 -317q-45 -73 -45 -121q0 -7 5 -24t5 -23q0 -41 -90 -41q-43 0 -43 45q0 38 22 102q-196 -149 -344 -149q-59 0 -94 32t-35 86q0 145 182 289q113 91 228 127q107 39 288 33l76 -2q49 0 49 -21zM610 311l103 166l-19 2q-56 6 -108 6
q-163 0 -256 -90q-60 -61 -107 -143q-45 -80 -45 -139q0 -29 21.5 -49.5t50.5 -20.5q76 0 186 82q110 79 174 186zM817 780q0 -13 -16 -24q-107 -82 -232 -82q-26 0 -26 16q0 13 24 19q64 21 133 71q33 23 54 23q63 0 63 -23z" />
    <glyph glyph-name="acircumflex" unicode="&#xe2;" horiz-adv-x="747" 
d="M870 528q0 -7 -6 -16l-198 -317q-45 -73 -45 -121q0 -7 5 -24t5 -23q0 -41 -90 -41q-43 0 -43 45q0 38 22 102q-196 -149 -344 -149q-59 0 -94 32t-35 86q0 145 182 289q113 91 228 127q107 39 288 33l76 -2q49 0 49 -21zM610 311l103 166l-19 2q-56 6 -108 6
q-163 0 -256 -90q-60 -61 -107 -143q-45 -80 -45 -139q0 -29 21.5 -49.5t50.5 -20.5q76 0 186 82q110 79 174 186zM817 690q0 -24 -47 -24q-27 0 -45 96q0 1 -1 2t-1 2l-10 -4q-158 -64 -197 -64q-24 0 -24 19l4 8q1 0 12 4.5t30 11t42 13.5q19 6 46 14.5t36 11.5l73 27
q28 8 29 8q13 0 16 -10l17 -51l18 -54q0 -2 1 -5t1 -5z" />
    <glyph glyph-name="atilde" unicode="&#xe3;" horiz-adv-x="747" 
d="M870 528q0 -7 -6 -16l-198 -317q-45 -73 -45 -121q0 -7 5 -24t5 -23q0 -41 -90 -41q-43 0 -43 45q0 38 22 102q-196 -149 -344 -149q-59 0 -94 32t-35 86q0 145 182 289q113 91 228 127q107 39 288 33l76 -2q49 0 49 -21zM610 311l103 166l-19 2q-56 6 -108 6
q-163 0 -256 -90q-60 -61 -107 -143q-45 -80 -45 -139q0 -29 21.5 -49.5t50.5 -20.5q76 0 186 82q110 79 174 186zM885 741q0 -8 -4 -16q-43 -55 -113 -55q-31 0 -106 35q-73 36 -113 36q-19 0 -49 -20q-16 -8 -19 -8q-12 0 -12 10q0 20 35 41q47 29 78 29q22 0 106 -35
t111 -35h6q26 3 61 27l8 4q11 0 11 -13z" />
    <glyph glyph-name="adieresis" unicode="&#xe4;" horiz-adv-x="747" 
d="M870 528q0 -7 -6 -16l-198 -317q-45 -73 -45 -121q0 -7 5 -24t5 -23q0 -41 -90 -41q-43 0 -43 45q0 38 22 102q-196 -149 -344 -149q-59 0 -94 32t-35 86q0 145 182 289q113 91 228 127q107 39 288 33l76 -2q49 0 49 -21zM610 311l103 166l-19 2q-56 6 -108 6
q-163 0 -256 -90q-60 -61 -107 -143q-45 -80 -45 -139q0 -29 21.5 -49.5t50.5 -20.5q76 0 186 82q110 79 174 186zM803 743q0 -63 -55 -63q-35 0 -35 39q0 26 17.5 45.5t39.5 19.5q33 0 33 -41zM602 743q0 -63 -55 -63q-35 0 -35 39q0 26 17.5 45.5t39.5 19.5q33 0 33 -41z
" />
    <glyph glyph-name="aring" unicode="&#xe5;" horiz-adv-x="747" 
d="M870 528q0 -7 -6 -16l-198 -317q-45 -73 -45 -121q0 -7 5 -24t5 -23q0 -41 -90 -41q-43 0 -43 45q0 38 22 102q-196 -149 -344 -149q-59 0 -94 32t-35 86q0 145 182 289q113 91 228 127q107 39 288 33l76 -2q49 0 49 -21zM610 311l103 166l-19 2q-56 6 -108 6
q-163 0 -256 -90q-60 -61 -107 -143q-45 -80 -45 -139q0 -29 21.5 -49.5t50.5 -20.5q76 0 186 82q110 79 174 186zM831 803q0 -46 -73 -98q-79 -58 -142 -58q-51 0 -51 41q0 52 82 107q74 51 131 51q53 0 53 -43zM770 776q0 25 -29 25q-14 0 -22 -4q-35 -11 -66 -39
q-30 -24 -30 -43q0 -25 28 -25q17 0 29 6q90 35 90 80z" />
    <glyph glyph-name="ae" unicode="&#xe6;" horiz-adv-x="1103" 
d="M1200 455q0 -89 -158 -176q-161 -88 -383 -115q-4 -14 -4 -29q0 -92 95 -92q106 0 249 90q17 10 23 10q10 0 10 -10q0 -15 -26 -35q-132 -108 -318 -108q-157 0 -160 143q-199 -149 -346 -149q-127 0 -127 118q0 144 183 289q113 91 225 127q113 39 291 33l73 -2
q50 0 50 -21q0 -6 -5 -16l11 4l41 19q56 26 129 26q147 0 147 -106zM1126 479q0 43 -61 43q-105 0 -217 -92q-106 -87 -174 -223l-4 -8l6 2q175 35 309 121q141 86 141 157zM616 311l105 166q-90 8 -131 8q-159 0 -252 -90q-67 -67 -107 -143q-45 -80 -45 -139q0 -70 72 -70
q75 0 182 82q105 75 176 186z" />
    <glyph glyph-name="ccedilla" unicode="&#xe7;" horiz-adv-x="620" 
d="M784 535q0 -64 -41 -64q-18 0 -38 4l-43 10q-53 11 -101 11q-131 0 -221 -97q-147 -150 -147 -272q0 -35 28 -59.5t68 -24.5q97 0 213 61q22 11 26 11q15 0 15 -13q0 -9 -15 -18q-137 -85 -292 -94l-7 -2l-57 -68q45 -6 45 -41q0 -39 -45 -65q-47 -29 -100 -29
q-58 0 -58 25q0 18 25 18l6 -2h14q88 0 88 53q0 9 -13 20t-13 13t4 10l8 8l51 58q-125 12 -125 123q0 167 220 317q188 129 385 129q34 0 110 -6q10 -3 10 -16z" />
    <glyph glyph-name="egrave" unicode="&#xe8;" horiz-adv-x="643" 
d="M739 455q0 -91 -159 -176q-162 -89 -381 -115q-6 -15 -6 -31q0 -90 96 -90q108 0 248 90q17 10 22 10q10 0 10 -10q0 -17 -24 -35q-138 -108 -318 -108q-69 0 -114 39t-45 96q0 84 61 172q69 95 170 158q162 104 301 104q61 0 100 -29t39 -75zM666 479q0 43 -64 43
q-105 0 -221 -90q-109 -85 -170 -225l-2 -8l6 2q176 36 309 121q142 86 142 157zM680 688q0 -14 -27 -14q-60 0 -127 49q-61 43 -61 78q0 18 41 18h4q31 0 43 -12q3 -3 20.5 -19t32.5 -28q6 -8 27 -25q47 -35 47 -47z" />
    <glyph glyph-name="eacute" unicode="&#xe9;" horiz-adv-x="643" 
d="M739 455q0 -91 -159 -176q-162 -89 -381 -115q-6 -15 -6 -31q0 -90 96 -90q108 0 248 90q17 10 22 10q10 0 10 -10q0 -17 -24 -35q-138 -108 -318 -108q-69 0 -114 39t-45 96q0 84 61 172q69 95 170 158q162 104 301 104q61 0 100 -29t39 -75zM666 479q0 43 -64 43
q-105 0 -221 -90q-109 -85 -170 -225l-2 -8l6 2q176 36 309 121q142 86 142 157zM784 780q0 -13 -16 -24q-107 -82 -231 -82q-27 0 -27 16q0 13 25 19q64 21 133 71q33 23 53 23q63 0 63 -23z" />
    <glyph glyph-name="ecircumflex" unicode="&#xea;" horiz-adv-x="643" 
d="M739 455q0 -91 -159 -176q-162 -89 -381 -115q-6 -15 -6 -31q0 -90 96 -90q108 0 248 90q17 10 22 10q10 0 10 -10q0 -17 -24 -35q-138 -108 -318 -108q-69 0 -114 39t-45 96q0 84 61 172q69 95 170 158q162 104 301 104q61 0 100 -29t39 -75zM666 479q0 43 -64 43
q-105 0 -221 -90q-109 -85 -170 -225l-2 -8l6 2q176 36 309 121q142 86 142 157zM750 690q0 -24 -48 -24q-27 0 -45 96q0 1 -1 2t-1 2l-10 -4q-158 -64 -196 -64q-25 0 -25 19l4 8q1 0 12 4.5t30 11t42 13.5q19 6 46 14.5t36 11.5l74 27q5 1 12 3.5t10.5 3.5t5.5 1
q14 0 17 -10l16 -51l19 -54q0 -2 1 -5t1 -5z" />
    <glyph glyph-name="edieresis" unicode="&#xeb;" horiz-adv-x="643" 
d="M739 455q0 -91 -159 -176q-162 -89 -381 -115q-6 -15 -6 -31q0 -90 96 -90q108 0 248 90q17 10 22 10q10 0 10 -10q0 -17 -24 -35q-138 -108 -318 -108q-69 0 -114 39t-45 96q0 84 61 172q69 95 170 158q162 104 301 104q61 0 100 -29t39 -75zM666 479q0 43 -64 43
q-105 0 -221 -90q-109 -85 -170 -225l-2 -8l6 2q176 36 309 121q142 86 142 157zM766 743q0 -63 -55 -63q-35 0 -35 39q0 26 17.5 45.5t39.5 19.5q33 0 33 -41zM565 743q0 -63 -55 -63q-35 0 -35 39q0 26 17.5 45.5t39.5 19.5q33 0 33 -41z" />
    <glyph glyph-name="igrave" unicode="&#xec;" horiz-adv-x="339" 
d="M457 520q0 -10 -17 -37l-239 -374q-1 -2 -7 -14.5t-8 -16.5q-16 -48 -36 -60q-36 -26 -91 -26q-45 0 -45 26q0 12 35 68l236 375q9 12 18 39q11 33 47 45q31 8 51 8q56 0 56 -33zM487 688q0 -14 -26 -14q-60 0 -127 49q-62 44 -62 78q0 18 41 18h4q31 0 43 -12
q3 -2 21 -18.5t33 -28.5q8 -10 26 -25q47 -35 47 -47z" />
    <glyph glyph-name="iacute" unicode="&#xed;" horiz-adv-x="339" 
d="M457 520q0 -10 -17 -37l-239 -374q-1 -2 -7 -14.5t-8 -16.5q-16 -48 -36 -60q-36 -26 -91 -26q-45 0 -45 26q0 12 35 68l236 375q9 12 18 39q11 33 47 45q31 8 51 8q56 0 56 -33zM647 780q0 -13 -16 -24q-107 -82 -232 -82q-26 0 -26 16q0 13 24 19q64 21 133 71
q33 23 54 23q63 0 63 -23z" />
    <glyph glyph-name="icircumflex" unicode="&#xee;" horiz-adv-x="339" 
d="M457 520q0 -10 -17 -37l-239 -374q-1 -2 -7 -14.5t-8 -16.5q-16 -48 -36 -60q-36 -26 -91 -26q-45 0 -45 26q0 12 35 68l236 375q9 12 18 39q11 33 47 45q31 8 51 8q56 0 56 -33zM590 690q0 -24 -47 -24q-27 0 -45 96q0 1 -1 2t-1 2l-11 -4q-158 -64 -196 -64
q-25 0 -25 19l4 8q1 0 12 4.5t30 11t42 13.5q19 6 46 14.5t36 11.5l74 27q28 8 29 8q13 0 16 -10l16 -51l19 -54q0 -2 1 -5t1 -5z" />
    <glyph glyph-name="idieresis" unicode="&#xef;" horiz-adv-x="339" 
d="M457 520q0 -10 -17 -37l-239 -374q-1 -2 -7 -14.5t-8 -16.5q-16 -48 -36 -60q-36 -26 -91 -26q-45 0 -45 26q0 12 35 68l236 375q9 12 18 39q11 33 47 45q31 8 51 8q56 0 56 -33zM604 743q0 -63 -55 -63q-35 0 -35 39q0 26 17.5 45.5t39.5 19.5q33 0 33 -41zM403 743
q0 -63 -55 -63q-35 0 -35 39q0 26 18 45.5t40 19.5q32 0 32 -41z" />
    <glyph glyph-name="ntilde" unicode="&#xf1;" horiz-adv-x="745" 
d="M786 457q0 -53 -47 -127l-153 -244q-17 -27 -17 -43q0 -2 2 -6v-12q0 -43 -94 -43q-59 0 -59 34q0 2 1 7t1 6q3 13 8 20l16 27l193 303q31 51 31 84q0 43 -41 43q-56 0 -150 -60q-130 -84 -184 -172l-156 -256q-18 -30 -78 -30q-59 0 -59 26q0 13 10 23l6 10l271 451
l6 20q12 39 98 39q45 0 45 -35q0 -8 -4 -16q-2 -3 -4 -8.5t-5.5 -15t-6.5 -17.5l-2 -6q47 34 106 59q96 45 154 45q112 0 112 -106zM821 741q0 -8 -4 -16q-43 -55 -112 -55q-32 0 -107 35q-73 36 -113 36q-19 0 -49 -20q-16 -8 -18 -8q-12 0 -12 10q0 20 34 41q47 29 78 29
q23 0 107 -35t110 -35h6q28 3 62 27l8 4q10 0 10 -13z" />
    <glyph glyph-name="ograve" unicode="&#xf2;" horiz-adv-x="733" 
d="M803 440q0 -102 -127 -223q-108 -105 -244 -170q-132 -63 -246 -63q-51 0 -94 32q-37 34 -37 80v6q0 81 62 158q101 126 258 213q155 88 282 88q65 0 105.5 -33.5t40.5 -87.5zM668 434q0 70 -86 70q-128 0 -267 -142q-127 -127 -127 -241q0 -80 82 -80q110 0 234 121
q164 164 164 272zM725 688q0 -14 -27 -14q-60 0 -127 49q-61 43 -61 78q0 18 41 18h4q31 0 43 -12q3 -3 20.5 -19t32.5 -28q6 -8 27 -25q47 -35 47 -47z" />
    <glyph glyph-name="oacute" unicode="&#xf3;" horiz-adv-x="733" 
d="M803 440q0 -102 -127 -223q-108 -105 -244 -170q-132 -63 -246 -63q-51 0 -94 32q-37 34 -37 80v6q0 81 62 158q101 126 258 213q155 88 282 88q65 0 105.5 -33.5t40.5 -87.5zM668 434q0 70 -86 70q-128 0 -267 -142q-127 -127 -127 -241q0 -80 82 -80q110 0 234 121
q164 164 164 272zM807 780q0 -13 -16 -24q-107 -82 -232 -82q-27 0 -27 16q0 13 25 19q64 21 133 71q33 23 53 23q64 0 64 -23z" />
    <glyph glyph-name="ocircumflex" unicode="&#xf4;" horiz-adv-x="733" 
d="M803 440q0 -102 -127 -223q-108 -105 -244 -170q-132 -63 -246 -63q-51 0 -94 32q-37 34 -37 80v6q0 81 62 158q101 126 258 213q155 88 282 88q65 0 105.5 -33.5t40.5 -87.5zM668 434q0 70 -86 70q-128 0 -267 -142q-127 -127 -127 -241q0 -80 82 -80q110 0 234 121
q164 164 164 272zM817 690q0 -24 -47 -24q-27 0 -45 96q0 1 -1 2t-1 2l-10 -4q-158 -64 -197 -64q-24 0 -24 19l4 8q1 0 12 4.5t30 11t42 13.5q19 6 46 14.5t36 11.5l73 27q28 8 29 8q13 0 16 -10l17 -51l18 -54q0 -2 1 -5t1 -5z" />
    <glyph glyph-name="otilde" unicode="&#xf5;" horiz-adv-x="733" 
d="M803 440q0 -102 -127 -223q-108 -105 -244 -170q-132 -63 -246 -63q-51 0 -94 32q-37 34 -37 80v6q0 81 62 158q101 126 258 213q155 88 282 88q65 0 105.5 -33.5t40.5 -87.5zM668 434q0 70 -86 70q-128 0 -267 -142q-127 -127 -127 -241q0 -80 82 -80q110 0 234 121
q164 164 164 272zM831 741q0 -8 -4 -16q-43 -55 -112 -55q-32 0 -107 35q-73 36 -112 36q-20 0 -50 -20q-16 -8 -18 -8q-12 0 -12 10q0 20 35 41q47 29 77 29q23 0 107 -35t110 -35h7q26 3 61 27l8 4q10 0 10 -13z" />
    <glyph glyph-name="odieresis" unicode="&#xf6;" horiz-adv-x="733" 
d="M803 440q0 -102 -127 -223q-108 -105 -244 -170q-132 -63 -246 -63q-51 0 -94 32q-37 34 -37 80v6q0 81 62 158q101 126 258 213q155 88 282 88q65 0 105.5 -33.5t40.5 -87.5zM668 434q0 70 -86 70q-128 0 -267 -142q-127 -127 -127 -241q0 -80 82 -80q110 0 234 121
q164 164 164 272zM803 743q0 -63 -55 -63q-35 0 -35 39q0 26 17.5 45.5t39.5 19.5q33 0 33 -41zM602 743q0 -63 -55 -63q-35 0 -35 39q0 26 17.5 45.5t39.5 19.5q33 0 33 -41z" />
    <glyph glyph-name="oslash" unicode="&#xf8;" horiz-adv-x="706" 
d="M856 608q0 -9 -12 -18l-94 -72q28 -36 28 -76q0 -104 -127 -225q-110 -104 -248 -170q-129 -63 -241 -63q-38 0 -80 22l-100 -78q-10 -10 -21 -10q-16 0 -16 16q0 12 16 25l94 72q-24 27 -24 63q0 88 63 166q106 131 256 213q158 88 285 88q45 0 86 -20l102 77q7 7 17 7
q16 0 16 -17zM164 115l467 358q-22 31 -70 31q-129 0 -268 -142q-129 -132 -129 -241v-6zM643 430v6l-467 -360q21 -35 72 -35q43 0 88 22q79 36 145 99q64 62 117 143q45 74 45 125z" />
    <glyph glyph-name="ugrave" unicode="&#xf9;" horiz-adv-x="739" 
d="M848 537q0 -11 -14 -31l-189 -295q-45 -68 -45 -127l4 -49q0 -55 -84 -55q-41 0 -41 67q0 19 6 74q-175 -131 -303 -131q-114 0 -114 104q0 55 47 129l108 166q35 52 47 113q18 61 105 61q53 0 53 -35q0 -24 -20 -53l-187 -291q-39 -59 -39 -90q0 -51 51 -51q65 0 166 72
q97 72 156 164l152 239q27 43 88 43q53 0 53 -24zM690 688q0 -14 -26 -14q-60 0 -127 49q-62 44 -62 78q0 18 41 18h4q31 0 43 -12q3 -3 20.5 -19t32.5 -28q6 -8 27 -25q47 -35 47 -47z" />
    <glyph glyph-name="uacute" unicode="&#xfa;" horiz-adv-x="739" 
d="M848 537q0 -11 -14 -31l-189 -295q-45 -68 -45 -127l4 -49q0 -55 -84 -55q-41 0 -41 67q0 19 6 74q-175 -131 -303 -131q-114 0 -114 104q0 55 47 129l108 166q35 52 47 113q18 61 105 61q53 0 53 -35q0 -24 -20 -53l-187 -291q-39 -59 -39 -90q0 -51 51 -51q65 0 166 72
q97 72 156 164l152 239q27 43 88 43q53 0 53 -24zM774 780q0 -13 -16 -24q-107 -82 -232 -82q-26 0 -26 16q0 13 24 19q64 21 133 71q33 23 54 23q63 0 63 -23z" />
    <glyph glyph-name="ucircumflex" unicode="&#xfb;" horiz-adv-x="739" 
d="M848 537q0 -11 -14 -31l-189 -295q-45 -68 -45 -127l4 -49q0 -55 -84 -55q-41 0 -41 67q0 19 6 74q-175 -131 -303 -131q-114 0 -114 104q0 55 47 129l108 166q35 52 47 113q18 61 105 61q53 0 53 -35q0 -24 -20 -53l-187 -291q-39 -59 -39 -90q0 -51 51 -51q65 0 166 72
q97 72 156 164l152 239q27 43 88 43q53 0 53 -24zM745 690q0 -24 -47 -24q-27 0 -45 96q0 1 -1 2t-1 2l-10 -4q-158 -64 -197 -64q-24 0 -24 19l4 8q1 0 12 4.5t30 11t42 13.5q19 6 46 14.5t36 11.5l74 27l28 8q14 0 17 -10l16 -51l18 -54q0 -2 1 -5t1 -5z" />
    <glyph glyph-name="udieresis" unicode="&#xfc;" horiz-adv-x="739" 
d="M848 537q0 -11 -14 -31l-189 -295q-45 -68 -45 -127l4 -49q0 -55 -84 -55q-41 0 -41 67q0 19 6 74q-175 -131 -303 -131q-114 0 -114 104q0 55 47 129l108 166q35 52 47 113q18 61 105 61q53 0 53 -35q0 -24 -20 -53l-187 -291q-39 -59 -39 -90q0 -51 51 -51q65 0 166 72
q97 72 156 164l152 239q27 43 88 43q53 0 53 -24zM739 743q0 -63 -55 -63q-35 0 -35 39q0 26 18 45.5t40 19.5q32 0 32 -41zM539 743q0 -63 -56 -63q-34 0 -34 39q0 26 17.5 45.5t39.5 19.5q33 0 33 -41z" />
    <glyph glyph-name="yacute" unicode="&#xfd;" horiz-adv-x="755" 
d="M850 522q0 -18 -16 -39l-424 -667q-157 -248 -365 -248q-127 0 -231 90q-33 26 -33 45q0 16 14 16q11 0 21 -10l32 -26q66 -54 146 -54q152 0 278 193l179 272q-138 -102 -265 -102q-52 0 -86 29.5t-34 74.5q0 51 38 113l162 252l10 28l7 27q12 43 84 43q61 0 61 -37
q0 -18 -29 -65l-170 -264q-43 -67 -43 -103q0 -45 56 -45t151 59q99 59 150 142l157 250q37 57 93 57q57 0 57 -31zM766 780q0 -13 -16 -24q-107 -82 -232 -82q-26 0 -26 16q0 13 24 19q64 21 133 71q33 23 53 23q64 0 64 -23z" />
    <glyph glyph-name="ydieresis" unicode="&#xff;" horiz-adv-x="755" 
d="M850 522q0 -18 -16 -39l-424 -667q-157 -248 -365 -248q-127 0 -231 90q-33 26 -33 45q0 16 14 16q11 0 21 -10l32 -26q66 -54 146 -54q152 0 278 193l179 272q-138 -102 -265 -102q-52 0 -86 29.5t-34 74.5q0 51 38 113l162 252l10 28l7 27q12 43 84 43q61 0 61 -37
q0 -18 -29 -65l-170 -264q-43 -67 -43 -103q0 -45 56 -45t151 59q99 59 150 142l157 250q37 57 93 57q57 0 57 -31zM782 743q0 -63 -55 -63q-35 0 -35 39q0 26 18 45.5t40 19.5q32 0 32 -41zM582 743q0 -63 -56 -63q-34 0 -34 39q0 26 17.5 45.5t39.5 19.5q33 0 33 -41z" />
    <glyph glyph-name="dotlessi" unicode="&#x131;" horiz-adv-x="339" 
d="M457 520q0 -10 -17 -37l-239 -374q-1 -2 -7 -14.5t-8 -16.5q-16 -48 -36 -60q-36 -26 -91 -26q-45 0 -45 26q0 12 35 68l236 375q9 12 18 39q11 33 47 45q31 8 51 8q56 0 56 -33z" />
    <glyph glyph-name="OE" unicode="&#x152;" horiz-adv-x="2236" 
d="M2619 1100q0 -104 -79 -180t-191 -76q-83 0 -156 55q-45 33 -45 62q0 16 15 16q11 0 22 -16q50 -68 135 -68q97 0 162 68q68 71 68 167q0 94 -72 154q-71 59 -184 59q-172 0 -307 -108q-138 -111 -138 -244q0 -14 11 -78q4 -14 4 -26q0 -13 -21 -19q-139 -27 -237 -84
q-263 -157 -263 -426q0 -155 105 -260q102 -102 262 -102q184 0 320 133q106 103 106 213q0 72 -61 90l-27 8q-10 3 -10 15q0 18 26 18q56 0 103 -53q45 -54 45 -125q0 -132 -152 -238q-152 -100 -354 -100q-209 0 -346 119q-66 60 -86 100q-29 53 -49 141
q-132 -161 -291 -245q-169 -90 -326 -90q-176 0 -291 133q-112 133 -112 338q0 196 121 397q125 206 323 338q63 44 176 96q24 8 31 8q14 0 14 -14q0 -11 -57 -45q-217 -123 -371 -379q-151 -257 -151 -487q0 -136 82 -234q84 -96 200 -96q216 0 428 203q182 173 293 401
q111 231 111 432q0 117 -64 193q-65 77 -159 77q-117 0 -217 -100q-88 -88 -88 -176q0 -61 55 -82q14 -3 14 -16q0 -17 -22 -17q-36 0 -62 33q-26 41 -26 78q0 115 100 215q115 115 262 115q137 0 234 -115q96 -119 96 -279q0 -53 -17 -172q108 48 254 70q33 3 33 25
q0 9 -10 47q-10 45 -12 51q-7 47 -7 59q0 130 132 232q131 98 309 98q171 0 291 -88q118 -87 118 -219z" />
    <glyph glyph-name="oe" unicode="&#x153;" horiz-adv-x="1124" 
d="M1221 451q0 -92 -158 -179q-158 -85 -383 -112q-4 -28 -4 -31q0 -90 94 -90q110 0 250 90q17 10 22 10q11 0 11 -10q0 -14 -27 -35q-132 -108 -317 -108q-65 0 -111 37q-47 36 -47 90v12q-191 -141 -363 -141q-53 0 -96 32q-37 34 -37 80v6q0 81 62 158q101 129 258 213
q155 88 284 88q114 0 148 -98q133 92 278 92q60 0 98 -29t38 -75zM1147 475q0 43 -62 43q-105 0 -217 -92q-106 -87 -174 -223l-4 -8l6 2q177 35 312 120q139 86 139 158zM668 434q0 70 -86 70q-128 0 -267 -142q-127 -127 -127 -241q0 -80 82 -80q110 0 234 121
q164 164 164 272z" />
    <glyph glyph-name="Scaron" unicode="&#x160;" horiz-adv-x="1378" 
d="M1747 1161q0 -50 -41 -94q-42 -45 -96 -45q-29 0 -29 18q0 12 12 15l17 4q59 15 59 100q0 79 -72 133q-73 54 -178 54q-117 0 -198 -66q-82 -67 -82 -164q0 -84 96 -203q121 -149 156 -223q39 -74 39 -176q0 -233 -197 -383q-198 -151 -496 -151q-255 0 -413 116
q-160 118 -160 299q0 143 104 244q108 102 250 102q100 0 168 -59t68 -150q0 -73 -29 -73q-12 0 -12 16v12q4 16 4 39q0 68 -47 115t-121 47q-106 0 -180 -86q-76 -85 -76 -207q0 -162 123 -270q123 -105 315 -105q223 0 389 138t166 325q0 85 -31 152q-29 62 -122 172
q-129 147 -129 272q0 133 108 221q112 89 277 89q144 0 251 -66q107 -67 107 -162zM1655 1585q0 -5 -6 -8q-4 -8 -82 -29q-60 -17 -82 -26l-74 -29q-28 -8 -29 -8q-13 0 -16 12l-16 51l-19 54l-2 10q0 22 47 22q27 0 45 -94l2 -6l11 6q157 62 196 62q25 0 25 -17z" />
    <glyph glyph-name="scaron" unicode="&#x161;" horiz-adv-x="425" 
d="M604 535q-2 -6 -2 -9q-2 -4 -22 -32q-19 -19 -41 -19q-18 0 -80 19q-43 14 -72 14q-72 0 -72 -78q0 -8 9 -55q15 -48 18 -72q16 -82 16 -131q0 -84 -59 -143q-59 -56 -149 -56q-72 0 -118 38.5t-46 99.5q0 25 16 65q9 25 29 25q10 0 10 -8q0 -11 -2 -13q-21 -47 -21 -71
q0 -37 27 -64t64 -27q54 0 94 52q37 49 37 127q0 49 -4 82q-7 86 -7 104q0 170 230 170h12q30 0 61 -2l41 -2q31 -3 31 -14zM684 766q0 -5 -6 -8q-4 -8 -82 -29q-51 -15 -82 -27l-74 -28q-5 -1 -11.5 -3.5t-10 -3.5t-6.5 -1q-14 0 -17 12l-16 51l-19 53l-2 11q0 22 48 22
q27 0 45 -94l2 -6l10 6q155 61 196 61q25 0 25 -16z" />
    <glyph glyph-name="Ydieresis" unicode="&#x178;" horiz-adv-x="1130" 
d="M1786 1327q0 -13 -27 -37l-24 -20q-62 -62 -101 -109q-117 -138 -305 -469q-135 -237 -233 -362q-95 -117 -230 -211q-204 -139 -430 -139q-222 0 -360 129q-51 51 -51 77q0 15 16 15q11 0 27 -19q114 -147 297 -147q196 0 403 160q89 68 147 133q61 68 203 258l12 16
q-194 -153 -370 -153q-114 0 -182 53q-70 55 -70 143q0 176 242 365l153 118q-30 -13 -117 -36q-124 -31 -151 -31q-23 0 -23 18q0 19 41 25q49 7 131 29q103 28 177 63q27 12 38 12q17 0 17 -14q0 -17 -39 -53q-171 -159 -262 -289q-78 -113 -78 -215q0 -61 43 -100
t111 -39q48 0 116 20q160 54 334 277l172 219q52 65 123 133q52 49 156 131l-66 -23q-109 -34 -223 -34q-134 0 -291 34l-188 41q-142 29 -254 29q-268 0 -449 -111q-180 -107 -180 -270q0 -58 33 -108q12 -18 12 -25q0 -12 -12 -12q-8 0 -25 20q-49 61 -49 146
q0 189 166 327q163 138 391 138q164 0 332 -52l237 -71q155 -45 289 -45q146 0 250 43l80 32q15 6 24 6q17 0 17 -16zM1509 1563q0 -64 -55 -64q-35 0 -35 39q0 26 18 46t40 20q32 0 32 -41zM1309 1563q0 -64 -56 -64q-34 0 -34 39q0 26 17.5 46t39.5 20q33 0 33 -41z" />
    <glyph glyph-name="Zcaron" unicode="&#x17d;" horiz-adv-x="1751" 
d="M2091 1262q0 -74 -70 -123q-67 -52 -166 -52q-97 0 -213 46l-96 36l-20 -24q-39 -46 -168 -254q-68 -113 -92 -166h16q274 0 274 86q0 19 -14 29l-12 8q-8 8 -8 12q0 12 18 12q22 0 38.5 -20t16.5 -47q0 -131 -333 -131h-25l-4 -10q-87 -164 -133 -232q-40 -56 -129 -151
q-72 -75 -170 -142q60 -29 211 -88q284 -106 444 -106q102 0 170 45q72 44 72 106q0 20 -21 54q-6 12 -6 16q0 12 12 12q50 0 50 -84q0 -99 -97 -162t-243 -63q-203 0 -709 184l-22 8l-11 -4l-92 -39q-122 -45 -256 -45q-120 0 -197 45q-79 46 -79 115q0 68 73 117t181 49
q83 0 237 -49q106 -33 158 -55q2 0 16 -7q104 80 178 166q136 160 213 314l4 8h-8q-11 0 -26 0.5t-26 1.5h-11q-232 0 -285 -105q-9 -18 -18 -18q-15 0 -15 18q0 16 19 48q25 31 55 51q66 41 158 53q58 4 166 4h20q42 83 121 213q87 142 201 266l-15 4l-139 45
q-174 50 -313 50q-191 0 -330 -80t-139 -191q0 -45 37 -75q12 -9 12 -17q0 -14 -14 -14q-10 0 -29 16q-49 46 -49 111q0 145 147 250q144 106 346 106q91 0 191 -20q149 -29 350 -115l14 -6q120 82 219 117q77 26 150 26q94 0 154 -45q61 -43 61 -108zM2056 1266
q0 43 -41 67q-39 29 -102 29q-59 0 -141 -31q-88 -36 -166 -102l8 -4q149 -76 278 -76q63 0 113 35q51 36 51 82zM578 106l-11 7q-221 100 -356 100q-145 0 -145 -78q0 -46 61 -80q59 -30 152 -30q158 0 299 81zM1847 1585q0 -5 -6 -8q-4 -8 -82 -29q-59 -17 -82 -26
l-73 -29q-28 -8 -29 -8q-13 0 -16 12l-17 51l-18 54l-2 10q0 22 47 22q27 0 45 -94l2 -6l10 6q157 62 197 62q24 0 24 -17z" />
    <glyph glyph-name="zcaron" unicode="&#x17e;" horiz-adv-x="591" 
d="M674 498q0 -11 -23 -31l-469 -406q70 21 115 21q43 0 117 -27l49 -16q12 -4 29 -4q55 0 55 37q0 12 -4 20q0 2 -1 8t-1 9q0 12 12 12q33 0 33 -51t-45 -80q-43 -35 -113 -35q-40 0 -70 12l-73 29q-61 22 -111 22q-38 0 -90 -18q-16 -4 -18 -4q-11 0 -25 22q-14 24 -14 27
q0 14 18 29l473 415l-39 -8q-41 -10 -82 -10q-33 0 -92 21q-41 16 -76 16q-63 0 -63 -43q0 -1 1 -4.5t1 -5.5v-13q0 -10 -10 -10q-25 0 -25 33q0 48 51 82q53 35 123 35q48 0 125 -25t111 -25q29 0 53 9l25 8q4 2 16 2q13 0 25 -21t12 -32zM698 766q0 -5 -6 -8
q-4 -8 -82 -29q-51 -15 -82 -27l-73 -28q-28 -8 -29 -8q-13 0 -16 12l-17 51l-18 53l-2 11q0 22 47 22q27 0 45 -94l2 -6l10 6q155 61 197 61q24 0 24 -16z" />
    <glyph glyph-name="florin" unicode="&#x192;" horiz-adv-x="598" 
d="M1077 1075q0 -12 -14 -12q-2 0 -6 1t-6 1l-21 8q-30 12 -65 12q-138 0 -287 -233l-197 -305h92q25 0 25 -19q0 -22 -31 -22h-110l-322 -506q-106 -165 -231 -256q-130 -92 -254 -92q-100 0 -166 51q-16 13 -16 25q0 8 12 8q10 0 14 -4l17 -11q40 -24 92 -24
q201 0 422 344l299 465h-105q-20 0 -20 18q0 23 32 23h115l219 336q66 102 146 170q92 77 219 77q38 0 84 -12q63 -15 63 -43z" />
    <glyph glyph-name="circumflex" unicode="&#x2c6;" horiz-adv-x="460" 
d="M393 690q0 -24 -47 -24q-27 0 -45 96q0 1 -1 2t-1 2l-10 -4q-158 -64 -197 -64q-24 0 -24 19l4 8q1 0 12 4.5t30 11t42 13.5q19 6 46 14.5t36 11.5l73 27q28 8 29 8q13 0 16 -10l17 -51l18 -54q0 -2 1 -5t1 -5z" />
    <glyph glyph-name="caron" unicode="&#x2c7;" horiz-adv-x="460" 
d="M393 766q0 -5 -6 -8q-4 -8 -82 -29q-51 -15 -82 -27l-73 -28q-28 -8 -29 -8q-14 0 -17 12l-16 51l-18 53l-2 11q0 22 47 22q27 0 45 -94l2 -6l10 6q155 61 197 61q24 0 24 -16z" />
    <glyph glyph-name="breve" unicode="&#x2d8;" horiz-adv-x="460" 
d="M391 760q0 -10 -10 -17l-57 -24q-122 -51 -170 -51q-35 0 -60.5 33.5t-25.5 80.5q0 29 34 29q24 0 29 -16l8 -25q12 -37 54 -37q29 0 63 12q93 35 109 35q26 0 26 -20z" />
    <glyph glyph-name="dotaccent" unicode="&#x2d9;" horiz-adv-x="227" 
d="M158 743q0 -63 -56 -63q-34 0 -34 39q0 26 17.5 45.5t39.5 19.5q33 0 33 -41z" />
    <glyph glyph-name="ring" unicode="&#x2da;" horiz-adv-x="401" 
d="M334 803q0 -45 -74 -98q-79 -58 -141 -58q-51 0 -51 41q0 52 82 107q74 51 131 51q53 0 53 -43zM272 776q0 25 -28 25q-15 0 -23 -4q-33 -11 -65 -39q-31 -25 -31 -43q0 -25 29 -25q16 0 28 6q90 35 90 80z" />
    <glyph glyph-name="ogonek" unicode="&#x2db;" horiz-adv-x="339" 
d="M272 -96q0 -23 -57 -23t-102 29q-45 25 -45 61q0 11 6 23q1 2 4.5 7t5.5 7q16 10 37 17h31q6 -1 10 -6.5t4 -10.5q0 -6 -14 -12q-15 -9 -15 -23q0 -51 90 -51h21q24 0 24 -18z" />
    <glyph glyph-name="tilde" unicode="&#x2dc;" horiz-adv-x="552" 
d="M483 741q0 -8 -4 -16q-43 -55 -112 -55q-32 0 -107 35q-73 36 -113 36q-19 0 -49 -20q-16 -8 -18 -8q-12 0 -12 10q0 20 34 41q47 29 78 29q23 0 107 -35t110 -35h6q28 3 62 27l8 4q10 0 10 -13z" />
    <glyph glyph-name="hungarumlaut" unicode="&#x2dd;" horiz-adv-x="614" 
d="M547 786q0 -31 -88 -71q-104 -49 -154 -49q-26 0 -26 14q0 11 22 20q67 25 131 80q26 23 51 27h9q55 0 55 -21zM336 786q0 -31 -88 -71q-104 -49 -154 -49q-26 0 -26 14q0 11 22 20q61 22 131 80q34 27 51 27h9q55 0 55 -21z" />
    <glyph glyph-name="endash" unicode="&#x2013;" horiz-adv-x="1167" 
d="M1085 338q0 -29 -32 -29h-758q-29 0 -29 19q0 30 39 30h752q28 0 28 -20z" />
    <glyph glyph-name="emdash" unicode="&#x2014;" horiz-adv-x="1986" 
d="M1905 338q0 -29 -33 -29h-1577q-29 0 -29 19q0 30 39 30h1571q29 0 29 -20z" />
    <glyph glyph-name="afii00208" unicode="&#x2015;" horiz-adv-x="1986" 
d="M1905 338q0 -29 -33 -29h-1577q-29 0 -29 19q0 30 39 30h1571q29 0 29 -20z" />
    <glyph glyph-name="quoteleft" unicode="&#x2018;" horiz-adv-x="45" 
d="M387 1106q0 -11 -29 -21q-145 -49 -145 -110q0 -13 6 -25l10 -22q7 -14 7 -27q0 -57 -62 -57q-27 0 -46 20.5t-19 50.5q0 103 116 164q83 45 135 45q27 0 27 -18z" />
    <glyph glyph-name="quoteright" unicode="&#x2019;" horiz-adv-x="591" 
d="M524 1053q0 -100 -116 -164q-80 -45 -136 -45q-26 0 -26 16q0 14 28 23q146 50 146 110q0 8 -6 23l-11 24q-6 15 -6 25q0 59 62 59q26 0 45.5 -21t19.5 -50z" />
    <glyph glyph-name="quotesinglbase" unicode="&#x201a;" horiz-adv-x="360" 
d="M168 94q0 -104 -115 -166q-83 -45 -137 -45q-25 0 -25 19q0 7 29 20q146 53 146 111q0 10 -7 24l-12 25q-6 12 -6 24q0 58 61 58q66 0 66 -70z" />
    <glyph glyph-name="quotedblleft" unicode="&#x201c;" horiz-adv-x="231" 
d="M571 1108q0 -12 -28 -21q-146 -50 -146 -110q0 -13 6 -25l13 -22q6 -9 6 -27q0 -57 -62 -57q-65 0 -65 72q0 101 115 163q88 45 137 45q24 0 24 -18zM346 1108q0 -11 -29 -21q-145 -49 -145 -110q0 -13 6 -25l10 -22q7 -14 7 -27q0 -57 -62 -57q-27 0 -46 21t-19 51
q0 102 116 163q88 45 135 45q27 0 27 -18z" />
    <glyph glyph-name="quotedblright" unicode="&#x201d;" horiz-adv-x="817" 
d="M750 1053q0 -104 -115 -164q-80 -45 -137 -45q-27 0 -27 16q0 14 31 23q143 46 143 110q0 8 -6 23l-10 24q-6 15 -6 25q0 59 61 59q28 0 47 -21t19 -50zM524 1053q0 -100 -116 -164q-80 -45 -136 -45q-26 0 -26 16q0 14 28 23q146 50 146 110q0 8 -6 23l-11 24
q-6 15 -6 25q0 59 62 59q26 0 45.5 -21t19.5 -50z" />
    <glyph glyph-name="quotedblbase" unicode="&#x201e;" horiz-adv-x="585" 
d="M395 96q0 -105 -116 -166q-83 -45 -136 -45q-26 0 -26 19q0 8 28 20q146 50 146 111q0 9 -6 24l-11 25q-6 15 -6 25q0 57 62 57q26 0 45.5 -20.5t19.5 -49.5zM168 96q0 -104 -115 -166q-83 -45 -137 -45q-25 0 -25 19q0 7 29 20q146 50 146 111q0 10 -7 24l-12 25
q-6 12 -6 25q0 57 61 57q66 0 66 -70z" />
    <glyph glyph-name="dagger" unicode="&#x2020;" horiz-adv-x="956" 
d="M498 682l96 -96l-21 -19l-96 97l-96 -97l-19 19l97 96l-97 96l19 21l96 -97l96 97l21 -21z" />
    <glyph glyph-name="daggerdbl" unicode="&#x2021;" horiz-adv-x="956" 
d="M498 682l96 -96l-21 -19l-96 97l-96 -97l-19 19l97 96l-97 96l19 21l96 -97l96 97l21 -21z" />
    <glyph glyph-name="bullet" unicode="&#x2022;" horiz-adv-x="643" 
d="M590 481q0 -40 -26 -66t-64 -26t-64 25t-26 63t26.5 65t63.5 27q90 0 90 -88z" />
    <glyph glyph-name="ellipsis" unicode="&#x2026;" horiz-adv-x="1304" 
d="M1059 61q0 -26 -19 -45.5t-45 -19.5q-67 0 -67 65q0 27 19 46.5t46 19.5q66 0 66 -66zM649 61q0 -26 -18.5 -45.5t-44.5 -19.5q-68 0 -68 65q0 27 19.5 46.5t46.5 19.5q65 0 65 -66zM240 61q0 -26 -19 -45.5t-45 -19.5q-67 0 -67 65q0 27 19.5 46.5t45.5 19.5
q66 0 66 -66z" />
    <glyph glyph-name="perthousand" unicode="&#x2030;" horiz-adv-x="1355" 
d="M1300 238q0 -98 -75 -170q-73 -76 -170 -76q-71 0 -114.5 45.5t-43.5 118.5q0 88 64 155q65 68 145 68q47 0 47 -23q0 -13 -33 -16q-53 0 -98 -70q-43 -67 -43 -155q0 -90 68 -90q25 0 49 14q47 27 90 102q37 73 37 138q0 27 -6 51q-5 14 -31 37q-19 16 -19 22
q0 14 19 14q29 0 59 -30q55 -55 55 -135zM506 709q0 -97 -76 -170q-73 -76 -170 -76q-71 0 -114.5 45.5t-43.5 118.5q0 88 64 155q65 68 145 68q45 0 45 -23q0 -16 -18 -16h-12q-55 0 -101 -70q-41 -68 -41 -155q0 -90 66 -90q26 0 51 14q52 32 90 104q37 70 37 142
q0 52 -37 82q-18 15 -18 22q0 14 18 14q30 0 60 -30q55 -58 55 -135zM754 993q0 -6 -4 -14l-523 -1133q-9 -20 -26 -20q-19 0 -19 16q0 11 6 23l521 1128q9 21 26 21q19 0 19 -21zM862 238q0 -97 -76 -170q-76 -76 -172 -76q-69 0 -113 45.5t-44 118.5q0 89 63 155
q65 68 146 68q47 0 47 -23q0 -13 -31 -16q-55 0 -100 -70q-43 -67 -43 -155q0 -90 67 -90q23 0 51 14q50 30 88 102q39 76 39 138q0 5 -8 51q-3 9 -31 37q-16 11 -16 22q0 14 19 14q27 0 57 -30q57 -57 57 -135z" />
    <glyph glyph-name="guilsinglleft" unicode="&#x2039;" horiz-adv-x="430" 
d="M444 446q0 -4 -4 -16q-20 -45 -223 -201l-12 -12l6 -4q90 -81 90 -109q0 -10 -6 -16q-14 -20 -25 -29q-20 -14 -26 -14q-15 0 -23 14l-53 60l-53 55q-6 6 -6 16q0 13 34 43l88 72l45.5 38.5t47.5 41.5q90 84 102 84q18 0 18 -23z" />
    <glyph glyph-name="guilsinglright" unicode="&#x203a;" horiz-adv-x="335" 
d="M422 324q0 -16 -35 -43l-88 -72q-53 -44 -92 -80q-90 -84 -103 -84q-18 0 -18 23q0 10 4 16q6 14 223 201l15 12l-6 4q-91 76 -91 109q0 11 5 16q15 22 24 29q17 14 27 14t22 -12l53 -62l54 -55q6 -6 6 -16z" />
    <glyph glyph-name="fraction" unicode="&#x2044;" horiz-adv-x="649" 
d="M588 993q0 -6 -4 -14l-523 -1133q-9 -20 -28 -20q-17 0 -17 16q0 13 4 23l523 1128q9 21 26 21q19 0 19 -21z" />
    <glyph glyph-name="Euro" unicode="&#x20ac;" horiz-adv-x="1138" 
d="M1534 1077q0 -176 -150 -317q-151 -139 -340 -139q-109 0 -178 57q-71 59 -71 143q0 90 45 90q12 0 12 -10v-8l-6 -12q-8 -28 -8 -45q0 -144 151 -144q186 0 336 164q127 139 127 287q0 90 -68 149q-69 60 -174 60q-215 0 -460 -189q-241 -188 -377 -463l51 5l94 4
q31 2 62 2q116 0 116 -66q0 -14 -6 -29q-12 -30 -37 -30q-16 0 -16 12q0 6 10 16q15 15 15 25q0 29 -89 29q-39 0 -124 -6q-92 -5 -97 -5q-3 -6 -6.5 -17t-10.5 -31t-13 -38l-7 -20l31 2h35l94 4l41 2q12 2 23 2q116 0 116 -65q0 -14 -6 -29q-15 -31 -37 -31q-16 0 -16 13
q0 9 10 16q15 12 15 24q0 29 -91 29q-25 0 -124 -6q-86 -4 -99 -4q-12 -64 -12 -121q0 -163 88 -264q84 -100 227 -100q92 0 219 47q131 48 201 110l47 39q4 1 9.5 4.5t7.5 3.5l6 4q14 0 14 -14q0 -13 -14 -27q-82 -88 -232 -155q-148 -62 -274 -62q-184 0 -307 123
t-123 310q0 17 1 42.5t1 34.5l4 25q-143 0 -143 72q0 10 14 34q17 17 31 17q16 0 16 -15l-2 -8l-16 -8q-11 -7 -11 -18q0 -32 117 -35q7 41 29 110h-27q-151 0 -151 72q0 17 15 34t30 17q16 0 16 -14q0 -2 -1 -4.5t-1 -3.5l-16 -8q-11 -7 -11 -19q0 -35 129 -35h31
q120 295 397 496q284 201 570 201q157 0 252 -86q96 -90 96 -230z" />
    <glyph glyph-name="trademark" unicode="&#x2122;" horiz-adv-x="1222" 
d="M1223 1366v-590h-47v502l-160 -502h-45l-160 502v-502h-47v590h72l157 -508l158 508h72zM668 1366v-45h-140v-545h-47v545h-139v45h326z" />
    <glyph glyph-name="estimated" unicode="&#x212e;" horiz-adv-x="1722" 
d="M1610 664h-1225v-420q197 -228 475 -228q145 0 271 60t225 170h94q-103 -129 -259 -204t-333 -75q-152 0 -290 56.5t-237.5 152t-158.5 228t-59 278.5q0 144 59 276t158.5 228.5t237.5 153.5t290 57q204 0 377 -97t274 -266t101 -370zM1331 698v414q-193 238 -473 238
q-272 0 -473 -238v-414h946z" />
    <glyph glyph-name="uni2215" unicode="&#x2215;" horiz-adv-x="649" 
d="M588 993q0 -6 -4 -14l-523 -1133q-9 -20 -28 -20q-17 0 -17 16q0 13 4 23l523 1128q9 21 26 21q19 0 19 -21z" />
    <glyph glyph-name="uni2219" unicode="&#x2219;" horiz-adv-x="417" 
d="M377 348q0 -27 -19.5 -46t-46.5 -19q-65 0 -65 63q0 68 65 68q26 0 46 -20t20 -46z" />
    <glyph glyph-name="uniF102" unicode="&#xf102;" horiz-adv-x="1275" 
d="M332 -272q-25 -11 -49 -11q-48 0 -83.5 32.5t-58.5 78.5q-18 39 -28.5 110.5t-10.5 108.5q0 113 39 191q24 50 34.5 97.5t12 79t22 84.5t64.5 117q-49 41 -49 111q0 58 30 113.5t67 79.5q-21 12 -62 12q-50 0 -135 -19q0 52 51.5 117t106.5 78q-70 60 -74 201
q17 -17 47 -37q-2 7 -8.5 33.5t-10.5 48t-4 35.5q0 11 3 14q8 -21 31.5 -40t45.5 -28q-24 80 -24 125q0 15 2 21q13 -26 53 -57.5t62 -34.5q-11 66 -11 86q0 83 47 106q0 -29 20 -69t48 -54q9 46 131 115q0 -9 -6 -40.5t-6 -47.5q0 -19 8 -27q13 7 37 43t24 47q15 -8 22 -37
t8.5 -54t2.5 -25q18 0 43.5 11.5t28.5 20.5q0 -14 -6 -52.5t-6 -39.5q81 24 98 41q0 -16 -12 -60.5t-42.5 -95t-68.5 -55.5q36 -19 75.5 -56.5t77.5 -92.5t63.5 -132t29.5 -161q3 -63 18.5 -137.5t32 -133t18.5 -71.5q23 -130 93 -215q-5 -3 -19 -6q-17 -7 -41 -7
q-32 0 -57 15q-9 -9 -19 -39q0 -15 18 -52.5t40 -68.5q-24 -4 -35 -4q-63 0 -113 47q49 -76 74 -96q-34 -12 -59 -12q-26 0 -68 14q3 -14 18 -33q-4 -2 -16 -2q-33 0 -49 16q2 -14 18 -36t17 -23q-20 -4 -31 -4q-40 0 -80 21t-55 40q11 -39 74 -143q-12 -2 -33 -2
q-106 0 -172 94q0 -55 53 -176q-31 1 -63 18t-50 35q25 -48 62 -82q-28 -14 -62 -14q-49 0 -86 37q0 -5 11 -27l12 -24q-6 -2 -23 -2q-67 0 -108 41zM225 387q0 -3 1 -9.5t1 -10.5q0 -29 -34 -114t-41 -140q-5 -31 -5 -74q0 -72 15.5 -134.5t49.5 -105.5t81 -43h8
q-45 33 -73.5 150.5t-28.5 232.5q0 89 18 129q21 38 21 76q0 27 -13 43zM1030 80q-40 45 -60.5 160t-23 227t-14 206t-35.5 105q6 -21 6 -82q0 -36 -3 -143t-3 -166q0 -208 33 -258l14 31q25 -38 43 -55.5t43 -24.5zM629 1155q106 -55 106 -258q2 6 10.5 18t10.5 15
q22 -31 22 -131q0 -87 -22 -135q-6 52 -39 151q0 -48 -25.5 -108t-58.5 -74l-10 84q59 31 59 149q0 11 -1 26.5t-1 20.5q0 -16 -19 -61.5t-28 -48.5q0 7 -2 28t-2 33v19q-11 -28 -42 -76t-52 -66q0 15 12 50q-44 -41 -178 -160l-9 28q-81 -50 -81 -206q0 -51 8 -97
q-37 -45 -37 -159q0 -65 11.5 -132.5t21.5 -84.5l-29 8q0 -1 1 -3.5t1 -4.5q66 -235 156 -256q-50 73 -82.5 180.5t-32.5 165.5q0 10 4 22q11 -18 22 -41.5t18.5 -35t20.5 -15.5q8 -75 59 -167t101 -99q-43 47 -103.5 223t-60.5 330q0 107 35 178q-2 -10 -2 -74
q0 -163 40.5 -324.5t135.5 -254.5q-26 54 -44.5 174t-18.5 219q0 35 2 51q3 -48 31 -98.5t49 -69.5q-4 -20 -4 -29q0 -61 46.5 -117.5t90.5 -68.5q-60 106 -97.5 235t-37.5 244q0 112 37 187q4 -24 9 -103t13 -143.5t23 -83.5v29q0 56 20 79q6 -25 12.5 -75.5t13.5 -91
t19 -84.5t34.5 -74.5t53.5 -40.5q-82 128 -82 332q0 111 22.5 222t57.5 193q0 -8 -2 -23t-2 -22q0 -15 8 -26q-16 -62 -16 -111q0 -23 6 -41q20 -40 20 -100q0 -46 -14 -78q-18 -38 -18 -104q0 -59 15 -111.5t44 -75.5q-8 33 -8 64v14q24 -60 104 -70q-104 109 -104 275
q0 37 6 97t6 81q0 29 -4 41q-4 8 -4 33q0 17 5 72t5 94q0 184 -98 337q-44 69 -69.5 88.5t-67.5 22.5zM283 682l51 23q-8 20 -8 32q0 29 25.5 84t25.5 72q-35 -12 -68 -67.5t-33 -106.5q0 -19 7 -37zM369 729l24 12q-2 2 -2 13q0 16 13 49t14 37q-17 -7 -35 -39.5t-18 -55.5
q0 -8 4 -16zM350 1120q15 6 65 40t107 57.5t121 23.5q-21 16 -55 16q-32 0 -73 -19t-66 -37.5t-61.5 -49.5t-37.5 -31zM510 842q30 18 51 18h10q22 22 42 67.5t20 80.5q0 16 -4 24q-3 -43 -24.5 -86.5t-41.5 -54.5q-53 -27 -53 -49zM258 961q78 -19 119 -19q14 4 14 10
q0 9 -24.5 15t-53.5 6q-34 0 -55 -12zM403 1030q-2 -2 -2 -8q0 -12 15 -27q8 -8 16 -8t8 8q0 9 -9.5 19.5t-27.5 15.5zM182 967q42 24 119 24q20 0 46 -2t30 -2q-1 2 -5 8l-5 7.5t-4.5 7t-5 7t-4.5 5.5t-5.5 6t-6 5t-6.5 5t-7 4q0 1 3.5 11t8.5 23t10 20q-53 -3 -105.5 -43
t-62.5 -86zM561 1053l6 -17q19 3 33 21.5t14 40.5q0 26 -20 39q4 -4 4 -19q0 -18 -9 -36.5t-28 -28.5zM500 1061l21 -6h1q41 11 41 51q0 8 -4 16q-1 0 -6.5 4t-7.5 4t-2 -6q0 -1 1 -5t1 -11q0 -18 -17 -32.5t-28 -14.5zM489 1081q4 0 7.5 2.5t5 5t4.5 8t4 7.5q2 4 2 8
q0 16 -27 16q-18 0 -18 -20q3 -14 7 -19t15 -8zM528 936q21 0 21 22q0 15 -23 15q-7 0 -15.5 -5t-8.5 -12q0 -20 26 -20zM473 889q7 0 14 4.5t7 11.5t-7 12t-14 5q-18 0 -18 -17q0 -16 18 -16zM1118 225q-102 132 -143 477q4 12 4 41q0 64 -27.5 146.5t-84.5 159t-126 102.5
q90 -123 97 -150l14 5q60 -60 106 -234q0 -133 15 -290.5t51 -270.5l18 47q55 -33 76 -33z" />
    <glyph glyph-name="fi" unicode="&#xfb01;" horiz-adv-x="612" 
d="M1077 1075q0 -12 -14 -12q-2 0 -6 1t-6 1l-21 8q-30 12 -65 12q-138 0 -287 -233l-197 -305h316q26 0 26 -25q0 -10 -14 -35l-252 -395q-2 -3 -6.5 -14.5t-7.5 -16.5q-14 -41 -39 -59q-40 -27 -88 -27q-43 0 -43 25q0 12 37 70l274 436h-227l-322 -506
q-106 -165 -231 -256q-130 -92 -254 -92q-100 0 -166 51q-16 13 -16 25q0 8 12 8q10 0 14 -4l17 -11q40 -24 92 -24q201 0 422 344l299 465h-105q-20 0 -20 18q0 23 32 23h115l219 336q66 102 146 170q92 77 219 77q38 0 84 -12q63 -15 63 -43z" />
    <glyph glyph-name="fl" unicode="&#xfb02;" horiz-adv-x="696" 
d="M1141 1057l-658 -1039q-17 -26 -63 -26q-66 0 -66 22q0 11 11 29l14 18l659 1020l-26 2t-20.5 1.5t-10.5 0.5q-86 0 -154 -53q-67 -52 -149 -180l-197 -305h92q25 0 25 -19q0 -22 -31 -22h-110l-322 -506q-106 -165 -231 -256q-130 -92 -254 -92q-100 0 -166 51
q-16 13 -16 25q0 10 12 10q5 0 14 -6l17 -11q40 -24 92 -24q201 0 422 344l299 465h-105q-20 0 -20 18q0 23 32 23h115l219 336q88 134 174 190q88 57 201 57q75 0 141 -16q65 -16 68 -35q2 -6 -8 -22z" />
    </font>
</defs>
</svg>
