<?xml version="1.0" encoding="utf-8"?>
<!-- Generator: Adobe Illustrator 24.0.1, SVG Export Plug-In . SVG Version: 6.00 Build 0)  -->
<svg version="1.1" id="Layer_1" xmlns="http://www.w3.org/2000/svg" xmlns:xlink="http://www.w3.org/1999/xlink" x="0px" y="0px"
	 viewBox="0 0 782.3 132.3" style="enable-background:new 0 0 782.3 132.3;" xml:space="preserve">
<style type="text/css">
	.st0{fill:none;stroke:#000000;stroke-miterlimit:10;}
</style>
<g>
	<path d="M155.1,52.5c1.3,1.9,2.8,3.5,4.6,4.9c1.8,1.4,4.3,3,7.5,5c3.3,2.1,6,3.8,7.9,5.3s3.6,3.3,5.1,5.6c1.4,2.2,2.1,4.8,2.1,7.8
		c0,3.3-0.9,6.2-2.6,8.8s-4.1,4.7-7.3,6.2s-6.9,2.2-11.1,2.2c-2.7,0-5.3-0.3-7.9-0.9c-2.6-0.6-4.9-1.6-6.8-2.8
		c-0.3-0.2-0.6-0.4-0.7-0.7c-0.1-0.3-0.2-0.7-0.2-1.2l-1-14.3c-0.1-0.3,0.1-0.4,0.4-0.5s0.6,0,0.6,0.3c1.6,5.1,3.8,9.4,6.7,12.9
		s6.6,5.3,11.2,5.3c3.1,0,5.8-0.8,7.9-2.6s3.1-4.5,3.1-8.3c0-2.9-0.7-5.5-2-7.7s-2.9-4.1-4.9-5.6s-4.4-3.2-7.6-5.2
		c-3.1-2-5.6-3.7-7.4-5.1s-3.4-3.2-4.6-5.3c-1.3-2.1-1.9-4.5-1.9-7.3c0-3.4,0.9-6.3,2.8-8.7s4.2-4.2,7.2-5.3s6.1-1.8,9.4-1.8
		c4.5,0,8.5,0.8,12.1,2.3c1,0.4,1.5,1,1.5,1.8l0.5,12.5c0,0.3-0.2,0.4-0.5,0.5s-0.5,0-0.6-0.3c-0.7-3.6-2.3-7-4.7-10.2
		s-5.8-4.8-10.2-4.8c-3.3,0-5.9,1-7.8,3s-2.8,4.5-2.8,7.6C153.1,48.4,153.8,50.6,155.1,52.5z"/>
	<path d="M241.6,38.5c-1.5-1.8-3.7-2.7-6.6-2.7c-0.2,0-0.3-0.2-0.3-0.6s0.1-0.6,0.3-0.6l4.5,0.1c2.4,0.1,4.3,0.2,5.7,0.2
		c1.2,0,2.9-0.1,5.2-0.2l4.3-0.1c0.1,0,0.2,0.2,0.2,0.6s-0.1,0.6-0.2,0.6c-5.4,0-8.1,3.5-8.1,10.4v28.2c0,7.5-2.2,13.3-6.6,17.6
		c-4.4,4.3-10.2,6.4-17.4,6.4c-4.9,0-9.3-0.9-13-2.8s-6.6-4.6-8.7-8.2c-2.1-3.6-3.1-7.8-3.1-12.6V42.7c0-2-0.2-3.5-0.6-4.4
		c-0.4-0.9-1.1-1.6-2.2-2s-2.9-0.5-5.2-0.5c-0.2,0-0.3-0.2-0.3-0.6s0.1-0.6,0.3-0.6l5,0.1c2.9,0.1,5.3,0.2,7,0.2
		c1.9,0,4.3-0.1,7.2-0.2l4.8-0.1c0.2,0,0.3,0.2,0.3,0.6s-0.1,0.6-0.3,0.6c-2.3,0-4.1,0.2-5.1,0.6c-1.1,0.4-1.9,1.1-2.2,2
		c-0.4,1-0.6,2.5-0.6,4.5v28.4c0,7.9,1.7,13.8,5.1,17.8s8.2,6.1,14.4,6.1c5.8,0,10.4-1.8,13.6-5.4c3.3-3.6,5-8.7,5-15.2V46.2
		C243.9,42.8,243.1,40.3,241.6,38.5z"/>
	<path d="M272,52.5c1.3,1.9,2.8,3.5,4.6,4.9c1.8,1.4,4.3,3,7.5,5c3.3,2.1,6,3.8,8,5.3s3.6,3.3,5,5.6c1.4,2.2,2.1,4.8,2.1,7.8
		c0,3.3-0.9,6.2-2.5,8.8c-1.7,2.6-4.1,4.7-7.3,6.2c-3.2,1.5-6.9,2.2-11,2.2c-2.7,0-5.3-0.3-7.9-0.9s-4.9-1.6-6.8-2.8
		c-0.3-0.2-0.6-0.4-0.7-0.7s-0.2-0.7-0.2-1.2l-1-14.3c-0.1-0.3,0.1-0.4,0.5-0.5c0.4-0.1,0.6,0,0.6,0.3c1.6,5.1,3.8,9.4,6.7,12.9
		c2.9,3.5,6.6,5.3,11.2,5.3c3.1,0,5.8-0.8,7.9-2.6s3.1-4.5,3.1-8.3c0-2.9-0.7-5.5-2-7.7s-3-4.1-4.9-5.6s-4.5-3.2-7.6-5.2
		c-3.1-2-5.6-3.7-7.5-5.1c-1.8-1.4-3.4-3.2-4.6-5.3s-1.9-4.5-1.9-7.3c0-3.4,0.9-6.3,2.8-8.7s4.2-4.2,7.2-5.3s6.1-1.8,9.4-1.8
		c4.5,0,8.5,0.8,12.1,2.3c1,0.4,1.5,1,1.5,1.8l0.5,12.5c0,0.3-0.2,0.4-0.5,0.5s-0.5,0-0.6-0.3c-0.7-3.6-2.3-7-4.7-10.2
		c-2.4-3.2-5.8-4.8-10.2-4.8c-3.3,0-5.9,1-7.8,3s-2.8,4.5-2.8,7.6C270.1,48.4,270.8,50.6,272,52.5z"/>
	<path d="M377.5,96.5c0,0.4-0.1,0.6-0.4,0.6c-1.3,0-3.3-0.1-6.1-0.2c-2.7-0.1-4.6-0.2-5.9-0.2c-1.5,0-3.4,0.1-5.7,0.2
		c-2.3,0.1-4,0.2-5.1,0.2c-0.3,0-0.4-0.2-0.4-0.6s0.1-0.6,0.4-0.6c2.3,0,3.9-0.2,4.9-0.7s1.5-1.2,1.5-2.3s-0.5-2.7-1.5-4.7L348,65
		h-18.4l-8.2,18.9c-0.9,2.2-1.4,4-1.4,5.5c0,4.3,3.2,6.5,9.7,6.5c0.3,0,0.5,0.2,0.5,0.6s-0.2,0.6-0.5,0.6c-1.2,0-2.9-0.1-5.2-0.2
		c-2.5-0.1-4.7-0.2-6.6-0.2c-1.7,0-3.8,0.1-6.2,0.2c-2.1,0.1-3.9,0.2-5.2,0.2c-0.3,0-0.4-0.2-0.4-0.6s0.1-0.6,0.4-0.6
		c1.9,0,3.5-0.4,4.8-1.1c1.3-0.7,2.5-2,3.8-3.8s2.6-4.5,4.1-8l21.3-49.1c0.1-0.2,0.3-0.3,0.7-0.3c0.4,0,0.6,0.1,0.7,0.3l24.1,49.5
		c2.3,4.9,4.2,8.2,5.8,9.9c1.6,1.7,3.4,2.6,5.4,2.6C377.4,95.9,377.5,96.1,377.5,96.5z M330.5,62.7h16.4l-8.6-18L330.5,62.7z"/>
	<path d="M451.5,35.2c0,0.4-0.1,0.6-0.3,0.6c-5.5,0-8.2,3.5-8.2,10.4v52.2c0,0.1-0.1,0.2-0.5,0.3c-0.3,0.1-0.5,0-0.6-0.1L395,43
		v42.6c0,3.5,0.6,6.1,2,7.8c1.3,1.7,3.3,2.5,6,2.5c0.2,0,0.3,0.2,0.3,0.6s-0.1,0.6-0.3,0.6c-1.7,0-3.1,0-4-0.1l-5.1-0.1l-5.4,0.1
		c-1,0.1-2.5,0.1-4.4,0.1c-0.1,0-0.2-0.2-0.2-0.6s0.1-0.6,0.2-0.6c2.9,0,5-0.8,6.4-2.5s2-4.3,2-7.8V40.2c-2.9-2.9-5.8-4.4-8.7-4.4
		c-0.2,0-0.3-0.2-0.3-0.6s0.1-0.6,0.3-0.6l3.9,0.1c0.8,0.1,1.9,0.1,3.4,0.1l5.2-0.1c0.6-0.1,1.4-0.1,2.3-0.1c0.5,0,0.9,0.1,1.1,0.3
		c0.2,0.2,0.6,0.8,1.1,1.5c0.6,0.9,1.4,2,2.5,3.3l37.2,44.9V46.2c0-3.5-0.6-6.2-1.9-7.8c-1.3-1.7-3.2-2.5-5.9-2.5
		c-0.1,0-0.2-0.2-0.2-0.6s0.1-0.6,0.2-0.6l4,0.1c2,0.1,3.7,0.2,5.1,0.2c1.2,0,2.9-0.1,5.2-0.2l4.2-0.1
		C451.4,34.6,451.5,34.8,451.5,35.2z"/>
	<path d="M495,52.5c1.3,1.9,2.8,3.5,4.6,4.9c1.8,1.4,4.3,3,7.5,5c3.3,2.1,6,3.8,8,5.3c2,1.5,3.7,3.3,5,5.6c1.4,2.2,2.1,4.8,2.1,7.8
		c0,3.3-0.8,6.2-2.5,8.8s-4.1,4.7-7.3,6.2s-6.8,2.2-11,2.2c-2.7,0-5.3-0.3-7.9-0.9c-2.6-0.6-4.9-1.6-6.8-2.8
		c-0.3-0.2-0.6-0.4-0.7-0.7s-0.2-0.7-0.2-1.2l-1-14.3c-0.1-0.3,0.1-0.4,0.5-0.5s0.6,0,0.7,0.3c1.6,5.1,3.8,9.4,6.7,12.9
		s6.6,5.3,11.2,5.3c3.1,0,5.8-0.8,7.8-2.6c2.1-1.7,3.2-4.5,3.2-8.3c0-2.9-0.7-5.5-2-7.7s-3-4.1-4.8-5.6c-1.9-1.5-4.5-3.2-7.7-5.2
		c-3.1-2-5.6-3.7-7.5-5.1s-3.4-3.2-4.7-5.3s-1.9-4.5-1.9-7.3c0-3.4,0.9-6.3,2.8-8.7s4.2-4.2,7.2-5.3c3-1.2,6.1-1.8,9.3-1.8
		c4.5,0,8.5,0.8,12.1,2.3c1,0.4,1.5,1,1.5,1.8l0.5,12.5c0,0.3-0.2,0.4-0.5,0.5s-0.5,0-0.6-0.3c-0.7-3.6-2.3-7-4.7-10.2
		s-5.8-4.8-10.2-4.8c-3.3,0-5.9,1-7.8,3s-2.8,4.5-2.8,7.6C493,48.4,493.7,50.6,495,52.5z"/>
	<path d="M600.3,96.5c0,0.4-0.1,0.6-0.3,0.6c-2.1,0-3.8,0-5.1-0.1l-7.2-0.1l-7.9,0.1c-1.1,0.1-2.7,0.1-4.7,0.1
		c-0.2,0-0.3-0.2-0.3-0.6s0.1-0.6,0.3-0.6c2.5,0,4.4-0.2,5.6-0.5c1.2-0.3,2-1,2.4-1.9c0.4-1,0.6-2.4,0.6-4.4V65.7h-36.4V89
		c0,2,0.2,3.5,0.6,4.4c0.4,1,1.2,1.6,2.4,1.9c1.2,0.3,3.1,0.5,5.6,0.5c0.1,0,0.2,0.2,0.2,0.6s-0.1,0.6-0.2,0.6c-2.1,0-3.8,0-5.1-0.1
		l-7.7-0.1L536,97c-1.3,0.1-3,0.1-5.2,0.1c-0.1,0-0.2-0.2-0.2-0.6s0.1-0.6,0.2-0.6c2.5,0,4.3-0.2,5.5-0.5s2-1,2.4-1.9
		c0.4-1,0.7-2.4,0.7-4.4V42.7c0-2-0.2-3.5-0.6-4.4c-0.4-0.9-1.2-1.6-2.3-2s-2.9-0.5-5.4-0.5c-0.2,0-0.3-0.2-0.3-0.6s0.1-0.6,0.3-0.6
		l5.1,0.1c2.8,0.1,5.1,0.2,7,0.2c2.1,0,4.7-0.1,7.8-0.2l5-0.1c0.1,0,0.2,0.2,0.2,0.6s-0.1,0.6-0.2,0.6c-2.5,0-4.3,0.2-5.5,0.6
		c-1.2,0.4-2,1.1-2.5,2c-0.4,1-0.7,2.5-0.7,4.5v20.5h36.4V42.9c0-2-0.2-3.5-0.7-4.5c-0.4-1-1.2-1.7-2.4-2c-1.2-0.4-3-0.6-5.5-0.6
		c-0.2,0-0.3-0.2-0.3-0.6s0.1-0.6,0.3-0.6l4.7,0.1c3.1,0.1,5.7,0.2,7.9,0.2c1.9,0,4.3-0.1,7.2-0.2l5.1-0.1c0.2,0,0.3,0.2,0.3,0.6
		s-0.1,0.6-0.3,0.6c-2.5,0-4.3,0.2-5.4,0.5s-1.9,1-2.3,2s-0.7,2.4-0.7,4.4V89c0,2,0.2,3.5,0.7,4.4c0.4,1,1.2,1.6,2.3,1.9
		c1.1,0.3,2.9,0.5,5.4,0.5C600.2,95.9,600.3,96.1,600.3,96.5z"/>
	<path d="M678.5,96.5c0,0.4-0.1,0.6-0.4,0.6c-1.3,0-3.3-0.1-6.1-0.2c-2.7-0.1-4.6-0.2-5.9-0.2c-1.5,0-3.4,0.1-5.7,0.2
		s-4,0.2-5.1,0.2c-0.3,0-0.4-0.2-0.4-0.6s0.1-0.6,0.4-0.6c2.3,0,3.9-0.2,4.9-0.7s1.5-1.2,1.5-2.3s-0.5-2.7-1.5-4.7L649,65h-18.4
		l-8.2,18.9c-0.9,2.2-1.4,4-1.4,5.5c0,4.3,3.2,6.5,9.7,6.5c0.3,0,0.5,0.2,0.5,0.6s-0.2,0.6-0.5,0.6c-1.2,0-2.9-0.1-5.2-0.2
		c-2.5-0.1-4.7-0.2-6.6-0.2c-1.7,0-3.8,0.1-6.2,0.2c-2.1,0.1-3.9,0.2-5.2,0.2c-0.3,0-0.4-0.2-0.4-0.6s0.1-0.6,0.4-0.6
		c1.9,0,3.5-0.4,4.8-1.1c1.3-0.7,2.5-2,3.8-3.8s2.6-4.5,4.1-8l21.3-49.1c0.1-0.2,0.3-0.3,0.7-0.3s0.6,0.1,0.7,0.3l24.1,49.5
		c2.3,4.9,4.2,8.2,5.8,9.9s3.4,2.6,5.4,2.6C678.4,95.9,678.5,96.1,678.5,96.5z M631.5,62.7h16.4l-8.6-18L631.5,62.7z"/>
	<path d="M760.2,35.2c0,0.4-0.1,0.6-0.2,0.6c-4.8,0-8.4,3-10.8,9.1L728.8,97c-0.1,0.3-0.4,0.4-1.1,0.4s-1-0.1-1.1-0.4l-13-28
		l-10.9,28c-0.1,0.3-0.4,0.4-1.1,0.4s-1-0.1-1.1-0.4l-25.1-54.1c-1.3-2.8-2.5-4.7-3.5-5.7s-2.7-1.5-4.7-1.5c-0.2,0-0.3-0.2-0.3-0.6
		s0.1-0.6,0.3-0.6l3.1,0.1c1.7,0.1,3.4,0.2,4.9,0.2c3,0,6-0.1,8.9-0.2c0.9-0.1,2.2-0.1,3.8-0.1c0.2,0,0.3,0.2,0.3,0.6
		s-0.1,0.6-0.3,0.6c-1.9,0-3.3,0.2-4.2,0.6c-0.9,0.4-1.3,1.2-1.3,2.3c0,0.9,0.5,2.4,1.4,4.5l20.3,43.3l8.1-20.5l-10.7-23.1
		c-1.1-2.5-2.3-4.3-3.5-5.4c-1.2-1.1-2.6-1.7-4.2-1.7c-0.2,0-0.3-0.2-0.3-0.6s0.1-0.6,0.3-0.6l3.1,0.1c1.6,0.1,3.1,0.2,4.4,0.2
		c2.5,0,4.9-0.1,7-0.2c0.7-0.1,1.6-0.1,2.7-0.1c0.2,0,0.3,0.2,0.3,0.6s-0.1,0.6-0.3,0.6c-1.1,0-2,0.1-2.5,0.3s-0.8,0.7-0.8,1.2
		c0,0.5,0.2,1.3,0.6,2.3c0.4,1,0.9,2.2,1.5,3.5l6.4,13.7l4.9-12.4c0.9-2.5,1.4-4.3,1.4-5.6c0-2.1-1.2-3.1-3.7-3.1
		c-0.1,0-0.2-0.2-0.2-0.6s0.1-0.6,0.2-0.6l2,0.1c1.2,0.1,2.7,0.2,4.6,0.2c1.3,0,2.7-0.1,4.3-0.2l4.1-0.1c0.1,0,0.2,0.2,0.2,0.6
		s-0.1,0.6-0.2,0.6c-2.3,0-4.2,0.7-5.9,2.1c-1.7,1.4-3.1,3.7-4.4,7l-5.9,14.9l12.5,26.7l16.4-41.6c0.6-1.5,0.9-2.9,0.9-4.1
		c0-3.3-2.3-5-7-5c-0.2,0-0.3-0.2-0.3-0.6s0.1-0.6,0.3-0.6l4.3,0.1c2.4,0.1,4.5,0.2,6.3,0.2c1.3,0,2.9-0.1,4.6-0.2l4.3-0.1
		C760.2,34.6,760.2,34.8,760.2,35.2z"/>
</g>
<path d="M114.6,63.8c-0.1,1.1-1,1.6-2,2c-2.6,1.2-5.4,2-8.2,1.8c-3.4-0.3-5.3,1.2-6.7,4.2c-2.2,4.5-6.3,6.5-11.3,5.9
	c-1-0.1-1.1-0.2-2.4-1.2c1.1-1.1,2.6-1.2,3.9-1.7c2.4-0.9,3-1.9,2.7-4.5c-0.3-2.1-1.7-2.7-3.6-2.6c-0.5,0-0.9,0-1.4,0
	c-3.6-0.5-6.2,0.5-7.7,4.3c-1,2.6-3.5,4.1-5.9,5.6c-5,3.2-5.8,6.6-2.5,11.5c1.6,2.3,3.6,2.3,5-0.1c1-1.7,2-3.4,1.8-5.5
	c0-0.6-0.2-1.4,0.6-1.5c0.9-0.1,1.1,0.7,1.3,1.3c1.5,5.4-0.7,11.1-5.6,13.7c-2.4,1.3-3.5,2.9-4,5.5c-0.5,2.3-0.6,4.7-1.1,7l-1.1,2.9
	l-0.3,0.8c0,0-1.3,4.5-3.7,0l-0.1-0.8v0c-0.7-2.5-2.2-4.8-1.9-7.4c0.4-4-0.8-6.9-4.9-8.1c-0.2-0.1-0.4-0.2-0.6-0.4
	c-3.8-2.4-5.9-7.6-4.7-11.7c0.2-0.7,0.2-1.7,1.1-1.8c0.8-0.1,0.9,0.9,1.2,1.5c0.4,1.1,0.8,2.1,1,3.2c0.4,1.5,1.2,2.8,2.8,2.9
	c1.7,0.1,3-1,3.5-2.5c1.5-4.7,1.8-7.7-3.2-10.8c-2.2-1.3-4.2-2.9-5.4-5.2c-2.2-4.6-6.1-5-10.4-4.4c-1.8,0.2-2.9,1.2-3.1,3.1
	c-0.2,2,0.7,3.2,2.6,3.7c1.1,0.3,2.2,0.6,3.3,1c0.6,0.2,1.5,0.3,1.5,1.1c0,0.8-1,0.8-1.6,1c-5,1.3-10.7-1.2-12.7-6.1
	c-1.3-3-3.1-4.1-6.3-4c-3.2,0.1-6.3-0.5-9-2.3c0,0,0,0,0,0c-0.9-0.4-3.4-1.6,0.3-3.6v0c1.1-0.7,2.3-1.1,3.7-1.3
	c2.3-0.3,4.5-0.9,6.7-1.2c2.2-0.3,3.5-1.4,4.4-3.4c1.5-3.1,3.9-5.2,7.3-6.1c2.8-0.7,5.6-0.9,8.5,1c-2.2,0.9-4.2,0.8-6,1.8
	c-1.5,0.8-3.1,1.6-2.8,3.7c0.3,2.1,1.8,3.1,3.6,3.7c3.4,1.1,6.7-0.1,8.7-3.3c2-3.2,4.3-5.9,7.8-7.5c1.9-0.9,2.8-2.5,3-4.5
	c0.2-1.6-0.3-3.2-0.6-4.7c-0.3-1.8-1.6-2.8-3.4-2.8c-1.7,0-2.9,0.8-3.4,2.5c-0.3,1-0.5,2.1-0.8,3.1c-0.2,0.7-0.2,1.8-1.1,1.8
	c-1,0-1-1.2-1.2-2c-1.1-4.6,1.1-9.8,5.4-12c3.5-1.7,4.8-4.1,4.7-8c-0.1-3.2,0.8-6.5,3.3-9h1.3c2,1.9,2.8,4.3,2.9,7
	c0.2,4.6,1.5,8.3,6.1,10.6c3.9,2,5.8,9.3,3.9,13.2c-0.2,0.4-0.4,0.9-0.9,0.9c-0.7-0.1-0.7-0.7-0.7-1.2c0-2.1-0.4-4.1-2-5.7
	c-1.7-1.8-3.5-1.6-5,0.3c-2.8,3.6-2.4,7.6,1.4,10.1c3.5,2.3,6.3,5.1,8.6,8.6c2.9,4.2,6.8,3.7,10.5,0.8c1.5-1.1,1.5-2.7,0.2-4.2
	c-1.3-1.5-3-2.2-5-2.4c-0.8-0.1-1.9,0.2-2.5-0.7c3.9-3,12-1.4,14.3,3.3c2.3,4.7,5.9,5.7,10.4,5.9c2,0.1,3.9,0.5,5.6,1.7
	C113.8,62.2,114.7,62.7,114.6,63.8z"/>
</svg>
