<svg width="66" height="66" viewBox="0 0 66 66" fill="none" xmlns="http://www.w3.org/2000/svg">
<g clip-path="url(#clip0)">
<path d="M32.5506 20.0043C25.3844 20.0043 19.5583 25.829 19.5583 32.9951C19.5583 40.1529 25.3844 45.9868 32.5506 45.9868C39.7182 45.9868 45.5428 40.1524 45.5428 32.9951C45.5428 25.829 39.7182 20.0043 32.5506 20.0043ZM32.5506 43.7814C26.6091 43.7814 21.7642 38.9478 21.7642 32.9951C21.7642 27.0536 26.5993 22.2097 32.5506 22.2097C38.5018 22.2097 43.3369 27.0531 43.3369 32.9951C43.3369 38.938 38.4935 43.7814 32.5506 43.7814Z" fill="black"/>
<path d="M53.4021 34.7786L52.6189 33.6981C52.2503 33.1936 52.241 32.5013 52.6106 31.988L53.3753 30.8983C53.9781 30.0427 54.1941 28.9623 53.9521 27.9356C53.7087 26.9089 53.0428 26.0368 52.1149 25.5415L50.944 24.9113C50.3852 24.6141 50.0894 24.002 50.1882 23.3801L50.4126 22.066C50.5837 21.03 50.305 19.9677 49.648 19.1488C48.9821 18.3289 47.9994 17.8347 46.9561 17.7892L45.6229 17.7354C44.9928 17.708 44.4516 17.2842 44.2814 16.6814L43.8947 15.4112C43.4445 13.8536 41.9944 12.7649 40.3649 12.7649C39.8697 12.7649 39.3745 12.8641 38.9149 13.0621L37.6902 13.5838C37.1231 13.8272 36.4299 13.6747 36.0251 13.2152L35.1338 12.2247C34.4411 11.4498 33.4423 11 32.4073 11C31.344 11 30.3364 11.4596 29.6333 12.2604L28.769 13.2689C28.3642 13.7368 27.6793 13.8991 27.1038 13.6654L25.8699 13.1619C25.4201 12.9815 24.9522 12.8827 24.4746 12.8827C22.8275 12.8827 21.3687 13.9905 20.9355 15.5838L20.5845 16.8706C20.4222 17.4744 19.8825 17.9065 19.2523 17.9422L17.9284 18.0234C16.8841 18.0772 15.9029 18.5905 15.2546 19.4187C14.6054 20.2468 14.3453 21.319 14.5335 22.3452L14.777 23.651C14.8938 24.2719 14.5966 24.8937 14.0476 25.1993L12.8865 25.8476C11.9673 26.3609 11.3108 27.2428 11.0854 28.2695C10.86 29.2962 11.0854 30.3761 11.7073 31.2224L12.4905 32.294C12.8591 32.7991 12.8689 33.4913 12.4988 34.0042L11.7337 35.0939C11.1309 35.95 10.9148 37.0299 11.1573 38.0566C11.4007 39.0832 12.0666 39.9559 12.994 40.4507L14.1649 41.0808C14.7237 41.3781 15.0195 41.9902 14.9202 42.612L14.6958 43.9262C14.5252 44.9607 14.8034 46.0245 15.4609 46.8434C16.1268 47.6632 17.1095 48.1575 18.1523 48.2025L19.4855 48.2563C20.1157 48.2836 20.6564 48.7065 20.827 49.3098L21.1956 50.5883C21.6454 52.1459 23.0959 53.2356 24.7249 53.2356C25.2201 53.2356 25.7154 53.1368 26.1749 52.9384L27.3981 52.4162C27.9662 52.1737 28.66 52.3263 29.0643 52.7858L29.956 53.7753C30.6517 54.5502 31.6505 55 32.6855 55C33.7488 55 34.7564 54.5414 35.4594 53.7396L36.3316 52.7311C36.7374 52.2632 37.4213 52.1009 37.9977 52.3346L39.2307 52.8391C39.6805 53.019 40.1498 53.1183 40.627 53.1183C42.2741 53.1183 43.7329 52.0104 44.1646 50.4172L44.5156 49.1294C44.6779 48.5266 45.2186 48.0949 45.8488 48.0578L47.181 47.9776C48.2351 47.9145 49.207 47.4095 49.8548 46.5818C50.504 45.7532 50.7641 44.6913 50.5759 43.6563L50.3324 42.3505C50.2156 41.7286 50.5128 41.1077 51.0618 40.8022L52.2229 40.1529C53.1421 39.6401 53.7986 38.7576 54.0245 37.7315C54.2499 36.7048 54.0245 35.6248 53.4021 34.7786ZM51.8719 37.2538C51.7825 37.6684 51.5209 38.0106 51.1523 38.2184L49.9912 38.8667C48.613 39.6313 47.8753 41.1889 48.1627 42.7372L48.4062 44.043C48.4873 44.4669 48.3788 44.881 48.1187 45.2139C47.8572 45.5473 47.4788 45.7453 47.0471 45.7717L45.7232 45.8529C44.1475 45.9438 42.806 47.0238 42.3924 48.5457L42.0413 49.8241C41.8702 50.4626 41.2845 50.9041 40.628 50.9041C40.4378 50.9041 40.2496 50.8684 40.0692 50.7965L38.8352 50.292C38.3849 50.1116 37.9171 50.0124 37.4399 50.0124C36.3776 50.0124 35.3695 50.4719 34.6674 51.2727L33.7938 52.2735C33.5146 52.5966 33.1181 52.7765 32.686 52.7765C32.2636 52.7765 31.8754 52.6059 31.5972 52.2911L30.7055 51.3006C30.0122 50.5262 29.0129 50.0759 27.9687 50.0759C27.4637 50.0759 26.9782 50.1747 26.5186 50.3732L25.294 50.8943C25.1053 50.9755 24.917 51.0126 24.7185 51.0126C24.0693 51.0126 23.4939 50.579 23.3135 49.9586L22.9449 48.6801C22.5034 47.168 21.1521 46.1047 19.5764 46.0333L18.2442 45.9795C17.8203 45.9619 17.4336 45.7717 17.1725 45.4388C16.9027 45.1059 16.7956 44.6923 16.867 44.2777L17.0914 42.9636C17.3529 41.4055 16.5971 39.866 15.2009 39.1189L14.0309 38.4888C13.6525 38.2908 13.391 37.948 13.2922 37.534C13.1935 37.1199 13.2741 36.697 13.5264 36.3548L14.2915 35.265C15.2009 33.9788 15.1925 32.2588 14.2558 30.9804L13.4726 29.9088C13.2209 29.566 13.1299 29.1436 13.2292 28.7296C13.3201 28.3155 13.5812 27.9728 13.9503 27.7664L15.1114 27.1182C16.4886 26.3531 17.2278 24.7955 16.9389 23.2462L16.7047 21.9501C16.6235 21.5263 16.7321 21.1122 16.9921 20.7792C17.2537 20.4463 17.6321 20.2483 18.0638 20.2219L19.3877 20.1408C20.9634 20.0498 22.2951 18.9699 22.719 17.448L23.07 16.1612C23.2406 15.5212 23.8268 15.0798 24.4834 15.0798C24.6731 15.0798 24.8618 15.1169 25.0422 15.1883L26.2761 15.6919C26.7259 15.8723 27.1938 15.971 27.6714 15.971C28.7338 15.971 29.7424 15.5115 30.4439 14.7107L31.3176 13.7119C31.5967 13.3872 31.9932 13.2068 32.4254 13.2068C32.8478 13.2068 33.236 13.3789 33.5141 13.6938L34.4054 14.6833C35.0991 15.4577 36.0979 15.908 37.1427 15.908C37.6472 15.908 38.1332 15.8087 38.5927 15.6107L39.8174 15.0891C40.0061 15.0079 40.1943 14.9722 40.3928 14.9722C41.0421 14.9722 41.6175 15.4044 41.7979 16.0248L42.1665 17.3042C42.608 18.8164 43.9593 19.8787 45.5349 19.9506L46.8672 20.0053C47.291 20.0234 47.6777 20.2116 47.9476 20.5451C48.2185 20.878 48.3255 21.2921 48.2541 21.7062L48.0288 23.0213C47.7672 24.5789 48.524 26.1174 49.9193 26.8659L51.0902 27.4961C51.4686 27.6931 51.7292 28.0358 51.8279 28.4499C51.9272 28.864 51.847 29.2879 51.6035 29.6291L50.8389 30.7188C49.9296 32.0066 49.9374 33.7255 50.8746 35.0054L51.6578 36.0756C51.8719 36.4173 51.9629 36.8397 51.8719 37.2538Z" fill="black"/>
<path d="M35.7469 29.4218L30.9211 34.2198L29.3537 32.6441C28.9216 32.2119 28.2283 32.2119 27.7961 32.6441C27.3639 33.0763 27.3639 33.7695 27.7878 34.2022L30.1379 36.5616C30.3442 36.7679 30.6239 36.8852 30.9211 36.8852C31.2086 36.8852 31.4882 36.7679 31.6955 36.5616L37.3045 30.9877C37.7367 30.5556 37.7367 29.8623 37.3143 29.4301C36.8821 28.998 36.1791 28.998 35.7469 29.4218Z" fill="black"/>
</g>
<defs>
<clipPath id="clip0">
<rect width="66" height="66" fill="white"/>
</clipPath>
</defs>
</svg>
