<?xml version="1.0" encoding="utf-8"?>
<!-- Generator: Adobe Illustrator 26.5.0, SVG Export Plug-In . SVG Version: 6.00 Build 0)  -->
<svg version="1.1" id="Layer_1" xmlns="http://www.w3.org/2000/svg" xmlns:xlink="http://www.w3.org/1999/xlink" x="0px" y="0px"
	 viewBox="0 0 600 600" style="enable-background:new 0 0 600 600;" xml:space="preserve">
<style type="text/css">
	.st0{fill:#223346;}
	.st1{fill:#FFFFFF;}
	.st2{fill:#263344;}
	.st3{fill:#263344;stroke:#263344;stroke-width:3;stroke-miterlimit:10;}
</style>
<path class="st0" d="M454.09,215.63c0.14-1.44,0.29-3.08-0.06-4.85c-0.49-2.4-1.31-4.89-2.55-7.77c-0.04-0.18,0.02-0.72,0.06-1.29
	c0.1-1.03,0.23-2.53-0.27-4.13c0.57-2.24-0.27-4.21-0.7-5.2c-0.12-0.27-0.23-0.55-0.27-0.68l-0.19-1.17
	c-0.31-1.62-0.68-3.64-1.77-5.53c-0.92-1.56-2.05-2.88-2.96-3.96c-0.66-0.76-1.32-1.52-1.87-2.32c-4.85-7.27-9.37-13.02-15.71-17.48
	c-0.84-0.6-1.68-1.23-2.51-1.87c-2.57-1.93-5.48-4.11-9.51-5.69c-2.47-0.97-4.62-1.81-5.79-3.6c-1.21-1.85-3.2-2.81-4.58-3.35
	c-2.47-1.03-4.6-1.81-6.86-2.26c-3.1-0.58-6.51-1.03-10.44-1.34c-3-0.25-5.9-0.35-8.67-0.23l-4.09,0.04
	c-3.47,0.04-7.07,0.08-10.66,0.47c-2.77,0.31-5.48,1.07-7.77,1.73l-2.84,0.78c-0.68,0.18-1.34,0.31-2.03,0.47l-0.94,0.21
	c-2.4,0.53-5.09,1.13-7.7,2.16c-1.23,0.51-2.47,0.94-3.74,1.38l-0.57,0.19c-3.88,1.36-8.26,2.88-12.28,5.75
	c-1.44,1.05-2.94,1.99-4.46,2.94c-1.66,1.03-3.31,2.08-4.89,3.22c-3.84,2.79-7.58,5.67-11.34,8.55l-2.57,2.01
	c-0.95,0.74-1.87,1.56-3.08,2.67l-9.96,9.18c-0.29,0.29-0.62,0.58-1.07,1.03c-0.16,0.18-0.45,0.45-0.68,0.68
	c-2.24-0.86-3.8-1.97-4.77-3.41l-1.48-2.18c-0.58-0.94-1.21-1.85-1.83-2.75c-1.6-2.34-3.23-4.62-4.87-6.9
	c-0.41-0.57-0.86-1.05-1.34-1.56c-0.18-0.19-0.35-0.39-0.55-0.62c-0.55-0.66-1.07-1.34-1.77-2.24c-1.25-1.66-2.69-3.55-4.42-5.26
	c-1.7-1.66-3.57-2.94-5.73-4.44l-1.64-1.13c-1.34-0.97-2.75-1.83-4.23-2.63c-0.64-0.35-1.27-0.51-1.79-0.58
	c-2.86-2.12-6.02-3.04-9.18-3.96c-1.21-0.35-2.4-0.7-3.57-1.19c-1.85-0.76-3.74-1.36-5.65-1.97l-1.77-0.55
	c-2.53-0.84-5.09-1.64-7.66-2.38l-1.15-0.35c-1.58-0.45-3.22-0.94-4.95-1.17c-0.53-0.1-1.07-0.14-1.58-0.18
	c-1.75-0.16-2.36-0.29-2.98-0.92c-1.07-0.97-2.47-1.29-3.66-0.95c-0.35,0.04-0.66,0.12-1.36,0.29l-0.43,0.12
	c-1.23-0.04-2.46-0.12-3.74-0.21l-0.9-0.06c-1.54-0.08-3.08-0.18-4.66-0.18h-0.76c-2.71,0.02-5.51,0.02-8.36,0.57
	c-2.44,0.47-4.75,1.13-7.09,1.79l-0.95,0.27c-1.27,0.35-2.53,0.7-3.8,0.99c-4.27,1.01-8.36,2.46-12.16,4.31
	c-3.04,1.48-5.85,3.27-8.71,5.09l-3.68,2.28c-1.11,0.64-2.61,1.5-3.8,2.88c-2.18,2.53-4.29,5.14-6.33,7.76l-3.78,4.66
	c-0.39,0.49-0.84,0.95-1.27,1.38c-0.9,0.92-1.75,1.83-2.46,2.88c-0.97,1.44-1.89,2.96-2.79,4.46l-0.53,0.88
	c-0.49,0.86-1.01,1.71-1.54,2.57c-2.77,4.58-4.52,9.94-5.32,16.41l-1.13,9.37c-0.16,1.19-0.31,2.38-0.27,3.55
	c0.02,1.23,0.14,2.42,0.27,3.86c0.14,1.38,0.27,2.67,0.21,3.96c-0.33,6.35,0.86,12.39,2.08,18.02c0.6,2.86,1.4,5.73,2.18,8.53
	l0.33,1.21c0.31,1.11,0.64,2.2,1.01,3.27c0.23,0.7,0.45,1.4,0.66,2.08c0,0.02,0.02,0.04,0.02,0.06l-0.58,0.19l3.41,8.79
	c0.76,2.14,1.54,4.29,2.46,6.37c0.68,1.54,1.52,3,2.38,4.44c0.37,0.64,0.76,1.29,1.11,1.93c0.12,0.25,0.23,0.51,0.33,0.74
	c0.35,0.82,0.74,1.7,1.38,2.53c2.08,2.75,4.29,5.46,6.47,8.13c0.43,0.53,0.92,0.94,1.32,1.27c0.04,0.04,0.08,0.08,0.12,0.12
	c1.17,2.53,2.96,4.35,4.58,5.96c0.55,0.55,1.09,1.09,1.58,1.68c0.12,0.16,0.23,0.31,0.41,0.57c0.35,0.55,0.88,1.38,1.73,2.14
	c1.68,1.48,3.39,2.9,5.11,4.35c1.25,1.01,2.46,2.03,3.66,3.08c0.8,0.64,1.56,1.32,2.34,2.01l0.8,0.7c1.23,1.07,2.46,2.16,3.72,3.22
	c1.03,0.86,2.08,1.68,3.16,2.51c1.89,1.4,3.68,2.81,5.18,4.38c1.38,1.48,2.86,2.63,4.36,3.78c1.32,1.01,2.57,1.99,3.59,3.1
	c1.99,2.18,4.35,3.84,6.82,5.59c0.88,0.62,1.75,1.25,2.57,1.91c0.23,0.19,0.47,0.47,0.9,0.95c0.82,0.94,1.93,2.22,3.62,2.9
	c1.79,0.76,3.23,2.12,4.97,3.74l5.96,5.67c0.21,0.19,0.43,0.41,0.66,0.68l9.33,9.84c1.17,1.17,2.34,2.36,3.43,3.66
	c0.92,1.07,1.71,2.3,2.59,3.7l1.66,2.53c1.52,2.3,3.02,4.6,4.44,6.98c0.99,1.66,1.97,3.33,2.94,5.01l1.48,2.53
	c0.55,0.95,1.11,1.91,1.66,2.83c0.33,0.58,0.72,1.15,1.11,1.7l1.64-1.13l-1.23,1.71c0.33,0.49,0.66,0.97,0.95,1.46
	c0.31,0.57,0.57,1.13,0.8,1.71c0.43,0.94,0.88,1.89,1.42,2.81c1.27,2.07,2.57,4.13,3.9,6.18l0.72,1.15
	c0.62,0.99,1.27,1.99,1.93,3.06c0.35,0.55,0.68,1.11,0.99,1.68c0.47,0.86,0.95,1.71,1.5,2.55c1.13,1.71,2.36,3.35,3.57,4.95
	c0.92,1.23,1.71,2.16,2.53,2.94c0.68,0.66,1.44,1.23,2.16,1.77l0.82,0.66c0.45,0.33,0.86,0.7,1.31,1.07
	c1.13,0.99,2.53,2.2,4.31,3.06c3.97,1.95,7.44,2.86,10.89,2.86c0.45-0.04,0.8,0,1.19-0.02c3.33-0.18,6.41-0.62,9.12-1.32
	c0.53-0.14,1.07-0.23,1.62-0.33c2.2-0.37,5.46-0.94,7.79-3.8c2.63-0.74,4.15-2.69,5.3-4.17c0.21-0.29,0.41-0.57,0.68-0.82
	c5.16-5.12,10-10.56,14.77-16.6l0.57-0.7c2.12-2.71,4.25-5.4,6.27-8.14c0.76-1.01,1.44-2.05,2.28-3.31
	c0.92-1.42,1.87-2.88,2.94-4.15c1.17-1.36,2.65-2.59,4.23-3.9l0.96-0.8c0.14-0.1,0.35-0.19,0.53-0.27c0.74-0.37,2.12-1.01,2.83-2.1
	c0.06-0.04,0.27-0.18,0.6-0.35c0.88-0.51,2.34-1.36,2.81-3.25c0.21-0.82,0.74-1.27,2.47-2.4c0.84-0.53,1.68-1.09,2.42-1.73
	c1.32-1.13,2.57-2.34,3.82-3.57l2.42-2.4c0.6-0.6,1.19-1.23,1.83-1.75c0.47-0.37,0.95-0.7,1.79-1.29c0.6-0.39,1.19-0.8,1.71-1.23
	c0.97-0.78,1.95-1.54,2.88-2.36c1.34-1.13,2.69-2.22,4.07-3.27c0.8-0.6,1.68-1.09,2.51-1.58c0.82-0.47,1.64-0.94,2.42-1.46
	c1.03-0.68,2.05-1.4,3.08-2.12l0.82-0.57c1.05-0.76,2.12-1.5,3.23-2.24c0.86-0.62,1.77-1.17,2.98-1.89l2.26-1.4
	c0.58-0.39,1.17-0.86,1.95-1.52c0.21-0.18,0.45-0.37,0.66-0.53c2.61-0.12,4.4-1.31,5.63-2.12c0.35-0.23,0.7-0.47,1.01-0.62
	c2.34-1.19,4.68-2.4,7-3.6l4.03-2.08c0.55-0.29,1.09-0.55,1.71-0.84l1.31-0.74c1.11-0.9,2.28-1.73,3.6-2.67
	c2.86-2.05,5.83-4.17,8.34-7.23c3.29-3.99,6.55-7.85,10.09-11.38c3.49-3.51,5.36-7.66,7-11.32c0.43-0.94,0.88-1.89,1.32-2.84
	c1.6-3.27,3.02-6.64,4.38-9.88l0.31-0.76c0.47-1.11,0.92-2.22,1.38-3.27l0.64-4.07c0.14-1.17,0.25-2.28,0.47-3.37
	c0.21-0.97,0.45-1.93,0.7-2.9l0.18-0.66c0.6-2.26,1.17-4.46,1.42-6.84c0.27-2.71,0.25-5.4,0.25-7.99v-0.53
	c-0.02-1.56-0.02-3.1,0.04-4.66c0.06-1.64,0.16-3.27,0.25-4.91l0.06-1.19c0.12-1.97,0.21-3.92,0.29-5.88
	c0.06-1.21,0.02-2.44-0.02-3.62v-0.68c-0.02-0.86-0.04-1.73-0.02-2.57c0.1-1.93,0.23-3.84,0.39-5.79L454.09,215.63z M418.58,160.44
	c1.36,0.65,2.65,1.29,3.66,2.06c2.87,2.14,5.14,5.08,7.14,7.93c1.42,2,3.3,3.5,5,4.83l0.65,0.53c3.16,2.45,5.3,5.93,6.78,10.92
	c0.47,1.56,1.05,3.09,1.64,4.59l0.34,0.89c0.28,0.75,0.57,1.48,0.81,2.27c0.77,2.37,1.29,4.27,1.64,5.97l0.16,0.79
	c0.69,3.42,1.36,6.76,1.66,10.01c0.32,3.05,0.38,6.27,0.44,9.47l0.04,2.49c0.08,3.36,0.14,6.69,0.04,10.03
	c-0.02,0.91-0.12,1.82-0.22,2.73l-0.12,1.15c-0.1,0.73-0.18,1.48-0.22,2.22l-0.36,6.23c-0.16,3.18-0.34,6.35-0.59,9.53
	c-0.55,6.76-1.48,14.6-4.33,21.68c-1.96,4.87-4.25,9.47-6.01,12.9c-0.89,1.76-2,3.38-3.28,5.2l-0.83,1.23l-0.06-0.04
	c-0.28,0.18-0.55,0.38-0.81,0.59l-3.42,2.71l1.21,1.31c-0.4,0.47-0.83,0.95-1.31,1.48c-2.08,2.45-4.27,4.96-6.73,6.88
	c-1.07,0.83-2.06,1.78-3.07,2.73c-1.9,1.84-3.56,3.42-5.72,3.84c-1.31,0.26-2.14,1.05-2.61,1.64c-0.67,0.4-1.31,0.83-1.96,1.23
	l-0.91,0.59c-2.51,1.6-4.87,3.11-7.34,4.25c-7,3.2-13.25,6.61-19.11,10.48c-0.57,0.38-1.11,0.75-1.62,1.11l-0.63,0.44
	c-0.67,0.47-1.36,0.95-2.04,1.31c-0.71,0.36-1.46,0.67-2.61,1.13l-0.51,0.2c-0.57,0.22-1.13,0.44-1.6,0.67
	c-0.95,0.4-1.86,1.05-2.69,1.9l-1.84,1.94c-0.99,1.07-2.02,2.16-3.09,3.16c-0.47,0.44-1.03,0.79-1.58,1.13
	c-0.73,0.47-1.44,0.95-2.1,1.48c-1.23,0.99-2.43,2.02-3.58,3.07l-2.35,1.98c-4.13,2.33-7.56,5.24-10.48,8.9
	c-0.44,0.55-1.21,1.15-1.94,1.72c-0.59,0.44-1.15,0.89-1.62,1.31l-0.87,0.73c-1.42,1.27-2.85,2.53-4.15,3.84
	c-0.83,0.77-1.58,1.64-2.29,2.47l-1.38,1.58c-0.47,0.49-0.95,0.97-1.42,1.4c-1.05,0.99-2.25,2.1-3.26,3.5
	c-1.42,1.98-2.73,4.02-4.05,6.09l-2.1,3.26c-0.55,0.79-1.13,1.54-1.74,2.25l-1.62,1.8c-0.79,0.87-1.56,1.72-2.37,2.67
	c-0.47,0.61-0.89,1.25-1.29,1.9c-0.26,0.42-0.51,0.85-0.85,1.21l-1.05,1.15c-2.37,2.61-5.04,5.56-7.79,8.21
	c-1.96,1.9-4.05,3.64-6.13,5.4l-0.67,0.55c-0.81,0.67-1.6,1.33-2.25,1.92c-0.14,0.12-0.26,0.22-0.36,0.34l-0.73,0.28
	c-1.56,0.59-3.09,1.19-4.67,1.62c-5.66,1.5-10.19-0.18-14.4-5.08c-2.35-2.73-4.49-5.87-6.25-8.56c-0.53-0.85-0.91-1.84-1.33-2.89
	l-0.73-1.8c-0.12-0.4-0.44-1.38-1.23-2.12c-1.38-1.36-2.33-3.34-3.26-5.26c-0.95-1.94-2.02-4.15-3.68-6.23
	c-2.16-2.61-4.21-5.48-6.17-8.27l-2.02-2.83c-1.62-2.31-3.24-4.61-4.85-6.94l-1.48-2.1c-1.33-1.88-2.65-3.78-4.21-5.95
	c-0.49-0.71-0.99-1.4-1.46-2.12c-1.72-2.53-3.66-5.4-6.13-7.77c-2.41-2.29-4.15-4.57-5.48-7.22c-1.6-3.18-4.23-5.06-6.43-6.61
	c-0.61-0.42-1.23-0.87-1.8-1.31l-1.92-1.54c-2.27-1.8-4.53-3.6-6.76-5.46c-0.97-0.79-1.9-1.62-2.83-2.41
	c-1.17-1.07-2.37-2.12-3.56-3.07c-2-1.64-4.05-3.22-6.11-4.77l-7.69-5.89c-3.98-3.05-8.01-6.13-11.95-9.24
	c-0.87-0.67-1.66-1.46-2.63-2.45c-0.99-1.01-2.02-2.04-3.16-2.97c-1.17-0.93-2.45-1.76-3.74-2.59c-0.81-0.51-1.62-1.01-2.25-1.46
	c-0.1-0.12-0.22-0.3-0.55-0.77c-0.24-0.34-0.49-0.67-0.71-0.93l-2.02-2.33c-1.36-1.56-2.71-3.11-4.11-4.67l-2.63-2.79
	c-1.09-1.15-2.2-2.29-3.18-3.5c-0.57-0.71-1.07-1.7-1.68-2.89l-5.28-9.81c-0.77-1.31-1.52-2.67-2.22-4.05
	c-1.11-2.18-2.25-4.51-3.09-6.78c-0.81-2.12-1.5-4.31-2.2-6.51l-1.66-4.91c-0.24-0.69-0.51-1.4-0.69-2.1
	c-1.33-5.3-2.55-11.06-2.53-17.29c0.02-3.13-0.3-6.17-0.69-9.57c-0.26-2.45-0.55-5-0.59-7.4c-0.04-3.72,0.53-7.58,1.23-11.89
	c0.57-3.32,1.48-6.59,2.53-10.15c0.12-0.42,0.81-1.29,1.4-2.06l1.01-1.29c2.91-3.74,5.85-7.48,8.84-11.1
	c2.71-3.26,5.46-6.35,8.37-9.45c0.85-0.89,1.86-1.72,3.16-2.47c3.8-2.25,8.11-4.77,12.44-7.02c1.64-0.85,4.07-2.02,6.39-2.45
	l2.51-0.49c5.91-1.11,12.01-2.27,17.94-2.61c0.57-0.04,1.17-0.06,1.76-0.06c2.93,0,6.05,0.4,9.04,0.79l1.07,0.12
	c1.31,0.16,2.59,0.32,3.86,0.44l1.38,0.1c0.49,0.04,1.72,0.1,2.04,0.24c1.84,1.05,3.66,1.5,5.24,1.88c1.05,0.26,2,0.51,2.87,0.91
	c1.8,0.87,3.66,1.62,5.46,2.29c0.63,0.26,1.17,0.34,1.98,0.32c0.69,0.32,1.31,0.59,2,0.83c1.84,0.63,3.7,1.21,5.58,1.76
	c3.56,1.05,6.86,3.09,10.07,5.06c1.4,0.87,2.77,1.7,4.39,2.53c1.42,1.64,2.83,3.28,4.17,4.89c0.47,0.59,0.93,1.21,1.4,1.82
	c0.65,0.89,1.29,1.74,2,2.57c0.63,0.73,1.27,1.42,1.96,2.1c0.57,0.59,1.13,1.15,1.66,1.82c0.69,0.81,1.33,1.68,1.98,2.57
	c1.07,1.44,2.14,2.85,3.32,4.17c0.63,0.71,1.17,1.48,1.8,2.33c1.64,2.33,3.9,5.5,8.09,6.96c0.47,0.16,1.05,0.55,1.72,0.97
	c0.83,0.57,1.7,1.09,2.51,1.46c1.96,0.93,4.51,0.83,6.25-0.28c2.02-1.25,3.94-2.67,5.66-4.19c1.29-1.17,2.57-2.37,3.78-3.58
	c1.33-1.27,2.65-2.55,4.05-3.72c2.83-2.43,5.93-4.89,9.73-7.77c2.71-2.06,5.62-4.21,8.68-6.11c4.23-2.67,8.62-5.42,13.09-7.71
	c2.85-1.48,5.99-2.75,9.22-4.05l3.6-1.48c3.09-1.29,6.19-2.59,9.36-3.72c0.81-0.3,1.8-0.47,3.03-0.65l1.29-0.22
	c0.97-0.16,1.94-0.3,2.89-0.42c1.92-0.26,4.17-0.59,6.35-1.17c3.18-0.89,6.49-0.67,10.07-0.42l1.15,0.08
	c0.89,0.04,1.86,0.1,3.42,0.14c1.66,0.04,3.32,0.06,5.02-0.08c4.31-0.71,7.87,1.5,12.18,3.86c1.07,0.61,2.14,1.19,3.22,1.74
	c0.73,0.36,1.42,0.87,2.37,1.56c0.79,0.55,1.6,1.11,2.43,1.56c1.01,0.55,2.06,1.01,3.13,1.48l0.61,0.26
	c0.65,0.28,1.31,0.57,1.9,0.85L418.58,160.44z M412.1,161.83L412.1,161.83L412.1,161.83L412.1,161.83z"/>
</svg>
