<?xml version="1.0" encoding="UTF-8"?>
<svg id="Layer_2" data-name="Layer 2" xmlns="http://www.w3.org/2000/svg" viewBox="0 0 75.36 64.37">
  <defs>
    <style>
      .cls-1 {
        fill: #9db6d2;
      }

      .cls-2 {
        fill: #263344;
      }
    </style>
  </defs>
  <g id="Layer_4" data-name="Layer 4">
    <path class="cls-2" d="M21.16,0c4.75,.2,10.29,2.35,14.14,7.86,2.33,3.33,4.53,5.52,8.08,1.02,1.7-2.16,4.25-3.69,6.53-5.34,5.79-4.18,11.8-4.24,17.69-.32,5.94,3.96,8.21,9.83,7.69,16.78-.61,8.06-5.1,14.44-10.13,20.16-7.25,8.24-15.51,15.51-23.86,22.67-1.8,1.54-3.38,2.23-5.23,.57-9.76-8.76-21-15.92-28.9-26.69-2.48-3.37-4.52-6.97-5.92-10.93C-3.41,12.56,5.34,.14,21.16,0Z"/>
    <path class="cls-1" d="M20.1,4.41c-11.62,.03-18.48,10.01-14.34,20.93,1.36,3.6,3.27,6.9,5.72,9.88,7.11,8.68,16.16,15.25,24.56,22.52,2.05,1.78,3.53,1,5.15-.56,6.57-6.35,13.5-12.37,19.68-19.09,5.65-6.15,10.4-13.09,9.71-22.18-.72-9.58-9.38-14.08-17.62-9.1-4.32,2.61-7.62,6.41-10.88,10.17-3.74,4.32-4.58,4.24-6.78-1.11-3.27-7.92-8-11.5-15.18-11.48Z"/>
  </g>
</svg>