<?xml version="1.0" encoding="utf-8"?>
<!-- Generator: Adobe Illustrator 26.5.0, SVG Export Plug-In . SVG Version: 6.00 Build 0)  -->
<svg version="1.1" id="Layer_1" xmlns="http://www.w3.org/2000/svg" xmlns:xlink="http://www.w3.org/1999/xlink" x="0px" y="0px"
	 viewBox="0 0 600 600" style="enable-background:new 0 0 600 600;" xml:space="preserve">
<style type="text/css">
	.st0{fill:#223346;}
	.st1{fill:#FFFFFF;}
	.st2{fill:#263344;}
	.st3{fill:#263344;stroke:#263344;stroke-width:3;stroke-miterlimit:10;}
</style>
<g>
	<path class="st0" d="M112.37,400.54c0.38-8.76,6.5-12.68,11.85-17.01c2.8-2.27,6.08-3.93,9.06-5.99c0.93-0.64,1.6-1.67,2.82-2.98
		c0,0,0.78,0.32,1.56,0.65c-0.08-0.28-0.17-0.57-0.25-0.85c1.65-0.61,3.36-1.09,4.93-1.85c5.06-2.45,10.03-5.07,15.09-7.51
		c4.31-2.08,8.64-4.12,13.05-5.95c6.1-2.53,12.2-5.12,18.47-7.17c7.08-2.31,14.3-4.22,21.53-5.98c9.93-2.41,18.5-7.38,26.3-13.69
		c2.14-1.73,3.99-4.58,4.61-7.23c0.89-3.79,4.77-6.14,4.21-10.79c-0.19-1.6,3.53-3.14,6.51-2.81c3.56,0.39,7.18,0.04,10.77,0.27
		c5.01,0.31,8.82-2.55,12.5-5.07c2.16-1.48,4.14-4.4,4.61-6.97c1.28-7.12,5.75-10.5,12.14-12.29c-1.18-6.9-2.66-13.77-3.45-20.72
		c-0.84-7.39-1.06-14.86-1.45-22.29c-0.14-2.66,0.02-5.34,0.02-8.01c0-4.85-0.24-9.72,0.05-14.56c0.14-2.39,1.17-4.74,1.9-7.08
		c1.78-5.64,3.42-11.33,5.5-16.86c1.41-3.75,3.38-7.3,5.26-10.86c2.18-4.14,4.51-8.21,6.81-12.29c1.82-3.23,3.25-6.8,5.61-9.58
		c6.36-7.51,12.75-15.07,19.85-21.85c5.13-4.91,11.86-8.13,17.06-12.98c5.48-5.1,12.8-5.94,18.87-9.6
		c2.88-1.74,6.97-1.56,10.53-2.06c8.5-1.19,16.99-2.68,25.54-3.25c7.59-0.51,15.37-0.73,22.87,0.32
		c11.02,1.54,22.08,3.48,32.34,8.22c8.2,3.79,16.56,7.28,24.45,11.64c6.26,3.46,12.24,7.62,17.71,12.23
		c4.36,3.68,8.07,8.26,11.48,12.88c3.56,4.82,6.71,10,9.49,15.31c3.51,6.71,6.74,13.6,9.56,20.62c2.05,5.09,4.3,10.47,4.54,15.8
		c0.28,6.39,1.49,12.73,1.17,19.17c-0.32,6.31-0.12,12.64-0.48,18.94c-0.58,9.97-0.99,19.96-6.34,28.99
		c-1.57,2.65-1.45,6.25-2.73,9.14c-2.77,6.27-5.85,12.41-8.97,18.52c-1.92,3.77-3.78,7.66-6.32,11c-3.25,4.27-7.06,8.12-10.8,11.99
		c-4.65,4.81-9.2,9.78-14.28,14.09c-4.3,3.64-9.6,6.1-13.91,9.74c-3.72,3.14-9.12,3.45-12.02,7.72c-0.2,0.3-0.65,0.52-1.03,0.61
		c-9.2,2.33-18.38,4.74-27.63,6.9c-3.29,0.77-6.73,1.17-10.11,1.26c-6.58,0.18-13.18,0.11-19.76-0.03
		c-4.05-0.09-8.23,0.05-12.13-0.86c-7.74-1.81-15.43-3.98-22.94-6.56c-5.43-1.87-10.56-4.62-15.79-7.06
		c-4.82-2.25-9.7-4.22-13.39-8.57c-1.94-2.29-5.63-2.99-8.14-4.92c-3.98-3.04-7.69-6.45-11.4-9.82c-1.57-1.43-2.83-3.18-4.46-5.04
		c-2.93,5.4-7.29,6.52-12.97,5.65c-10.58-1.62-18.73,2.7-24.6,11.5c-1.17,1.76-2.3,3.55-3.35,5.39c-1.49,2.63-6.19,4.94-9.33,4.08
		c-7.47-2.03-14.76-1.45-21.9,1.22c-2.05,0.77-4,2-5.75,3.34c-3.84,2.95-7.99,5.29-12.18,7.71c-4.82,2.79-8.72,7.15-13.15,10.66
		c-3.06,2.43-6.42,4.5-9.5,6.9c-4.45,3.47-8.78,7.09-13.17,10.65c-6.7,5.43-13.33,10.95-20.12,16.27c-4.35,3.41-8.65,7.07-13.5,9.63
		c-4.08,2.15-9.06,2.5-13.37,4.3c-4.47,1.86-8.9,0.47-13.3,0.92c-1.53,0.15-3.48,1.53-4.24,2.9c-2.54,4.57-5.38,7.66-11.22,8.5
		c-2.59,0.37-5.9,4.8-6.51,7.86c-0.94,4.66-4.59,4.9-7.27,6.86c-2.13,1.56-5.06,2.82-6.07,4.96c-3.89,8.22-9.77,13.28-18.59,16.03
		c-5.95,1.85-11.59,3.67-17.69,1.99c-8.3-2.29-15.12-6.12-19.54-14.44c-3.59-6.77-3.77-13.83-5.05-20.86
		c-0.07-0.39-0.19-0.94,0-1.17c4.77-5.7,3.9-14.81,11.23-18.88c3.12-1.73,6.42-3.52,9.86-4.23c4.09-0.84,7.85-4.27,12.19-2.57
		c3.27,1.27,5.77-0.13,7.67-1.79c1.85-1.63,3.18-3.51,5.91-3.76c2.72-0.25,5.83-1.92,8.03-1.06c4.98,1.95,8.44-0.05,11.21-3.27
		C102.8,398.34,106.76,396.82,112.37,400.54z M286.21,301.86c-2.39-1.61-2.71,0.06-3.34,1.89c-2.74,7.94-12.87,12.41-20.32,12.83
		c-1.68,0.09-3.31,0.92-4.96,1.41c4.63,3.02,10.37,15.84,8.05,18.39c-4.31-4.49-7.12-9.71-8.94-15.71c-0.58-1.91-2.27-5.58-5.6-4.23
		c-3.19,1.29-3.16,4.19-1.66,7.13c2.36,4.64,4.7,9.3,6.79,14.06c0.43,0.98-0.24,2.44-0.4,3.68c-0.73-0.1-1.9,0.05-2.13-0.35
		c-1.8-3.06-3.57-6.15-5-9.39c-0.56-1.26-0.02-2.96-0.32-4.39c-0.3-1.42-1.02-2.75-1.63-4.29c-3.73,6.57-7.02,12.86-13.29,17.24
		c-6.33,4.43-12.96,8.02-20.23,10.43c-4.84,1.6-9.95,2.4-14.73,4.13c-10.58,3.83-21.14,7.76-31.5,12.14
		c-9.08,3.84-17.89,8.3-26.78,12.58c-8,3.85-15.03,9.06-20.79,15.83c-1.8,2.12-4.02,4.33-1.12,7.6c2.38,2.69,4.65,5.75,5.94,9.05
		c1.03,2.65,5.03,5.45,0.79,9.38c-1.47-1.75-3.15-3.15-4.07-4.94c-1.92-3.78-3.41-7.78-5.15-11.65c-0.35-0.77-0.93-1.54-1.61-2.01
		c-0.27-0.19-1.52,0.33-1.58,0.67c-0.15,0.76,0.05,1.66,0.33,2.42c0.28,0.74,0.89,1.35,1.28,2.06c2.46,4.45,4.9,8.91,7.35,13.37
		c-0.53,0.33-1.06,0.66-1.59,0.99c-1.71-2.66-3.28-5.41-5.15-7.94c-2.98-4.04-2.58-10.45-9.6-12.62c-0.11,1.76-0.9,4.16-0.19,4.75
		c5.12,4.26,5.52,10.86,8.72,16.17c-1.3,0.55-2.46,1.03-4.72,1.97c-2.33-5.82-4.64-11.61-6.89-17.21
		c-4.58,4.31-10.26,4.69-16.49,3.48c5.53,8.2,11.15,21.26,10.65,26.39c-2.22-2.58-4.31-4.14-5.2-6.21
		c-2.33-5.41-3.96-11.11-6.27-16.53c-0.62-1.46-0.28-6.94-4.61-2.47c-0.5,0.52-1.47,0.55-2.18,0.89c-3.13,1.5-6.12,3.4-9.39,4.45
		c-3.09,0.99-6.55,0.77-9.7,1.65c-13.3,3.72-18.02,12.19-19.75,24.04c-1.2,8.23,2.44,14.69,7.8,20.51c3.86,4.2,8.06,7.43,14.21,6.37
		c1.81-0.31,3.81-1.57,5.34-1.12c4.73,1.39,8.55-0.48,12.22-2.75c2.95-1.83,6.31-3.72,8.13-6.48c3.56-5.41,7.2-10.47,12.8-13.11
		c0.58-2.95-5.81-4.9-0.4-8c0.87,0.88,1.51,2.01,2.42,2.31c0.76,0.25,2.08-0.22,2.73-0.83c0.98-0.92,1.36-2.58,2.41-3.31
		c3.3-2.28,6.8-4.28,10.14-6.34c-0.11-1.14-0.24-2.53-0.47-5c1.33,1.77,1.94,2.59,2.66,3.56c1.23-1.4,2.44-2.78,3.64-4.16
		c2.28-2.62,5.45-4,8.61-3.65c5.79,0.66,11.3-0.25,16.39-2.52c5.72-2.55,11.21-5.65,15.71-10.32c2.08-2.16,5.2-3.28,7.66-5.13
		c2.13-1.61,3.92-3.66,5.99-5.37c6.8-5.63,13.99-10.84,20.37-16.91c3.69-3.51,8.54-5.32,11.67-9.88c2.3-3.34,7.76-4.32,11.02-7.24
		c5.16-4.62,11.1-7.73,17.21-10.6c7.66-3.59,15.35-6.89,24.23-3.49c2.04,0.78,5.14-0.24,7.33-1.29c1.08-0.52,0.8-3.36,1.83-4.57
		c2.73-3.21,5.68-6.28,8.86-9.04c1.84-1.6,4.43-2.31,6.43-3.76c4.57-3.32,9.56-3.88,14.79-2.47c4.92,1.33,8.45-0.24,9.67-4.52
		c-8.15-9.56-12.71-20.84-16.83-32.3c-4.53,0.26-6.63,2.08-7.18,6.14c-0.19,1.43-0.34,2.86-0.51,4.3L286.21,301.86z M532.55,209.6
		c-0.78-2.02-2.06-5.25-3.28-8.49c-2.14-5.69-3.74-11.66-6.51-17.03c-3.4-6.61-7.6-12.84-11.78-19.01c-2.44-3.6-5.3-7.01-8.41-10.05
		c-3.03-2.96-6.63-5.33-9.97-7.98c-4.63-3.67-8.96-7.83-13.96-10.9c-5.34-3.27-11.1-6.19-17.05-8.03
		c-7.29-2.25-14.21-5.39-22.02-6.66c-6.27-1.02-12.66-1.58-18.94-2.71c-1.76-0.32-3.58-0.52-5.37-0.49
		c-5.03,0.1-10.08,0.2-15.1,0.58c-5.95,0.44-11.87,1.17-17.8,1.79c-0.23,0.02-0.42,0.32-0.66,0.39c-3.34,0.98-6.71,1.86-10.02,2.92
		c-4.09,1.31-8.45,2.19-12.11,4.28c-5.91,3.39-11.36,7.59-16.96,11.5c-10.64,7.41-19.72,16.49-26.97,27.16
		c-4.96,7.29-9.33,15.06-13.14,23.01c-3.05,6.36-4.72,13.36-7.24,19.98c-3.18,8.36-4.14,17.02-3.75,25.83
		c0.43,9.78,1.85,19.54,1.74,29.3c-0.08,7.8,3.53,14.5,4.69,21.85c0.22,1.41,0.27,2.93,0.85,4.19c2.7,5.88,5.41,11.77,8.41,17.51
		c2.74,5.25,5.03,11.06,8.97,15.28c6.01,6.43,13.12,11.86,20.04,17.37c3.64,2.9,7.72,5.33,11.85,7.49
		c6.85,3.59,13.69,7.41,20.94,9.99c7.68,2.74,15.78,4.45,23.81,6.03c6.04,1.19,12.28,2.18,18.39,1.98c9.2-0.29,18.36-1.7,27.53-2.6
		c9.15-0.9,17.57-4.24,25.43-8.6c7.11-3.94,13.67-8.88,20.32-13.61c3-2.13,5.78-4.64,8.35-7.27c3.98-4.08,7.9-8.25,11.49-12.68
		c3.92-4.84,7.68-9.85,11.04-15.09c2.3-3.59,3.22-8.11,5.73-11.49c4.3-5.79,6.42-12.43,8.22-19.09c2.26-8.37,3.84-16.98,5.05-25.58
		c0.77-5.51,0.68-11.21,0.39-16.79C534.34,226.24,533.39,218.61,532.55,209.6z"/>
	<path class="st0" d="M86.4,447.32c-9.4-6.55-15.4-15.16-16.13-26.95c0.42-0.3,0.84-0.61,1.25-0.91c1.88,2.75,3.84,5.44,5.61,8.25
		c1.53,2.43,2.8,5.01,4.24,7.49c2.17,3.72,4.39,7.4,6.58,11.1C87.44,446.64,86.92,446.98,86.4,447.32z"/>
	<path class="st0" d="M286.09,302.01c2.18-1.69,2.66,0.7,3.31,1.65c2.79,4.09,5.63,8.18,7.88,12.57c1.29,2.52,1.49,5.61,1.5,8.69
		c-8.39-5.54-10.94-14.05-12.56-23.06C286.21,301.86,286.09,302.01,286.09,302.01z"/>
	<path class="st0" d="M445.19,352.93c-3.72,0.63-6.5,1.31-9.32,1.55c-7.84,0.68-15.7,1.71-23.54,1.6
		c-7.59-0.11-15.24-1.06-22.73-2.39c-6.4-1.13-12.69-3.07-18.87-5.12c-5.34-1.76-10.44-4.21-15.67-6.3
		c-9.54-3.8-18.12-8.97-24.8-16.95c-0.68-0.81-1.57-1.46-2.43-2.08c-5.34-3.89-9.34-8.64-11.61-15.05
		c-1.53-4.33-4.5-8.13-6.35-12.38c-2.43-5.57-4.86-11.22-6.41-17.07c-1.36-5.13-1.44-10.58-2.18-15.88
		c-0.68-4.86-1.66-9.69-2.17-14.56c-0.3-2.9,0.07-5.87,0.09-8.81c0.02-2.16-0.18-4.34-0.01-6.48c0.23-2.79,0.55-5.6,1.17-8.32
		c1.11-4.88,1.89-9.95,3.85-14.48c3.96-9.14,8.33-18.14,13.08-26.89c3.55-6.55,7.7-12.82,12.11-18.83c2.56-3.49,6.05-6.33,9.29-9.28
		c3.76-3.43,7.55-6.87,11.6-9.94c4.06-3.07,8.29-6.01,12.77-8.42c5.8-3.13,12.18-5.02,18.4-7.11c8.96-3.02,18.24-4.26,27.74-3.2
		c2.77,0.31,5.57,0.33,8.35,0.6c5.39,0.51,10.79,1.02,16.16,1.69c8.12,1.02,15.59,4.09,23.08,7.24c8.12,3.42,16.92,5.45,24.61,9.6
		c3.32,1.79,7.63,3.49,9.77,8.39c1.91,4.36,7.08,7.27,10.65,10.96c0.9,0.93,1.04,2.54,1.8,3.65c3.59,5.16,7.65,10.03,10.8,15.45
		c2.68,4.61,4.4,9.78,6.41,14.76c1.22,3.03,2.18,6.17,3.27,9.25c0.95,2.68,2.97,5.47,2.68,8c-0.64,5.54,1.4,10.64,1.45,16.05
		c0.09,11.07,0.12,22.14-2.71,32.86c-1.21,4.59-3.1,9.2-4.71,13.69c-3.36,9.34-9.41,16.84-14.21,25.16
		c-2.8,4.86-6.47,9.3-10.19,13.54c-5.19,5.92-10.66,11.62-16.28,17.15c-4.81,4.74-10.69,7.86-16.66,11.08
		c-5.43,2.93-11.19,4.4-16.75,6.66C445.96,352.61,445.18,352.93,445.19,352.93z M518.6,205.76c0.15-0.07,0.3-0.13,0.46-0.2
		c-0.26-0.98-0.41-2.02-0.81-2.94c-1.52-3.47-2.98-6.98-4.73-10.33c-2.55-4.86-5-9.85-8.13-14.32c-4.08-5.82-9.01-11.04-13.17-16.8
		c-3.81-5.27-8.89-8.73-14.49-11.57c-3.92-1.99-8.32-3.13-12.01-5.45c-6.73-4.24-14.31-6.01-21.69-8.33
		c-5.85-1.84-11.82-3.35-17.8-4.7c-3.04-0.69-6.23-0.89-9.36-0.96c-3.56-0.07-7.17,0.69-10.68,0.33c-9.89-1.01-19.3,0.43-28.37,4.43
		c-3.33,1.47-6.72,2.83-10,4.4c-4.36,2.09-8.91,3.94-12.87,6.64c-3.75,2.56-6.93,5.99-10.21,9.19c-5.04,4.91-10.19,9.75-14.82,15.03
		c-2.63,2.99-4.08,6.99-6.49,10.21c-6.49,8.68-11.34,18.24-14.56,28.48c-1.77,5.61-1.37,11.93-3.25,17.48
		c-2.4,7.09-2.12,14.12-1.61,21.22c0.48,6.71,1.41,13.4,2.44,20.05c0.82,5.29,1.67,10.65,3.31,15.71c2.07,6.4,4.65,12.67,7.58,18.73
		c2.35,4.85,4.92,9.87,8.52,13.77c4.84,5.24,11,9.23,16.18,14.19c5.16,4.94,11.53,7.24,17.93,9.72c4.13,1.6,8.04,3.78,12.2,5.29
		c4.81,1.74,9.69,3.65,14.7,4.4c10.01,1.5,20.13,2.28,30.21,3.3c8.11,0.82,19.47-1.37,28.44-4.86c3.72-1.45,7.95-1.58,11.63-3.09
		c4.69-1.92,9.61-3.98,13.44-7.17c5.11-4.25,10.15-8.72,14.2-14.22c3.45-4.67,7.93-8.58,11.63-13.08c2.7-3.28,4.9-6.97,7.29-10.5
		c2.57-3.81,5.26-7.55,7.59-11.51c1.9-3.22,2.91-7.04,5.11-10c4.15-5.56,4.54-12.05,5.56-18.41c0.55-3.42,0.8-6.9,1.07-10.36
		c0.38-4.75,0.92-9.51,0.89-14.27c-0.02-4.05-0.55-8.13-1.22-12.13c-0.85-5.04-2.07-10.02-3.18-15.01
		C519.33,207.31,518.91,206.54,518.6,205.76z"/>
</g>
<g>
	<path class="st3" d="M326.73,239.13h84.35v-84.7h4.24v84.7h84.35v3.53h-84.35v84.7h-4.24v-84.7h-84.35V239.13z"/>
</g>
</svg>
