<?xml version="1.0" encoding="utf-8"?>
<!-- Generator: Adobe Illustrator 26.5.0, SVG Export Plug-In . SVG Version: 6.00 Build 0)  -->
<svg version="1.1" id="Layer_1" xmlns="http://www.w3.org/2000/svg" xmlns:xlink="http://www.w3.org/1999/xlink" x="0px" y="0px"
	 viewBox="0 0 600 600" style="enable-background:new 0 0 600 600;" xml:space="preserve">
<style type="text/css">
	.st0{fill:#223346;}
	.st1{fill:#FFFFFF;}
	.st2{fill:#263344;}
	.st3{fill:#263344;stroke:#263344;stroke-width:3;stroke-miterlimit:10;}
</style>
<g>
	<path class="st0" d="M424.59,502.22c-0.22-0.02-1.31-0.47-1.69-0.13c-2.1,1.9-4.96,1.32-7.3,2.45c-2.13,1.02-4.56,1.43-6.85,2.13
		c-0.58,0.18-1.17,0.35-1.71,0.63c-3.38,1.76-7.07,2.13-10.77,2.63c-2.35,0.32-4.61,1.31-6.18,1.79c-5.6,0.74-10.53,1.47-15.49,2.02
		c-4.98,0.55-9.75,2.04-14.7,2.58c-0.86,0-1.72,0-2.59,0c-2.53,0-5.07,0.11-7.59-0.02c-2.75-0.14-5.48-0.59-8.23-0.71
		c-2.09-0.09-4.21,0.36-6.27,0.12c-2.62-0.3-5.17-1.16-7.78-1.58c-2.79-0.45-5.62-0.69-8.44-0.99c-1.18-0.13-2.37-0.18-3.55-0.3
		c-2.97-0.31-5.95-0.51-8.89-0.99c-3.57-0.58-7.08-1.59-10.66-2.08c-3.54-0.49-7.14-0.56-10.71-0.82
		c-4.15-0.31-8.34-1.14-12.45-0.82c-5.47,0.42-10.97,0.86-16.26,2.97c-2.6,1.04-5.81,0.6-8.75,0.7c-3.97,0.14-7.95,0.33-11.91,0.18
		c-3-0.12-5.98-0.74-8.96-1.14c-3.33-0.45-6.66-0.92-10-1.34c-2.45-0.31-4.91-0.53-7.35-0.84c-1.08-0.14-2.15-0.41-3.22-0.62
		c-2.81-0.56-5.72-1.89-8.39-1.5c-3.16,0.46-5.69-2.37-8.75-0.97c-0.25,0.11-0.71,0.02-0.94-0.15c-1.9-1.42-4.22-1.14-6.34-1.68
		c-2.57-0.65-4.99-1.91-7.48-2.9c-1.54-0.61-3.08-1.22-4.62-1.82c-4.11-1.61-8.26-3.1-11.18-6.76c-2.07-2.6-4.61-4.84-6.46-7.57
		c-0.91-1.35-0.53-3.51-1.08-5.19c-1.31-3.95-2.84-7.83-4.26-11.75c-0.46-1.27-1.01-2.55-1.23-3.87c-0.52-3.08-2.06-5.85-2.07-9.14
		c-0.01-2.09-1.71-4.13-2.38-6.28c-0.53-1.71-0.53-3.59-1-5.33c-0.7-2.64-1.64-5.21-2.38-7.84c-0.66-2.3-0.95-4.74-1.84-6.94
		c-0.99-2.45-1.08-5.24-3.74-7.15c-1.51-1.09-1.86-3.82-2.68-5.83c-0.18-0.44-0.03-1.32-0.24-1.38c-2.61-0.85-1.32-3.47-2.33-5.11
		c-1.19-1.93-1.62-4.35-2.26-6.59c-0.48-1.67-0.76-3.39-1.13-5.08c-0.07-0.33-0.16-0.65-0.28-0.97c-1.76-4.52-3.47-9.05-5.29-13.54
		c-1.56-3.86-3.32-7.65-4.85-11.53c-1.12-2.84-1.99-5.78-3.01-8.66c-0.89-2.53-1.86-5.04-2.75-7.57c-1.38-3.91-2.68-7.85-4.11-11.75
		c-0.38-1.04-1.28-1.88-1.7-2.91c-1.2-2.9-2.51-5.78-3.35-8.79c-1.03-3.7-1.47-7.57-2.45-11.29c-0.89-3.36-2.09-6.64-3.28-9.91
		c-0.93-2.55-2.14-5-3.07-7.55c-0.67-1.86-1.06-3.82-1.63-5.72c-0.43-1.43-1.04-2.81-1.43-4.26c-0.84-3.14-1.63-6.29-2.36-9.45
		c-0.97-4.21-1.93-8.43-2.78-12.67c-0.65-3.2-1.28-6.42-1.64-9.67c-0.49-4.36-0.4-8.8-1.13-13.12c-0.7-4.18-1.99-8.28-3.29-12.32
		c-0.46-1.42-1.6-2.67-2.61-3.85c-3.31-3.89-3.73-8.54-3.68-13.33c0.01-1.39,0-2.79,0-4.7c0.21-0.44,1.08-1.48,1.2-2.6
		c0.33-3.15,1.25-5.65,4.63-6.72c0.56-0.18,0.98-1.45,1.09-2.27c0.48-3.55,2.13-5.96,5.46-7.69c3.61-1.88,6.79-4.57,10.24-6.77
		c1-0.64,2.58-0.48,3.43-1.22c1.64-1.42,3.81-0.66,5.57-1.89c1.6-1.12,3.86-1.24,5.76-1.97c3.5-1.35,6.93-2.91,10.44-4.23
		c4.23-1.6,8.58-2.76,13.09-3.41c3.78-0.54,7.48-1.6,11.23-2.38c2.99-0.63,5.99-1.16,8.98-1.78c4.39-0.91,8.8-1.79,13.16-2.82
		c4.03-0.95,8.02-2.12,12.03-3.13c2.83-0.72,5.67-1.79,8.52-1.86c2.17-0.06,4.18-1.04,6.61-0.36c2.19,0.62,4.83-0.43,7.29-0.62
		c1.39-0.11,2.91,0.41,4.18,0.02c4.18-1.3,8.37,0.11,12.53-0.39c0.64-0.08,1.24-0.52,1.86-0.79c-0.34-0.78-0.69-1.56-1.26-2.85
		c0.62-1.98,1.56-4.61,2.24-7.31c0.25-1.01-0.51-2.33-0.14-3.25c1.22-3.1,2.75-6.08,4.14-9.12c2.73-5.96,6.91-11.11,8.72-17.64
		c1.09-3.91,3.87-7.34,5.83-11.02c0.4-0.74,0.54-1.63,0.75-2.46c0.11-0.42-0.06-1.01,0.18-1.3c1.65-2.06,3.59-3.91,5.02-6.1
		c2.99-4.58,7.77-7.35,11.22-11.5c1.98-2.39,4.9-4.02,7.47-5.9c2.96-2.16,5.88-4.42,9.03-6.26c3.46-2.02,7.02-4.37,10.82-5.14
		c3.33-0.67,4.87-2.69,6.65-4.77c2-2.32,3.63-4.96,5.57-7.33c0.59-0.72,1.91-0.83,2.5-1.55c3.41-4.16,8.31-6.28,12.54-9.31
		c0.06-0.04,0.18-0.03,0.26-0.01c4.23,1.16,8.1-2.28,12.47-0.87c1.81,0.59,3.98,0.04,5.98,0.1c1.27,0.04,2.56,0.49,3.8,0.35
		c3.28-0.38,6.5,0.08,9.61,0.83c3.97,0.95,7.89,2.26,11.71,3.71c1.49,0.57,2.72,1.9,3.98,2.99c2.16,1.88,5.52,2.15,6.82,5.14
		c2.42-0.69,2.62,1.49,3.69,2.69c0.91,1.02,2.18,1.92,3.47,2.35c2.57,0.85,4.14,2.35,5.58,4.73c2.56,4.25,5.82,8.09,8.73,12.14
		c0.65,0.91,1,2.03,1.6,2.99c1.73,2.74,3.68,5.36,5.24,8.19c1.48,2.7,2.43,5.7,3.9,8.41c1.31,2.42,3.09,4.59,4.51,6.96
		c0.38,0.63,0.01,1.66,0.27,2.41c0.41,1.15,1.01,2.25,1.63,3.31c1.76,3.02,0.76,6.94,3.42,9.78c0.86,0.92,0.43,2.98,0.79,4.48
		c0.37,1.56,0.97,3.07,1.47,4.61c0.1,0.32,0.37,0.73,0.25,0.94c-1.48,2.79,1.1,4.81,1.43,7.29c0.56,4.24,1.96,8.37,3.04,12.53
		c0.84,3.24,1.7,6.48,2.64,9.7c0.56,1.89,1.34,3.71,1.96,5.58c0.81,2.48,2.8,2.9,4.93,2.6c6.84-0.95,13.66-2.11,20.5-3.07
		c1.43-0.2,2.94,0.29,4.38,0.13c6.36-0.71,12.82-1.05,19.01-2.53c3.64-0.87,7.13-1.9,10.91-1.81c1.39,0.03,2.12-1.94,3.98-1.33
		c2.18,0.71,4.52,0.95,6.79,1.38c0.44,0.08,0.95,0.27,1.32,0.13c1.13-0.45,2.09-0.04,3.21,0.13c4.8,0.75,9.67,1.13,14.52,1.52
		c3.48,0.28,6.97,0.36,10.46,0.53c6.28,0.3,12.7-0.08,18.81,1.14c3.99,0.79,8.6,1.64,11.59,5.14c0.63,0.74,2.79,1.9,1.12,2.91
		c0.08,3.3,0.65,6.32,0.11,9.13c-0.98,5.14-2.6,10.17-3.99,15.23c-0.78,2.85-1.82,5.64-2.41,8.52c-1.09,5.33-3.05,10.47-2.85,16.1
		c0.08,2.37,1.66,5.19,0.94,6.51c-1.31,2.38-0.46,4.52-0.88,6.7c-0.54,2.83-1.27,5.62-1.76,8.46c-0.58,3.33-0.86,6.71-1.53,10.02
		c-0.26,1.28-1.4,2.36-1.78,3.64c-0.68,2.26-1.27,4.57-1.56,6.91c-0.64,5.15-2.42,9.87-4.51,14.58c-1.06,2.39-1.01,5.25-1.84,7.78
		c-0.72,2.2-2.18,4.15-2.94,6.34c-1.42,4.11-3.16,8.11-3.56,12.59c-0.19,2.18-1.9,4.19-2.72,6.36c-0.87,2.3-1.52,4.69-2.23,7.04
		c-0.52,1.7-1.2,3.39-1.44,5.14c-0.63,4.6-1.48,9.24-1.38,13.84c0.05,2.2-0.87,3.74-1.27,5.6c-0.5,2.34-0.37,4.82-0.51,7.24
		c-0.02,0.35-0.02,0.71-0.13,1.03c-0.71,2.06-1.5,4.1-2.17,6.18c-0.6,1.86-1.12,3.74-1.61,5.63c-1.6,6.12-2.59,12.49-4.94,18.31
		c-1.99,4.95-2.43,10.02-3.36,15.07c-0.64,3.45-1.13,6.89-1.23,10.45c-0.09,2.91-1.56,5.75-2.18,8.67c-0.26,1.23,0.3,2.63,0.09,3.89
		c-0.45,2.76-1.23,5.47-1.75,8.23c-0.72,3.87-0.94,7.88-2.1,11.61c-1.29,4.13-0.18,8.77-3.12,12.56c-1.26,1.62-1.35,4.12-2.51,5.85
		c-3.06,4.56-6.64,8.77-9.59,13.39c-3.51,5.49-9.37,7.88-14.17,11.67c-1.73,1.37-2.95,3.49-4.81,4.58
		c-3.45,2.03-7.12,3.75-10.83,5.26c-3.25,1.32-6.65,2.31-10.05,3.21c-2.71,0.72-5.52,1.06-8.27,1.64
		C425.81,501.21,425.39,501.69,424.59,502.22z M232.51,223.45c2.12-1.26,3.48-1.13,4.95,0.51c1.6,1.78,3.46,3.41,5.47,4.7
		c3.29,2.09,5.1,5.11,5.91,8.69c0.72,3.19,0.64,6.57,1.4,9.75c1.18,4.98-0.06,9.73-1.8,14.07c-2.78,6.93-9.64,9.29-16.06,11.41
		c-5.26,1.74-10.18-1.25-15.15-2.67c-0.27-0.08-0.49-0.5-0.66-0.8c-1.9-3.34-5.43-5.14-7.31-8.82c-1.86-3.63-4.65-6.6-3.71-11.08
		c0.26-1.25-1.08-2.32,0.08-3.89c1.3-1.75,2.52-4.1,2.48-6.17c-0.05-2.88,1.59-4.54,3.04-6.34c1.79-2.22,2.25-4.72,1.74-7.22
		c-0.67-3.33-0.87-6.61-0.62-9.97c0.11-1.53-0.14-3.1-0.35-4.64c-0.16-1.2-0.5-2.38-0.87-4.06c-0.7,0.08-1.78,0.14-2.82,0.36
		c-1.4,0.29-3.1,1.39-4.08,0.91c-1.29-0.63-1.75,0.05-2.56,0.39c-0.48,0.2-0.98,0.4-1.5,0.47c-5.46,0.82-10.93,1.67-16.4,2.38
		c-1.57,0.21-3.27-0.27-4.79,0.08c-4.4,1.01-8.72,2.35-13.11,3.42c-1.61,0.39-3.36,0.17-4.97,0.57c-3.72,0.91-7.47,0.64-11.18,0.36
		c-4.29-0.33-8.53-1.39-12.82-1.68c-4.12-0.28-8.28,0.01-12.42,0.06c-3.65,0.04-7.35,0.46-10.94,0.04
		c-3.58-0.42-7.27,0.97-10.77-0.68c-0.29-0.14-1.02,0.64-1.54,0.99c-1.08-0.68-2.22-0.85-3.36-0.89c-1.29-0.04-2.6,0.19-3.88,0.03
		c-4.31-0.52-8.62-1.07-12.9-1.79c-1.75-0.29-3.43-1.03-5.88-1.8c-0.32,1.44-1.32,3.41-1.05,5.2c0.54,3.63,1.88,7.13,2.68,10.73
		c1.05,4.75,1.41,4.97,6.22,5.57c4.24,0.52,8.42,1.54,12.64,2.27c1.96,0.34,3.94,0.52,5.93,0.78c-0.79-4.36-1.65-8.24-2.1-12.17
		c-0.11-0.95,1.12-2.06,1.99-3.53c0.24,2.02,0.39,3.24,0.53,4.46c0.26-0.03,0.52-0.07,0.78-0.1c0.17-2.24,0.34-4.48,0.52-6.78
		c0.47-0.14,1.08-0.32,1.61-0.47c0.11,2.4,0.16,4.66,0.32,6.91c0.17,2.33,0.34,4.67,0.7,6.97c0.25,1.62,0.57,3.32,1.32,4.74
		c0.28,0.52,1.89,0.39,2.9,0.45c5.34,0.3,10.67,0.6,16.01,0.83c0.87,0.04,1.75-0.39,2.63-0.4c1.42-0.02,2.85,0.13,4.25,0.21
		c0-5.21,0-9.69,0-14.16c0.46-0.04,0.91-0.08,1.37-0.12c0.78,4.54,1.56,9.08,2.36,13.73c4.71,0,9.48,0,14.24,0
		c0.05,0.31,0.11,0.61,0.16,0.92c-4.67,1.2-9.35,2.4-14.37,3.68c0.91,5.1,2.02,10.14,2.63,15.23c0.3,2.51,1.51,2.56,3.37,2.4
		c3.57-0.3,7.15-0.44,10.71-0.78c1.81-0.17,3.58-0.63,5.32-0.95c-0.82-3.73-1.57-7-2.24-10.29c-0.63-3.09-1.12-6.21-1.79-9.29
		c-0.85-3.86-0.71-8.09,0.49-9.38c2.02,9.64,4.03,19.26,6.01,28.76c3.78,0,7.25,0.08,10.72-0.03c1.96-0.06,4.06-0.98,5.82-0.5
		c2.23,0.61,3.87-0.67,5.81-0.73c0.59-0.02,1.18,0.13,1.77,0.21c-0.42,0.42-0.79,1.13-1.27,1.21c-4.45,0.78-8.91,1.51-13.38,2.13
		c-2.64,0.36-5.32,0.48-7.91,0.7c0.16,2.08-0.38,4.54,0.57,5.46c2.1,2.03,1.46,4.59,2.24,6.82c0.75,2.15,1.69,2.98,4.12,2.73
		c1.91-0.19,3.85-0.04,5.78-0.04c0.05,0.31,0.1,0.63,0.14,0.94c-2.74,0.56-5.49,1.13-8.06,1.66c1.41,5.27,2.59,10.2,4.07,15.03
		c0.58,1.91,1.64,3.86,4.41,2.83c0.6-0.22,1.32-0.12,1.98-0.17c0,0.12,0,0.23-0.01,0.35c-1.56,0.55-3.11,1.1-4.63,1.64
		c1.09,2.84,2.17,5.66,3.24,8.48c0.61,1.6,1.17,3.22,1.78,4.82c1.5,3.89,2.98,7.78,4.53,11.64c1.11,2.75,2.09,5.6,3.58,8.14
		c0.78,1.33,0.79,3.7,3.9,3.17c6.17-1.04,12.45-1.43,18.7-2.01c1.7-0.16,3.42-0.02,5.13-0.02c-3.99,1.45-7.88,2.39-11.82,3.15
		c-2.82,0.55-5.69,1.2-8.54,1.2c-2.12,0-3.58,0.29-4.08,1.62c2.19,4.29,4.36,7.94,5.93,11.83c0.98,2.42,3.25,4.04,3.43,7.03
		c0.11,1.73,1.82,3.45,3.05,4.98c0.55,0.69,1.66,0.98,2.57,1.33c0.72,0.27,1.5,0.42,2.27,0.49c0.95,0.08,1.91,0.02,2.87,0.02
		c0.83,0.02,1.77,0.98,2.68,0.94c4.98-0.2,9.95-0.65,14.92-1c4.38-0.31,8.75-0.6,13.13-0.9c0.03,0.26,0.05,0.52,0.08,0.77
		c-11.56,1.7-23.11,3.4-35,5.15c5.05,9.99,10.23,20.24,15.42,30.49c-0.23,0.11-0.45,0.21-0.68,0.32c-1.94-2.16-3.89-4.33-5.83-6.49
		c-1.78-2.59-3.23-5.61-4.74-8.6c-1.65-3.26-3.37-6.48-5.04-9.72c-1.68-3.25-2.63-7.15-7.91-6c-2.69,0.58-5.73-0.35-8.39,0.3
		c-4.03,0.98-7.92,2.5-12.13,2.71c-0.83,0.04-1.65,0.3-2.71,0.51c2.15,4.95,4.17,9.6,6.19,14.24c-0.33,0.17-0.67,0.35-1,0.52
		c-2.37-3.53-4.68-7.09-7.14-10.56c-1.2-1.68-2.41-3.66-4.12-4.55c-0.95-0.49-2.66,0-3.97-0.93c-0.75-0.54-1.83-0.76-2.78-0.86
		c-3.6-0.38-7.21-0.74-10.82-0.9c-0.86-0.04-1.75,0.72-2.37,0.99c0.92,2.32,1.65,4.17,2.38,6.02c-4.93-5.38-5.51-7.65-11.86-7.78
		c-1.8-0.04-3.6,0.41-5.4,0.58c-3.34,0.31-6.68,0.59-10.02,0.88c-0.04-3.33,2.65-5.31,5.98-4.34c0.54,0.16,1.33,0.58,1.62,0.36
		c2.37-1.75,5.02-1.83,7.8-1.73c1.96,0.07,2.77-1.2,2.08-2.52c-3.12-6.03-6.13-12.11-9.32-18.1c-0.81-1.51-1.86-3.32-3.27-3.98
		c-1.96-0.92-4.37-0.88-6.59-1.26c-4.48-0.78-8.95-1.61-13.43-2.34c-1.12-0.18-2.3-0.03-3.64-0.03c1.89,5.66,3.74,10.67,7.12,14.95
		c0.8,1.01,1.98,1.92,2.31,3.07c1.22,4.31,2.13,8.71,3.2,13.06c0.56,2.3,1.03,4.64,1.85,6.85c1.7,4.57,3.64,9.06,5.42,13.6
		c1.02,2.62,1.8,5.33,2.9,7.91c1.3,3.07,2.97,5.98,4.23,9.06c1.28,3.13,2.17,6.43,3.41,9.58c0.79,2,2.34,3.78,2.79,5.82
		c0.7,3.17,2.74,5.16,4.75,7.38c1.09,1.21,1.98,2.92,2.2,4.51c0.22,1.61,1.03,1.95,2.16,1.89c4.59-0.27,9.19-0.56,13.76-1.1
		c0.91-0.11,2.51-1.76,2.38-2.06c-1.42-3.13-2.88-6.3-4.83-9.11c-1.5-2.16-2.75-6.09-1.88-9.22c1.03,1.76,1.97,3.38,2.91,4.98
		c0.36,0.41,0.84,0.8,1.11,1.3c0.79,1.42,1.5,2.89,2.25,4.33c1.05,2.01,1.99,4.08,3.19,6c2.01,3.21,4.3,6.11,8.83,4.83
		c0.2-0.06,0.51,0.01,0.68,0.14c2.74,2.16,6.65,1.26,9.39,3.68c0.85,0.75,2.63,0.45,3.98,0.63c-0.06-1.13-0.07-2.26-0.2-3.37
		c-0.03-0.28-0.5-0.47-0.65-0.77c-0.98-1.96-2.05-3.88-2.87-5.91c-1.57-3.92-2.37-8.31-4.65-11.73c-2.12-3.18-2.61-6.7-3.93-10.01
		c-0.56-1.41-0.34-3.13-0.53-5.42c1.97,3.29,3.79,5.79,5.06,8.54c2.46,5.31,4.58,10.77,6.9,16.14c0.58,1.35,1.45,2.58,2.07,3.92
		c0.81,1.74,1.62,3.49,2.21,5.3c0.98,2.99,2.95,4.58,5.83,4.7c2.96,0.12,5.91,0.55,8.86,0.61c3.24,0.06,6.51,0.05,9.72-0.35
		c1.26-0.16,3.74-0.73,1.46-3.21c-1.04-1.13-1.73-2.7-2.24-4.18c-1.02-2.99-1.87-6.05-2.62-9.12c-0.22-0.9,0.14-1.94,0.24-2.91
		c0.81,0.53,1.95,0.87,2.36,1.62c0.94,1.71,1.47,3.64,2.26,5.44c1.37,3.15,2.73,6.31,4.24,9.4c0.52,1.06,1.21,2.82,2.71,0.63
		c0.21-0.31,0.94-0.31,1.43-0.36c2.04-0.2,4.09-0.33,6.13-0.56c1.05-0.12,2.08-0.55,3.12-0.53c2.7,0.03,5.4,0.25,8.1,0.34
		c1.19,0.04,2.39,0.02,3.56-0.13c3.09-0.4,6.16-0.98,9.25-1.33c3.31-0.37,6.64-0.54,9.97-0.84c0.33-0.03,0.63-0.33,0.96-0.44
		c2.95-0.96,5.91-1.9,8.87-2.85c-2.18,1.71-4.42,3.19-6.89,3.97c-3.73,1.18-6.49,4.79-11,4.13c-1.64-0.24-3.42,0.5-5.13,0.8
		c-3.87,0.69-7.72,1.55-11.61,2.04c-5.32,0.66-10.67,1.04-16.14,1.55c1.41,3.09,2.62,5.73,3.84,8.37c0.63,1.36,1.29,2.71,1.97,4.05
		c0.11,0.22,0.58,0.29,0.63,0.5c0.37,1.42,2.52,3.11,3.55,2.42c2.46-1.66,5.21-1.21,7.78-1.26c3.74-0.08,7.5,0.51,11.99,0.87
		c-3.51,1.54-6.24,2.74-9.21,4.05c-0.22-0.08-1.01-0.65-1.78-0.61c-2.06,0.09-4.13,0.37-6.17,0.72c-0.87,0.15-2.17,0.45-2.39,1.03
		c-0.28,0.74,0.02,2.23,0.61,2.67c4.05,3.03,4.4,8.02,6.57,12.03c1.07,1.98,2.54,3.33,4.5,3.14c3.9-0.38,7.32,1.59,11.3,1.47
		c5.79-0.17,11.63,1.39,17.44,2.21c0.03,0.15,0.06,0.31,0.09,0.46c-9.6,0.59-19.21,1.18-28.95,1.77c0.44,0.78,1.11,1.79,1.58,2.89
		c0.98,2.26,1.65,4.67,2.81,6.82c1.24,2.29,1.22,4.89,2.54,7.26c1.43,2.55,0.75,2.93,3.65,2.47c0.08-0.01,0.17,0.02,0.26,0.01
		c5.69-0.13,11.37-0.23,17.06-0.42c1.02-0.03,2.05-0.68,3.04-0.59c2.62,0.23,5.21,0.78,7.83,1.08c3.06,0.34,6.14,0.62,9.22,0.8
		c2.46,0.14,4.93,0.08,7.4,0.12c0.43,0.01,0.88-0.04,1.29,0.06c2.48,0.61,4.93,1.39,7.43,1.87c2.6,0.5,5.26,0.76,7.89,1.07
		c2.29,0.27,4.59,0.42,6.87,0.69c4.23,0.5,8.45,1.36,12.69,1.48c4.74,0.13,9.5-0.43,14.25-0.65c4.21-0.2,8.47-0.02,12.63-0.58
		c7.25-0.98,14.47-2.29,21.66-3.67c7.4-1.42,14.74-3.1,22.11-4.67c2.4-0.51,4.82-0.95,7.18-1.58c1.44-0.38,2.83-0.61,2.26-3.07
		c-0.43-1.87-0.9-3.93-0.19-6.17c0.7-2.19,0.15-4.77,0.15-7.04c-13.62,2.35-27.17,3.91-40.95,3.56c0.74-0.69,1.52-1.22,2.38-1.47
		c3.55-1.03,7.13-1.97,10.7-2.93c5.07-1.36,10.42-0.67,15.49-2.66c3.22-1.26,7.01-1.05,10.54-1.57c2.15-0.32,3.88-1.16,4.04-3.73
		c0.07-1.19,0.25-2.39,0.53-3.55c0.66-2.7,1.4-5.39,2.23-8.52c-2.21,0.45-4.12,1.43-5.65,1.02c-3.84-1.03-7.18,0.78-10.74,1.21
		c-0.55,0.07-1.03,1-1.55,1.01c-3.63,0.07-7.27,0.02-10.9-0.03c-0.5-0.01-0.99-0.2-1.49-0.3c0.39-0.37,0.72-0.89,1.19-1.1
		c2.43-1.08,4.9-2.05,7.33-3.12c0.67-0.3,1.29-1.2,1.87-1.14c1.66,0.18,3.17,0.37,4.73-0.58c0.98-0.6,2.41-1.21,3.39-0.93
		c4.77,1.34,8.88-1.21,12.81-1.55c1.37-6.64,2.65-12.84,3.99-19.36c-8.77,0.97-17.3,3.43-26.07,2.38c3.45-1.08,6.87-2.07,10.35-2.84
		c2.8-0.63,5.65-1.04,8.48-1.49c3.03-0.47,6.4-0.37,8.3-3.27c1.18-1.8,1.86-3.98,2.44-6.09c0.56-2.02,0.63-4.18,1.07-6.24
		c0.25-1.19,0.97-2.3,1.2-3.49c1.41-7.57,2.73-15.16,4.14-22.73c0.18-0.96,0.76-1.85,1.16-2.78c0.22,0.05,0.44,0.09,0.66,0.14
		c-0.19,1.96-0.34,3.93-0.59,5.88c-0.21,1.63-0.54,3.25-0.82,4.88c0.18,0.04,0.36,0.08,0.54,0.12c-2.02,10.47-4.04,20.95-6.07,31.45
		c3.82-0.69,7.95-1.36,12.03-2.28c0.62-0.14,1.22-1.39,1.39-2.21c0.32-1.49-1.1-3.31,0.98-4.5c0.25-0.14,0.06-1.06,0.08-1.62
		c0.02-0.58-0.08-1.21,0.11-1.73c0.22-0.6,1.12-1.21,1.01-1.62c-1.2-4.35,4.57-6.57,3.28-10.89c2.52-5.76,3.4-11.93,4.55-18.03
		c0.67-3.54,1.43-7.07,2.14-10.6c0.38,0,0.77,0.01,1.15,0.01c0.09,0.82,0.29,1.65,0.26,2.47c-0.14,3.18-0.41,6.36-0.51,9.54
		c-0.09,2.81,0.09,5.63-0.1,8.43c-0.06,0.98-0.99,1.87-1.28,2.88c-1.31,4.67-2.55,9.36-3.78,14.05c-0.86,3.31-1.66,6.63-2.48,9.95
		c-0.41,1.67,0.37,2.56,1.97,2.35c3.5-0.46,6.98-1.11,9.92-1.59c1.65-4.63,3.03-8.76,4.61-12.82c0.96-2.48,2.38-4.78,3.31-7.27
		c0.35-0.95-0.14-2.19-0.15-3.3c-0.01-0.97,0.13-1.94,0.2-2.91c0.8,0.4,1.59,0.79,2.52,1.25c0.23-0.11,0.74-0.37,1.27-0.62
		c1.81,5.01-1.07,9.19-1.76,13.67c-0.53,3.42-1.42,6.78-2.22,10.52c4.71-1.35,8.8-2.16,12.56-3.75c2.01-0.85,4.98-1.36,5.1-4.7
		c0.07-1.96,0.43-3.92,0.77-5.87c0.74-4.27,1.61-8.52,2.27-12.8c0.24-1.56-0.27-3.25,0.08-4.77c0.75-3.32,1.84-6.56,2.75-9.85
		c1.3-4.73,2.46-9.51,3.88-14.21c0.72-2.37,1.99-4.56,2.8-6.91c0.61-1.77,0.89-3.66,1.32-5.49c0.65-2.73,1.38-5.43,1.93-8.18
		c0.66-3.32,2.1-6.85,1.52-9.98c-0.87-4.67,0.85-8.77,1.26-13.11c0.32-3.36,1.6-6.55,3.03-9.73c1.56-3.46,1.55-7.66,3.28-10.98
		c2.09-4.01,1.23-8.68,3.9-12.56c2.22-3.22,3.63-7.08,4.99-10.81c0.8-2.19,0.74-4.61,1.9-6.84c0.92-1.78,0.37-4.37,1.41-6.01
		c2-3.15,0.97-6.9,2.91-10.15c1.53-2.56,1.47-6.08,2.04-9.19c1.15-6.35,2.57-12.65,2.76-19.15c0.12-4.21,1.2-8.48,0.73-12.59
		c-0.5-4.33,1.17-7.92,2.26-11.73c1.32-4.67,3.09-9.2,4.64-13.81c0.13-0.39,0.02-0.86,0.02-1.3c0.01-0.61-0.23-1.53,0.07-1.77
		c2.69-2.18,1.4-5.41,2.14-8.09c0.34-1.24-0.19-3.34-1.12-4.17c-1.72-1.54-2.68-4.69-6.06-3.68c-0.5,0.15-1.21-0.45-1.84-0.63
		c-2.19-0.61-4.36-1.52-6.58-1.69c-2.6-0.2-5.26,0.36-7.89,0.38c-2.27,0.01-4.78-0.97-6.78-0.3c-4.79,1.59-9.17-1.11-13.86-0.59
		c-3.46,0.39-6.92-1.07-10.62-0.94c-4.2,0.15-8.44-0.57-12.73,0.05c-4.39,0.63-8.85,0.75-13.27,1.22c-0.93,0.1-1.8,0.77-2.75,1.21
		c-0.58-0.03-1.39-0.2-2.15-0.08c-4.36,0.67-8.71,1.44-13.07,2.11c-5.3,0.81-10.6,1.56-15.9,2.34c-1.47,0.22-2.94,0.56-4.41,0.61
		c-1.02,0.03-2.12-0.68-3.08-0.5c-2.89,0.56-5.7,1.52-8.59,2.11c-5.36,1.09-10.5,3.28-16.12,3.08c-3.27-0.11-6.55-0.02-9.88-0.02
		c0.18,0.66,0.29,1.09,0.36,1.34c-1.02-0.15-1.86-0.42-2.69-0.37c-1.35,0.08-2.68,0.36-4.02,0.59c-1.92,0.34-3.81,0.83-5.74,1.04
		c-1.79,0.2-3.65,0.39-5.4,0.1c-2.25-0.38-3.17,1.69-3.39,2.55c-0.85,3.37-1.16,6.9-1.41,10.39c-0.1,1.35,0.09,2.76,1.92,3.51
		c1.45,0.6,2.77,1.87,3.73,3.16c1.08,1.44,1.47,3.39,2.54,4.84c3.13,4.23,2.49,8.78,1.78,13.5c-0.4,2.65-0.2,5.41-0.08,8.12
		c0.08,1.94,1.05,4.01,0.61,5.76c-0.69,2.75,0,5.62-1.78,8.4c-1.58,2.47-2.65,5.23-5.13,6.99c-0.86,0.61-1.9,0.98-2.88,1.4
		c-3.35,1.43-6.62,3.18-10.1,4.13c-2.24,0.61-4.82,0.16-7.22-0.07c-3.19-0.31-5.96-2.13-8.75-3.42c-1.98-0.92-2.97-3.88-4.52-5.83
		c-2.8-3.51-5.65-7.02-7.37-11.17c-1.02-2.46-1.31-5.21-1.94-7.83c-1.52-6.3,0.97-11.97,3.42-17.35c1.81-3.97,5.21-6.99,9.6-8.73
		c1.73-0.69,3.94-2.43,4.24-4.01c0.65-3.4,0.2-7.01,0.2-10.78c-4.36,0.95-8.72,2.17-13.16,2.76c-2.6,0.34-4.8,1.63-7.74,1.51
		c-6.36-0.25-12.8,0.73-19.15,1.63c-3.35,0.47-6.54,1.96-9.86,2.73c-2.72,0.63-5.54,0.85-8.31,1.32c-3.9,0.67-7.78,1.49-11.7,2.08
		c-3.07,0.46-6.18,0.62-9.26,1.02c-3.31,0.43-6.59,1.01-9.9,1.45c-1.52,0.2-3.44-0.34-4.51,0.41c-2.67,1.86-5.54,1.7-8.47,1.84
		c-1.19,0.06-2.37,0.45-3.56,0.69c0.01-0.04,0.02-0.09,0.03-0.13c-1.75,0.13-3.51,0.26-5.22,0.39
		C232.51,212.34,232.51,217.73,232.51,223.45z M364.21,203.3c-0.22,0.1-0.43,0.21-0.65,0.31c-0.45,2.16-0.96,4.3-1.34,6.47
		c-0.42,2.41-0.62,4.86-1.17,7.24c-0.13,0.54-1.32,0.83-2.03,1.24c-0.36-0.83-0.87-1.64-1.02-2.51c-0.13-0.73,0.49-1.7,0.2-2.29
		c-1.5-3.07,0.49-6,0.23-9.09c-0.28-3.32,0.98-6.73,1.22-10.13c0.26-3.73-0.47-7.62,0.3-11.21c1.14-5.33,0.26-10.53,0.25-15.79
		c-0.01-2.1-0.25-4.73,0.85-6.21c2.45-3.3,1.93-6.98,2.18-10.49c0.24-3.44-0.69-6.95-0.73-10.43c-0.08-6.31-0.45-12.49-2.06-18.69
		c-1.08-4.15-2.3-8.16-3.97-12.08c-0.53-1.23-0.54-2.75-1.25-3.83c-2.61-3.95-5.24-7.92-8.21-11.6c-2.41-3-5.09-5.88-8.06-8.29
		c-3.57-2.9-7.59-5.25-11.42-7.82c-0.93-0.63-1.87-1.27-2.88-1.76c-2.31-1.13-3.61-3.81-6.64-3.91c-4-0.13-7.98-0.67-11.98-0.91
		c-9.23-0.55-18.14,0.25-26.79,4.29c-3.04,1.42-6.16,2.59-8.94,4.53c-3.41,2.38-7.14,4.4-10.23,7.14
		c-5.28,4.66-10.34,9.6-15.14,14.76c-2.09,2.25-2.91,5.66-4.99,7.93c-2.42,2.64-3.02,5.86-4.22,8.92c-0.98,2.5-1.8,5.09-2.99,7.48
		c-0.95,1.9-2.39,3.54-3.57,5.34c-5.93,9.08-7.1,19.67-9.25,29.9c-0.79,3.75-0.26,7.77-0.54,11.65c-0.26,3.53-0.76,7.04-1.23,10.54
		c-0.51,3.76-1.21,7.49-1.62,11.26c-0.25,2.33-0.15,4.71-0.11,7.07c0.08,4.4,0.2,8.8,0.36,13.19c0.17,4.73,0.24,9.47,0.62,14.18
		c0.48,5.89,2.94,11.51,2.56,17.55c-0.02,0.38,0.22,0.77,0.34,1.16c-0.49-0.4-1.3-0.73-1.43-1.23c-0.76-2.81-1.28-5.68-2.05-8.48
		c-0.31-1.13-0.9-2.29-1.69-3.12c-0.39-0.4-2.1-0.35-2.26-0.02c-1.67,3.35-3.15,6.79-4.63,10.23c-0.09,0.21,0.34,0.6,0.39,0.93
		c0.11,0.66,0.18,1.33,0.18,2c0.01,1.3-0.41,2.73,0,3.87c0.77,2.1,1.89,4.1,3.11,5.99c1.47,2.26,2.79,4.9,4.88,6.42
		c4.66,3.41,9.87,5.99,15.96,4.17c6.48-1.93,12.43-4.02,14.1-12.25c1.04-5.1,0.57-9.87,0.21-14.78c-0.13-1.79-0.65-3.61-1.29-5.3
		c-1.91-5.06-6.01-8-10.55-10.46c-1.11-0.6-2.23-1.18-3.16-1.68c0.29,4.8,0.56,9.28,0.83,13.76c-0.35,0.04-0.7,0.08-1.05,0.12
		c-0.53-2.11-1.15-4.2-1.59-6.33c-0.73-3.58-1.66-7.16-1.88-10.77c-0.1-1.69-0.35-3.06-1.15-4.48c-0.39-0.69-0.59-1.61-0.53-2.41
		c0.17-2.28,0.57-4.55,0.78-6.83c0.33-3.69,0.76-7.39,0.81-11.09c0.05-3.67-0.24-7.36-0.56-11.02c-0.16-1.81-0.74-3.57-1.07-5.37
		c-0.11-0.58-0.02-1.19-0.02-2.17c0.92-0.41,1.49-1.41,0.17-2.84c-0.45-4,2.58-7.79,0.57-11.89c0.52-0.49,1.61-1.05,1.58-1.55
		c-0.14-2.9,0.96-5.36,2.23-7.82c0.67-1.3,1.44-2.63,1.72-4.03c1.24-6.07,3.1-11.93,6.39-17.18c2.07-3.32,1.94-7.52,4.88-10.52
		c1.53-1.55,2.06-4.04,3.36-5.88c1.21-1.72,2.84-3.13,4.29-4.69c1.58-1.7,3.28-3.3,4.7-5.13c2.28-2.95,5.47-5.08,7-8.77
		c1.57-3.79,4.75-6.36,8.5-7.99c1.92-0.84,3.96-1.43,6-1.95c5.05-1.3,9.66-3.96,14.96-4.57c3.67-0.42,7.27-1.55,10.94-1.95
		c2.01-0.22,4.21,0.97,6.14,0.58c2.98-0.6,5.11,0.63,7.37,2.01c0.96,0.58,1.98,1.09,3,1.57c0.94,0.44,2.35,0.53,2.82,1.25
		c2.16,3.27,6.04,4.13,8.77,6.57c3.2,2.86,7.31,4.84,8.51,9.5c0.13,0.51,0.67,1.03,1.15,1.33c2.37,1.46,3.35,3.78,4.1,6.28
		c0.31,1.03,0.61,2.07,1.03,3.05c0.69,1.61,1.78,3.12,2.14,4.79c0.77,3.6,0.9,7.35,1.79,10.91c1.66,6.56,1.47,13.02,0.03,19.56
		c-0.42,1.91-0.54,3.91-0.56,5.86c-0.01,0.58,0.78,1.17,1.07,1.58c-0.32,0.9-0.87,1.76-0.88,2.62c-0.04,2.89-0.04,5.8,0.24,8.68
		c0.41,4.25-1.65,8.25-0.67,12.69c0.55,2.5-1.07,5.45-1.57,8.22c-0.51,2.85-0.87,5.73-1.23,8.6c-0.35,2.78-0.65,5.57-0.92,8.36
		c-0.16,1.63-0.11,3.27-0.33,4.89c-0.33,2.47-0.8,4.93-1.21,7.39c-0.31,0.09-0.62,0.19-0.93,0.28c-0.73-0.76-2.16-1.59-2.08-2.25
		c0.34-2.94,1.06-5.85,1.76-8.74c0.34-1.39-0.23-2.18-1.39-1.62c-1.59,0.76-3.19,1.83-4.29,3.18c-1.38,1.7-2.32,3.77-3.33,5.75
		c-0.9,1.78-1.26,3.99-2.55,5.35c-0.92,0.97-1.77,1.23-1.6,2.96c0.15,1.52-1.52,3.24,0.71,4.48c-1.67,2.37,0.12,4.14,0.82,6.26
		c1.47,4.46,1.82,5.23,5.67,9.83c2.21,2.64,4.75,4.57,7.98,5.63c0.72,0.23,1.43,0.48,2.15,0.72c4.3,1.42,8.43,3.68,13.24,1.53
		c3.01-1.34,5.23-3.38,7.06-5.97c2.65-3.75,2.58-7.78,1.56-12.12c-1.05-4.47-0.95-8.96,1.73-13.07c0.35-0.54,0.09-1.54-0.03-2.31
		c-0.11-0.68-0.59-1.32-0.63-1.99C370.28,210.42,366.82,207.1,364.21,203.3z M147.37,177.86c-0.02,0.14-0.03,0.28-0.05,0.42
		c-0.57-0.07-1.13-0.14-1.7-0.22c-2.16-0.28-3.6,1.97-5.96,1.51c-1.33-0.26-2.87,0.57-4.32,0.85c-0.46,0.09-1.07,0.16-1.41-0.07
		c-1.86-1.28-3.63-0.71-5.48,0.01c-2.3,0.89-4.64,1.66-6.96,2.5c-5.35,1.93-10.58,4.31-16.06,5.7c-8.71,2.22-15.74,7.06-22.19,12.93
		c-1.27,1.16-1.75,3.18-2.76,5.12c0.85,0.57,2.36,1.69,2.42,1.62c1.78-2.18,3.53-0.24,5.27-0.08c6.59,0.61,13.19,1.17,19.8,1.66
		c1.75,0.13,3.53-0.07,5.3-0.09c2.44-0.03,4.89-0.01,7.33-0.05c5.53-0.1,11.06-0.22,16.59-0.33c4.67-0.1,9.36-0.06,14.02-0.34
		c3.16-0.19,6.28,0.2,9.53-0.87c3.06-1.01,6.63-0.46,9.98-0.62c2.11-0.1,4.23-0.11,6.32-0.37c4.51-0.55,9-1.33,13.52-1.84
		c3.24-0.37,6.48-0.29,9.75-1.09c1.81-0.44,3.38-1.06,5.07-1.69c1.87-0.69,4.13-0.35,6.14-0.45c0.81-3.79-0.3-7.41,0.76-10.96
		c0.49-1.64,0-3.54,0.29-5.27c0.39-2.32,1.32-4.55,1.63-6.87c0.55-4.11,0.81-8.26,1.2-12.58c-4.31-1.73-8.3-0.03-12.17,1.31
		c-3.01,1.04-5.84,1.13-8.89,0.57c-2.21-0.4-4.54-0.6-6.77-0.4c-3.51,0.31-6.74,2.49-10.48,1.69c-0.5-0.11-1.12,0.4-1.69,0.62
		c-3.36,1.3-6.66,2.82-10.1,3.84c-2.34,0.7-4.91,0.58-7.33,1.07c-2.22,0.45-4.37,1.26-6.56,1.85
		C150.08,177.3,148.72,177.55,147.37,177.86z M345.88,84.37c0.33,1.05,0.39,2.1,0.92,2.81c1.69,2.28,3.46,4.52,5.36,6.63
		c3.8,4.22,7.38,8.54,9.14,14.1c0.44,1.4,1.32,2.67,1.91,4.03c1.13,2.57,2.62,5.08,3.21,7.78c0.79,3.63,0.32,7.6,1.42,11.1
		c1.33,4.25,1.38,8.46,1.4,12.74c0.01,3.55,0.31,7.28-0.68,10.59c-1.27,4.28-1.64,8.48-1.74,12.8c0.49,0.11,0.85,0.31,1,0.2
		c3.62-2.48,7.07-1.04,10.74,0.06c3.25,0.98,6.22,3.04,9.92,2.59c1.79-0.21,3.66,0.34,5.5,0.42c1.99,0.09,3.98,0.02,6.14,0.02
		c-1.09-1.93-1.66-3.75-2.86-4.88c-2.82-2.65-3.62-6.03-4.09-9.55c-0.51-3.79-0.8-7.61-1.16-11.41c-0.19-2.08-0.04-4.25-0.54-6.25
		c-0.84-3.34-1.87-6.66-3.2-9.83c-1.33-3.19-3.09-6.2-4.72-9.25c-1.08-2.02-2.45-3.9-3.38-5.98c-0.7-1.57-1.51-3.46-1.23-5.02
		c0.56-3.11-0.7-5.72-2.63-7.26c-2.2-1.75-3.38-4.23-4.37-6.25c-2.06-4.2-5.74-6.81-8.3-10.44c-1.6-2.27-3.62-4.31-5.72-6.16
		c-2.8-2.45-3.83-6.23-8.13-7.85c-3.16-1.19-5.75-4.76-9.46-5.85c-2.69-0.79-5.48-1.21-8.7-1.9c0,0-0.55-0.66-1.16-0.73
		c-4.01-0.48-7.95-0.32-12.03,0.18c-3.76,0.46-7,1.77-10.47,2.81c-2,0.6-4.43,2.01-6.82,0.06c0.39-0.66,0.61-1.65,1.18-1.91
		c3.77-1.77,7.54-3.61,11.47-4.95c2.24-0.77,4.78-0.74,7.2-0.91c6.11-0.43,12.24-0.62,18.11,1.56c4.48,1.67,8.99,3.31,13.3,5.35
		c1.69,0.8,3.97,2.54,4.09,4.01c0.28,3.49,3.02,4.98,4.83,6.88c2.69,2.82,6.31,4.75,9.55,7.03c0.62,0.44,1.5,0.59,1.97,1.12
		c1.85,2.08,3.75,4.16,5.33,6.45c1.75,2.54,4.51,4.63,4.17,8.27c-0.04,0.44,0.3,1.14,0.67,1.37c1.95,1.16,1.41,3.06,1.33,4.67
		c-0.23,4.66,0.82,8.81,4.06,12.3c0.22,0.24,0.34,0.6,0.46,0.92c0.69,1.85,1.12,3.85,2.09,5.54c2.35,4.14,4.85,8.17,5.35,13.06
		c0.4,3.98,0.82,7.95,1.27,11.93c0.2,1.77,0.61,3.53,0.74,5.3c0.19,2.55-0.33,5.28,0.43,7.63c1.11,3.44,3.05,6.62,4.67,9.9
		c0.17,0.34,0.51,0.72,0.85,0.83c2.14,0.7,4.3,1.37,6.48,1.97c0.51,0.14,1.1,0.02,2.27,0.02c-0.86-1.1-1.38-1.76-1.88-2.42
		c-0.46-0.6-0.9-1.22-1.34-1.83c-1.91-2.69-1.24-5.97-2.03-8.92c-1.18-4.41-2.79-8.72-2.99-13.35c-0.03-0.67-0.48-1.32-0.72-1.98
		c-1.33-3.54-2.69-7.08-3.95-10.65c-0.22-0.61,0.27-1.5,0.02-2.07c-2.06-4.55-2.01-9.76-4.63-14.17c-1.16-1.95-1.53-4.36-2.45-6.48
		c-0.68-1.57-1.67-3-2.52-4.49c-0.29-0.5-0.65-0.98-0.88-1.5c-0.93-2.13-1.68-4.35-2.78-6.39c-2.55-4.75-5.6-9.26-7.79-14.16
		c-1.46-3.27-3.45-5.95-5.75-8.54c-0.93-1.05-1.56-2.38-2.52-3.4c-2.53-2.68-5.07-5.36-7.79-7.83c-1.47-1.33-3.52-2.03-4.95-3.38
		c-4.05-3.82-8.57-6.54-14.13-7.52c-4.45-0.79-8.82-1.99-13.28-2.67c-3.72-0.56-7.51-0.82-11.26-0.82c-2.53,0-5.14,1.28-7.56,0.92
		c-4.12-0.6-6.31,2.41-9.12,4.09c-2.6,1.55-4.37,4.69-7.06,5.81c-2.96,1.23-4.47,3.84-7.01,5.33c-0.44,0.26-0.42,1.29-0.67,2.16
		c0.84-0.13,1.31-0.11,1.71-0.28c3.06-1.29,6.26-1.67,9.52-1.32c2.82,0.3,5.95,0.65,8.41,0.27c4.43-0.67,8.13,0.67,11.95,1.87
		c2.52,0.79,4.78,2.45,7.1,3.83c3.13,1.87,6.16,3.92,9.31,5.77C339.22,80.79,342.59,82.56,345.88,84.37z M342.2,165.06
		c0.36-0.05,1.32-0.13,2.24-0.35c1.4-0.33,2.54-0.27,2.21-2.73c-0.53-3.86,0.05-7.86,0.17-11.8c0.14-4.79,0.56-9.6,0.33-14.37
		c-0.17-3.43-1.2-6.81-1.86-10.21c-0.5-2.58-0.94-5.18-1.6-7.72c-0.23-0.89-1.7-2-1.48-2.39c1.03-1.88-0.47-2.82-1.19-3.98
		c-2.18-3.56-4.36-7.12-6.73-10.55c-1.22-1.77-2.61-3.59-4.33-4.83c-4.39-3.19-8.97-6.12-13.56-9.03c-1.36-0.86-3.01-1.78-4.53-1.79
		c-4.14-0.02-8.36,0.03-12.4,0.82c-3.57,0.7-8.04,0.95-9.11,5.67c-0.9,3.94-0.02,7.86,1.03,11.72c1.08,4,3.91,7.29,3.56,12
		c-0.22,2.98,1.68,6.22,3.02,9.17c1.17,2.56,2.78,4.95,4.39,7.27c2.96,4.25,6.07,8.38,9.09,12.58c0.22,0.3,0.15,0.79,0.28,1.17
		c0.43,1.2,0.76,2.45,1.36,3.56c1.06,1.94,2.39,3.74,3.44,5.7c0.88,1.64,1.52,3.42,2.23,5.15c0.48,1.15,1.28,2.34,1.26,3.49
		c-0.05,1.95,0.9,2.35,2.42,2.23c2.53-0.2,5.05-0.64,7.59-0.73C333.87,164.97,337.74,165.06,342.2,165.06z M322.62,171.77
		c0.06-0.07,0.13-0.15,0.19-0.22c-0.89-0.37-1.76-0.97-2.69-1.08c-2.69-0.32-5.4-0.53-8.11-0.6c-2.93-0.08-5.86,0.01-8.79,0.12
		c-1.33,0.05-2.65,0.46-3.97,0.48c-3.69,0.04-7.4-0.27-11.06,0.02c-1.97,0.16-3.78,0.26-5.8,0.07c-5.1-0.47-10.27-0.27-15.41-0.18
		c-3.5,0.06-7,0.38-10.5,0.56c-3.34,0.17-6.68,0.26-10.02,0.48c-1.39,0.09-2.81,0.78-4.13,0.57c-1.77-0.27-3.41-1.32-5.17-1.67
		c-0.86-0.17-2.46,0.27-2.71,0.86c-0.58,1.38-0.64,3.01-0.73,4.55c-0.2,3.33-1.36,6.48-0.38,10.04c0.71,2.58-0.35,5.62-0.43,8.46
		c-0.03,1.01,0.9,2.15,0.68,3.04c-0.91,3.62-0.15,4.58,3.51,4.18c3.22-0.35,6.47-0.47,9.7-0.79c0.56-0.05,1.08-0.55,1.43-0.74
		c1.13,0.13,2.32,0.33,3.52,0.38c0.74,0.03,1.48-0.2,2.22-0.26c3.47-0.28,6.98-0.3,10.4-0.87c3.44-0.57,6.79-1.67,10.17-2.53
		c1.34-0.34,2.76-1.15,3.99-0.92c3.67,0.67,6.67-0.32,9.36-2.74c0.31-0.28,0.78-0.46,1.2-0.52c3.97-0.57,7.94-1.13,11.92-1.65
		c4.74-0.62,9.48-1.15,14.22-1.78c6.41-0.86,12.82-1.75,19.21-2.71c2.75-0.41,5.48-0.97,8.18-1.63c0.75-0.18,1.86-0.88,1.96-1.48
		c0.63-4.01,0.8-8.11,1.59-12.08c0.52-2.65-0.89-2.84-2.56-2.54c-1.3,0.24-2.41,1.52-3.7,1.7c-2.96,0.43-5.98,0.39-8.96,0.7
		c-1.33,0.14-2.6,0.83-3.93,0.95C325.58,172.08,324.09,171.84,322.62,171.77z M234.92,164.52c3.27,0.61,6.3,1.67,9.31,1.61
		c4.07-0.09,8.1-1.28,12.17-1.58c4.57-0.35,9.18-0.23,13.78-0.33c2.33-0.05,4.65-0.19,6.98-0.17c1.56,0.01,3.11,0.25,4.67,0.36
		c3.41,0.24,6.82,0.52,10.24,0.66c1.36,0.06,2.72-0.21,3.86-0.31c-0.41-1.53-0.55-2.73-1.03-3.77c-1.54-3.32-3.23-6.57-4.82-9.86
		c-1.33-2.75-2.61-5.52-3.87-8.31c-0.67-1.49-1.26-3.02-1.87-4.53c-0.36-0.88-0.64-1.79-1.05-2.64c-1.38-2.84-3.14-5.55-4.12-8.52
		c-1.35-4.08-2.42-8.3-3.07-12.55c-0.92-6.01-3.91-11.74-2.69-18.26c-1.46,1.01-2.51,2.84-3.96,3.23c-3.17,0.86-3.23,3.82-4.74,5.75
		c-0.74,0.94-1.01,2.63-1.9,3.01c-4.14,1.73-6.49,5.22-9.01,8.55c-2.33,3.08-4.6,6.22-6.71,9.45c-1.17,1.8-2.12,3.78-2.91,5.78
		c-1.01,2.56-1.67,5.26-2.63,7.83c-1.18,3.13-2.88,6.11-3.7,9.32C236.6,154.06,235.93,159.03,234.92,164.52z M147.87,301.17
		c0.26,1.54,0.5,3.66,1.01,5.71c0.64,2.55,1.09,5.29,2.37,7.51c1.83,3.19,4.73,5.79,6.4,9.04c0.91,1.76,2.3,3.81,1.28,6.45
		c-0.77,2,2.06,4.99,4.05,4.79c6.92-0.7,13.83-1.46,20.84-2.21c-4.76-12.31-9.47-24.48-14.07-36.38
		C162.45,297.79,155.41,299.42,147.87,301.17z M120.56,303.06c0-0.02-0.06,0.33,0.05,0.61c0.97,2.58,1.99,5.15,2.94,7.74
		c1.18,3.23,2.11,6.57,3.52,9.69c1.84,4.1,4.87,7.63,5.62,12.29c0.12,0.78,1.54,1.85,2.42,1.91c2.11,0.16,4.26-0.32,6.4-0.32
		c3.61,0,7.23,0.19,10.84,0.24c0.63,0.01,1.27-0.26,1.86-0.4c-0.85-2.53-1.56-4.78-2.35-6.99c-1.53-4.28-3.3-8.48-4.58-12.82
		c-0.83-2.82-2.75-5.33-2.36-8.55c0.14-1.13-0.46-2.36-0.78-3.53c-0.39-1.39-1.12-1.84-2.74-1.65c-4.22,0.5-8.48,0.65-12.73,0.96
		c-0.73,0.05-1.45,0.26-2.18,0.33C124.58,302.75,122.66,302.89,120.56,303.06z M161.14,337.33c0.45,1.81,0.6,2.91,1,3.91
		c1.13,2.8,3.48,4.98,4.02,8.12c0.23,1.29,0.81,2.53,1.3,3.77c0.44,1.11,1.13,2.15,1.44,3.3c0.3,1.13-0.02,2.47,0.44,3.5
		c0.79,1.77,0.73,4.69,4.18,3.7c1.19-0.34,2.54-0.12,3.82-0.19c3.68-0.19,7.41-0.05,11.01-0.7c2.38-0.43,4.54-1.56,7.11-0.67
		c0.69,0.24,1.87-0.52,2.62-1.09c0.23-0.17-0.06-1.29-0.35-1.86c-1.9-3.81-3.9-7.57-5.81-11.37c-1.43-2.85-2.92-5.68-4.11-8.63
		c-0.54-1.35-2.94-1.34-2.26-3.39c-0.4,0-0.8-0.03-1.19,0c-4.85,0.34-9.69,0.68-14.54,1.02
		C166.81,336.95,163.79,337.15,161.14,337.33z M287.06,89.59c-1.54,0.52-3.29,1.28-5.12,1.7c-2.16,0.49-3.31,2.2-3.82,3.83
		c-1.45,4.63-1.79,9.31,1.69,13.42c0.53,0.63,1.25,1.47,1.19,2.15c-0.27,3.11,0.55,6.11,1.36,8.95c0.85,2.95,2.48,5.8,4.3,8.31
		c1.22,1.68,2.24,3.1,2.34,5.29c0.15,3.31,0.29,6.68,2.1,9.67c1.15,1.9,2.25,3.84,3.3,5.8c1.57,2.96,3.51,5.82,4.5,8.98
		c1.07,3.41,3.67,4.99,6.25,6.54c1.22,0.73,3.72,0.92,4.64,0.16c1.22-1.02,1.66-0.28,2.5-0.04c1.07,0.31,2.18,0.53,3.26,0.79
		c0.08-0.27,0.17-0.54,0.25-0.81c-1.15-1.69-2.36-3.33-3.43-5.06c-2.34-3.79-4.55-7.67-6.94-11.44c-1.67-2.63-4.72-4.53-4.16-8.3
		c0.05-0.31-0.48-0.71-0.76-1.06c-1.59-1.99-3.36-3.86-4.73-5.99c-1.49-2.31-2.53-4.91-3.93-7.28c-1.53-2.6-2.47-5.29-2.14-8.35
		c0.11-1.05,0.25-2.16,0.02-3.16c-0.84-3.61-1.83-7.19-2.78-10.78c-0.38-1.42-1.24-2.85-1.16-4.23
		C285.97,95.62,286.62,92.58,287.06,89.59z M252.67,505.11c-2.26-5.28-4.17-10.14-6.41-14.83c-1.51-3.16-2.97-6.72-7.6-6.31
		c-1.03,0.09-2.07,0.09-3.11,0.11c-2.76,0.05-5.9-0.72-8.21,0.33c-3.41,1.55-6.85,1.28-10.27,1.82c-2.24,0.35-2.38,0.83-1.48,2.97
		c0.98,2.33,1.64,4.81,2.24,7.28c0.53,2.19,0.51,4.55,1.28,6.63c0.37,0.99,1.96,1.91,3.14,2.14c2.24,0.43,4.57,0.4,6.87,0.45
		c4.04,0.08,8.08,0.18,12.12,0.09C244.9,505.69,248.54,505.36,252.67,505.11z M94.59,302.5c0.03,0.25-0.05,0.75,0.15,1.08
		c1.07,1.73,2.59,3.29,3.25,5.16c1.07,3.04,1.57,6.28,2.37,9.41c0.25,0.98,0.86,1.87,1.06,2.86c0.17,0.84-0.15,1.76-0.04,2.62
		c0.21,1.58,0.22,3.35,0.97,4.67c0.74,1.3,2.13,2.7,3.51,3.08c3.53,0.97,7.21,1.39,10.83,2.06c2.51,0.47,5,1.05,7.52,1.47
		c1.33,0.22,2.7,0.2,4.17,0.29c-2.52-7.13-6.62-13.41-9.23-20.36c-0.97-2.6-1.83-5.24-2.96-7.77c-0.65-1.46-0.12-3.84-2.6-4.04
		c-1.68-0.14-3.38,0.04-5.07-0.01C103.96,302.87,99.4,302.68,94.59,302.5z M166.2,363.59c-1.53-3.33-3.26-6.81-4.72-10.4
		c-1.63-4.01-2.92-8.16-4.53-12.18c-0.76-1.9-1.42-4.08-4.45-3.54c-2.58,0.46-5.24,0.56-7.87,0.64c-3.52,0.1-7.05,0.03-10.77,0.03
		c0.42,0.79,0.77,1.35,1.04,1.96c2.4,5.48,4.62,11.04,7.24,16.41c1.04,2.12,2.6,4.41,4.55,5.54c1.61,0.94,4.15,0.24,6.27,0.39
		c1.36,0.09,2.69,0.47,4.05,0.58C160,363.25,163.01,363.39,166.2,363.59z M239.55,477.52c-1.46-2.42-2.52-4.12-3.52-5.85
		c-0.87-1.49-1.77-2.98-2.49-4.55c-0.81-1.75-1.21-3.73-2.26-5.3c-0.39-0.59-2.09-0.4-3.2-0.38c-0.73,0.01-1.44,0.41-2.18,0.5
		c-1.99,0.23-3.99,0.38-5.98,0.59c-0.24,0.02-0.47,0.37-0.68,0.35c-2.87-0.34-5.73-0.81-8.61-1.04c-1.52-0.12-3.08,0.18-5.06,0.32
		c1.3,2.42,2.59,4.22,3.28,6.23c1.12,3.29,1.83,6.71,2.74,10.07c0.37,1.36,0.92,2.23,2.7,2.01c2.43-0.3,4.92-0.17,7.38-0.25
		c1.72-0.06,3.47,0.02,5.15-0.29c1.68-0.31,3.26-1.22,4.94-1.53C234.14,477.96,236.56,477.84,239.55,477.52z M83.93,256.95
		c0.5,4.02,0.92,7.85,1.48,11.67c0.39,2.61,0.97,5.19,1.5,7.77c0.06,0.3,0.31,0.77,0.53,0.81c2.88,0.45,5.77,0.92,8.67,1.21
		c2.66,0.26,5.34,0.34,8.01,0.42c2.15,0.07,4.31,0.01,6.59,0.01c-0.81-4.77-1.29-9.07-2.35-13.22c-0.52-2.05-1.67-4.8-3.29-5.52
		c-2.71-1.21-6.02-0.48-9.13-1.48C92.21,257.4,88.06,257.46,83.93,256.95z M217.3,503.91c-1.24-4.15-2.48-7.77-3.38-11.48
		c-1.04-4.3-4.05-7.39-8.02-8.23c-4.38-0.93-8.86,0.79-13.19-0.65c-0.12-0.04-0.3,0.15-0.47,0.18c-1.51,0.28-3.03,0.55-5.21,0.94
		c1.51,5.13,3.15,10.7,4.79,16.26c0.77-0.17,1.33-0.47,1.79-0.37c5.33,1.2,10.61,2.69,15.99,3.6
		C212.16,504.6,215.09,506.17,217.3,503.91z M132.57,239.73c-7.82,0.05-16.45,0.27-25.31-0.54c0.38,1.02,0.7,1.6,0.81,2.23
		c0.83,4.77,1.57,9.56,2.5,14.32c0.12,0.63,1.11,1.51,1.74,1.55c3.72,0.2,7.45,0.13,11.17,0.24c3.97,0.12,7.94,0.33,11.65,0.49
		C134.27,251.8,133.48,246.2,132.57,239.73z M146.85,434.21c-0.4,0.66-1.32,1.49-1.2,2.1c0.47,2.25,1.35,4.42,1.95,6.65
		c0.45,1.69,1.06,3.45,0.97,5.14c-0.17,3.27,0.49,4.85,3.61,5.63c2.76,0.69,5.62,1.02,8.44,1.41c1.53,0.21,3.09,0.15,4.63,0.29
		c2.39,0.22,4.76,0.6,7.15,0.69c0.62,0.02,1.35-0.68,1.87-1.21c0.12-0.12-0.4-0.9-0.66-1.35c-0.3-0.52-0.73-0.97-0.97-1.51
		c-1.17-2.59-2.31-5.19-3.42-7.81c-0.46-1.09-0.65-2.31-1.24-3.31c-1.02-1.74-0.95-4.41-4.28-4.16c-2.63,0.2-5.34-0.34-7.99-0.75
		C152.98,435.6,150.29,434.93,146.85,434.21z M93.5,300.36c7.57,0,14.24,0,21.11,0c-0.21-0.88-0.31-1.65-0.58-2.35
		c-1.41-3.75-2.26-7.64-2.42-11.62c-0.12-2.75-1.18-4.26-3.92-4.52c-1.27-0.12-2.54-0.23-3.82-0.35c-3.19-0.3-6.39-0.54-9.57-0.91
		c-2.29-0.26-4.56-0.7-7.24-1.12C89.33,286.84,91.45,293.71,93.5,300.36z M151.24,458.06c0.23,0.67,0.81,1.93,1.08,3.25
		c0.71,3.49,2.55,6.68,2.43,10.42c-0.03,0.78,1.75,2.04,2.89,2.35c3.25,0.88,6.6,1.44,9.92,2.01c2.26,0.39,4.59,0.47,6.83,0.92
		c2.76,0.56,5.47,1.37,8.51,2.15c-2.3-6.76-4.35-12.76-6.23-18.28C168.1,459.94,159.69,459,151.24,458.06z M180.83,460.02
		c0.24,2.77-0.33,5.79,0.89,7.6c1.51,2.23,1.5,4.7,2.32,6.94c1.43,3.92,2.85,5.31,6.97,4.42c3.53-0.76,6.92-2.16,10.73-0.29
		c2.11,1.04,4.82,0.85,7.76,1.29c-0.79-1.23-1.73-2.01-1.72-2.79c0.05-5.85-4.34-9.89-6.01-15.02c-0.2-0.62-1.11-1.36-1.75-1.42
		c-3.48-0.32-7.05-0.09-10.44-0.75C186.46,459.39,183.6,460.89,180.83,460.02z M111.45,260.85c0.63,1.83,1.08,3.09,1.48,4.36
		c0.24,0.77,0.43,1.56,0.6,2.36c0.15,0.68,0.07,1.47,0.39,2.04c0.74,1.33,0.69,2.6,0.54,4.09c-0.5,4.98,0.53,5.71,4.7,5.48
		c1.96-0.11,3.83-0.05,5.85-0.53c3.78-0.9,7.83-0.63,11.76-0.99c0.45-0.04,1.2-1.07,1.15-1.57c-0.46-4.13-1.27-8.23-1.59-12.37
		c-0.16-2.13-0.95-2.58-2.83-2.44c-2.12,0.15-4.27,0.02-6.4,0.12c-1.61,0.07-3.22,0.5-4.81,0.42
		C118.9,261.64,115.52,261.23,111.45,260.85z M142.71,298.65c-0.74-3.58-1.29-6.39-1.91-9.19c-0.58-2.65-1.24-5.29-1.81-7.73
		c-3.23,0-6.54-0.07-9.85,0.02c-4.1,0.1-8.2,0.28-12.29,0.57c-0.4,0.03-1.14,1.15-1.04,1.62c0.95,4.59,2.14,9.13,3.04,13.73
		c0.27,1.37,0.51,1.76,2.01,1.83c3.04,0.16,5.92-0.19,8.94-0.68C133.96,298.14,138.33,298.65,142.71,298.65z M78.66,233.01
		c0.6,1.54,1.17,3.25,1.94,4.86c0.39,0.81,1.59,1.41,1.67,2.18c0.38,3.9,0.37,7.85,0.81,11.74c0.22,1.97,1.4,3.5,3.74,3.64
		c5.37,0.32,10.75,0.65,16.12,1.07c1.53,0.12,2.16-0.53,1.51-1.79c-2.54-4.88-2.97-10.1-2.97-15.45c0-0.52-0.6-1.41-1.04-1.5
		c-3-0.62-6.28-0.08-8.9-2.26C86.81,236.64,83.03,233.06,78.66,233.01z M228.42,455.45c-0.87-0.69-1.54-0.97-1.8-1.47
		c-1.72-3.29-3.33-6.63-5.01-9.94c-0.72-1.41-1.37-2.46-3.5-2.34c-6.62,0.37-13.26,0.34-19.89,0.45c-0.53,0.01-1.07-0.03-1.6-0.05
		c0.12,0.6,0.14,1.25,0.37,1.8c1.14,2.78,2.24,5.59,3.54,8.3c0.78,1.63,1.61,3.48,2.96,4.51c1.09,0.83,3.01,0.78,4.55,0.74
		c3.35-0.07,6.94-1.25,9.97-0.38C221.94,458.23,224.83,456.82,228.42,455.45z M156.93,477.45c-0.61,2.4,2.96,4.7,0.6,7.51
		c-0.06,0.08,0.05,0.36,0.14,0.5c1.01,1.51,1.98,3.16,4.09,3.13c2.18-0.03,3.83,0.73,5.29,2.39c0.76,0.87,2.1,1.25,3.2,1.81
		c1.56,0.79,3.12,1.57,4.71,2.29c2.73,1.24,5.4,2.63,8.23,3.56c2.2,0.73,4.6,0.87,6.86,1.26c-1.77-4.82-3.48-9.7-5.4-14.49
		c-0.37-0.92-1.46-1.9-2.41-2.19c-3.9-1.17-7.86-2.17-11.84-3.06C165.94,479.18,161.43,478.36,156.93,477.45z M160.58,278.66
		c-1.42,0-2.69-0.14-3.91,0.03c-3.19,0.45-6.16,2.06-9.58,1.54c-0.81-0.12-3.03,0.01-2.57,2.06c0.96,4.29,2.36,8.48,2.28,12.98
		c-0.01,0.75,0.89,2.17,1.36,2.17c2.33-0.04,4.66-0.38,6.97-0.75c2.39-0.38,4.75-0.98,7.15-1.35c2.36-0.36,4.75-0.55,7.43-0.85
		c-1.69-5.7-3.2-10.89-4.83-16.04c-0.13-0.4-1.09-0.85-1.57-0.77C162.27,277.86,161.3,278.38,160.58,278.66z M170.08,437.76
		c0.54,0.96,1.15,1.84,1.55,2.81c0.88,2.16,1.53,4.41,2.5,6.52c1.06,2.3,2.87,4.36,3.42,6.74c0.47,2.03,1.27,2.33,2.79,1.92
		c1.9-0.5,3.75-1.81,5.6-1.76c4.23,0.13,8.43,0.88,12.69,1.38c-0.54-1.23-1.17-2.62-1.74-4.03c-0.49-1.2-1.06-2.4-1.34-3.66
		c-0.57-2.5-4.3-6.42-6.73-6.88c-2.19-0.41-4.37-0.89-6.57-1.24C178.19,438.91,174.12,438.35,170.08,437.76z M163.56,274
		c-1.13-4.77-2.04-9.22-3.35-13.54c-0.22-0.73-2.25-1.35-3.39-1.27c-4.28,0.3-8.53,1.01-12.81,1.36c-2.36,0.19-3.05,0.92-2.67,3.25
		c0.39,2.39,0.55,4.82,0.83,7.23c0.19,1.66,0.3,3.34,0.65,4.96c0.09,0.43,1,1,1.49,0.96c1.89-0.17,3.75-0.58,5.63-0.87
		C154.49,275.38,159.04,274.69,163.56,274z M427.31,455.91c0.22,0.22,0.43,0.43,0.65,0.65c3.13-2.96,7.03-2.49,10.73-2.79
		c3.61-0.29,5.47-2.39,5.27-5.8c-0.11-1.85,0.26-3.79,0.71-5.61c0.64-2.59,1.56-5.11,2.47-8c-1.13-0.11-2.07-0.39-2.94-0.25
		c-3.28,0.53-6.55,1.15-9.81,1.85c-1.35,0.29-3.24-0.04-2.96,2.54c0.13,1.24-0.63,2.57-0.94,3.88
		C429.42,446.88,428.37,451.39,427.31,455.91z M422.62,476.89c1.6,0,2.88-0.3,3.93,0.06c2.94,1,5.7,0.9,8.42-0.57
		c0.87-0.47,4.54-5.07,4.82-6.01c0.05-0.17,0.22-0.31,0.25-0.47c0.61-3.37,1.11-6.77,1.86-10.11c0.42-1.89-0.46-2-1.8-1.69
		c-1.77,0.4-3.5,0.95-5.26,1.35c-2.14,0.48-4.39,0.62-6.42,1.38c-1.21,0.46-2.8,1.74-2.95,2.83c-0.47,3.43-0.77,6.86-2.03,10.14
		C423.04,474.82,422.86,475.95,422.62,476.89z M365.85,169.82c0.06,4.19-1.33,7.72,0.53,11.23c0.63,1.2,0.89,1.46,2.28,1.23
		c5.33-0.91,10.71-1.52,16.06-2.34c0.74-0.11,1.41-0.75,2.11-1.15c7.12,0.32,14.23,0.04,21.18-2.27c-0.93-0.47-1.84-0.36-2.75-0.36
		c-0.59,0-1.19-0.14-1.79-0.22c-1.28-0.18-2.81-0.91-3.79-0.46c-2.49,1.16-4.89,0.23-7.31,0.27c-1.86,0.04-3.77-0.62-5.58-0.38
		c-1.63,0.22-2.72,0.24-3.89-1.15c-0.92-1.09-2.3-2.19-3.64-2.45C374.92,170.93,370.5,170.47,365.85,169.82z M419.79,497.33
		c0.44,0.13,0.62,0.25,0.75,0.21c5.77-1.48,11.54-2.95,17.29-4.51c0.46-0.13,1.07-0.87,1.08-1.34c0.03-3.15-0.02-6.31-0.18-9.46
		c-0.03-0.67-0.47-1.55-1-1.89c-0.38-0.24-1.24,0.22-1.87,0.44c-1.57,0.56-3.32,1.92-4.64,1.58c-2.89-0.75-5.49,0.19-8.19,0.45
		c-0.57,0.06-1.42,0.74-1.54,1.27c-0.33,1.45-0.3,2.99-0.48,4.48C420.61,491.51,420.19,494.44,419.79,497.33z M466.17,461.83
		c0.72,0,1.48,0.22,1.99-0.04c3.91-1.99,7.97-3.78,11.14-6.96c1.44-1.45,3.45-2.8,3.98-4.56c1.08-3.59,1.32-7.42,1.95-11.4
		c-0.84,0.17-1.52,0.14-1.99,0.44c-4.97,3.1-9.92,6.23-14.84,9.41c-0.54,0.35-1.06,0.99-1.25,1.6c-0.96,3.14-1.82,6.31-2.68,9.48
		c-0.3,1.09-0.47,2.22-0.7,3.33c0.22,0.12,0.43,0.24,0.65,0.36C465.02,462.9,465.65,462.32,466.17,461.83z M484.97,436.95
		c0.76-4.08,1.55-8.39,2.41-13.01c-2.09,0.84-3.62,1.5-5.19,2.07c-2.47,0.89-4.96,1.72-7.44,2.57c-1.02,0.35-2.39,0.38-3.02,1.07
		c-3.83,4.2-2.95,9.8-4.57,14.95C473.66,442.35,478.57,437.32,484.97,436.95z M463.44,431.07c-3.23,0.51-6.22,1-9.21,1.44
		c-1.58,0.24-2.76,0.75-2.66,2.69c0.07,1.36,0.17,2.76-0.08,4.09c-0.6,3.3-1.4,6.57-2.09,9.86c-0.11,0.54-0.13,1.1-0.22,1.85
		c1.63-0.23,2.98-0.41,4.34-0.6c1.38-0.2,2.78-0.3,4.11-0.65c1.19-0.31,2.69-0.62,3.34-1.47c0.76-0.98,1.13-2.61,0.99-3.87
		c-0.31-2.71,1.13-5.27,0.24-8.11C461.76,434.9,462.92,433.01,463.44,431.07z M457.07,471.84c-3.93,1.81-7.61,3.46-11.24,5.2
		c-0.77,0.37-1.71,0.97-1.97,1.69c-1.04,2.87-1.91,5.8-2.67,8.75c-0.21,0.8-0.09,2.05,0.41,2.55c0.48,0.47,1.79,0.55,2.51,0.25
		c2.44-0.98,4.77-2.19,7.15-3.32c2.18-1.04,4.84-1.39,5.85-4.13c0.03-0.08,0.64,0.07,0.49,0.05
		C457.42,479.13,457.25,475.5,457.07,471.84z M461.2,453.5c-2.89,0.69-5.06,1.5-7.29,1.69c-3.9,0.32-5.94,2.44-6.86,6
		c-0.75,2.87-1.53,5.73-2.24,8.61c-0.16,0.65-0.09,1.36-0.13,2.04c0.69,0,1.45,0.2,2.04-0.03c2.06-0.8,4.26-1.48,6.04-2.72
		c2.31-1.61,5.44-2.4,5.95-6.08C459.15,459.89,460.29,456.88,461.2,453.5z M461.79,479.76c1.12-1.15,1.94-2.33,3.05-3.08
		c3.75-2.54,7.09-5.49,9.99-8.98c2.23-2.67,4.62-5.2,6.83-7.89c0.38-0.46,0.17-1.41,0.23-2.14c-0.71,0.07-1.57-0.08-2.11,0.26
		c-1.59,1.02-3,2.32-4.59,3.35c-3.76,2.43-7.65,4.67-11.32,7.23c-0.96,0.67-1.45,2.19-1.84,3.42c-0.54,1.71-0.77,3.51-1.14,5.28
		c-0.2-0.02-0.4-0.04-0.6-0.05C460.82,478.06,461.33,478.96,461.79,479.76z"/>
	<path class="st0" d="M506.81,324.28c-5.61-0.3-11.21-0.6-17.02-0.9c-1.44,8.48-2.86,16.85-4.27,25.12
		c5.26,0.91,10.47,1.82,16.21,2.81c-0.59,0.8-0.99,1.85-1.44,1.87c-1.88,0.09-3.79-0.1-5.68-0.24c-1.2-0.09-2.39-0.3-3.6-0.39
		c-0.97-0.07-2.21,0.34-2.86-0.12c-2.43-1.71-3.1,0.08-3.19,1.71c-0.27,4.87-0.18,9.77-0.32,14.65c-0.06,2.28-0.4,4.54-0.49,6.82
		c-0.15,3.56-0.31,7.12-0.23,10.68c0.04,1.9-0.36,3.15-2.47,3.52c-1.9-3.1-1-6.46-1.03-9.71c0-0.51,0.14-1.03,0.16-1.54
		c0.3-7.19,0.55-14.38,0.93-21.57c0.07-1.39,0.62-2.75,0.96-4.21c-3.48-1.79-7.24-0.92-10.88-0.55c-7.14,0.71-14.26,1.66-21.37,2.64
		c-3.13,0.43-6.19,1.48-9.33,1.72c-3.39,0.27-6.83-0.08-10.24-0.15c-0.64-0.01-1.29,0-1.93,0c-0.04-0.22-0.09-0.45-0.13-0.67
		c4.2-0.79,8.39-1.65,12.6-2.36c5.14-0.87,10.3-1.67,15.46-2.4c2.65-0.38,5.33-0.55,8.64-0.88c-1.12-9.75,0.99-19.36,3.13-29.05
		c-5.14-0.5-10.12-1.1-15.12-1.42c-1.32-0.09-2.98,0.32-3.95,1.13c-0.75,0.63-0.76,2.23-0.95,3.43c-0.6,3.87-1.13,7.75-1.99,11.65
		c0.63-4.65-3.68-8.52-1.89-13.42c0.14-0.39-1.69-2.21-2.52-2.15c-5.07,0.34-10.13,0.91-15.16,1.64c-2.68,0.39-5.3,1.26-7.94,1.91
		c-0.11-0.23-0.23-0.47-0.34-0.7c1.38-0.69,2.71-1.5,4.14-2.04c6.14-2.31,12.67-2,19.04-2.73c1.1-0.13,2.17-0.51,3.44-0.83
		c0.45-5.96,1.07-12.09,1.3-18.23c0.1-2.74-0.78-5.51-0.86-8.27c-0.07-2.48-0.12-5.13,0.68-7.4c0.85-2.39-0.53-2.35-1.85-2.62
		c-1.08-0.23-2.21-0.22-3.31-0.31c-0.05-0.23-0.1-0.47-0.16-0.7c2.06-0.66,4.12-1.31,6.16-1.96c0.81-3.59,1.01-7.53,2.63-10.76
		c1.47-2.91,2.04-5.92,2.85-8.9c1.45-5.33,2.53-10.76,3.78-16.19c-4.45,0.38-8.36,0.46-12.17,1.15c-1.63,0.29-3.55,1.13-3.88,3.54
		c-0.35,2.53-1.19,4.99-1.65,7.51c-0.59,3.21-0.98,6.47-1.54,9.68c-0.72,4.12-1.41,8.25-2.35,12.32c-0.76,3.27-1.89,6.46-2.85,9.69
		c-0.26-0.04-0.52-0.08-0.78-0.13c0.6-5.58,1.2-11.16,1.79-16.74c0.12-1.09,0.12-2.19,0.33-3.26c0.55-2.79,1.27-5.56,1.77-8.36
		c0.46-2.6,0.61-5.25,1.09-7.84c0.28-1.52,0.94-2.97,1.72-5.34c-10.28,3.18-19.8,6.12-29,8.96c1.44-2.65,4.82-3.6,7.66-4.97
		c3.54-1.71,7.58-2.17,11.19-4.02c2.27-1.17,5.09-1.42,7.71-1.71c2.52-0.27,2.57-1.95,2.85-3.75c0.15-0.94,0.61-1.83,0.95-2.75
		c0.14-0.4,0.5-0.82,0.43-1.18c-0.75-4.08,1.26-7.71,1.8-11.57c0.03-0.24-0.05-0.69-0.19-0.74c-0.44-0.15-0.98-0.33-1.4-0.2
		c-5.1,1.54-10.22,3.04-15.27,4.76c-2.33,0.79-4.5,2.05-7.35,3.38c0.42-1.14,0.54-2.7,1.17-2.94c6.62-2.59,13.31-4.98,19.99-7.39
		c1.36-0.49,2.76-0.86,3.59-1.11c1.1-6.72,2.15-13.21,3.31-20.31c-7.76,1.78-15.49,3.55-24.05,5.51c1.67-1.04,2.71-1.84,3.87-2.36
		c4.39-1.97,9.06-2.95,13.76-3.79c2.02-0.36,4.18-0.52,5.97-1.4c0.87-0.43,1.11-2.26,1.53-3.49c1.13-3.32,2.21-6.65,3.31-9.98
		c0.32,0.08,0.64,0.17,0.95,0.25c-0.64,4.1-1.29,8.19-1.98,12.61c2.86-0.68,5.34-1.4,7.86-1.85c3.33-0.6,6.7-1.01,10.06-1.48
		c2.06-0.29,4.14-0.46,6.18-0.83c0.47-0.09,1.05-0.75,1.18-1.25c1.09-3.99,3.5-7.2,5.92-10.43c0.16-0.21,0.09-0.58,0.47-0.81
		c1.64,3.93-1.81,7.09-1.73,11.21c2.43-0.29,4.93-0.59,7.43-0.9c3.04-0.38,5.97-1.27,9.15-0.91c2.05,0.23,4.43-0.07,6.22-0.99
		c1.06-0.54,1.33-2.74,1.82-4.23c0.49-1.51,0.78-3.08,1.25-4.6c0.13-0.42,0.61-0.73,0.93-1.1c0.15,0.53,0.48,1.08,0.41,1.58
		c-0.36,2.4-0.84,4.78-1.26,7.17c-0.12,0.68-0.18,1.38-0.23,1.77c2.41,0.34,4.74,1.2,6.86,0.84c2.49-0.42,4.82,0.35,7.13,0.06
		c1.22-0.15,2.22-1.96,3.21-2.91c0.42,0.85,1.11,2.26,1.6,3.23c4.74-0.91,8.52,0.37,12.29,2.44c-1.5,0.28-2.99,0.73-4.51,0.79
		c-2.09,0.09-4.21,0.03-6.29-0.21c-2.42-0.28-2.7,1.9-2.8,3.01c-0.34,3.6-0.13,7.26-0.13,11.01c4.19-1.01,8.95-2.04,13.65,0.07
		c-0.44,2.89-2.87,4.03-6.35,3.42c-1.81-0.32-3.71-0.13-5.57-0.16c-0.3,0-0.66,0.19-0.91,0.09c-1.49-0.59-2.21-0.21-2.57,1.45
		c-1.16,5.42-2.39,10.82-3.76,16.19c-0.34,1.33-1.32,2.5-2.36,4.39c5.01,0.51,9.74,1,14.69,1.51c-0.4,1.07,1.53,3.52-2.41,2.55
		c-2.94-0.72-6.26,0.18-9.41,0.26c-0.97,0.02-1.94-0.28-3-0.45c-1.61,4.39-3.32,8.8-4.84,13.26c-1.01,2.96-1.74,6.01-2.64,9.01
		c-0.76,2.55-1.66,5.06-2.32,7.63c-0.43,1.67-0.53,3.43-0.83,5.15c-0.08,0.48-0.27,0.97-0.49,1.4c-1.64,3.13-0.24,5.08,3.15,5.73
		c4.66,0.89,9.18,2.49,13.65,4.25c-6.51,2.44-12.69,1.21-19.39-1.53c-0.8,4.56-1.43,8.64-2.27,12.66c-0.39,1.86-1.34,3.59-1.79,5.44
		c-1.04,4.26-1.88,8.57-2.9,12.84c-0.4,1.65-1.07,3.22-1.62,4.83c-0.66,1.92-0.61,3.26,2.01,3.49c3.24,0.28,6.46,0.8,9.65,1.42
		c1.39,0.27,2.67,1.06,4,1.61C507,323.66,506.91,323.97,506.81,324.28z M452.83,275.11c1.37,0.46,2.22,1.02,3.06,1
		c6.06-0.15,12.12-0.35,18.16-0.7c1.54-0.09,3.17-0.54,4.53-1.25c3.35-1.76,2.67-5.59,3.48-8.4c2.16-7.49,3.47-15.24,5.05-22.89
		c0.18-0.86-0.36-2.01,0.04-2.67c1.09-1.85,0.27-2.31-1.36-2.21c-3.07,0.18-6.13,0.43-9.19,0.73c-3.43,0.34-6.88,0.59-10.27,1.22
		c-1.53,0.28-3.55,1-4.2,2.17c-0.94,1.66-1.21,3.94-1.07,5.91c0.24,3.53-2.49,6.39-1.8,10.14c0.17,0.94-1.23,3.7-2.24,4.92
		C454.02,266.65,454.7,271.1,452.83,275.11z M478.08,279.58c-2.61,0.64-4.91,1.2-7.51,1.84c-0.25-0.07-1.18-0.66-1.75-0.42
		c-1.71,0.74-3.44,0.54-5.17,0.56c-1.92,0.01-4.49,0.75-5.59-0.2c-1.67-1.45-2.99,0.61-4.32-0.37c-0.16-0.12-1.44,0.67-1.51,1.14
		c-0.44,3.14-0.88,6.31-0.97,9.48c-0.12,4.46,0.08,8.92,0.12,13.38c0.02,1.97,0,3.95,0,6.23c-2.1,1.15-1.38,3.5-1.16,6.4
		c2.56-0.27,5.23-1.33,7.21-0.59c3.42,1.29,6.76-0.01,10.06,0.72c0.45,0.1,1.43-0.46,1.54-0.87c0.94-3.76,1.76-7.55,2.57-11.34
		c0.53-2.46,0.91-4.95,1.51-7.39c0.45-1.8,1.26-3.51,1.72-5.31C475.91,288.74,476.87,284.6,478.08,279.58z M472.52,318.07
		c3.93,0.4,7.65,0.6,11.3,1.22c2.11,0.36,3.31-0.18,3.87-2.14c0.46-1.59,0.82-3.21,1.18-4.82c1.13-5.08,2.19-10.17,3.38-15.23
		c0.59-2.5,1.51-4.92,2.08-7.42c0.66-2.85,1.15-5.74,1.58-8.64c0.06-0.44-0.61-1.38-1.01-1.42c-2.96-0.33-5.97-0.85-8.89-0.56
		c-1.77,0.18-4.33,0.28-4.8,3.08c-0.35,2.03-0.7,4.07-1.23,6.06c-0.78,2.93-1.8,5.79-2.58,8.72c-0.6,2.27-0.88,4.62-1.48,6.88
		c-0.94,3.55-2.09,7.06-3.04,10.61C472.59,315.56,472.64,316.8,472.52,318.07z M497.88,273.5c0.57-2.16,1.25-4.85,1.99-7.52
		c0.81-2.94,1.59-5.9,2.56-8.79c0.88-2.62,2.09-5.12,2.99-7.73c1.26-3.63,2.43-7.29,3.46-10.99c0.17-0.61-0.52-2.11-0.86-2.12
		c-2.12-0.08-4.29,0.43-6.37,0.18c-2.46-0.29-4.69,1.7-7.26,0.44c-0.6-0.3-2.42,0.45-2.67,1.1c-0.95,2.53-1.61,5.18-2.17,7.84
		c-0.64,3.02-0.94,6.11-1.6,9.13c-0.44,2.02-1.36,3.94-1.84,5.96c-0.74,3.19,0.02,6.66-1.92,9.65c-0.36,0.55-0.51,1.48-0.31,2.09
		c0.2,0.6,0.9,1.21,1.51,1.43c0.35,0.12,0.97-0.54,1.34-0.77c0.81,0.25,1.7,0.77,2.57,0.74
		C492.13,274.04,494.94,273.74,497.88,273.5z M462.69,237.4c1.39,0,2.36,0.13,3.3-0.02c4.61-0.77,9.19-1.66,13.8-2.4
		c2.64-0.42,5.33-0.54,7.97-0.98c0.57-0.09,1.3-0.86,1.48-1.46c1.21-3.9,2.32-7.82,3.4-11.76c0.58-2.1,1.13-4.22,1.5-6.36
		c0.05-0.31-0.98-1.19-1.48-1.16c-3.5,0.21-6.99,0.57-10.48,0.91c-3.89,0.38-7.78,0.73-11.65,1.24c-0.74,0.1-1.74,0.74-2.01,1.39
		c-1.43,3.41-2.88,6.83-3.9,10.37C463.72,230.37,463.36,233.72,462.69,237.4z M470.27,212.11c5.3-0.54,9.99-1.06,14.68-1.48
		c2.72-0.25,5.45-0.46,8.18-0.49c2.13-0.03,3.22-0.91,3.73-2.98c0.95-3.85,2.02-7.68,3.17-11.48c0.75-2.47,0.05-3.67-2.5-3.6
		c-2.45,0.07-4.91,0.2-7.36,0.43c-3.64,0.35-7.28,0.75-10.9,1.28c-1.48,0.22-2.74,0.86-2.73,2.84c0.01,0.79-0.82,1.57-1.15,2.39
		C473.75,203.18,472.14,207.34,470.27,212.11z M471.54,321.24c-1.73,9.75-3.4,19.13-5.11,28.76c5.9-0.43,11.32-0.83,16.71-1.23
		c0-3.46-0.2-6.35,0.06-9.2c0.24-2.74,0.64-5.55,1.56-8.12c0.8-2.24-0.55-4.74,1.46-6.86c1.23-1.3-0.15-2.17-1.63-2.27
		c-0.43-0.03-0.88,0.15-1.31,0.11C479.39,322.06,475.52,321.65,471.54,321.24z M516.87,210.21c-2.2,0.6-3.93,1.31-5.72,1.5
		c-2.46,0.27-5.02-0.16-7.44,0.27c-2.43,0.42-5.38,0.41-6.39,3.58c-0.34,1.08-0.74,2.14-1.03,3.24c-1.24,4.8-2.44,9.61-3.75,14.8
		c1.96-0.14,3.91-0.3,5.87-0.4c1.49-0.08,3-0.05,4.49-0.15c1.62-0.1,3.28-0.59,4.83-0.34c1.55,0.26,2.61,0.16,3.2-1.33
		c0.72-1.8,1.37-3.63,1.98-5.47c0.44-1.32,0.82-2.66,1.15-4.01c0.44-1.8,0.77-3.63,1.2-5.43
		C515.72,214.55,516.24,212.65,516.87,210.21z M445.68,218.22c3.11-0.81,6.1-1.51,9.04-2.38c3.32-0.99,7.36-0.51,9.31-4.46
		c0.8-1.61,1.92-3.06,2.67-4.68c0.4-0.86,0.32-1.95,0.47-3.09c0.04,0.01,0.49,0.16,1.14,0.38c-0.22-3.41,3.78-5.49,3.14-9.46
		c-7.96,1.27-15.47,2.47-22.98,3.67C447.5,205.17,446.57,211.86,445.68,218.22z M460.83,218.09c-0.23-0.21-0.45-0.42-0.68-0.63
		c-1.11,0.21-2.26,0.3-3.32,0.65c-0.97,0.33-1.8,1.2-2.78,1.37c-2.67,0.48-5.39,0.69-8.08,1.1c-0.49,0.07-1.29,0.61-1.29,0.94
		c-0.07,3.97-1.05,7.8-1.59,11.69c-0.24,1.73-0.68,3.46-1.19,5.14c-0.59,1.96,0.05,2.8,2.2,2.47c3.31-0.51,6.6-1.12,9.91-1.66
		c1.02-0.17,2.18,0.02,3.08-0.38c1.11-0.5,1.18-5.97,0.47-6.62c0.29-1.87,2.18-3.35,0.37-5.32c-0.24-0.26-0.3-0.9-0.16-1.25
		C458.74,223.08,459.8,220.59,460.83,218.09z M498.64,209.24c6.04-0.73,12.48-1.5,19.15-2.3c0.47-4.72,0.94-9.55,1.4-14.22
		c-1.67,0.17-3.01,0.52-4.31,0.4c-3.44-0.32-6.85-0.9-10.28-1.22c-0.49-0.04-1.38,0.73-1.54,1.28c-0.71,2.53-1.13,5.14-1.83,7.68
		C500.45,203.72,499.48,206.53,498.64,209.24z"/>
	<path class="st0" d="M298.92,226.8c8.96,0.36,17.12-0.85,25.47,2.47c-8.46,0.34-16.33,0.67-24.98,1.02
		c0.82,3.4,1.63,6.77,2.45,10.14c0.06,0.26,0.23,0.55,0.16,0.76c-1.04,3.27,0.73,3.81,3.45,3.95c-0.99,0.17-1.98,0.33-2.57,0.43
		c-0.38,6.45-0.76,12.81-1.15,19.52c-2.48-1.21-4.92-1.47-4.31-5.11c0.45-2.71,0.03-5.67-0.52-8.41c-0.26-1.27-1.55-2.8-2.75-3.3
		c-2.08-0.87-4.6-1.96-6.67-0.17c-2.81,2.44-6.24,1.56-9.37,2.2c-1.25,0.26-2.6,0-3.89,0.12c-0.28,0.03-0.72,0.66-0.73,1.03
		c-0.09,3.31-0.16,6.63-0.13,9.95c0.04,4.82,0.22,9.64,0.21,14.45c0,0.65-0.73,1.29-1.13,1.94c-0.28-0.02-0.56-0.04-0.84-0.06
		c-0.9-2.94-2.31-5.83-2.6-8.82c-0.49-5.16-0.34-10.39-0.34-15.58c-0.01-3.68-0.81-4.45-4.27-3.46c-3.09,0.89-6.13,1.92-9.59,2.35
		c0.76-0.6,1.5-1.25,2.3-1.8c0.82-0.55,1.7-1,2.56-1.49c1.73-1.01,3.37-2.23,5.21-2.97c1.97-0.78,4.42-0.37,3.94-3.98
		c-0.38-2.79,0.47-5.73,0.57-8.6c0.02-0.52-1-1.6-1.39-1.53c-3.83,0.67-7.62,1.53-11.77,1.88c0.73-0.48,1.4-1.18,2.2-1.4
		c3.13-0.85,6.33-1.48,9.45-2.37c0.71-0.2,1.71-1.17,1.71-1.79c0.01-2.75-0.27-5.5-0.48-8.25c-0.12-1.58-1.08-1.55-2.25-1.16
		c-3.39,1.14-6.78,2.28-10.19,3.36c-0.7,0.22-1.48,0.17-2.39-0.33c3.77-1.62,7.55-3.2,11.3-4.86c2.89-1.28,2.89-1.32,3.08-6.14
		c0.05-1.31-0.07-2.63,0.05-3.94c0.05-0.58,0.43-1.54,0.78-1.6c1.01-0.16,2.71-0.31,3,0.19c0.67,1.15,1.06,2.76,0.85,4.07
		c-0.73,4.43-0.35,4.87,4.02,4.19c3.93-0.61,7.89-1.01,11.84-1.5c1.72-0.21,3.43-0.43,5.22-0.65c0.88-3.72-0.5-8.29,4.15-10.69
		c0,2.43,0.05,5.03-0.02,7.63c-0.03,1.33,0.03,2.28,1.8,2.13c2.88-0.24,5.77-0.39,8.66-0.44c4.3-0.07,8.6-0.02,12.9-0.02
		c0.03,0.44,0.05,0.89,0.08,1.33c-5.47,0.7-10.94,1.43-16.42,2.08c-1.74,0.21-3.53,0.08-5.27,0.34c-0.52,0.08-1.31,0.92-1.33,1.43
		C298.87,219.1,298.92,222.87,298.92,226.8z M274.11,244.59c1.09,0.13,2.25,0.55,3.29,0.36c5.45-1,10.91-1.61,16.46-1.08
		c1.17,0.11,2.26-0.01,2.07-1.8c-0.16-1.51,0.28-3.09,0.07-4.58c-0.39-2.68-1.07-5.32-1.5-7.35c-3.01,0-5.39-0.03-7.76,0.01
		c-1.4,0.03-2.8,0.16-4.19,0.28c-1.99,0.16-3.98,0.3-5.95,0.56c-0.49,0.06-1.3,0.48-1.33,0.8c-0.21,2.12-0.2,4.27-0.38,6.4
		C274.73,240.18,274.41,242.15,274.11,244.59z M273.7,216.94c0.4,1.54,0.67,2.36,0.82,3.21c0.43,2.36,0.65,4.77,1.33,7.05
		c0.2,0.68,1.68,1.43,2.53,1.38c4.62-0.31,9.22-1.13,13.84-1.22c2.8-0.06,2.78-1.93,2.76-3.43c-0.03-3.17-0.55-6.34-0.88-9.53
		C287.15,215.27,280.4,216.11,273.7,216.94z"/>
</g>
<polygon class="st1" points="356.56,375.41 437.23,366.73 462.69,371.07 474.48,389.78 491.43,404.88 486.69,427.66 526.55,445.31 
	526.55,483.85 382.95,526.09 332.8,456.56 "/>
<g>
	<path class="st3" d="M324.39,454.36h84.35v-84.7h4.24v84.7h84.35v3.53h-84.35v84.7h-4.24v-84.7h-84.35V454.36z"/>
</g>
</svg>
