<?xml version="1.0" encoding="UTF-8"?>
<svg id="Layer_1" data-name="Layer 1" xmlns="http://www.w3.org/2000/svg" viewBox="0 0 600 600">
  <defs>
    <style>
      .cls-1 {
        fill: #263344;
      }
    </style>
  </defs>
  <path class="cls-1" d="M198.48,543.94c5.68,2.3,11.54,4.67,17.52,6.24,5.46,1.44,11.21,2.2,16.77,2.93l1.52,.2c6.96,.92,13.92,1.56,19.81,2.06,2.18,.19,4.41,.28,6.57,.36,2.81,.11,5.71,.23,8.55,.57,2.49,.29,5.01,.77,7.44,1.24,3.34,.64,6.8,1.31,10.21,1.48,6.33,.31,12.78,.2,19.04,.1,2.64-.05,5.38-.09,8.06-.11h.16c.57,0,1.16,.02,1.73,.03,1.3,.03,2.64,.07,3.94-.09,2.2-.28,4.41-.65,6.57-1,3.18-.52,6.47-1.06,9.73-1.35,5.01-.46,10.12-.7,15.07-.93,2.22-.11,4.52-.22,6.78-.35,.26-.01,.53-.08,.76-.18,1.81-.77,3.62-1.55,5.42-2.33,3.46-1.48,7.03-3.02,10.57-4.47,1.88-.77,3.81-1.51,5.67-2.22,6.39-2.46,13-5,18.89-9.11,5.41-3.77,11.33-7.01,17.05-10.15,2.47-1.35,5.02-2.76,7.5-4.18,1.79-1.03,3.58-2.05,5.37-3.06,3.77-2.14,7.67-4.35,11.44-6.65,4.67-2.85,9.71-6.14,15.39-10.04,.73-.5,1.31-1.24,1.88-1.96,.48-.6,.98-1.23,1.56-1.73,.74-.63,1.59-1.17,2.4-1.69,.88-.56,1.78-1.14,2.55-1.84,2.46-2.2,5.03-4.7,7.88-7.65,3.09-3.21,7.14-7.44,11-11.79,1.32-1.48,2.59-3.08,3.82-4.61,2.05-2.57,4.17-5.23,6.61-7.48l.77-.71c5.79-5.36,11.79-10.89,16.19-17.66,2.57-3.98,5.1-8.32,7.72-13.28,1.32-2.49,2.54-5.09,3.71-7.61,1-2.13,2.02-4.34,3.12-6.47,2.65-5.18,5.41-10.41,8.09-15.46,1.08-2.04,2.16-4.08,3.23-6.12,.27-.51,.57-1.01,.86-1.5,.62-1.04,1.26-2.1,1.59-3.23,.53-1.83,1.05-3.7,1.54-5.5,1.26-4.64,2.56-9.44,4.43-14.04,2.06-5.07,3.57-10.46,5.03-15.68,.55-1.96,1.11-3.98,1.7-5.95,.39-1.29,.81-2.6,1.23-3.87,1.11-3.41,2.26-6.94,2.68-10.49,.38-3.25,.31-6.6,.24-9.84-.06-2.66-.11-5.4,.07-8.08,.23-3.28,.68-6.6,1.13-9.82,.47-3.45,.96-7,1.16-10.52,.04-.63,.09-1.26,.13-1.88,.21-2.83,.42-5.76-.25-8.83-.77-3.52-1-7.21-1.21-10.78-.18-3.09-.38-6.29-.92-9.36-.93-5.24-2.29-10.5-3.61-15.59-.69-2.68-1.41-5.46-2.06-8.2-.49-2.07-.98-4.14-1.48-6.21-1.63-6.77-3.32-13.76-4.59-20.71-.28-1.51-.62-3.03-.96-4.51-.97-4.3-1.98-8.75-1.44-13.37,.18-1.57-.83-3.49-1.57-4.9-.91-1.72-1.8-3.45-2.7-5.19-2.96-5.7-6.02-11.59-9.45-17.11-4.56-7.32-9.58-14.17-15.21-21.74-5.24-7.04-10.96-14.08-16.01-20.28-.55-.67-1.43-1.11-2.29-1.55-.41-.2-.83-.42-1.22-.65l-.03-.03c-.68-.78-1.34-1.6-2.05-2.46-1.58-1.94-3.21-3.95-5.1-5.68-7.97-7.27-16.09-14.33-23.7-20.86-.84-.72-1.88-1.22-2.89-1.72-.73-.36-1.49-.72-2.18-1.18-1.64-1.07-3.28-2.21-4.87-3.3-2.32-1.6-4.72-3.26-7.15-4.77-6.72-4.17-12.89-7.83-18.87-11.2-4.46-2.51-9.08-4.92-13.54-7.25-1.59-.83-3.18-1.66-4.77-2.5-.72-.38-1.43-.77-2.15-1.16-2.08-1.13-4.23-2.3-6.44-3.22-5.7-2.39-11.79-4.81-19.73-7.83-1.73-.65-3.56-1.17-5.32-1.66-.86-.24-1.76-.49-2.62-.76-1.98-.59-3.98-1.26-5.9-1.9-4.27-1.42-8.68-2.89-13.14-3.71-6.69-1.23-13.61-1.87-20.3-2.49-1.76-.16-3.51-.32-5.27-.5-1.24-.12-2.48-.24-3.72-.36-8.38-.84-17.04-1.7-25.59-2.13-1.95-.1-3.9-.14-5.81-.14-5.04,0-9.85,.28-13.76,.57-1.39,.1-2.78,.18-4.17,.27-7.69,.48-15.64,.97-23.23,3.86-3.11,1.18-6.53,1.67-9.83,2.15-2.61,.38-5.31,.77-7.85,1.5-5.45,1.56-10.87,3.61-16.11,5.58-1.51,.57-3.02,1.14-4.53,1.7-6.77,2.49-12.4,4.6-18.12,7.01-2.15,.9-4.22,2.11-6.22,3.28-.88,.51-1.79,1.04-2.69,1.54-1.46,.81-2.93,1.61-4.4,2.41-3.69,2.01-7.51,4.09-11.21,6.22-1.35,.78-2.78,1.52-4.16,2.24-3.71,1.93-7.54,3.93-10.43,6.77-2.25,2.21-4.82,3.92-7.3,5.58-1.86,1.24-3.78,2.52-5.53,3.99-.98,.82-2.08,1.55-3.15,2.25-2.42,1.59-4.92,3.22-6.13,6.21-.15,.35-.49,.6-.82,.85-.15,.11-.3,.22-.43,.34-1.15,1.05-2.33,2.1-3.47,3.11-2.55,2.26-5.19,4.6-7.6,7.07-6.58,6.77-13.11,13.8-19.43,20.6l-1.26,1.36c-2.48,2.67-4.98,5.41-7.39,8.07-3.48,3.83-7.07,7.79-10.7,11.6-4.99,5.23-10.15,10.64-13.18,17.97-2.62,6.3-5.53,12.6-8.36,18.69-2.12,4.57-4.31,9.3-6.36,13.99-1.36,3.12-2.41,6.77-3.13,10.85-.33,1.91-.42,3.9-.51,5.82-.1,2.09-.19,4.24-.6,6.31-.91,4.65-1.98,9.35-3.03,13.9-.98,4.27-1.98,8.69-2.86,13.06-.2,1.03-.02,2.24,.17,3.41,.24,1.56,.47,3.03-.19,4.04-3,4.61-3.18,9.28-2.53,14.86,.22,1.8,.36,3.64,.51,5.42,.13,1.56,.26,3.17,.43,4.75,.17,1.52,.38,3.05,.59,4.54,.24,1.77,.49,3.61,.67,5.43,.15,1.51,.2,3.05,.24,4.54,.03,.93,.06,1.91,.12,2.85,.02,.35,.1,.72,.19,1.07,.09,.39,.19,.81,.2,1.22,.17,6.71,.5,13.25,2.58,19.52l.14,.42c.76,2.26,1.54,4.6,1.94,6.97,.45,2.61,.83,5.29,1.19,7.87,.59,4.24,1.21,8.61,2.17,12.83,.33,1.45,.32,2.99,.31,4.48-.02,3.03-.04,5.89,2.47,8.23l.06,.06-.02,.08c-.86,4.53,.3,8.87,1.43,13.07,.55,2.07,1.13,4.21,1.45,6.36,.31,2.01,1.25,3.98,2.16,5.87,.57,1.19,1.15,2.42,1.59,3.66,.42,1.19,.7,2.46,.97,3.69,.26,1.18,.53,2.41,.92,3.55,.6,1.75,1.34,3.48,2.06,5.16,.48,1.12,.97,2.29,1.43,3.45,.61,1.56,1.18,3.18,1.73,4.74,1.12,3.18,2.27,6.48,3.86,9.48,1.46,2.78,3.39,5.36,5.25,7.87,1.04,1.4,2.12,2.84,3.11,4.32,1.29,1.91,2.54,3.88,3.75,5.79,1.82,2.87,3.7,5.83,5.72,8.63,5.18,7.19,10.67,14.32,15.98,21.22,.72,.93,1.42,1.87,2.13,2.8,2.77,3.66,5.63,7.43,8.86,10.73,2.52,2.57,5.36,4.92,8.11,7.18,2.06,1.71,4.2,3.47,6.19,5.32,5.05,4.69,10.53,9.58,17.11,13.26,3.32,1.85,6.44,4.11,9.46,6.3,4.06,2.95,8.26,6,12.99,8.08,1.06,.47,1.97,1.3,2.84,2.1,.82,.76,1.68,1.55,2.66,2.01,3.43,1.61,6.82,3.14,10.16,4.61,.35,.15,.69,.31,1.04,.46,3.33,1.46,6.61,2.85,9.8,4.14l.15,.06Zm-7.12-7.94c-3.13-1.45-5.64-2.72-7.89-3.99-1.25-.7-2.43-1.56-3.58-2.39-.45-.33-.91-.66-1.37-.98-.17-.13-.34-.27-.49-.41-.24-.22-.47-.42-.73-.55-1.81-.84-3.72-1.6-5.57-2.34-4.14-1.65-8.42-3.37-11.86-6.06-2.72-2.13-5.65-3.92-8.49-5.66-2.26-1.38-4.6-2.8-6.78-4.38-3.82-2.75-7.18-6.24-10.43-9.63-1.54-1.6-3.12-3.25-4.73-4.8-.68-.64-1.46-1.22-2.21-1.77-.44-.32-.9-.66-1.34-1.01-3.96-3.17-6.97-7.24-9.88-11.17-1.38-1.86-2.8-3.78-4.3-5.58-.86-1.02-1.72-2.05-2.58-3.08-4.55-5.43-9.25-11.04-13.57-16.8-2.87-3.83-5.54-7.9-8.13-11.84-1.48-2.26-3.01-4.59-4.56-6.85-.67-.98-1.42-1.93-2.16-2.84-1.07-1.36-2.19-2.76-3.05-4.28-.48-.85-.62-1.9-.75-2.91-.11-.86-.22-1.75-.55-2.51-.56-1.29-1.27-2.54-1.97-3.76-.82-1.44-1.67-2.92-2.26-4.49-1.04-2.74-1.91-5.58-2.75-8.34-.56-1.85-1.15-3.77-1.78-5.64-.49-1.44-1.14-2.87-1.77-4.26-.3-.65-.59-1.31-.88-1.98l-.06-.16,.16-.04s.2-.04,.38-.08l.2-.04c-.36-.99-.76-2-1.14-2.97-.91-2.29-1.85-4.65-2.34-7.09-2.42-11.95-4.44-22.99-6.18-33.72-1.47-9.04-2.79-18.26-4.06-27.17-.59-4.11-1.17-8.21-1.77-12.31-.25-1.68-.6-3.4-.94-5.06-.76-3.73-1.55-7.59-1.23-11.3,.28-3.22-.31-6.3-.88-9.28-.47-2.47-.96-5.03-.94-7.62,.01-1.16,.19-2.32,.49-3.36,.43-1.4,.96-2.82,1.47-4.19,1.08-2.9,2.2-5.9,2.35-8.89,.05-1.06,.2-2.14,.34-3.2,.3-2.18,.6-4.43,.07-6.51-.98-3.88-.69-7.12,.9-10.2,.26-.49,.31-1.13,.36-1.74v-.03c.77-8.86,2.9-18.31,6.72-29.74,.45-1.36,.82-2.78,1.18-4.14,.46-1.78,.94-3.61,1.61-5.35,1.08-2.78,2.37-5.53,3.62-8.19,.58-1.23,1.18-2.5,1.75-3.76,.59-1.32,1.17-2.67,1.73-3.98,1.23-2.87,2.5-5.84,4.01-8.62,2.41-4.44,4.96-8.42,7.6-11.85,3.64-4.71,7.61-9.31,11.79-13.65,3.51-3.65,7.18-7.26,10.73-10.75,3.13-3.08,6.36-6.26,9.47-9.45,2.27-2.34,4.5-4.82,6.65-7.21,3.4-3.78,6.91-7.68,10.7-11.16,1.47-1.34,2.92-2.75,4.34-4.12,4.9-4.74,9.97-9.65,16.44-12.64,.44-.2,.8-.59,1.18-.99,.27-.29,.55-.59,.88-.83,1.53-1.12,3.07-2.29,4.56-3.42,3.7-2.81,7.52-5.72,11.54-8.18,2.59-1.6,5.4-2.95,8.12-4.25,3.63-1.75,7.39-3.55,10.62-5.95,5.6-4.16,12.04-6.47,18.26-8.71,2.06-.74,4.21-1.51,6.27-2.34,1.55-.62,3.13-1.29,4.65-1.94,5.79-2.47,11.78-5.03,18.52-5.52,2.04-.15,4-.89,6.07-1.68,2.38-.9,4.82-1.84,7.46-1.84,.49,0,1,.03,1.51,.11,3.94-3.59,8.77-3.82,13.46-4.04,2.3-.11,4.67-.23,6.89-.74,3.71-.85,7.77-.39,11.71,.06,1.91,.22,3.89,.45,5.8,.52,2.88,.11,5.81,.16,8.64,.22,4.9,.09,9.96,.18,14.92,.57s9.99,.98,14.85,1.54c6.35,.73,12.91,1.5,19.39,1.84,9.97,.53,18.97,3.46,26.46,6.25,5.83,2.18,11.6,4.86,17.16,7.46,2.99,1.39,6.07,2.84,9.14,4.19,2.38,1.04,4.83,2.02,7.21,2.97,3.92,1.57,7.98,3.2,11.81,5.14,8.99,4.58,17.67,9.61,25.72,14.35,8.15,4.81,14.24,8.71,19.74,12.64,.52,.37,1.04,.74,1.56,1.11,4.95,3.51,10.08,7.14,13.86,11.75,2.63,3.21,5.6,6.22,8.46,9.13,5.02,5.1,10.21,10.37,13.86,16.91,2.06,3.69,4.91,7.02,7.67,10.24,1.68,1.96,3.41,3.98,4.96,6.07,.4,.53,.74,1.1,1.07,1.65,.92,1.5,1.78,2.92,3.69,3.79,1.18,.54,1.91,2.04,2.62,3.49,.25,.51,.51,1.04,.77,1.5,.98,1.69,1.94,3.42,2.88,5.09,1.16,2.08,2.36,4.22,3.59,6.3,.88,1.47,1.85,2.93,2.8,4.35,1.88,2.82,3.83,5.74,5.06,8.89,1.1,2.81,1.36,5.99,1.62,9.06,.11,1.35,.23,2.75,.42,4.09,.22,1.6,.41,3.24,.59,4.82,.41,3.54,.82,7.21,1.64,10.7,.59,2.52,1.46,5.05,2.3,7.5,1.39,4.01,2.82,8.16,3,12.31,.11,2.63,1.05,4.87,1.97,7.05,.87,2.06,1.77,4.2,1.91,6.63,.3,5.19,1.1,10.44,1.89,15.51,.27,1.73,.54,3.52,.79,5.28,.2,1.41,.5,2.84,.79,4.22,.53,2.54,1.08,5.16,1.04,7.73-.08,4.26-.55,8.58-1,12.76-.24,2.21-.49,4.49-.67,6.74-.13,1.56-.3,3.13-.47,4.65-.5,4.7-1.02,9.57-.49,14.5,.49,4.54-.59,9.49-1.81,14.15-2.57,9.7-5.57,19.45-8.47,28.89l-.93,3.01c-1.63,5.29-3.31,10.75-5.49,15.92-1,2.34-1.93,4.75-2.84,7.08-2.22,5.73-4.53,11.65-7.85,17.16-3.7,6.14-6.87,12.75-9.42,19.63-2.1,5.65-6.5,10.55-10.75,15.3-.77,.86-1.54,1.71-2.28,2.56-7.11,8.11-14.84,15.99-21.52,22.73-4.63,4.68-9.48,9.29-14.17,13.75-2.12,2.02-4.31,4.1-6.45,6.16-1.01,.97-1.99,2-2.95,2.99-2.11,2.2-4.29,4.47-6.79,6.23-2.91,2.05-6.1,3.78-9.19,5.45-1.91,1.04-3.89,2.11-5.78,3.25-2.78,1.68-5.57,3.44-8.28,5.15-3.42,2.17-6.96,4.4-10.51,6.48-2.88,1.68-5.91,3.23-8.84,4.72-1.88,.96-3.82,1.95-5.7,2.97-.96,.51-1.87,1.15-2.75,1.76-.67,.46-1.36,.94-2.07,1.37-1.47,.89-2.95,1.92-4.38,2.91-3.42,2.37-6.96,4.82-10.8,5.74-5.23,1.24-10.16,3.14-14.38,4.82-4.5,1.8-9.28,2.39-13.89,2.96-3.37,.42-6.85,.85-10.16,1.75-3.91,1.06-7.96,1.25-11.86,1.43-4.23,.2-8.59,.4-12.76,1.71-.61,.19-1.25,.27-1.92,.27-1.1,0-2.27-.2-3.41-.4-.85-.14-1.72-.3-2.56-.36l-5-.39c-7.22-.56-14.45-1.11-21.68-1.65-3.25-.24-6.57-.45-9.78-.65-7.11-.44-14.47-.9-21.66-1.81-2.94-.37-5.95-.52-8.87-.67-6.09-.3-12.39-.62-18.43-2.95-3.26-1.25-6.82-1.88-10.27-2.48-2.82-.49-5.74-1.01-8.5-1.86-3.7-1.14-7.27-2.9-10.74-4.6-1.29-.64-2.63-1.29-3.95-1.91Z"/>
  <g>
    <path class="cls-1" d="M140.56,164.44l22.33-20,3.2,3.57-9.14,8.19,17.69,19.76-4,3.58-17.69-19.76-9.18,8.22-3.2-3.57Z"/>
    <path class="cls-1" d="M194.42,160.34l-15.43-27.27,15.04-8.51c3.63-2.06,6.7-2.47,9.52-1.59,2.21,.68,4.09,2.16,5.27,4.24,2.08,3.67,1.24,7.84-1.6,11.21l12.81,7.43-5.39,3.05-11.78-7.18-9.69,5.49,5.93,10.48-4.67,2.64Zm-8.39-25.74l4.78,8.43,11.19-6.34c2.46-1.39,3.46-4.5,2.14-6.84-.59-1.04-1.53-1.72-2.66-2.08-2.05-.6-3.63,.13-5.09,.95l-10.36,5.86Z"/>
    <path class="cls-1" d="M245.7,122.35l-11.51,3.5,2.67,8.76,20.26-6.16,1.4,4.58-25.4,7.73-9.11-29.94,24.3-7.39,1.4,4.58-19.17,5.83,2.26,7.43,11.51-3.5,1.39,4.58Z"/>
    <path class="cls-1" d="M297.72,97.39l2.26,31.22-4.73,.35-19.59-20.35h-.05s1.57,21.66,1.57,21.66l-5.35,.39-2.26-31.22,4.73-.34,19.59,20.35h.05s-1.57-21.66-1.57-21.66l5.35-.39Z"/>
    <path class="cls-1" d="M316.79,129.31l4.99-30.93,14.82,2.39c5.59,.9,8.46,2.97,10.7,5.95,2.29,3.29,3.12,7.5,2.39,12-.75,4.64-3.04,8.6-6.43,10.96-3.04,1.94-6.06,2.91-11.65,2.01l-14.83-2.39Zm15.35-2.38c3.93,.63,5.4-.05,7.49-1.27,2.31-1.67,3.99-4.51,4.52-7.83,.52-3.22-.06-6.28-1.68-8.58-1.5-1.89-2.99-3.16-6.88-3.78l-9.28-1.5-3.46,21.46,9.29,1.5Z"/>
    <path class="cls-1" d="M360.96,139.01l10.38-29.53,5.07,1.78-10.39,29.53-5.06-1.78Z"/>
    <path class="cls-1" d="M421.91,133.64l-15.43,27.22-4.12-2.34-5-27.79-.04-.02-10.71,18.87-4.67-2.64,15.43-27.22,4.13,2.34,5,27.79,.04,.03,10.71-18.88,4.66,2.64Z"/>
    <path class="cls-1" d="M454.23,170.94c-.13-3.72-2.31-7.93-5.02-10.44-4.95-4.61-12.09-3.92-16.5,.82-4.12,4.42-5.03,11.45,.77,16.84,2.38,2.23,5.85,4.14,8.47,4.42l4.29-4.6-7.2-6.7,3.27-3.51,10.78,10.04-9.35,10.04c-4.84-.57-10.16-3.03-13.77-6.4-7.26-6.77-7.6-17.24-1.32-23.98,6.28-6.74,16.79-7.04,23.81-.5,3.65,3.4,6.18,8.5,6.81,14.08l-5.03-.1Z"/>
  </g>
  <path class="cls-1" d="M433.04,252.85c-.16-.19-.34-.38-.51-.56l-1.26-1.37c-.43-.47-.85-.94-1.28-1.41-.28-.3-.59-.6-.88-.89-.56-.55-1.09-1.07-1.52-1.65-1.15-1.58-2.26-2.74-3.49-3.65l-.69-.52c-.46-.34-.93-.68-1.38-1.02-.11-.09-.2-.19-.3-.29l-.82-.83c-.44-.44-.88-.89-1.31-1.34l-.19-.19c-.42-.43-.81-.85-1.09-1.21-.02-.05-.01-.15-.04-.12,.35-.34,.73-.65,1.11-.96,.4-.33,.8-.66,1.18-1.02l.38-.36c.71-.67,1.43-1.36,1.95-2.2,.52-.85,1.23-1.5,1.98-2.19,.25-.23,.5-.46,.74-.7,.29-.28,.59-.57,.89-.85,.82-.78,1.68-1.6,2.43-2.49,.47-.55,.8-1.21,1.12-1.84,.14-.27,.27-.55,.42-.81l.32-.57-.61-.26c-.24-.1-.35-.28-.53-.61-.16-.31-.38-.71-.8-.99-.79-.54-1.64-.8-2.75-.83-.03,0-.05,0-.07,0-.39,0-.77,.09-1.13,.16-.44,.09-.85,.17-1.11,.09-.68-.23-1.31-.19-1.88-.16-.46,.03-.92,.06-1.33-.08-.36-.11-.72-.09-1.02-.07l.04,.58-.19-.57c-.16,.01-.32,.04-.48,.07-.16,.03-.3,.05-.43,.05-.2-.02-.42-.09-.64-.14-.49-.14-1.06-.29-1.56-.07-.98,.43-2.06,.24-3.15,.32-1.38,.12-2.91,.19-4.8,.23-.09,0-.3-.1-.39-.22-.23-.28-.42-.6-.62-.92-.23-.36-.46-.73-.73-1.06-.25-.32-.55-.57-.84-.81-.18-.15-.36-.31-.53-.48-.88-.9-1.73-1.8-2.56-2.74-.73-.82-1.42-1.67-2.1-2.53l-.11-.14c-1.71-2.14-3.54-3.68-5.62-4.7-.57-.27-1.03-.18-1.36-.12-.1,.02-.19,.04-.3,.05-.25,.02-.49,.09-.75,.15l-.71,.26-.06,.39c-.01,.06-.03,.18-.06,.23-.15,.27-.31,.52-.48,.78-.27,.42-.53,.84-.75,1.27-.15,.3-.2,.61-.24,.9-.02,.14-.04,.28-.07,.41-.07,.26-.16,.51-.26,.76-.18,.48-.35,.97-.43,1.51-.12,.81-.14,1.63-.16,2.42l-.03,.78c-.02,.52-.03,1.04,.01,1.56,.02,.34,.06,.68,.1,1.02,.05,.42,.1,.84,.12,1.25,0,.03-.05,.13-.07,.19-.07,.17-.16,.38-.16,.63-.01,.51,0,1.02,.01,1.54,.01,.5,.02,1,.02,1.5-.01,.9-.05,1.8-.09,2.79l-.02,.51c-.34,.11-.76,.24-1.15,.49-.34,.22-.76,.32-1.21,.44-.73,.18-1.57,.38-2.21,1.14-.14,.17-.43,.3-.73,.44-.3,.14-.64,.29-.93,.53-.55,.45-1.07,.93-1.59,1.41-.54,.5-1.08,1-1.65,1.46-.8,.64-1.69,1.23-2.55,1.8l-.43,.28c-.3,.2-.6,.38-.91,.56-.76,.45-1.54,.93-2.23,1.61-.9,.88-1.05,1.89-1.19,2.87-.06,.41,.15,1.11,.64,1.33,.32,.15,.65,.07,.95,.01,.02,0,.03,0,.06-.01l.27,.21c.47,.36,.96,.73,1.46,1.1,.19,.14,.4,.22,.58,.3l.43,.18c.16,.07,.31,.13,.47,.2,.18,.09,.35,.18,.52,.27,.37,.19,.74,.39,1.13,.53,.38,.14,.77,.25,1.17,.36,.32,.09,.65,.18,.97,.3,.39,.13,.77,.28,1.14,.43,.45,.18,.89,.36,1.35,.51,.42,.14,.85,.26,1.27,.38,.49,.14,1,.27,1.48,.44,.6,.22,1.17,.51,1.76,.82l.17,.09c.34,.18,.75,1.08,.67,1.48-.1,.53-.21,1.06-.32,1.6l-.52,2.68c-.15,.81-.3,1.62-.47,2.42-.06,.31-.14,.62-.22,.93-.1,.4-.2,.79-.27,1.2l-.23,1.31c-.24,1.42-.51,2.89-.64,4.36-.11,1.21-.02,2.51,.25,3.75,.19,.84,.63,1.58,1.04,2.31l.27,.47c.19,.35,.72,.89,1.3,.89h.02c.14,0,.29,.02,.51,.02,.44,0,1.05-.11,1.3-.84,.05-.04,.23-.11,.34-.15,.1-.05,.21-.09,.3-.13,.2-.1,.41-.18,.61-.26,.44-.18,.89-.35,1.3-.64,.52-.35,1.01-.76,1.49-1.17,.32-.26,.63-.53,.96-.78,.03-.02,.13-.04,.2-.06,.14-.03,.31-.07,.47-.15,.19-.1,.35-.23,.49-.34,.07-.06,.14-.11,.35-.23,.14-.06,.33-.14,.48-.31,.3-.33,.57-.67,.86-1.01,.52-.63,1-1.22,1.56-1.72,.82-.71,1.25-1.59,1.66-2.43,.2-.42,.4-.84,.66-1.22,.14-.21,.26-.44,.39-.67,.24-.45,.5-.92,.81-1.11,1.31-.81,2.09-1.98,2.86-3.11,.27-.4,.55-.81,.84-1.19,.3-.39,.42-.88,.52-1.3,.05-.23,.1-.46,.19-.66,.03-.04,.11-.1,.11-.11,.3,.02,.67,.05,1.04,.11l.47,.07c.07,0,.15,.02,.2,.03l5.11,1.48c.05,.01,.1,.04,.15,.06,.11,.06,.25,.13,.42,.16,.45,.1,.91,.18,1.36,.27,.89,.16,1.73,.32,2.55,.58,1.83,.58,3.8,.87,6.02,.89,.89,.01,1.65,.15,2.31,.42,.12,.05,.23,.1,.34,.16,.44,.23,1.09,.57,1.91,.1,.15-.09,.33-.15,.51-.21,.22-.08,.44-.16,.63-.26,.36-.18,.68-.43,.93-.71,.14-.17,.26-.36,.38-.56,.1-.16,.2-.32,.3-.44,.76-.78,.97-1.32,.1-2.29Zm-9.16,1.7c-.25-.07-.49-.13-.74-.16-.3-.05-.6-.1-.89-.15-.57-.1-1.17-.21-1.8-.23-.16,0-.39-.1-.61-.2s-.46-.2-.69-.26c-.73-.18-1.46-.34-2.2-.49-.49-.11-.98-.21-1.47-.32-.19-.04-.37-.11-.55-.17s-.37-.13-.56-.18l-.76-.21c-.68-.2-1.37-.4-2.09-.51-1.2-.19-2.41-.3-3.57-.32h-.03c-.76,0-1.36,.49-1.79,1.46-.25,.57-.53,1.14-.81,1.69-.03,.07-.09,.15-.14,.19-.26,.24-.53,.46-.8,.69-.55,.46-1.12,.94-1.63,1.47-.61,.64-1.17,1.39-1.64,2.23-.19,.34-.38,.69-.56,1.04-.75,1.42-1.46,2.75-2.73,3.69-.74,.55-1.46,1.14-2.17,1.73l-1.77,1.48c-.77,.65-1.55,1.3-2.35,1.93-.56,.44-1.27,.69-2.12,.76-.87-.86-1.24-1.6-1.24-2.46v-.69c0-.49,0-.99,.02-1.48,.02-.26,.07-.52,.13-.78,.03-.17,.07-.34,.1-.51,.06-.35,.11-.7,.16-1.05,.1-.67,.2-1.35,.35-2.01,.13-.6,.3-1.2,.46-1.8,.14-.48,.27-.97,.39-1.46,.08-.34,.13-.68,.17-1.02,.03-.26,.06-.52,.11-.77,.19-.94,.41-1.88,.63-2.82,.06-.24,.13-.49,.2-.73,.06-.21,.13-.42,.18-.64,.06-.27,.06-.51-.02-.72-.07-.2-.15-.4-.22-.61-.3-.88-.64-1.88-1.64-2.59-1.51-1.08-3.21-1.62-4.69-2.04-.49-.14-.98-.35-1.48-.57-.41-.18-.82-.36-1.25-.51-.57-.2-1.16-.36-1.75-.52-.36-.1-.72-.2-1.06-.3-.03-.01-.09-.06-.13-.09-.06-.05-.13-.1-.2-.15-.05-.03-.1-.07-.15-.11-.19-.15-.44-.34-.76-.36-1.02-.09-1.71-.73-2.55-1.55-.09-.12-.23-.32-.49-.41,0,0-.01,0-.02,0,.05-.06,.09-.12,.14-.19,.59-.78,1.4-1.26,2.12-1.62,.65-.33,1.24-.75,1.81-1.15,.28-.2,.56-.39,.84-.58,.16-.11,.34-.19,.52-.27l1.1-.54-.26-.19,.2-.18c.53-.5,1.07-1,1.64-1.46,.3-.24,.62-.45,.94-.67,.56-.38,1.14-.76,1.6-1.29,.39-.44,.9-.69,1.45-.95,.42-.2,.84-.4,1.25-.71,.54-.41,1.17-.74,1.77-1.06,.27-.14,.53-.28,.77-.42l.24-.14,.15-1.06c.08-.55,.15-1.09,.23-1.63l.04-.32c.19-1.39,.38-2.84,.04-4.32,0-.02-.01-.07,.02-.19,.06-.09,.2-.28,.18-.52-.01-.37-.03-.74-.05-1.11-.02-.47-.05-.94-.06-1.41,0-.16,.02-.32,.05-.48,.03-.18,.05-.36,.06-.54,.01-.29,0-.58,0-.86-.01-.48-.02-.93,.05-1.36,.15-1.05,.39-2.16,.69-3.31,.2-.76,.53-1.52,.83-2.17,.14-.31,.31-.38,.36-.39,.24-.09,.6-.02,1.02,.2,.75,.37,1.35,.93,1.99,1.52,.49,.45,.99,.92,1.58,1.31,.39,.26,.69,.73,1.01,1.23,.16,.26,.32,.51,.5,.74l.29,.37c.27,.34,.53,.68,.74,1.05l.09,.15c.22,.39,.48,.87,1.1,1.02,.04,.03,.12,.14,.17,.22l.84,1.11c.43,.56,.85,1.12,1.29,1.67,.25,.31,.52,.59,.79,.88,.16,.17,.32,.34,.48,.51,.11,.13,.21,.24,.32,.37,.14,.18,.29,.35,.44,.51,.51,.56,1.13,.61,1.64,.67,.13,.02,.27,.03,.4,.05,.58,.1,1.12,0,1.59-.11,.55-.1,1-.2,1.48-.01,.68,.28,1.45,.22,2.17,.15,.51-.05,1-.06,1.47-.09,.19-.02,.38-.03,.57-.04,.36,0,.71,0,1.06,0,.37,0,.73,0,1.09,0l1.59-.04c1-.03,2-.06,2.99-.06,.26,0,.53,.05,.84,.13,.27,.07,.55,.14,.82,.16,.46,.02,.9-.01,1.34-.06l.32-.03c.92-.06,1.67-.03,2.34,.45,.48,.35,.52,.49,.52,.52,0,.02,0,.16-.38,.58-.21,.24-.35,.53-.47,.78-.1,.22-.2,.43-.31,.51-.44,.33-.81,.71-1.17,1.09-.48,.49-.93,.96-1.52,1.27-.67,.36-1.15,.98-1.6,1.58-.18,.23-.35,.45-.53,.65-.38,.43-.76,.88-1.14,1.31-.73,.85-1.46,1.69-2.23,2.5-.24,.26-.56,.48-.89,.71-.34,.24-.7,.49-1.01,.81-.41,.4-.54,1.14-.46,1.67,.13,.85,.37,1.75,1.21,2.45,.47,.4,.88,.86,1.31,1.35,.35,.39,.69,.78,1.07,1.14,.65,.62,1.4,1.23,2.3,1.86,.9,.62,1.72,1.41,2.57,2.47,.18,.22,.35,.45,.52,.68,.27,.36,.53,.72,.84,1.05,.27,.31,.56,.59,.85,.88,.28,.27,.57,.55,.84,.85,.84,.94,1.66,1.89,2.51,2.87l.61,.71-.14,.15c-.32,.36-.62,.69-.96,.99-.07,.07-.31,.31-.87,.07-.61-.25-1.25-.48-1.88-.68-.83-.26-1.64-.26-2.55,0-.22,.05-.58-.04-.93-.13Z"/>
  <path class="cls-1" d="M280.35,211.35c-.33-.86-.99-1.29-1.63-1.69-.21-.13-.42-.27-.63-.42-.69-.52-1.44-.97-2.17-1.4-1.51-.91-2.94-1.76-3.94-3.21-.15-.23-.33-.45-.51-.68-.39-.49-.75-.96-.89-1.46-.13-.47-.07-1.02-.02-1.59,.03-.3,.06-.59,.06-.88,0-.6,.31-1.22,.64-1.87,.18-.37,.38-.76,.51-1.15,.17-.49,.44-.95,.72-1.43,.57-.96,1.16-1.96,.93-3.29l-.04-.23h-.24c-.67-.02-1.34-.04-2.01-.07-.09,0-.18,0-.27,0-1.61,0-3.07,.6-4.67,1.92-.65,.53-1.46,.9-2.25,1.27-.28,.13-.56,.26-.84,.39-.31,.15-.66,.27-.99,.39-.19,.07-.39,.14-.57,.21l-.49,.19c-.06-.08-.12-.16-.2-.22-.3-.25-.61-.48-.92-.71-.45-.33-.9-.67-1.31-1.05-.56-.53-1.07-1.14-1.56-1.74-1.19-1.44-2.42-2.93-4.5-3.46-.15-.04-.32-.15-.49-.27-.09-.06-.18-.12-.27-.17l-.31-.19-.11,.35c-.03,.11-.07,.21-.12,.32-.11,.27-.23,.56-.23,.86,0,1.88,.04,3.84,.11,6,.02,.68,.09,1.37,.15,2.04l.07,.71c.02,.16,.05,.31,.07,.47,.04,.24,.08,.46,.07,.67,0,.18,0,.38,0,.59,.01,.33,.03,1.02-.1,1.11-.61,.4-1.25,.73-1.93,1.07-.91,.47-1.86,.95-2.72,1.64-.98,.79-2.21,1.35-3.39,1.88-.6,.27-1.22,.56-1.81,.87-1.47,.77-1.84,1.79-1.18,3.2,.34,.74,1.46,1.5,2.35,1.58,.82,.06,1.71-.02,2.55-.11,.61-.06,1.25-.13,1.87-.13h.21c.23,.02,.51,0,.76,0,1.04-.03,1.98-.06,2.72,.76,.2,.23,.44,.42,.68,.6,.15,.11,.3,.23,.44,.36,.27,.25,.57,.49,.88,.73,.68,.53,1.33,1.04,1.63,1.69,.38,.82,.68,1.69,.97,2.55,.43,1.24,.86,2.52,1.58,3.7,.31,.51,.56,1.05,.81,1.63,.48,1.06,.97,2.16,1.91,3.03l.22,.21,.2-.23c.07-.09,.14-.15,.2-.22,.14-.14,.28-.28,.32-.48,.07-.37,.14-.74,.22-1.12,.22-1.09,.44-2.21,.49-3.33,.04-.73,.18-1.42,.33-2.16,.18-.88,.36-1.77,.36-2.72,0-.97,.51-1.98,1.01-2.97,.11-.23,.23-.45,.34-.69,.11-.24,.64-.55,.94-.55h.02c1.43,.09,2.88,.23,4.28,.36,1.14,.11,2.27,.22,3.41,.3,.36,.05,.71-.03,1.05-.09,.33-.06,.66-.13,.92-.09,1,.08,2.01,.2,2.99,.32,.61,.07,1.23,.15,1.85,.22,.39,.04,.83-.17,1.14-.57,.36-.48,.48-1.09,.31-1.55Zm-19.02-14.52c-.04-.06-.07-.13-.11-.2,0,0,0-.01,0-.02l.38,.09c.52,.12,.99,.07,1.4,.04,.19-.02,.39-.04,.59-.04,1.12-.01,1.93-.32,2.71-1.02,1.6-1.47,3.4-2.34,5.47-2.65l-.43,.76c-.56,1-1.09,1.93-1.6,2.88-.13,.23-.27,.46-.42,.69-.52,.84-1.06,1.7-.89,2.87,.03,.22,.02,.47,0,.72,0,.18-.02,.35-.01,.53,.01,.25-.01,.53-.03,.81-.05,.72-.1,1.46,.29,1.92,1.67,1.91,3.74,4.29,6.51,5.69,.44,.22,.85,.55,1.19,.84,.06,.06,.14,.19,.16,.26-.09,.11-.24,.22-.3,.23-.46-.02-.93-.07-1.39-.12-.28-.03-.56-.06-.84-.09-.42-.03-.84-.06-1.25-.08-.65-.04-1.33-.08-1.98-.15-.69-.06-1.38-.01-2.05,.04-1.16,.1-2.24,.19-3.25-.35-.84-.45-1.52-.18-2.12,.06-.15,.06-.31,.13-.48,.18-1.07,.32-1.3,1.19-1.5,1.97-.06,.21-.11,.43-.19,.63-.09,.24-.18,.48-.27,.72-.36,.95-.73,1.94-.9,2.95-.24,1.39-.35,2.82-.45,4.2-.04,.49-.07,.98-.12,1.47-.03,.36-.02,.71-.01,1.06,0,.03,0,.05,0,.07-.12-.26-.24-.52-.36-.78-.36-.79-.73-1.58-1.07-2.38-.53-1.24-.96-2.34-1.31-3.36-.11-.34-.17-.68-.24-1.05-.05-.31-.11-.61-.19-.92-.51-1.82-1.88-2.88-3.21-3.91-.34-.27-.69-.53-1.01-.81-1.15-.98-2.46-1.25-3.79-1.25-.77,0-1.55,.09-2.31,.17-.37,.04-.74,.09-1.1,.11-.81,.07-1.61,.11-2.42,.15-.32,.02-.65,.03-.98,.05-.01-.02-.02-.05-.02-.08,.19-.18,.37-.36,.56-.55,.48-.49,.94-.97,1.49-1.24,1.99-1,3.59-1.92,5.05-2.91,.82-.55,1.75-.98,2.66-1.4,.45-.21,.9-.42,1.35-.64,.2-.1,.52-.39,.51-.68-.01-.38,.06-.75,.14-1.14,.12-.57,.24-1.16,.1-1.84-.17-.85-.14-1.73-.1-2.67,.02-.53,.04-1.08,.02-1.62-.04-1.04-.13-2.08-.22-3.18-.03-.35-.06-.72-.09-1.09,1.59,1.06,2.57,2.33,3.32,3.46,.82,1.22,2.01,2.67,3.98,3.12,.24,.06,.49,0,.71-.05,.08-.02,.16-.03,.23-.05l.45-.06-.24-.38Z"/>
  <path class="cls-1" d="M476.14,370.37c-.21-.36-.46-.77-.77-1.15-.21-.24-.5-.33-.77-.4-.53-1.08-1.45-1.71-2.26-2.27-.59-.41-1.15-.79-1.55-1.3-.39-.51-.91-.97-1.5-1.33-.77-.49-1.55-.95-2.33-1.41l-.13-.08c-1.09-.65-2.21-1.32-3.28-2.03-.63-.42-1.23-.92-1.82-1.42l-.07-.05c-.55-.46-1.12-.95-1.72-1.37-.71-.49-1.45-.93-2.28-1.4-.47-.26-.94-.53-1.4-.82-2.2-1.35-4.04-2.52-5.81-3.68-.1-.06-.22-.21-.29-.31,.2-.48,.24-.97,.28-1.46,.05-.53,.08-.99,.38-1.34,.28-.33,.39-.81,.36-1.15-.07-1.23,.26-2.37,1.03-3.48,.33-.48,.71-1.05,1-1.67,.26-.55,.49-1.1,.72-1.65l.08-.18c.33-.77,.66-1.56,1.05-2.29,.57-1.09,1.2-2.17,1.79-3.17,.47-.81,.94-1.61,1.38-2.43,.16-.29,.22-.59,.29-.92,.05-.22,.1-.45,.19-.55,1.3-1.5,1.96-3.36,2.07-5.84,.05-1.13-.36-2.23-1.12-3.02-.72-.75-1.7-1.16-2.8-1.16-1.46,.01-2.95,.46-4.15,.83-.76,.23-1.47,.59-2.1,.91l-.33,.17c-.18,.09-.36,.18-.53,.26l-.83,.36c-.57,.25-1.17,.53-1.76,.83-.48,.25-.95,.53-1.41,.8l-.15,.08c-.34,.21-.68,.41-1.03,.6-.23,.12-.47,.22-.71,.33l-.07,.03c-.34,.14-.69,.3-1.01,.5-.26,.16-.45,.36-.63,.56l-.05,.06c-.15,.16-.29,.31-.42,.37-3.27,1.53-6.48,2.96-8.62,3.91l-.4,.19c-.98,.45-1.57,.68-2.24,.05-.3-.27-.81-.41-1.16-.37-1.07,.19-1.98-.38-2.93-.96-.33-.21-.67-.42-1.02-.6-.38-.19-.73-.47-1.15-.8-.31-.25-.63-.51-1-.74-.58-.35-1.16-.69-1.75-1.03l-.42-.24c-1.04-.6-2.05-1.18-3.02-1.83-1.02-.68-2.06-1.45-2.9-2.08l-.21-.16c-.7-.52-1.42-1.04-2.14-1.55-2.19-1.52-4.02-2.78-5.95-3.95-1.29-.78-2.52-.89-3.48-.31-1,.57-1.58,1.78-1.54,3.23,.03,1.39,.1,2.8,.18,4.24,.04,.73,.08,1.47,.13,2.2l.03,.55c.06,.97,.11,1.93,.15,2.89,.04,.92,.06,1.83,.08,2.75v.58c.02,.73,.04,1.47,.06,2.2,.01,.43,.02,.86,.02,1.31,.01,1.14,.02,2.32,.2,3.48,.14,.88,.42,1.73,.71,2.63l.03,.08c.14,.45,.29,.91,.41,1.36,0,.03-.02,.07-.03,.1-1.45,.59-2.18,1.76-2.88,2.89-.31,.49-.61,.96-.96,1.38-1.41,1.64-2.64,3.46-3.45,4.7-.74,1.12-1.7,2.03-2.62,2.93l-.76,.72c-.62,.61-1.33,1.18-2.01,1.74l-.11,.08c-1.07,.85-2.02,1.63-2.84,2.56-.83,.92-1.83,1.64-2.8,2.32-.54,.38-1.15,.81-1.72,1.29-.75,.62-1.31,1.41-1.87,2.2l-.16,.24c-.1,.13-.19,.27-.28,.39-.37,.49-.14,1.24-.09,1.39,.69,2.02,2.73,2.28,3.77,2.28,.07,0,.13,0,.19,0,1.05-.03,2.22,.05,3.26,.14,1.63,.14,3.31,.28,5.06-.04,1.67-.28,3.35-.48,5.21-.7l1.26-.14c.99-.12,1.95-.23,2.89-.23h.08c.78,0,1.59,.11,2.33,.3,.29,.07,.58,.13,.88,.19,1.16,.24,2.17,.45,2.79,1.47,.25,.4,.74,.49,1.09,.56,.1,.02,.21,.04,.31,.08l.36,.12c.05,.63,.08,1.27,.05,1.9-.06,.94,.04,1.87,.14,2.81,.03,.26,.06,.53,.08,.78l.1,1.02c.11,1.12,.23,2.27,.27,3.38,.03,.86,.02,1.72,0,2.56-.03,1.72-.06,3.5,.31,5.29,.46,2.24,.21,4.57-.04,6.86-.05,.44-.1,.88-.14,1.32-.08,.88-.09,1.74-.1,2.65,0,.42-.02,.84-.02,1.3l-.03,1.04,.8-.21c.43-.11,.81-.23,1.23-.36,.68-.21,1.21-.37,1.71-.37,1.07,0,1.3-.77,1.41-1.12,.04-.14,.07-.18,.07-.19l.51-.54c1.43-1.47,2.91-2.99,4.2-4.63l.33-.4c1.74-2.22,3.55-4.52,4.94-7.02,.24-.44,.54-.84,.92-1.35,.61-.83,1.24-1.68,1.5-2.8,.02-.08,.25-.28,.37-.39,.14-.12,.28-.25,.42-.39l.16-.19v-.25c-.04-.74,.43-1.31,1.01-2.02,.37-.46,.75-.93,1-1.51,.21-.49,.53-1,.82-1.47,.5-.83,1.03-1.68,1.18-2.65,.11-.72,.52-1.31,.92-1.88,.28-.4,.58-.83,.81-1.34v.07s1.58,.05,1.58,.05c.92,.05,1.65,.06,2.28,.04,.85-.04,1.68-.11,2.6-.21,.51-.05,1.03-.1,1.54-.14,2.19-.17,4.39-.33,6.57-.48,.28-.02,.56-.04,.84-.07,.71-.07,1.48-.1,2.11-.07,1.07,.1,2.15,.26,3.16,.42l.14,.02c.63,.1,1.27,.19,1.91,.28,.68,.08,1.37,.13,2.09,.17l.52,.03c.43,.03,.86,.06,1.29,.1l.37,.03c.95,.07,1.94,.14,2.92,.16l.77,.02c.53,.01,1.07,.02,1.62,.02,1.1,0,2-.05,2.81-.17,1.12-.18,2.19-.58,3.28-.99,.35-.13,.69-.26,1.03-.39,.33-.11,.61-.28,.88-.44l.08-.05c.11-.07,.22-.14,.34-.2l.58-.33-.66-1.02Zm-41.26,1.32c-.18,0-.36,0-.51,.08-1.11,.45-1.62,1.38-2.06,2.2-.08,.14-.16,.28-.23,.43-1.13,1.96-2.24,3.86-3.5,5.67-.28,.4-.5,.83-.72,1.27-.19,.37-.37,.72-.6,1.04-.19,.28-.39,.55-.6,.83-.54,.72-1.21,1.63-1.76,2.55-.32,.53-.59,1.1-.86,1.65l-.05,.12c-.31,.65-.59,1.23-.91,1.76-.24,.39-.52,.74-.86,1.15-.39,.49-.89,1.1-1.27,1.83-.54,1.07-1.38,2.07-2.18,3.03-.37,.43-.73,.87-1.08,1.32-.14,.19-.29,.39-.43,.59l-.25,.34c-.47,.64-1.01,1.37-1.59,1.99-.35,.38-.8,.72-1.23,1.03,.09-.45,.18-.91,.22-1.38,.05-.57,.05-1.14,.06-1.69v-.49c0-.3,.01-.6,.02-.9,.01-.24,.04-.47,.07-.7,.06-.46,.11-.92,.07-1.4-.08-.75-.21-1.5-.32-2.23l-.02-.14c-.17-1.07-.34-2.18-.42-3.27-.07-1.17-.05-2.35-.02-3.5,.02-.81,.04-1.73,.01-2.62-.02-1.15-.13-2.29-.22-3.28l-.09-1.01c-.04-.49-.11-.99-.19-1.52-.15-1-.3-1.93-.14-2.81,.23-1.45-.39-2.2-1.12-3.09l-1.18-1.48-.23,1.39c-.02,.16-.04,.29-.07,.42-.16-.26-.37-.46-.65-.56-.54-.19-1.05-.47-1.59-.77l-.1-.05c-.98-.56-2.11-1.19-3.48-1.19-.14,0-.27,0-.39,0h-.08c-.45,0-.92-.07-1.48-.17-.47-.08-1.05-.19-1.63-.19-.4,0-.81,.14-1.15,.28l-.08,.03c-.18,.07-.44,.13-.55,.14-1.18-.35-2.37-.11-3.39,.08l-.89,.18c-1.74,.36-3.39,.69-5.14,.57-.54-.04-1.08-.03-1.61,0h-.4c-.6,.04-1.22,.06-1.8-.01-.62-.05-1.25-.27-1.93-.48l-.11-.04,.14-.16c.42-.53,.78-.98,1.2-1.21,1.35-.72,2.51-1.7,3.54-2.56l.25-.21c.8-.66,1.53-1.41,2.23-2.14,.42-.43,.84-.86,1.28-1.28,.72-.71,1.56-1.46,2.53-2.31,.33-.28,.66-.54,1.01-.8,.71-.54,1.44-1.09,2.01-1.81,.85-1.06,1.59-2.22,2.23-3.23l.08-.13c.4-.62,.8-1.23,1.21-1.83,.67-.97,1.39-1.93,2.08-2.85l.79-1.06,1.46,1.32v-1.39c0-.21,0-.4,.01-.56,.01-.32,.02-.57-.02-.84-.11-.62-.24-1.24-.37-1.93-.23-1.14-.46-2.32-.54-3.46-.11-1.72-.12-3.48-.13-5.18v-.27c0-.96,0-1.93-.02-2.88-.02-1.16-.05-2.4-.16-3.64-.07-.7-.15-1.39-.25-2.15l-.04-.27c-.11-.91-.22-1.85-.27-2.78-.07-1.24,.08-2.52,.23-3.6,.01-.05,.1-.16,.19-.27,.08,.06,.15,.13,.23,.19,.49,.42,.91,.77,1.39,1.07,.37,.22,.75,.39,1.13,.55l.08,.04c.42,.18,.77,.33,1.09,.53,.79,.51,1.59,1.07,2.34,1.6,.46,.33,.93,.65,1.39,.97,1.51,1.02,3.02,2.04,4.54,3.05l2.69,1.79c.83,.56,1.7,1.13,2.52,1.73l.65,.46c1.85,1.35,3.76,2.74,6.26,2.97,.03,.01,.1,.1,.13,.13,.18,.18,.7,.76,1.62,.43,.87-.34,1.79-.62,2.69-.89l.1-.03c1.09-.33,2.23-.68,3.33-1.13,.53-.22,1.07-.45,1.64-.67,2.11-.86,4.28-1.74,6.26-3.02,.55-.36,1.18-.61,1.85-.89,.45-.18,.97-.39,1.47-.65,.63-.33,1.24-.68,1.86-1.04,.8-.46,1.7-.99,2.61-1.4,1.09-.5,2.31-.78,3.36-1,.82-.15,1.33-.11,1.39-.11,.4,.52,.63,1.39,.55,2.02-.13,.97-.63,1.99-1.1,2.86-.96,1.83-1.99,3.66-2.99,5.44l-.81,1.44c-.08,.13-.21,.27-.33,.42-.27,.31-.61,.69-.64,1.19-.08,1.28-.71,2.35-1.36,3.48-.41,.71-.87,1.5-1.17,2.36-.16,.45-.36,.9-.57,1.41-.33,.78-.66,1.58-.86,2.43-.29,1.26-.46,2.49-.64,3.87l-.05,.42c-.05,.38-.1,.75-.16,1.13l-.06,.46,.43,.19c.27,.11,.53,.21,.76,.3,.42,.15,.77,.28,1.01,.47,2.12,1.67,4.39,3.16,6.51,4.51,1.04,.67,2.06,1.44,3.04,2.2l.14,.11c.85,.66,1.69,1.3,2.55,1.89,1.2,.83,2.42,1.62,3.77,2.49,1.1,.71,2.2,1.41,3.27,2.14,1.05,.72,2.03,1.54,3.11,2.46,.25,.22,.48,.47,.73,.76-.35,.14-.69,.26-1.02,.33-.33,.06-.66,.13-1,.21l-.21,.04c-.99,.21-2.03,.42-2.94,.33-.74-.07-1.5-.18-2.23-.28l-.1-.02c-.75-.1-1.54-.22-2.32-.29-.28-.03-.55-.08-.83-.12-.36-.07-.73-.13-1.1-.15-1.07-.08-2.15-.14-3.27-.21l-1.09-.06c-.59-.04-1.17-.08-1.76-.12l-.53-.04c-1.25-.09-2.53-.19-3.81-.13-1.29,.02-2.58,.2-3.83,.37-.57,.08-1.14,.16-1.72,.22l-.76,.09c-.55,.06-1.1,.12-1.64,.16-.5,0-1.02-.03-1.45-.07-.87-.11-1.85-.22-2.83,.19-.59,.24-1.14,.52-1.73,.83l-.58,.29,.04-.21-1.06,.04Z"/>
  <path class="cls-1" d="M229.49,404.54l-.18-.35-.32,.25c-.22,.18-.42,.33-.61,.48l-.03-.49-.27,.47c-.06-.05-.1-.11-.19-.11-1.94,.03-3.94-.06-5.91,.18-1.52,.19-3.04,.52-4.5,.84-.62,.14-1.25,.27-1.86,.4-.6,.12-1.21,.23-1.82,.34-1.43,.25-2.91,.52-4.32,.95-1.8,.55-3.58,1.25-5.3,1.91-.66,.26-1.32,.51-1.97,.76-1-2.83-2.86-4.9-4.66-6.89-.84-.93-1.7-1.89-2.44-2.89-1.76-2.38-3.75-4.63-5.68-6.8-.85-.96-1.7-1.91-2.53-2.88l-.29-.34-.25,.37c-.14,.2-.24,.38-.34,.54-.11,.19-.21,.36-.3,.45-.07-.05-.18-.12-.27-.18-.16-.1-.34-.22-.54-.34l-.36-.2-.12,.4c-.12,.4-.25,.8-.38,1.19-.29,.87-.56,1.69-.7,2.56-.44,2.88-.81,5.89-1.1,8.94-.07,.78-.04,1.58,0,2.34,.02,.55,.05,1.12,.03,1.67-.06,2.33-.16,4.23-.3,5.99-.05,.56,.03,.93,.27,1.19,.19,.23,.49,.34,.91,.36h.32s.03-.4,.03-.4c.27-2.92,.52-5.78,.78-8.63l.13-1.47c.12-1.25,.23-2.49,.37-3.73,.14-1.2,.32-2.48,.59-4.06,.2-1.23,.43-2.54,.75-3.81,.05-.07,.35-.23,.6-.25,.17,.01,.41,.09,.54,.23,.27,.28,.49,.6,.72,.94,.08,.12,.16,.24,.25,.36l6.39,8.9c.88,1.22,1.76,2.44,2.62,3.67,.43,.61,.88,1.21,1.32,1.8l.45,.6c.11,.14,.22,.32,.34,.49,.37,.58,.76,1.17,1.28,1.17h.14c2.09,0,3.86-.17,5.4-.53,1.12-.26,2.2-.65,3.26-1.03,.94-.34,1.91-.69,2.87-.93,2.37-.6,4.75-1.01,7.39-1.43,2.02-.34,3.99-.64,5.93-.69h.12c.45-.01,.88-.03,1.29-.14l-.14,.25,.88-.72s.05-.03,.07-.05c0,0,0,.02,0,.02,.07,.42,.14,.82,.03,1.1l-.14,.36c-.54,1.44-1.09,2.92-1.94,4.15-1.58,2.25-3.42,4.59-5.64,7.14-.88,1.01-1.85,1.97-2.81,2.9-.8,.78-1.62,1.6-2.39,2.43-.39,.43-.58,.99-.77,1.54-.08,.23-.16,.46-.25,.68l-.15,.34,.36,.1c.29,.08,.58,.18,.78,.23,.07,.34,.13,.67,.19,.99,.15,.86,.29,1.67,.57,2.44,.19,.54,.48,1.05,.77,1.54,.28,.47,.54,.91,.71,1.39,.14,.38,.29,.75,.43,1.12,.57,1.4,1.1,2.72,.91,4.21-.01,.09-.06,.23-.12,.36-.11,.29-.23,.58-.05,.83,.74,.99,.88,2.13,1.02,3.34,.05,.45,.1,.91,.19,1.36,.11,.58,.27,1.16,.42,1.72,.19,.67,.38,1.37,.47,2.05,.07,.5-.1,1.18-.4,1.62-.27,.4-.48,.34-1.05,.13-.25-.1-.51-.19-.79-.2-1.56-.06-2.7-.79-3.91-1.57-.29-.19-.58-.38-.87-.55-.46-.28-.91-.59-1.36-.9-.49-.34-1-.69-1.52-1.01-.85-.51-1.71-1-2.58-1.49-1.15-.66-2.34-1.33-3.48-2.04-.51-.31-.99-.7-1.46-1.08-.7-.57-1.43-1.16-2.27-1.52-1.28-.56-1.5-1.15-.98-2.54l.23-.62-.64,.18c-.23,.06-.43,.11-.61,.16-.36,.09-.68,.16-.97,.3-1.22,.57-2.08,1.53-2.92,2.46-.38,.43-.77,.86-1.18,1.25-.85,.78-1.54,1.75-2.2,2.68-.4,.56-.8,1.13-1.23,1.65-.76,.91-1.54,1.8-2.32,2.7-.86,.99-1.76,2-2.6,3.04-1.19,1.45-2.33,2.94-3.55,4.51-.33,.43-.66,.86-1.01,1.3-.27-8.32,.37-16.5,1.06-24.18l2.59,.03-.48-.56c-1.58-1.82-2.96-2.63-4.79-2.81-.82-.08-1.63-.29-2.47-.52-.51-.14-1.02-.27-1.54-.38-.69-.14-1.4-.23-2.09-.32l-.68-.09c-.73-.1-1.46-.19-2.19-.28-1.89-.23-3.84-.47-5.74-.81-.54-.1-1.06-.43-1.61-.78-.23-.14-.45-.29-.67-.42l-.16-.08c-.16-.08-.53-.29-.56-.37,0-.11,.24-.44,.44-.56,1.5-.84,3.11-1.73,4.77-2.51,1.61-.75,3.33-1.47,5.11-2.13,.92-.34,1.87-.66,2.79-.95,1.07-.35,2.17-.71,3.24-1.12,.97-.38,1.92-.86,2.83-1.32,.41-.21,.81-.42,1.21-.61l.26-.12-.38-1.17-.9,.19c-.56,.12-1.15,.24-1.72,.4-.24,.06-.44,.19-.64,.31-.14,.08-.28,.17-.41,.22-.91,.32-1.82,.64-2.74,.95-1.66,.57-3.38,1.17-5.04,1.83-.88,.36-1.77,.68-2.67,1.01-2.9,1.06-5.91,2.17-8.43,4.21-.26,.22-.39,.53-.52,.84-.05,.12-.1,.23-.16,.34l-.24,.45,.51,.04c.13,.01,.26,.03,.39,.04,.27,.03,.54,.06,.82,.06,.01,0,.1,0,.16-.01l-.31,.6,.85,.67c.25,.19,.49,.38,.73,.58,1.19,.97,2.78,2.02,4.9,2.02,.27,0,.55-.02,.84-.05,.84-.12,1.67-.03,2.28,.23,2.41,1.04,4.99,1.41,7.48,1.77,.58,.08,1.15,.17,1.73,.26,.54,.08,1.08,.22,1.52,.33l.12,.03c-.03,.35-.06,.69-.08,1.02-.08,.89-.14,1.73-.26,2.55-.12,.87-.25,1.74-.4,2.61-.24,1.52-.49,3.1-.62,4.66-.13,1.62-.14,3.28-.16,4.88-.01,.98-.02,1.97-.05,2.94-.05,1.15-.12,2.31-.19,3.46-.07,1.1-.14,2.19-.18,3.28-.03,.8,.27,1.45,.8,1.74,.19,.1,.39,.15,.6,.15,.32,0,.65-.11,.96-.33,1.04-.72,2.07-1.67,3.24-2.99,1.12-1.28,2.22-2.6,3.29-3.88,.85-1.02,1.7-2.04,2.57-3.05,.56-.66,1.18-1.3,1.77-1.93,.58-.62,1.17-1.25,1.74-1.89,1.08-1.25,2.14-2.52,3.18-3.77,.41-.49,.81-.98,1.21-1.46,.58,.47,1.14,.92,1.7,1.37,1.56,1.25,3.02,2.44,4.53,3.61,.72,.54,1.51,1.01,2.28,1.45l.54,.32c.53,.32,1.09,.62,1.64,.91,1.09,.59,2.22,1.2,3.17,1.98,2.27,1.85,4.43,2.81,6.8,3.02,1.39,.15,3.16,.05,4.14-1.63,.16-.27,.64-1.19,.51-2.05-.48-3.04-1.06-6.02-1.57-8.54-.09-.46-.28-.89-.45-1.3-.12-.28-.24-.56-.33-.84-.21-.69-.41-1.39-.61-2.08-.35-1.24-.71-2.52-1.16-3.75-.37-1.01-.82-2.01-1.26-2.98-.34-.75-.69-1.53-1-2.31-.14-.34-.25-.81-.05-1.15,.16-.28,.51-.46,1.04-.53,.2-.03,.48-.14,.64-.34,.32-.42,.64-.83,.95-1.25,.53-.69,1.07-1.41,1.63-2.08,.64-.75,1.29-1.49,1.95-2.22,.76-.85,1.55-1.73,2.29-2.63,1.73-2.11,3.61-4.69,4.43-7.87l.05-.22c.37-1.41,.78-3.02-.06-4.62Z"/>
  <path class="cls-1" d="M167.61,302.87c-.13-.06-.27-.12-.47-.19-.13-.05-.4-.15-.45-.22-1.06-1.35-2.09-2.78-3.09-4.16l-.3-.42c-.06-.1-.11-.22-.17-.34-.1-.25-.22-.49-.42-.69-.42-.45-.87-.89-1.31-1.33-.76-.74-1.62-1.58-2.32-2.48-.36-.47-.9-1.41-.47-2.51,.55-1.34,1.06-2.74,1.53-4.16,.49-1.5,.94-3.04,1.36-4.53l.1-.33c.09-.28,0-.53-.06-.71l-.24-1.06-.58,.43c-.18-.4-.38-.86-.68-1.25-.24-.34-.87-.96-1.53-.96-.02,0-.05,0-.11,0-.8,.1-1.64,.39-2.38,.81-.86,.5-1.71,1.05-2.52,1.59l-.09,.06c-.53,.35-1.07,.71-1.61,1.04-.24,.15-.48,.31-.73,.46l-.29,.19c-1.07,.69-2.19,1.4-3.33,1.97-.55,.26-1.42,.3-1.65,.14-.96-.71-1.87-1.54-2.75-2.34l-.19,.22s0,0,0,0l.11-.3c-.57-.52-1.15-1.05-1.75-1.54-1.59-1.33-2.92-2.33-4.16-3.16-.76-.53-1.36-.46-1.73-.3-.53,.22-.89,.76-1.02,1.5l-.1,.52c-.18,.92-.36,1.87-.03,2.95,.19,.63,.28,1.29,.38,2v.1c.08,.55,.16,1.14,.29,1.72,.45,1.91,.93,3.75,1.34,5.32l.37,1.42c-.18,.1-.35,.2-.51,.3l-.07,.05c-.44,.26-.82,.49-1.19,.66-2.54,1.15-4.56,2.97-6.35,4.76-.42,.42-.66,.94-.89,1.46-.09,.21-.18,.42-.3,.61l-.26,.48,.32,.21v.03c-.09,.17-.16,.34-.23,.51l-.19,.47,.43,.25c.27,.16,.54,.32,.81,.5l.08,.05c.61,.39,1.25,.78,1.95,1.05,.83,.32,1.71,.51,2.56,.68l.25,.06c.28,.06,.56,.12,.84,.18l.31,.08c.36,.09,.8,.2,1.31,.2,1.51-.03,3.04-.09,4.61-.16l.92-.04c.05,.18,.09,.38,.13,.57,.88,4.07,2.54,7.84,4.94,11.23,.31,.44,.74,.72,1.19,1.01,.18,.11,.35,.23,.51,.35l.45,.34,.35-.44c.07-.09,.13-.15,.19-.23l.26-.31-.2-.35-.17-.31,.42,.49,.44-.39c.09-.08,.19-.15,.3-.23l.1-.07c.36-.26,.76-.55,.94-1,.29-.67,.5-1.37,.7-2.05l.05-.14c.14-.45,.27-.9,.42-1.35,.1-.26,.22-.52,.39-.88,.23-.5,.48-1.01,.55-1.6,.19-1.56,.3-3.11,.42-4.74l.02-.28c.03-.48,.06-.97,.1-1.46,.19,.04,.38,.08,.56,.13l.19,.04c.8,.18,1.55,.34,2.31,.47l1.02,.15c2.21,.34,4.5,.69,6.78,.88,.11,0,.23,.02,.35,.04l.21,.03c.89,.11,2.12,.26,2.94-.87l.42-.57-.64-.3Zm-29.61,.12h0s0,0,0,0h0Zm5.31,2.56c-.5-2.12-1.11-3.1-3.32-3.1-.27,0-.56,.02-.88,.05-.36,.03-.73,.11-1.07,.19l-.1,.02h0c-.57,.14-1.13,.27-1.51,.13-.91-.34-1.85-.47-2.82-.61-1.28-.18-2.49-.34-3.56-1.03-.32-.2-.68-.32-1.05-.41,.18-.14,.35-.29,.52-.45,.33-.33,.64-.67,.96-1.02l.16-.17c.66-.72,1.34-1.48,2.09-2.06,1.62-1.25,3.46-2.32,5.1-3.28,.85-.5,1.09-1.05,.86-2.02-.27-1.16-.48-2.34-.71-3.66l-.07-.45c-.07-.37-.13-.74-.2-1.1l-.16-.93c-.22-1.23-.44-2.47-.68-3.7-.12-.65-.25-1.29-.39-1.94l-.16-.8c.18,.15,.35,.3,.51,.45,.2,.21,.4,.44,.6,.68,.28,.34,.6,.72,.98,1.04,1.25,1.07,2.56,2.09,3.68,2.95,.26,.2,.52,.43,.79,.65,.8,.68,1.62,1.39,2.61,1.59,1.64,.33,2.97,.06,4.08-.81,1-.79,2.14-1.45,3.3-2.12l.41-.24c.41-.24,.82-.48,1.23-.73,.54-.34,1.07-.68,1.61-1.02l.44-.28c.3-.19,.59-.38,.88-.56,.31-.19,.63-.16,.78-.08,.08,.05,.09,.09,.09,.13,.01,.79-.06,1.39-.23,1.88-.31,.96-.64,1.91-.98,2.85l-.13,.37c-.38,1.06-.76,2.16-1.11,3.25-.03,.09-.09,.21-.15,.35-.22,.44-.51,1.05-.18,1.6,.06,.1,.14,.19,.22,.26l-.52,.09,7.92,10.56h-.23c-.7-.03-1.36-.06-2.01-.14-1.01-.1-2.02-.23-3.04-.36l-.56-.07c-.65-.09-1.3-.17-1.95-.25-.51-.06-1.21,.03-1.48-.14-.6-.39-1.17-.49-1.59-.28-.66,.29-.81,1.13-.89,1.54-.1,.64-.19,1.29-.27,1.92l-.06,.49c-.11,.94-.25,2.02-.44,3.05-.39,2-.93,4.04-1.4,5.84l-.03,.1c-.13,.45-.31,.87-.53,1.38-.1,.22-.19,.44-.28,.66l-.09,.19c-.21-.37-.43-.74-.64-1.11-.92-1.59-1.88-3.25-2.73-4.94-.67-1.31-1.19-2.78-1.57-4.37Z"/>
  <path class="cls-1" d="M358.57,470.67l-.27-.48c-.1-.18-.18-.37-.27-.56l-.04-.09c-.23-.5-.47-1.01-.88-1.42-1.8-1.79-3.81-3.61-6.35-4.76-.38-.17-.76-.4-1.19-.66l-.07-.05c-.16-.1-.33-.2-.51-.3l.36-1.39c.44-1.69,.91-3.5,1.35-5.36,.13-.59,.22-1.19,.28-1.71v-.09c.11-.71,.2-1.37,.39-2,.34-1.08,.15-2.03-.03-2.95l-.1-.51c-.13-.75-.49-1.29-1.02-1.51-.38-.15-.96-.23-1.73,.29-1.25,.84-2.57,1.84-4.16,3.16-.6,.51-1.21,1.05-1.83,1.62-.88,.8-1.79,1.63-2.75,2.33-.24,.16-1.11,.13-1.64-.14-1.12-.55-2.19-1.22-3.37-1.98l-.98-.62c-.53-.34-1.07-.69-1.61-1.05l-.09-.06c-.82-.53-1.67-1.09-2.52-1.59-.73-.42-1.57-.71-2.37-.81h-.13c-.67,0-1.29,.63-1.52,.96-.31,.42-.52,.9-.71,1.33l-.13,.28c-.12,.03-.27,.1-.39,.19-.43,.3-.36,.68-.33,.8l.1,.32c.43,1.49,.87,3.03,1.36,4.53,.46,1.39,.97,2.79,1.52,4.16,.44,1.1-.1,2.04-.47,2.51-.69,.9-1.55,1.74-2.31,2.48-.44,.44-.89,.87-1.31,1.32-.2,.21-.31,.45-.42,.69-.06,.13-.11,.24-.16,.34l-.31,.43c-1,1.38-2.03,2.8-3.09,4.16-.06,.07-.34,.17-.52,.24-.14,.05-.28,.11-.41,.17l-.64,.3,.43,.57c.82,1.13,2.05,.97,2.99,.86l.16-.02c.12-.02,.24-.03,.36-.04,2.27-.18,4.56-.53,6.77-.88l1.02-.15c.77-.13,1.52-.29,2.31-.47l.2-.04c.18-.05,.36-.09,.55-.13,.04,.49,.07,.98,.1,1.47l.02,.27c.12,1.63,.23,3.18,.42,4.74,.07,.59,.32,1.1,.57,1.65,.15,.3,.27,.56,.36,.82,.15,.44,.28,.89,.43,1.38,.21,.71,.43,1.45,.73,2.16,.19,.45,.59,.74,.96,1.02l.08,.06c.09,.07,.18,.13,.26,.2l.27,.32c.07,.08,.13,.15,.19,.23l.35,.44,.45-.34c.16-.12,.33-.23,.51-.35,.43-.27,.87-.56,1.19-1,2.41-3.4,4.07-7.18,4.94-11.25,.04-.19,.09-.38,.13-.56l1.33,.06c1.44,.06,2.8,.13,4.27,.15,.42,0,.81-.09,1.23-.2l.32-.08c.27-.06,.56-.13,.84-.18l.25-.06c.85-.18,1.73-.36,2.56-.68,.7-.26,1.34-.66,1.95-1.05l.09-.05c.26-.18,.53-.34,.8-.5l.43-.25-.12-.3,.53-.35Zm-11.49,1.77l-.04-.31c-.36-.09-.73-.17-1.11-.2-2.89-.26-3.63,.69-4.19,3.05-.37,1.59-.9,3.06-1.57,4.37-.85,1.69-1.81,3.34-2.73,4.94l-.49,.85s0-.01,0-.02c-.23-.51-.41-.93-.53-1.37-.51-1.93-1.05-3.94-1.43-5.95-.19-1.04-.33-2.11-.44-3.06l-.06-.43c-.09-.65-.17-1.32-.28-1.98-.1-.61-.29-1.26-.88-1.53-.43-.2-.96-.11-1.58,.28-.28,.16-.97,.09-1.49,.15-.65,.08-1.3,.16-1.94,.25l-.56,.07c-1.02,.13-2.03,.26-3.06,.36-.64,.07-1.3,.1-2,.13h-.23s7.33-9.78,7.33-9.78l.67-.74-.78-.14c0-.22,.05-.63,.07-.79,.06-.5,.13-1.02,.01-1.4-.35-1.09-.74-2.18-1.11-3.25l-.13-.37c-.34-.94-.68-1.89-.98-2.85-.16-.49-.24-1.09-.23-1.88,0-.05,.01-.09,.1-.14,.12-.07,.45-.11,.77,.08,.36,.23,.73,.47,1.09,.7l.95,.61c.3,.19,.6,.38,.9,.57,.4,.24,.82,.48,1.23,.72l.45,.26c1.11,.64,2.26,1.3,3.26,2.09,1.07,.86,2.43,1.14,4.08,.81,.98-.19,1.81-.89,2.62-1.58,.26-.23,.52-.45,.78-.65,1.12-.85,2.43-1.87,3.68-2.95,.39-.32,.71-.71,.98-1.04,.19-.23,.39-.47,.59-.68,.15-.15,.32-.3,.51-.45l-.16,.8c-.14,.65-.27,1.29-.39,1.93-.24,1.24-.46,2.47-.68,3.71l-.16,.93c-.07,.36-.13,.73-.2,1.1l-.07,.45c-.23,1.32-.43,2.5-.71,3.66-.23,.97,0,1.52,.88,2.03,1.63,.94,3.46,2.02,5.08,3.26,.73,.57,1.4,1.31,2.05,2.02l.07,.07c.32,.36,.65,.72,1,1.07-.33,.09-.65,.19-.95,.39-1.06,.68-2.27,.85-3.55,1.03-.82,.11-1.86,.26-2.83,.61-.36,.12-.89,.01-1.48-.12l-.06,.28h0Zm10.65-2.78h0s0,0,0,0h0Z"/>
  <g>
    <path class="cls-1" d="M320.98,337.89c2.19,2.79,1.59,6.17,2,9.34,.41,3.17,.91,6.33,1.13,9.51,.27,3.81-.05,7.68,.49,11.43,.69,4.88-.52,9.87,1.42,14.71,.71,1.77-.23,4.15-.21,6.26,.04,4.57,.31,9.15,.28,13.72-.01,1.38-.32,3.53-1.18,3.97-1.86,.95-3.71,3.16-6.36,1.26-2.6-1.87-5.54-3.27-8.04-5.24-1.86-1.47-3.11-3.69-4.9-5.27-3.93-3.47-5.73-8.76-10.3-11.73-1.11-.72-1.38-2.65-2.15-3.95-1.55-2.62-3.14-5.17-6-6.7-.99-.53-2.01-1.74-2.26-2.81-1.08-4.72-5.07-7.22-7.76-10.71-1.29-1.67-2.53-3.39-3.95-4.95-.75-.82-2.08-1.15-2.74-2.02-.74-.96-1.02-2.28-1.5-3.44-1.62,.37-3.27,.77-4.93,1.13-1.79,.4-3.57,.25-5.18,1.87-.97,.98-3.3,.54-4.97,.93-5.85,1.36-11.66,2.92-17.53,4.2-6.21,1.35-12.37,3.13-18.83,2.92-1.99-.06-3.99,.1-5.96-.07-1.06-.09-2.09-.69-3.05-1.39,4.54,.59,8.83-.54,13.15-1.28,4.32-.73,8.66-1.36,12.95-2.26,4.73-1,9.4-2.32,14.11-3.41,3.63-.84,7.33-1.4,10.93-2.32,3.09-.78,6.04-2.22,9.15-2.75,2.05-.35,4.28,.4,6.38,1.14-1.01,.48-2.02,.96-3.24,1.54,.84,.97,1.24,1.76,2.39,2.47,2.2,1.35,4.35,2.93,5.73,5.55,1.48,2.81,4.05,5.04,6.07,7.59,.87,1.1,1.45,2.43,2.34,3.51,.91,1.11,2.1,1.98,3.07,3.05,1.24,1.38,2.85,2.67,3.48,4.31,1.72,4.47,4.75,7.84,8.08,11.07,.92,.9,1.87,1.86,2.49,2.97,3.3,5.8,8.35,9.93,13.46,13.95,.7,.55,2.2,.58,3.07,.22,.58-.24,.97-1.59,.97-2.45,.03-4.51,.01-9.02-.19-13.52-.25-5.56-.71-11.11-1.04-16.67-.35-5.85-.76-11.7-.94-17.56-.14-4.44,.04-8.88,.08-13.33,.01-1.61,.04-3.22,.07-4.84l-.08,.04Z"/>
    <path class="cls-1" d="M205.06,360.72c-.74-2.64,.34-4.27,1.47-5.71,2.76-3.49,5.87-6.71,8.47-10.31,3.03-4.21,6.83-7.69,10.29-11.48,1.81-1.99,3.52-4.07,5.38-6.01,3.09-3.22,6.26-6.35,9.41-9.52,1.74-1.75,3.5-3.5,5.42-5.41-.77-.44-1.4-.81-2.03-1.17-.38-1.17-.46-2.74-1.27-3.65-1.73-1.93-3.85-3.52-5.8-5.25-.46-.41-.95-.78-1.36-1.23-2.02-2.21-3.93-4.52-6.04-6.64-1.65-1.66-3.64-3-5.3-4.66-2.35-2.35-4.63-4.78-6.76-7.33-1.66-1.97-3.2-4.08-4.47-6.31-.44-.78,.09-2.11,.17-3.1,6.03-.33,11.87-.69,17.71-.93,1.21-.05,2.44,.37,3.66,.57,3.05,.5,6.11,.99,9.16,1.49,2.9,.47,5.79,1.04,8.7,1.38,1.51,.18,3.07-.17,4.59-.05,3.29,.27,6.59,.56,9.83,1.11,1.02,.18,1.9,1.23,2.78,2.34-1.89-.04-3.83,.18-5.67-.16-3.72-.69-7.4-1.12-11.21-.76-1.7,.16-3.47-.63-5.23-.91-1.33-.21-2.7-.48-4.03-.41-2.98,.17-5.8-.93-8.57-1.16-3.08-.25-6.33-.91-9.58-.28-2.75,.54-5.62,.51-8.43,.62-.62,.02-1.26-.47-2.42-.94,.55,1.09,.77,1.95,1.3,2.51,3.07,3.22,6.25,6.33,9.33,9.54,1.63,1.7,2.82,4.15,4.77,5.16,3.47,1.8,5.28,5.08,7.97,7.53,2.71,2.48,4.88,5.58,7.68,7.94,2.3,1.94,3.91,4.1,4.82,6.88,.06,.19,0,.43-.04,1.13-1.4-.75-2.56-1.38-3.85-2.08-13.42,15.52-26.97,31.19-40.87,47.26Z"/>
    <path class="cls-1" d="M308.81,241.2c-2.13,1.76-4.28,3.33-6.17,5.16-2.78,2.68-5.47,5.48-8.02,8.37-3.28,3.73-6.33,7.65-9.57,11.4-2.56,2.96-5.13,5.93-7.96,8.61-1.75,1.66-4,2.81-6.63,4.6,.39-1.22,.4-1.85,.72-2.16,2.43-2.44,5.03-4.72,7.37-7.24,2.42-2.6,4.57-5.45,6.9-8.14,1.5-1.73,3.11-3.36,4.66-5.03,.74-.79,1.52-1.55,2.2-2.4,2.17-2.73,4.13-5.65,6.5-8.2,2.35-2.53,5.04-4.75,7.68-6.98,.75-.63,1.88-1.21,2.8-1.16,1.94,.1,.36,1.46,.56,2.23,.67,2.7,1.41,5.38,2.03,8.09,.77,3.34,1.55,6.68,2.11,10.06,.29,1.75,0,3.59,.12,5.38,.2,2.75,.57,5.48,.81,8.23,.07,.76-.06,1.54-.13,2.31-.46,4.9,1.25,9.4,2.49,14,.17,.64-.44,1.49-.68,2.24-.76-.26-2.04-.34-2.2-.81-1.13-3.21-3.03-6.58-2.77-9.74,.36-4.3-.07-8.43-.36-12.64-.3-4.48-.11-8.99-.51-13.45-.37-4.1-1.23-8.15-1.95-12.73Z"/>
    <path class="cls-1" d="M321.05,337.84c-2.67-.86-.64-2.29-.04-2.79,1.77-1.5,3.76-2.77,5.77-3.94,3.19-1.86,6.44-3.59,9.7-5.32,2.34-1.24,4.78-2.3,7.09-3.6,5.93-3.33,12.01-6.41,17.27-10.83,.78-.65,1.8-1.01,2.66-1.56,2.08-1.32,3.79-2.87,3.26-5.7l-.07,.04c1.65,1.11,2.16,2.87,.83,4.1-2.23,2.06-4.68,3.89-7.09,5.75-5.08,3.93-10.68,7.08-16.07,10.52-3.39,2.16-6.78,4.24-10.31,6.14-3.42,1.85-6.69,3.97-10.07,5.92-.94,.54-2,.88-3.01,1.31,0,0,.08-.04,.08-.04Z"/>
    <path class="cls-1" d="M366.77,304.11c-3.88-1.33-7.72-2.81-11.66-3.95-4.79-1.38-9.64-2.57-14.51-3.65-4.66-1.04-9.39-1.78-14.08-2.74-2.86-.59-5.69-1.34-8.53-2.01,.05-.32,.11-.64,.16-.96,1.64,.12,3.32,.08,4.93,.4,6.47,1.29,12.92,2.67,19.37,4.05,6.46,1.39,12.96,2.64,19.33,4.34,2.28,.61,4.26,2.35,6.59,3.69-.83,.44-1.25,.65-1.67,.87,0,0,.07-.04,.07-.04Z"/>
  </g>
</svg>