<?xml version="1.0" encoding="utf-8"?>
<!-- Generator: Adobe Illustrator 24.0.1, SVG Export Plug-In . SVG Version: 6.00 Build 0)  -->
<svg version="1.1" id="Layer_1" xmlns="http://www.w3.org/2000/svg" xmlns:xlink="http://www.w3.org/1999/xlink" x="0px" y="0px"
	 viewBox="0 0 690.6 218.1" style="enable-background:new 0 0 690.6 218.1;" xml:space="preserve">
<g>
	<path d="M50.6,150.8c1.3,1.9,2.8,3.5,4.6,4.9s4.3,3,7.5,4.9c3.3,2.1,6,3.9,7.9,5.4s3.6,3.3,5.1,5.6c1.4,2.2,2.1,4.8,2.1,7.8
		c0,3.3-0.9,6.2-2.6,8.8c-1.7,2.6-4.1,4.7-7.3,6.2s-6.9,2.2-11.1,2.2c-2.7,0-5.3-0.3-7.9-0.9c-2.6-0.6-4.9-1.6-6.8-2.8
		c-0.3-0.2-0.6-0.4-0.7-0.7c-0.1-0.3-0.2-0.7-0.2-1.2l-1-14.3c-0.1-0.3,0.1-0.4,0.4-0.5c0.4-0.1,0.6,0,0.6,0.3
		c1.6,5.1,3.8,9.4,6.7,12.9s6.6,5.3,11.2,5.3c3.1,0,5.8-0.9,7.9-2.6c2.1-1.7,3.1-4.5,3.1-8.4c0-2.9-0.7-5.5-2-7.7s-2.9-4.1-4.9-5.6
		s-4.4-3.2-7.6-5.1c-3.1-2-5.6-3.7-7.4-5.2c-1.8-1.4-3.4-3.2-4.6-5.3c-1.3-2.1-1.9-4.6-1.9-7.4c0-3.4,0.9-6.3,2.8-8.7
		c1.8-2.4,4.2-4.2,7.2-5.4s6.1-1.8,9.4-1.8c4.5,0,8.5,0.8,12.1,2.3c1,0.4,1.5,1,1.5,1.8l0.5,12.5c0,0.3-0.2,0.4-0.5,0.5
		c-0.3,0.1-0.5,0-0.6-0.3c-0.7-3.6-2.3-7-4.7-10.2s-5.8-4.9-10.2-4.9c-3.3,0-5.9,1-7.8,3s-2.8,4.5-2.8,7.6
		C48.7,146.7,49.3,148.9,50.6,150.8z"/>
	<path d="M136.1,136.8c-1.5-1.8-3.7-2.7-6.6-2.7c-0.2,0-0.3-0.2-0.3-0.6c0-0.4,0.1-0.6,0.3-0.6l4.5,0.1c2.4,0.1,4.3,0.2,5.7,0.2
		c1.2,0,2.9-0.1,5.2-0.2l4.3-0.1c0.1,0,0.2,0.2,0.2,0.6c0,0.4-0.1,0.6-0.2,0.6c-5.4,0-8.1,3.5-8.1,10.4v28.2
		c0,7.5-2.2,13.3-6.6,17.6c-4.4,4.3-10.2,6.4-17.4,6.4c-4.9,0-9.3-0.9-13-2.8c-3.7-1.9-6.6-4.6-8.7-8.2c-2.1-3.6-3.1-7.8-3.1-12.6
		v-32.1c0-2-0.2-3.5-0.6-4.4c-0.4-0.9-1.1-1.6-2.2-1.9c-1.1-0.4-2.9-0.6-5.2-0.6c-0.2,0-0.3-0.2-0.3-0.6c0-0.4,0.1-0.6,0.3-0.6
		l5,0.1c2.9,0.1,5.3,0.2,7,0.2c1.9,0,4.3-0.1,7.2-0.2l4.8-0.1c0.2,0,0.3,0.2,0.3,0.6c0,0.4-0.1,0.6-0.3,0.6c-2.3,0-4.1,0.2-5.1,0.6
		c-1.1,0.4-1.9,1.1-2.2,2.1s-0.6,2.4-0.6,4.4v28.4c0,7.9,1.7,13.8,5.1,17.8s8.2,6.1,14.4,6.1c5.8,0,10.4-1.8,13.7-5.4
		c3.3-3.6,5-8.7,5-15.2v-28.3C138.4,141.2,137.6,138.6,136.1,136.8z"/>
	<path d="M165.6,150.8c1.3,1.9,2.8,3.5,4.6,4.9c1.8,1.4,4.3,3,7.5,4.9c3.3,2.1,6,3.9,8,5.4s3.6,3.3,5,5.6c1.4,2.2,2.1,4.8,2.1,7.8
		c0,3.3-0.9,6.2-2.5,8.8c-1.7,2.6-4.1,4.7-7.3,6.2c-3.2,1.5-6.9,2.2-11,2.2c-2.7,0-5.3-0.3-7.9-0.9c-2.6-0.6-4.9-1.6-6.8-2.8
		c-0.3-0.2-0.6-0.4-0.7-0.7c-0.1-0.3-0.2-0.7-0.2-1.2l-1-14.3c-0.1-0.3,0.1-0.4,0.5-0.5c0.4-0.1,0.6,0,0.6,0.3
		c1.6,5.1,3.8,9.4,6.7,12.9c2.9,3.5,6.6,5.3,11.2,5.3c3.1,0,5.8-0.9,7.9-2.6c2.1-1.7,3.1-4.5,3.1-8.4c0-2.9-0.7-5.5-2-7.7
		s-3-4.1-4.9-5.6s-4.5-3.2-7.6-5.1c-3.1-2-5.6-3.7-7.5-5.2c-1.8-1.4-3.4-3.2-4.6-5.3c-1.3-2.1-1.9-4.6-1.9-7.4
		c0-3.4,0.9-6.3,2.8-8.7c1.8-2.4,4.2-4.2,7.2-5.4s6.1-1.8,9.4-1.8c4.5,0,8.5,0.8,12.1,2.3c1,0.4,1.5,1,1.5,1.8l0.5,12.5
		c0,0.3-0.2,0.4-0.5,0.5c-0.3,0.1-0.5,0-0.6-0.3c-0.7-3.6-2.3-7-4.7-10.2c-2.4-3.2-5.8-4.9-10.2-4.9c-3.3,0-5.9,1-7.8,3
		s-2.8,4.5-2.8,7.6C163.7,146.7,164.3,148.9,165.6,150.8z"/>
	<path d="M269.1,194.9c0,0.4-0.1,0.6-0.4,0.6c-1.3,0-3.3-0.1-6.1-0.2c-2.7-0.1-4.6-0.2-5.9-0.2c-1.5,0-3.4,0.1-5.7,0.2
		c-2.3,0.1-4,0.2-5.1,0.2c-0.3,0-0.4-0.2-0.4-0.6c0-0.4,0.1-0.6,0.4-0.6c2.3,0,3.9-0.2,4.9-0.7c1-0.4,1.5-1.2,1.5-2.3
		c0-1.1-0.5-2.7-1.5-4.7l-11.2-23.2h-18.4l-8.2,18.9c-0.9,2.2-1.4,4-1.4,5.5c0,4.3,3.2,6.5,9.7,6.5c0.3,0,0.5,0.2,0.5,0.6
		c0,0.4-0.2,0.6-0.5,0.6c-1.2,0-2.9-0.1-5.2-0.2c-2.5-0.1-4.7-0.2-6.6-0.2c-1.7,0-3.8,0.1-6.2,0.2c-2.1,0.1-3.9,0.2-5.2,0.2
		c-0.3,0-0.4-0.2-0.4-0.6c0-0.4,0.1-0.6,0.4-0.6c1.9,0,3.5-0.4,4.8-1.1s2.5-2,3.8-3.8s2.6-4.5,4.1-8l21.3-49.1
		c0.1-0.2,0.3-0.3,0.7-0.4c0.4,0,0.6,0.1,0.7,0.4l24.1,49.5c2.3,4.9,4.2,8.2,5.8,9.9c1.6,1.7,3.4,2.6,5.4,2.6
		C269,194.3,269.1,194.5,269.1,194.9z M222.1,161.1h16.4l-8.6-18L222.1,161.1z"/>
	<path d="M343.1,133.6c0,0.4-0.1,0.6-0.3,0.6c-5.5,0-8.2,3.5-8.2,10.4v52.2c0,0.1-0.1,0.2-0.5,0.3c-0.3,0.1-0.5,0-0.6-0.1
		l-46.9-55.6V184c0,3.5,0.6,6.1,2,7.8c1.3,1.7,3.3,2.5,6,2.5c0.2,0,0.3,0.2,0.3,0.6c0,0.4-0.1,0.6-0.3,0.6c-1.7,0-3.1,0-4-0.1
		l-5.1-0.1l-5.4,0.1c-1,0.1-2.5,0.1-4.4,0.1c-0.1,0-0.2-0.2-0.2-0.6c0-0.4,0.1-0.6,0.2-0.6c2.9,0,5-0.8,6.4-2.5s2-4.3,2-7.8v-45.4
		c-2.9-2.9-5.8-4.4-8.7-4.4c-0.2,0-0.3-0.2-0.3-0.6c0-0.4,0.1-0.6,0.3-0.6l3.9,0.1c0.8,0.1,1.9,0.1,3.4,0.1l5.2-0.1
		c0.6-0.1,1.4-0.1,2.3-0.1c0.5,0,0.9,0.1,1.1,0.3c0.2,0.2,0.6,0.8,1.1,1.6c0.6,0.9,1.4,2,2.5,3.3l37.2,44.9v-38.5
		c0-3.5-0.6-6.1-1.9-7.8c-1.3-1.7-3.2-2.6-5.9-2.6c-0.1,0-0.2-0.2-0.2-0.6c0-0.4,0.1-0.6,0.2-0.6l4,0.1c2,0.1,3.7,0.2,5.1,0.2
		c1.2,0,2.9-0.1,5.2-0.2l4.2-0.1C343,133,343.1,133.2,343.1,133.6z"/>
	<path d="M386.5,150.8c1.3,1.9,2.8,3.5,4.6,4.9s4.3,3,7.5,4.9c3.3,2.1,6,3.9,8,5.4c2,1.5,3.7,3.3,5,5.6c1.4,2.2,2.1,4.8,2.1,7.8
		c0,3.3-0.8,6.2-2.5,8.8c-1.7,2.6-4.1,4.7-7.3,6.2s-6.8,2.2-11,2.2c-2.7,0-5.3-0.3-7.9-0.9c-2.6-0.6-4.9-1.6-6.8-2.8
		c-0.3-0.2-0.6-0.4-0.7-0.7c-0.1-0.3-0.2-0.7-0.2-1.2l-1-14.3c-0.1-0.3,0.1-0.4,0.5-0.5c0.4-0.1,0.6,0,0.7,0.3
		c1.6,5.1,3.8,9.4,6.7,12.9s6.6,5.3,11.2,5.3c3.1,0,5.8-0.9,7.8-2.6s3.2-4.5,3.2-8.4c0-2.9-0.7-5.5-2-7.7s-3-4.1-4.8-5.6
		c-1.9-1.5-4.5-3.2-7.7-5.1c-3.1-2-5.6-3.7-7.5-5.2c-1.8-1.4-3.4-3.2-4.7-5.3c-1.3-2.1-1.9-4.6-1.9-7.4c0-3.4,0.9-6.3,2.8-8.7
		c1.8-2.4,4.2-4.2,7.2-5.4c3-1.2,6.1-1.8,9.3-1.8c4.5,0,8.5,0.8,12.1,2.3c1,0.4,1.5,1,1.5,1.8l0.5,12.5c0,0.3-0.2,0.4-0.5,0.5
		c-0.3,0.1-0.5,0-0.6-0.3c-0.7-3.6-2.3-7-4.7-10.2s-5.8-4.9-10.2-4.9c-3.3,0-5.9,1-7.8,3s-2.8,4.5-2.8,7.6
		C384.6,146.7,385.2,148.9,386.5,150.8z"/>
	<path d="M491.9,194.9c0,0.4-0.1,0.6-0.3,0.6c-2.1,0-3.8,0-5.1-0.1l-7.2-0.1l-7.9,0.1c-1.1,0.1-2.7,0.1-4.7,0.1
		c-0.2,0-0.3-0.2-0.3-0.6c0-0.4,0.1-0.6,0.3-0.6c2.5,0,4.4-0.2,5.6-0.5c1.2-0.3,2-1,2.4-1.9c0.4-1,0.6-2.4,0.6-4.4v-23.3h-36.4v23.3
		c0,2,0.2,3.5,0.6,4.4c0.4,1,1.2,1.6,2.4,1.9c1.2,0.3,3.1,0.5,5.6,0.5c0.1,0,0.2,0.2,0.2,0.6c0,0.4-0.1,0.6-0.2,0.6
		c-2.1,0-3.8,0-5.1-0.1l-7.7-0.1l-7.1,0.1c-1.3,0.1-3,0.1-5.2,0.1c-0.1,0-0.2-0.2-0.2-0.6c0-0.4,0.1-0.6,0.2-0.6
		c2.5,0,4.3-0.2,5.5-0.5s2-1,2.4-1.9c0.4-1,0.7-2.4,0.7-4.4v-46.3c0-2-0.2-3.5-0.6-4.4c-0.4-0.9-1.2-1.6-2.3-1.9
		c-1.1-0.4-2.9-0.6-5.4-0.6c-0.2,0-0.3-0.2-0.3-0.6c0-0.4,0.1-0.6,0.3-0.6l5.1,0.1c2.8,0.1,5.1,0.2,7,0.2c2.1,0,4.7-0.1,7.8-0.2
		l5-0.1c0.1,0,0.2,0.2,0.2,0.6c0,0.4-0.1,0.6-0.2,0.6c-2.5,0-4.3,0.2-5.5,0.6c-1.2,0.4-2,1.1-2.5,2s-0.7,2.5-0.7,4.5v20.5h36.4
		v-20.5c0-2-0.2-3.5-0.7-4.5c-0.4-1-1.2-1.6-2.4-2c-1.2-0.4-3-0.6-5.5-0.6c-0.2,0-0.3-0.2-0.3-0.6c0-0.4,0.1-0.6,0.3-0.6l4.7,0.1
		c3.1,0.1,5.7,0.2,7.9,0.2c1.9,0,4.3-0.1,7.2-0.2l5.1-0.1c0.2,0,0.3,0.2,0.3,0.6c0,0.4-0.1,0.6-0.3,0.6c-2.5,0-4.3,0.2-5.4,0.6
		c-1.1,0.4-1.9,1-2.3,1.9s-0.7,2.4-0.7,4.4v46.3c0,2,0.2,3.5,0.7,4.4c0.4,1,1.2,1.6,2.3,1.9c1.1,0.3,2.9,0.5,5.4,0.5
		C491.8,194.3,491.9,194.5,491.9,194.9z"/>
	<path d="M570.1,194.9c0,0.4-0.1,0.6-0.4,0.6c-1.3,0-3.3-0.1-6.1-0.2c-2.7-0.1-4.6-0.2-5.9-0.2c-1.5,0-3.4,0.1-5.7,0.2
		c-2.3,0.1-4,0.2-5.1,0.2c-0.3,0-0.4-0.2-0.4-0.6c0-0.4,0.1-0.6,0.4-0.6c2.3,0,3.9-0.2,4.9-0.7c1-0.4,1.5-1.2,1.5-2.3
		c0-1.1-0.5-2.7-1.5-4.7l-11.2-23.2h-18.4l-8.2,18.9c-0.9,2.2-1.4,4-1.4,5.5c0,4.3,3.2,6.5,9.7,6.5c0.3,0,0.5,0.2,0.5,0.6
		c0,0.4-0.2,0.6-0.5,0.6c-1.2,0-2.9-0.1-5.2-0.2c-2.5-0.1-4.7-0.2-6.6-0.2c-1.7,0-3.8,0.1-6.2,0.2c-2.1,0.1-3.9,0.2-5.2,0.2
		c-0.3,0-0.4-0.2-0.4-0.6c0-0.4,0.1-0.6,0.4-0.6c1.9,0,3.5-0.4,4.8-1.1s2.5-2,3.8-3.8s2.6-4.5,4.1-8l21.3-49.1
		c0.1-0.2,0.3-0.3,0.7-0.4s0.6,0.1,0.7,0.4l24.1,49.5c2.3,4.9,4.2,8.2,5.8,9.9c1.6,1.7,3.4,2.6,5.4,2.6
		C569.9,194.3,570.1,194.5,570.1,194.9z M523.1,161.1h16.4l-8.6-18L523.1,161.1z"/>
	<path d="M651.8,133.6c0,0.4-0.1,0.6-0.2,0.6c-4.8,0-8.4,3-10.8,9.1l-20.4,52.1c-0.1,0.3-0.4,0.4-1.1,0.4s-1-0.1-1.1-0.4l-13-28
		l-10.9,28c-0.1,0.3-0.4,0.4-1.1,0.4s-1-0.1-1.1-0.4L567,141.3c-1.3-2.8-2.5-4.7-3.5-5.7s-2.7-1.4-4.7-1.4c-0.2,0-0.3-0.2-0.3-0.6
		c0-0.4,0.1-0.6,0.3-0.6l3.1,0.1c1.7,0.1,3.4,0.2,4.9,0.2c3,0,6-0.1,8.9-0.2c0.9-0.1,2.2-0.1,3.8-0.1c0.2,0,0.3,0.2,0.3,0.6
		c0,0.4-0.1,0.6-0.3,0.6c-1.9,0-3.3,0.2-4.2,0.6c-0.9,0.4-1.3,1.2-1.3,2.3c0,0.9,0.5,2.4,1.4,4.5l20.3,43.3l8.1-20.5l-10.7-23.1
		c-1.1-2.5-2.3-4.3-3.5-5.4c-1.2-1.1-2.6-1.7-4.2-1.7c-0.2,0-0.3-0.2-0.3-0.6c0-0.4,0.1-0.6,0.3-0.6l3.1,0.1
		c1.6,0.1,3.1,0.2,4.4,0.2c2.5,0,4.9-0.1,7-0.2c0.7-0.1,1.6-0.1,2.7-0.1c0.2,0,0.3,0.2,0.3,0.6c0,0.4-0.1,0.6-0.3,0.6
		c-1.1,0-2,0.1-2.5,0.3c-0.5,0.2-0.8,0.7-0.8,1.2c0,0.5,0.2,1.3,0.6,2.3c0.4,1,0.9,2.2,1.5,3.5l6.4,13.7l4.9-12.4
		c0.9-2.5,1.4-4.3,1.4-5.6c0-2.1-1.2-3.1-3.7-3.1c-0.1,0-0.2-0.2-0.2-0.6s0.1-0.6,0.2-0.6l2,0.1c1.2,0.1,2.7,0.2,4.6,0.2
		c1.3,0,2.7-0.1,4.3-0.2l4.1-0.1c0.1,0,0.2,0.2,0.2,0.6s-0.1,0.6-0.2,0.6c-2.3,0-4.2,0.7-5.9,2.1c-1.7,1.4-3.1,3.7-4.4,7l-5.9,14.9
		l12.5,26.7l16.4-41.6c0.6-1.5,0.9-2.9,0.9-4.1c0-3.3-2.3-5-7-5c-0.2,0-0.3-0.2-0.3-0.6s0.1-0.6,0.3-0.6l4.3,0.1
		c2.4,0.1,4.5,0.2,6.3,0.2c1.3,0,2.9-0.1,4.6-0.2l4.3-0.1C651.7,133,651.8,133.2,651.8,133.6z"/>
</g>
<path d="M394.9,65.7c-0.1,1.1-1,1.6-1.9,2c-2.6,1.2-5.3,1.9-8.1,1.7c-3.4-0.3-5.2,1.2-6.6,4.1c-2.1,4.5-6.2,6.4-11.1,5.8
	c-1-0.1-1.1-0.2-2.4-1.2c1.1-1.1,2.6-1.2,3.8-1.7c2.4-0.9,3-1.9,2.6-4.5c-0.3-2.1-1.6-2.7-3.5-2.6c-0.5,0-0.9,0-1.4,0
	c-3.6-0.4-6.2,0.5-7.6,4.2c-1,2.6-3.5,4-5.8,5.5c-5,3.2-5.7,6.5-2.4,11.3c1.5,2.3,3.5,2.2,4.9-0.1c1-1.7,1.9-3.4,1.8-5.5
	c0-0.6-0.2-1.4,0.6-1.5c0.9-0.1,1.1,0.7,1.3,1.3c1.5,5.3-0.7,10.9-5.6,13.5c-2.4,1.2-3.4,2.9-4,5.5c-0.5,2.3-0.5,4.7-1.1,6.9
	l-1.1,2.9l-0.3,0.8c0,0-1.3,4.4-3.6,0l-0.1-0.8v0c-0.7-2.4-2.2-4.7-1.9-7.3c0.4-3.9-0.8-6.8-4.8-8c-0.2-0.1-0.4-0.2-0.6-0.3
	c-3.7-2.4-5.8-7.5-4.6-11.6c0.2-0.7,0.2-1.7,1.1-1.7c0.8-0.1,0.9,0.9,1.1,1.5c0.4,1,0.8,2.1,1,3.2c0.4,1.5,1.2,2.8,2.8,2.9
	c1.7,0.1,3-1,3.4-2.4c1.5-4.6,1.8-7.6-3.1-10.6c-2.2-1.3-4.2-2.8-5.3-5.1c-2.2-4.5-6-4.9-10.2-4.4c-1.8,0.2-2.9,1.2-3.1,3.1
	c-0.2,1.9,0.7,3.2,2.5,3.7c1.1,0.3,2.2,0.6,3.2,1c0.6,0.2,1.5,0.3,1.5,1.1c0,0.8-1,0.8-1.6,1c-5,1.2-10.5-1.2-12.5-6
	c-1.2-3-3.1-4-6.2-3.9c-3.1,0.1-6.2-0.4-8.8-2.2c0,0,0,0,0,0c-0.9-0.4-3.4-1.6,0.3-3.5v0c1.1-0.7,2.3-1.1,3.6-1.3
	c2.2-0.3,4.4-0.9,6.6-1.2c2.2-0.2,3.5-1.4,4.4-3.3c1.5-3.1,3.9-5.2,7.2-6c2.7-0.7,5.5-0.9,8.4,1c-2.2,0.9-4.2,0.8-5.9,1.8
	c-1.5,0.8-3.1,1.5-2.8,3.6c0.3,2,1.7,3.1,3.5,3.7c3.4,1,6.6-0.1,8.6-3.2c2-3.1,4.2-5.8,7.6-7.4c1.9-0.9,2.8-2.5,3-4.5
	c0.1-1.6-0.3-3.1-0.6-4.7c-0.3-1.8-1.6-2.7-3.3-2.8c-1.7,0-2.9,0.8-3.4,2.4c-0.3,1-0.5,2-0.8,3c-0.2,0.7-0.2,1.8-1.1,1.8
	c-1,0-1-1.2-1.2-1.9c-1.1-4.5,1.1-9.7,5.4-11.8c3.4-1.7,4.7-4,4.6-7.9c-0.1-3.2,0.8-6.4,3.2-8.8h1.4c2,1.9,2.8,4.2,2.9,6.9
	c0.2,4.5,1.5,8.2,6,10.5c3.9,1.9,5.7,9.1,3.8,13c-0.2,0.4-0.4,0.9-0.9,0.8c-0.7-0.1-0.6-0.7-0.7-1.2c0-2.1-0.4-4-1.9-5.6
	c-1.7-1.7-3.5-1.6-5,0.3c-2.8,3.5-2.4,7.5,1.4,10c3.5,2.3,6.2,5.1,8.5,8.5c2.9,4.2,6.7,3.6,10.3,0.8c1.5-1.1,1.5-2.7,0.2-4.2
	c-1.3-1.5-3-2.2-4.9-2.4c-0.8-0.1-1.9,0.2-2.5-0.7c3.8-2.9,11.9-1.4,14.1,3.3c2.2,4.6,5.8,5.6,10.2,5.8c2,0.1,3.9,0.5,5.5,1.6
	C394,64.2,395,64.6,394.9,65.7z"/>
</svg>
