<svg id="Layer_1" data-name="Layer 1" xmlns="http://www.w3.org/2000/svg" viewBox="0 0 250 250"><defs><style>.cls-1,.cls-2{fill:none;stroke:#000;stroke-miterlimit:10;}.cls-2{stroke-width:0.8px;}.cls-3{fill:#0b6666;}</style></defs><path d="M148.05,145.67a98.93,98.93,0,0,0-2.59-14.76c-.63-2.42-1.35-4.82-2.18-7.18s-1.85-4.63-2.89-6.93q-3-6.92-5.73-14c-.9-2.35-1.76-4.71-2.6-7.08a50.6,50.6,0,0,1-2.27-7.23,8.23,8.23,0,0,1,.14-3.85,5.08,5.08,0,0,1,2.56-2.88,3.8,3.8,0,0,1,3.79.23,10.85,10.85,0,0,1,2.78,2.62,36.54,36.54,0,0,1,3.85,6.51l3.32,6.78,6.63,13.55,3.37,6.75,1.72,3.35a31,31,0,0,0,1.89,3.26,28.52,28.52,0,0,1-1.91-3.25l-1.76-3.33-3.42-6.73L146,98l-3.38-6.75a37.19,37.19,0,0,0-3.86-6.42,10.51,10.51,0,0,0-2.7-2.5,3.36,3.36,0,0,0-3.38-.19,4.59,4.59,0,0,0-2.31,2.64,7.71,7.71,0,0,0-.1,3.61,51.89,51.89,0,0,0,2.3,7.13c.87,2.36,1.75,4.71,2.66,7q2.74,7,5.84,13.89c1,2.27,2.09,4.59,3,7s1.61,4.8,2.26,7.24a98.71,98.71,0,0,1,2.75,14.9Z"/><path d="M150.35,107.51a8.61,8.61,0,0,1,5.87-6.48,5.58,5.58,0,0,1,2.3-.18,6,6,0,0,1,2.14.79,11,11,0,0,1,3.09,3.17c.84,1.21,1.43,2.55,2.13,3.8s1.44,2.5,2.19,3.73c1.51,2.46,3.05,4.91,4.7,7.28-1.72-2.32-3.33-4.73-4.91-7.15-.79-1.21-1.56-2.43-2.3-3.68s-1.38-2.55-2.23-3.69a10,10,0,0,0-3-2.92,5.35,5.35,0,0,0-1.91-.65,5,5,0,0,0-2,.22,8,8,0,0,0-3.37,2.28,7.28,7.28,0,0,0-1.72,3.59Z"/><path d="M164.58,106.82a8.86,8.86,0,0,1,6.13-1.74,8,8,0,0,1,5.31,3.31q1.89,2.48,3.57,5.07a46.82,46.82,0,0,1,3,5.39,45,45,0,0,0-3.25-5.25c-1.18-1.68-2.44-3.31-3.75-4.9a7.42,7.42,0,0,0-5-2.88,8,8,0,0,0-5.43,1.78Z"/><path class="cls-1" d="M175.83,108.55a9.76,9.76,0,0,1,12,5c4.28,7.89,8.76,15.15,11.15,27.67s5.06,25.37,6.86,27.52"/><path class="cls-1" d="M142.93,122s-5.94,2.62-6.49,7.26,2.12,23.91,14.26,35.37,15,16.3,16.35,19.72"/><rect class="cls-2" x="45.11" y="79.92" width="22.37" height="22.37"/><circle class="cls-3" cx="66.54" cy="83.09" r="5.36"/><line class="cls-2" x1="81.59" y1="80.68" x2="122.5" y2="80.68"/><line class="cls-2" x1="81.59" y1="91.1" x2="107.59" y2="91.1"/><rect class="cls-2" x="45.11" y="116.64" width="22.37" height="22.37"/><circle class="cls-3" cx="66.54" cy="119.82" r="5.36"/><line class="cls-2" x1="81.59" y1="117.4" x2="125.04" y2="117.4"/><line class="cls-2" x1="81.59" y1="127.82" x2="109.22" y2="127.82"/><rect class="cls-2" x="45.11" y="152.16" width="22.37" height="22.37"/><circle class="cls-3" cx="66.54" cy="155.34" r="5.36"/><line class="cls-2" x1="81.59" y1="152.92" x2="136.85" y2="152.92"/><line class="cls-2" x1="81.59" y1="163.34" x2="106.06" y2="163.34"/></svg>