<svg id="Layer_1" data-name="Layer 1" xmlns="http://www.w3.org/2000/svg" viewBox="0 0 250 250"><defs><style>.cls-1,.cls-2{fill:none;stroke-miterlimit:10;}.cls-1{stroke:#000;}.cls-2{stroke:#0b6666;}</style></defs><polygon class="cls-1" points="77.36 67.45 171.88 67.45 171.88 175.69 165.28 182.55 158.42 175.69 152.06 182.55 144.44 175.69 138.85 182.55 131.23 175.69 124.92 182.55 117.76 175.69 111.67 182.55 104.55 175.94 97.94 182.55 90.83 175.69 84.48 182.55 77.36 175.94 77.36 67.45"/><circle class="cls-2" cx="124.69" cy="120.85" r="21.81"/><path d="M115,121.38c.57.48,1.14,1,1.69,1.48s1.13,1,1.68,1.5c1.09,1,2.2,2,3.28,3.06H121c2.46-2.36,5-4.64,7.54-6.89,1.28-1.13,2.59-2.23,3.89-3.32s2.63-2.17,4-3.22c-1.17,1.25-2.35,2.48-3.58,3.66s-2.42,2.39-3.67,3.55c-2.49,2.33-5,4.63-7.58,6.86l-.32.27L121,128c-1-1.08-2-2.19-3.07-3.28-.51-.54-1-1.11-1.5-1.67S115.44,122,115,121.38Z"/></svg>