<svg xmlns="http://www.w3.org/2000/svg" xmlns:xlink="http://www.w3.org/1999/xlink" width="340" height="96.902" viewBox="0 0 340 96.902">
    <defs>
      <clipPath id="clip-path">
        <rect id="Rectangle_1" data-name="Rectangle 1" width="340" height="96.902" fill="#223346"/>
      </clipPath>
      <clipPath id="clip-path-2">
        <rect id="Rectangle_1-2" data-name="Rectangle 1" width="340" height="27.957" transform="translate(0 68.946)" fill="#223346"/>
      </clipPath>
    </defs>
    <g id="Group_15" data-name="Group 15" transform="translate(-670 -66)">
      <g id="Group_2" data-name="Group 2" transform="translate(670 66)">
        <g id="Group_1" data-name="Group 1" clip-path="url(#clip-path)">
          <path id="Path_1" data-name="Path 1" d="M121.5,116.107c-8.332-1.816-9.99-3.514-9.99-5.646,0-1.777,2.567-3.554,6-3.554a21.44,21.44,0,0,1,13.584,4.462h.355l-.04-5.528h-.316a3.983,3.983,0,0,1-2.488.789c-2.8,0-6.554-1.3-11.174-1.3-5.844,0-10.03,2.961-10.03,6.871,0,3.475,3.2,6.989,12.912,9.122,6.4,1.421,9.833,3.278,9.833,6.081,0,2.33-2.724,4.3-7.344,4.3-4.462,0-9.753-1.619-15.874-6.95h-.395v6.437h.395a4.2,4.2,0,0,1,2.567-.75c2.33,0,8.135,2.843,14.176,2.843,6.515,0,10.583-3.475,10.583-8.135,0-4.265-3.87-7.107-12.755-9.042" transform="translate(-36.797 -36.381)" fill="#223346"/>
          <path id="Path_2" data-name="Path 2" d="M14.966,116.107c-8.332-1.816-9.99-3.514-9.99-5.646,0-1.777,2.567-3.554,6-3.554a21.44,21.44,0,0,1,13.584,4.462h.355l-.04-5.528h-.316a3.983,3.983,0,0,1-2.488.789c-2.8,0-6.554-1.3-11.174-1.3-5.844,0-10.03,2.961-10.03,6.871,0,3.475,3.2,6.989,12.912,9.122,6.4,1.421,9.833,3.278,9.833,6.081,0,2.33-2.724,4.3-7.344,4.3-4.462,0-9.753-1.619-15.874-6.95H0v6.437H.395a4.2,4.2,0,0,1,2.567-.75c2.33,0,8.135,2.843,14.176,2.843,6.515,0,10.583-3.475,10.583-8.135,0-4.265-3.87-7.107-12.755-9.042" transform="translate(0 -36.381)" fill="#223346"/>
          <path id="Path_3" data-name="Path 3" d="M187.142,130.326l-11.925-22.666a3.528,3.528,0,0,0-3.041-2.093h-5.331v.395a4.026,4.026,0,0,1,2.391,2.186l-9.774,22.217a4.785,4.785,0,0,1-2.409,2.487v.355h4.462v-.316a1.758,1.758,0,0,1-.474-2.29l2.369-5.37h14.83l3.1,5.883a3.22,3.22,0,0,0,2.962,2.093h5.449v-.355a5.026,5.026,0,0,1-2.606-2.527m-23-6.752,6.03-13.668,7.2,13.668Z" transform="translate(-54.248 -36.465)" fill="#223346"/>
          <path id="Path_4" data-name="Path 4" d="M76.68,105.963a3.151,3.151,0,0,1,1.185,2.527V123.3c0,4.462-3.909,7.819-9.082,7.819S59.7,127.76,59.7,123.3V108.49a3.153,3.153,0,0,1,1.184-2.527v-.395h-7.9v.395a3.153,3.153,0,0,1,1.184,2.527V123.3c0,5.766,5.489,10.07,12.794,10.07s12.755-4.3,12.755-10.07V108.49a3.151,3.151,0,0,1,1.185-2.527v-.395H76.68Z" transform="translate(-18.303 -36.465)" fill="#223346"/>
          <path id="Path_5" data-name="Path 5" d="M371.431,105.607v.316a3.226,3.226,0,0,1,1.185,2.567v7.581H357.532V108.49a3.226,3.226,0,0,1,1.185-2.567v-.355h-7.9v.355A3.226,3.226,0,0,1,352,108.49v21.8a3.15,3.15,0,0,1-1.184,2.527v.4h7.9v-.4a3.151,3.151,0,0,1-1.185-2.527V117.73h15.084v12.635a3.111,3.111,0,0,1-1.185,2.448v.4h7.9v-.4a3.151,3.151,0,0,1-1.185-2.527v-21.8a3.226,3.226,0,0,1,1.185-2.567v-.355h-7.9Z" transform="translate(-121.178 -36.465)" fill="#223346"/>
          <path id="Path_6" data-name="Path 6" d="M491.879,105.568v.395a2.589,2.589,0,0,1,.395,2.962L483.863,128l-5.506-12.4,3.019-6.395a8.626,8.626,0,0,1,2.211-3.278v-.355h-4.581v.395a2.045,2.045,0,0,1,.553,2.567l-2.236,4.738-2.384-5.37a3.533,3.533,0,0,0-3.08-2.33h-5.134v.395a4.182,4.182,0,0,1,2.409,2.251l5.1,11.606-3.952,8.375-9.6-20.731a3.3,3.3,0,0,0-3-1.9h-5.291v.395a4.613,4.613,0,0,1,2.922,2.725l11.372,24.521h3.357l5.216-11.051,4.853,11.051h3.317L494.051,109.2a8.2,8.2,0,0,1,2.211-3.278v-.355Z" transform="translate(-156.262 -36.465)" fill="#223346"/>
          <path id="Path_7" data-name="Path 7" d="M434.39,130.325,422.465,107.66a3.527,3.527,0,0,0-3.041-2.093h-5.331v.395a4.023,4.023,0,0,1,2.39,2.186l-9.774,22.217a4.786,4.786,0,0,1-2.409,2.487v.355h4.462v-.316a1.759,1.759,0,0,1-.474-2.29l2.369-5.37h14.83l3.1,5.883a3.22,3.22,0,0,0,2.962,2.093H437v-.355a5.026,5.026,0,0,1-2.606-2.527m-23-6.752,6.03-13.668,7.2,13.668Z" transform="translate(-139.651 -36.464)" fill="#223346"/>
          <path id="Path_8" data-name="Path 8" d="M310.966,116.107c-8.332-1.816-9.99-3.514-9.99-5.646,0-1.777,2.567-3.554,6-3.554a21.44,21.44,0,0,1,13.584,4.462h.355l-.04-5.528h-.315a3.983,3.983,0,0,1-2.488.789c-2.8,0-6.554-1.3-11.174-1.3-5.844,0-10.03,2.961-10.03,6.871,0,3.475,3.2,6.989,12.912,9.122,6.4,1.422,9.833,3.278,9.833,6.081,0,2.33-2.724,4.3-7.344,4.3-4.462,0-9.753-1.619-15.874-6.95H296v6.437h.395a4.2,4.2,0,0,1,2.567-.75c2.33,0,8.135,2.843,14.176,2.843,6.515,0,10.583-3.475,10.583-8.135,0-4.225-3.87-7.107-12.755-9.042" transform="translate(-102.242 -36.381)" fill="#223346"/>
          <path id="Path_9" data-name="Path 9" d="M240.067,105.963a3.151,3.151,0,0,1,1.185,2.527v16.9L221.39,107.542c-1.58-1.422-2.844-1.974-6-1.974v.395c.869.355,1.975,1.9,1.975,4.067v20.257a3.151,3.151,0,0,1-1.185,2.527v.4H220.4v-.4a3.151,3.151,0,0,1-1.185-2.527v-16.9l22.034,19.823h1.816l.039-24.719a3.151,3.151,0,0,1,1.185-2.527v-.395h-4.225Z" transform="translate(-74.398 -36.465)" fill="#223346"/>
          <path id="Path_10" data-name="Path 10" d="M272.761,27.641c0-.549-4.222-2.62-6.5-2.62a8.274,8.274,0,0,0-3.334.547,5.321,5.321,0,0,0,.691-2.783c0-2.885-2.38-4.288-4.7-4.288a5.086,5.086,0,0,0-3.624,1.957l-.006.448c1.761,0,3.918.321,3.918,2.167,0,1.591-1.443,2.733-3.647,2.733-1.515,0-1.637-.99-2.154-2.037l-.007.052a2.821,2.821,0,0,0-.177-.425,9.177,9.177,0,0,0-4.23-4.034H249c-1.047-.516-2.037-.639-2.037-2.154,0-2.2,1.142-3.647,2.733-3.647,1.845,0,2.167,2.156,2.167,3.918l.449-.006a5.086,5.086,0,0,0,1.956-3.624c0-2.315-1.4-4.7-4.288-4.7a5.321,5.321,0,0,0-2.783.691A8.282,8.282,0,0,0,247.74,6.5c0-2.283-2.07-6.5-2.62-6.5s-2.62,4.222-2.62,6.5a8.283,8.283,0,0,0,.547,3.334,5.321,5.321,0,0,0-2.783-.691c-2.885,0-4.288,2.38-4.288,4.7a5.086,5.086,0,0,0,1.957,3.624l.448.006c0-1.761.321-3.918,2.167-3.918,1.591,0,2.733,1.443,2.733,3.647,0,1.515-.99,1.637-2.037,2.154h.007a9.18,9.18,0,0,0-4.23,4.034,2.824,2.824,0,0,0-.177.425l-.007-.052c-.516,1.047-.639,2.037-2.154,2.037-2.2,0-3.647-1.142-3.647-2.733,0-1.845,2.156-2.167,3.918-2.167l-.005-.448a5.088,5.088,0,0,0-3.625-1.957c-2.315,0-4.7,1.4-4.7,4.288a5.321,5.321,0,0,0,.691,2.783,8.274,8.274,0,0,0-3.334-.547c-2.283,0-6.5,2.071-6.5,2.62s4.222,2.62,6.5,2.62a8.274,8.274,0,0,0,3.334-.547,5.321,5.321,0,0,0-.691,2.783c0,2.885,2.38,4.288,4.7,4.288a5.088,5.088,0,0,0,3.625-1.957l.005-.448c-1.761,0-3.918-.321-3.918-2.167,0-1.591,1.443-2.733,3.647-2.733,1.515,0,1.637.99,2.154,2.037l.007-.052a2.824,2.824,0,0,0,.177.425,9.18,9.18,0,0,0,4.23,4.034h-.007c1.047.516,2.037.639,2.037,2.154,0,2.2-1.142,3.647-2.733,3.647-1.845,0-2.167-2.156-2.167-3.918l-.448.005a5.088,5.088,0,0,0-1.957,3.625c0,2.315,1.4,4.7,4.288,4.7a5.321,5.321,0,0,0,2.783-.691,8.283,8.283,0,0,0-.547,3.334c0,2.283,2.07,6.5,2.62,6.5s2.62-4.222,2.62-6.5a8.282,8.282,0,0,0-.547-3.334,5.321,5.321,0,0,0,2.783.691c2.885,0,4.288-2.38,4.288-4.7a5.089,5.089,0,0,0-1.956-3.625l-.449-.005c0,1.761-.321,3.918-2.167,3.918-1.591,0-2.733-1.443-2.733-3.647,0-1.515.99-1.637,2.037-2.154h-.007a9.177,9.177,0,0,0,4.23-4.034,2.821,2.821,0,0,0,.177-.425l.007.052c.516-1.047.639-2.037,2.154-2.037,2.2,0,3.647,1.142,3.647,2.733,0,1.845-2.156,2.167-3.918,2.167l.006.448a5.086,5.086,0,0,0,3.624,1.957c2.315,0,4.7-1.4,4.7-4.288a5.321,5.321,0,0,0-.691-2.783,8.274,8.274,0,0,0,3.334.547c2.283,0,6.5-2.071,6.5-2.62" transform="translate(-75.12)" fill="#223346"/>
        </g>
      </g>
      <g id="Group_11" data-name="Group 11" transform="translate(670 66)">
        <g id="Group_1-2" data-name="Group 1" clip-path="url(#clip-path-2)">
          <path id="Path_1-2" data-name="Path 1" d="M121.5,116.107c-8.332-1.816-9.99-3.514-9.99-5.646,0-1.777,2.567-3.554,6-3.554a21.44,21.44,0,0,1,13.584,4.462h.355l-.04-5.528h-.316a3.983,3.983,0,0,1-2.488.789c-2.8,0-6.554-1.3-11.174-1.3-5.844,0-10.03,2.961-10.03,6.871,0,3.475,3.2,6.989,12.912,9.122,6.4,1.421,9.833,3.278,9.833,6.081,0,2.33-2.724,4.3-7.344,4.3-4.462,0-9.753-1.619-15.874-6.95h-.395v6.437h.395a4.2,4.2,0,0,1,2.567-.75c2.33,0,8.135,2.843,14.176,2.843,6.515,0,10.583-3.475,10.583-8.135,0-4.265-3.87-7.107-12.755-9.042" transform="translate(-36.797 -36.381)" fill="#223346"/>
          <path id="Path_2-2" data-name="Path 2" d="M14.966,116.107c-8.332-1.816-9.99-3.514-9.99-5.646,0-1.777,2.567-3.554,6-3.554a21.44,21.44,0,0,1,13.584,4.462h.355l-.04-5.528h-.316a3.983,3.983,0,0,1-2.488.789c-2.8,0-6.554-1.3-11.174-1.3-5.844,0-10.03,2.961-10.03,6.871,0,3.475,3.2,6.989,12.912,9.122,6.4,1.421,9.833,3.278,9.833,6.081,0,2.33-2.724,4.3-7.344,4.3-4.462,0-9.753-1.619-15.874-6.95H0v6.437H.395a4.2,4.2,0,0,1,2.567-.75c2.33,0,8.135,2.843,14.176,2.843,6.515,0,10.583-3.475,10.583-8.135,0-4.265-3.87-7.107-12.755-9.042" transform="translate(0 -36.381)" fill="#223346"/>
          <path id="Path_3-2" data-name="Path 3" d="M187.142,130.326l-11.925-22.666a3.528,3.528,0,0,0-3.041-2.093h-5.331v.395a4.026,4.026,0,0,1,2.391,2.186l-9.774,22.217a4.785,4.785,0,0,1-2.409,2.487v.355h4.462v-.316a1.758,1.758,0,0,1-.474-2.29l2.369-5.37h14.83l3.1,5.883a3.22,3.22,0,0,0,2.962,2.093h5.449v-.355a5.026,5.026,0,0,1-2.606-2.527m-23-6.752,6.03-13.668,7.2,13.668Z" transform="translate(-54.248 -36.465)" fill="#223346"/>
          <path id="Path_4-2" data-name="Path 4" d="M76.68,105.963a3.151,3.151,0,0,1,1.185,2.527V123.3c0,4.462-3.909,7.819-9.082,7.819S59.7,127.76,59.7,123.3V108.49a3.153,3.153,0,0,1,1.184-2.527v-.395h-7.9v.395a3.153,3.153,0,0,1,1.184,2.527V123.3c0,5.766,5.489,10.07,12.794,10.07s12.755-4.3,12.755-10.07V108.49a3.151,3.151,0,0,1,1.185-2.527v-.395H76.68Z" transform="translate(-18.303 -36.465)" fill="#223346"/>
          <path id="Path_5-2" data-name="Path 5" d="M371.431,105.607v.316a3.226,3.226,0,0,1,1.185,2.567v7.581H357.532V108.49a3.226,3.226,0,0,1,1.185-2.567v-.355h-7.9v.355A3.226,3.226,0,0,1,352,108.49v21.8a3.15,3.15,0,0,1-1.184,2.527v.4h7.9v-.4a3.151,3.151,0,0,1-1.185-2.527V117.73h15.084v12.635a3.111,3.111,0,0,1-1.185,2.448v.4h7.9v-.4a3.151,3.151,0,0,1-1.185-2.527v-21.8a3.226,3.226,0,0,1,1.185-2.567v-.355h-7.9Z" transform="translate(-121.178 -36.465)" fill="#223346"/>
          <path id="Path_6-2" data-name="Path 6" d="M491.879,105.568v.395a2.589,2.589,0,0,1,.395,2.962L483.863,128l-5.506-12.4,3.019-6.395a8.626,8.626,0,0,1,2.211-3.278v-.355h-4.581v.395a2.045,2.045,0,0,1,.553,2.567l-2.236,4.738-2.384-5.37a3.533,3.533,0,0,0-3.08-2.33h-5.134v.395a4.182,4.182,0,0,1,2.409,2.251l5.1,11.606-3.952,8.375-9.6-20.731a3.3,3.3,0,0,0-3-1.9h-5.291v.395a4.613,4.613,0,0,1,2.922,2.725l11.372,24.521h3.357l5.216-11.051,4.853,11.051h3.317L494.051,109.2a8.2,8.2,0,0,1,2.211-3.278v-.355Z" transform="translate(-156.262 -36.465)" fill="#223346"/>
          <path id="Path_7-2" data-name="Path 7" d="M434.39,130.325,422.465,107.66a3.527,3.527,0,0,0-3.041-2.093h-5.331v.395a4.023,4.023,0,0,1,2.39,2.186l-9.774,22.217a4.786,4.786,0,0,1-2.409,2.487v.355h4.462v-.316a1.759,1.759,0,0,1-.474-2.29l2.369-5.37h14.83l3.1,5.883a3.22,3.22,0,0,0,2.962,2.093H437v-.355a5.026,5.026,0,0,1-2.606-2.527m-23-6.752,6.03-13.668,7.2,13.668Z" transform="translate(-139.651 -36.464)" fill="#223346"/>
          <path id="Path_8-2" data-name="Path 8" d="M310.966,116.107c-8.332-1.816-9.99-3.514-9.99-5.646,0-1.777,2.567-3.554,6-3.554a21.44,21.44,0,0,1,13.584,4.462h.355l-.04-5.528h-.315a3.983,3.983,0,0,1-2.488.789c-2.8,0-6.554-1.3-11.174-1.3-5.844,0-10.03,2.961-10.03,6.871,0,3.475,3.2,6.989,12.912,9.122,6.4,1.422,9.833,3.278,9.833,6.081,0,2.33-2.724,4.3-7.344,4.3-4.462,0-9.753-1.619-15.874-6.95H296v6.437h.395a4.2,4.2,0,0,1,2.567-.75c2.33,0,8.135,2.843,14.176,2.843,6.515,0,10.583-3.475,10.583-8.135,0-4.225-3.87-7.107-12.755-9.042" transform="translate(-102.242 -36.381)" fill="#223346"/>
          <path id="Path_9-2" data-name="Path 9" d="M240.067,105.963a3.151,3.151,0,0,1,1.185,2.527v16.9L221.39,107.542c-1.58-1.422-2.844-1.974-6-1.974v.395c.869.355,1.975,1.9,1.975,4.067v20.257a3.151,3.151,0,0,1-1.185,2.527v.4H220.4v-.4a3.151,3.151,0,0,1-1.185-2.527v-16.9l22.034,19.823h1.816l.039-24.719a3.151,3.151,0,0,1,1.185-2.527v-.395h-4.225Z" transform="translate(-74.398 -36.465)" fill="#223346"/>
        </g>
      </g>
    </g>
  </svg>
  