<svg xmlns="http://www.w3.org/2000/svg" xmlns:xlink="http://www.w3.org/1999/xlink" width="251" height="20.639" viewBox="0 0 251 20.639">
  <defs>
    <clipPath id="clip-path">
      <rect id="Rectangle_1" data-name="Rectangle 1" width="251" height="20.639" fill="none"/>
    </clipPath>
  </defs>
  <g id="Group_7" data-name="Group 7" transform="translate(0 -68.946)">
    <g id="Group_1" data-name="Group 1" transform="translate(0 68.946)">
      <path id="Path_1" data-name="Path 1" d="M117.578,113.285c-6.151-1.341-7.375-2.595-7.375-4.168,0-1.312,1.895-2.624,4.431-2.624a15.828,15.828,0,0,1,10.028,3.294h.262l-.029-4.081h-.233a2.94,2.94,0,0,1-1.837.583c-2.07,0-4.839-.962-8.249-.962-4.314,0-7.4,2.186-7.4,5.072,0,2.565,2.362,5.16,9.532,6.734,4.723,1.049,7.259,2.42,7.259,4.489,0,1.72-2.011,3.177-5.422,3.177-3.294,0-7.2-1.2-11.719-5.131h-.291v4.752h.291a3.1,3.1,0,0,1,1.895-.554c1.72,0,6.005,2.1,10.465,2.1,4.81,0,7.813-2.566,7.813-6.005,0-3.148-2.857-5.247-9.416-6.675" transform="translate(-55.051 -105.327)" fill="#223346"/>
      <path id="Path_2" data-name="Path 2" d="M11.048,113.285c-6.151-1.341-7.375-2.595-7.375-4.168,0-1.312,1.895-2.624,4.431-2.624a15.828,15.828,0,0,1,10.028,3.294h.262l-.029-4.081h-.233a2.94,2.94,0,0,1-1.837.583c-2.07,0-4.839-.962-8.249-.962-4.314,0-7.4,2.186-7.4,5.072,0,2.565,2.362,5.16,9.532,6.734,4.723,1.049,7.259,2.42,7.259,4.489,0,1.72-2.011,3.177-5.422,3.177-3.294,0-7.2-1.2-11.719-5.131H0v4.752H.291a3.1,3.1,0,0,1,1.895-.554c1.72,0,6.005,2.1,10.466,2.1,4.81,0,7.813-2.565,7.813-6.005,0-3.148-2.857-5.247-9.416-6.675" transform="translate(0 -105.327)" fill="#223346"/>
      <path id="Path_3" data-name="Path 3" d="M179.266,123.846l-8.8-16.733a2.6,2.6,0,0,0-2.245-1.545h-3.935v.291a2.972,2.972,0,0,1,1.765,1.614l-7.216,16.4a3.533,3.533,0,0,1-1.778,1.836v.262h3.294v-.233a1.3,1.3,0,0,1-.35-1.69l1.749-3.964h10.948l2.286,4.343a2.377,2.377,0,0,0,2.187,1.545h4.022v-.262a3.71,3.71,0,0,1-1.924-1.866m-16.98-4.985,4.452-10.091,5.312,10.091Z" transform="translate(-81.159 -105.452)" fill="#223346"/>
      <path id="Path_4" data-name="Path 4" d="M70.478,105.859a2.326,2.326,0,0,1,.875,1.866v10.931c0,3.294-2.886,5.772-6.7,5.772s-6.7-2.478-6.7-5.772V107.725a2.327,2.327,0,0,1,.874-1.866v-.291h-5.83v.291a2.327,2.327,0,0,1,.874,1.866v10.931c0,4.256,4.052,7.434,9.445,7.434s9.416-3.177,9.416-7.434V107.725a2.326,2.326,0,0,1,.875-1.866v-.291H70.478Z" transform="translate(-27.382 -105.452)" fill="#223346"/>
      <path id="Path_5" data-name="Path 5" d="M366.036,105.6v.233a2.382,2.382,0,0,1,.875,1.895v5.6H355.775v-5.6a2.382,2.382,0,0,1,.875-1.895v-.262h-5.83v.262a2.381,2.381,0,0,1,.874,1.895v16.091a2.326,2.326,0,0,1-.874,1.865v.292h5.83v-.292a2.326,2.326,0,0,1-.875-1.865v-9.27H366.91v9.328a2.3,2.3,0,0,1-.875,1.807v.292h5.83v-.292a2.326,2.326,0,0,1-.875-1.865V107.725a2.382,2.382,0,0,1,.875-1.895v-.262h-5.83Z" transform="translate(-181.29 -105.452)" fill="#223346"/>
      <path id="Path_6" data-name="Path 6" d="M481.543,105.568v.291a1.911,1.911,0,0,1,.291,2.187l-6.209,14.08-4.065-9.155,2.229-4.721a6.368,6.368,0,0,1,1.632-2.42v-.262H472.04v.291a1.51,1.51,0,0,1,.408,1.895l-1.651,3.5-1.76-3.964a2.608,2.608,0,0,0-2.274-1.72h-3.79v.291a3.087,3.087,0,0,1,1.778,1.662l3.763,8.568-2.917,6.183-7.084-15.3a2.44,2.44,0,0,0-2.216-1.4h-3.906v.291a3.406,3.406,0,0,1,2.157,2.012l8.4,18.1h2.478l3.85-8.158,3.583,8.158H475.3l7.841-17.724a6.057,6.057,0,0,1,1.632-2.42v-.262Z" transform="translate(-233.779 -105.452)" fill="#223346"/>
      <path id="Path_7" data-name="Path 7" d="M426.514,123.845l-8.8-16.733a2.6,2.6,0,0,0-2.245-1.545H411.53v.291a2.97,2.97,0,0,1,1.764,1.614l-7.215,16.4a3.533,3.533,0,0,1-1.778,1.836v.262H407.6v-.233a1.3,1.3,0,0,1-.35-1.691l1.749-3.964h10.948l2.286,4.343a2.377,2.377,0,0,0,2.187,1.545h4.022v-.262a3.71,3.71,0,0,1-1.924-1.866m-16.98-4.985,4.452-10.091L419.3,118.86Z" transform="translate(-208.927 -105.451)" fill="#223346"/>
      <path id="Path_8" data-name="Path 8" d="M307.048,113.285c-6.151-1.341-7.375-2.595-7.375-4.168,0-1.312,1.895-2.624,4.431-2.624a15.827,15.827,0,0,1,10.028,3.294h.262l-.03-4.081h-.233a2.94,2.94,0,0,1-1.837.583c-2.07,0-4.839-.962-8.249-.962-4.314,0-7.4,2.186-7.4,5.072,0,2.566,2.361,5.16,9.532,6.734,4.723,1.05,7.259,2.42,7.259,4.489,0,1.72-2.011,3.177-5.422,3.177-3.294,0-7.2-1.2-11.719-5.131H296v4.752h.291a3.1,3.1,0,0,1,1.895-.554c1.72,0,6.005,2.1,10.466,2.1,4.81,0,7.813-2.565,7.813-6.005,0-3.119-2.857-5.247-9.416-6.675" transform="translate(-152.961 -105.327)" fill="#223346"/>
      <path id="Path_9" data-name="Path 9" d="M233.607,105.859a2.326,2.326,0,0,1,.875,1.866V120.2l-14.663-13.176c-1.166-1.05-2.1-1.457-4.431-1.457v.291a3.293,3.293,0,0,1,1.458,3v14.955a2.326,2.326,0,0,1-.875,1.865v.292h3.119v-.292a2.326,2.326,0,0,1-.875-1.865V111.34l16.266,14.634h1.341l.029-18.249a2.326,2.326,0,0,1,.875-1.866v-.291h-3.119Z" transform="translate(-111.304 -105.452)" fill="#223346"/>
    </g>
  </g>
</svg>
