<svg width="66" height="66" viewBox="0 0 66 66" fill="none" xmlns="http://www.w3.org/2000/svg">
<path d="M6.91149 44.9123C6.87581 45.0553 6.87319 45.2046 6.90382 45.3489C6.93446 45.4931 6.99754 45.6284 7.08829 45.7446C7.17903 45.8608 7.29506 45.9548 7.42755 46.0194C7.56005 46.0841 7.70553 46.1177 7.85296 46.1178H14.7442C14.9669 47.2148 15.5621 48.2011 16.4289 48.9096C17.2956 49.618 18.3806 50.005 19.5001 50.005C20.6195 50.005 21.7045 49.618 22.5713 48.9096C23.438 48.2011 24.0332 47.2148 24.256 46.1178H44.8325C45.0553 47.2148 45.6505 48.2011 46.5172 48.9096C47.384 49.618 48.469 50.005 49.5884 50.005C50.7079 50.005 51.7929 49.618 52.6596 48.9096C53.5264 48.2011 54.1216 47.2148 54.3443 46.1178H57.3532C57.562 46.1178 57.7652 46.0505 57.9327 45.9258C58.1002 45.8011 58.2231 45.6258 58.283 45.4257L61.1948 35.7198C61.2382 35.5749 61.2471 35.4218 61.2209 35.2728C61.1946 35.1239 61.1339 34.9831 61.0436 34.8617C60.9533 34.7404 60.8358 34.6418 60.7006 34.5739C60.5654 34.506 60.4162 34.4707 60.265 34.4707H58.6577L61.1948 26.0139C61.2382 25.869 61.2471 25.7159 61.2209 25.5669C61.1946 25.4179 61.1339 25.2771 61.0436 25.1558C60.9533 25.0344 60.8358 24.9359 60.7006 24.868C60.5654 24.8001 60.4162 24.7647 60.265 24.7647H50.8318L52.4711 18.2055C52.5068 18.0624 52.5094 17.9131 52.4788 17.7689C52.4481 17.6247 52.3851 17.4894 52.2943 17.3732C52.2036 17.257 52.0875 17.163 51.955 17.0983C51.8225 17.0337 51.6771 17 51.5296 17H14.6471C14.4306 17.0001 14.2203 17.0725 14.0497 17.2058C13.8792 17.3391 13.758 17.5256 13.7056 17.7357L11.9479 24.7647H6.88237V26.7059H11.4626L10.7347 29.6177H4.94119V31.5589H10.2494L9.52141 34.4707H3V36.4119H9.03611L6.91149 44.9123ZM9.09629 44.1766L9.58159 42.2354H10.7647V44.1766H9.09629ZM19.5001 48.059C18.9242 48.059 18.3612 47.8882 17.8824 47.5682C17.4035 47.2483 17.0303 46.7935 16.8099 46.2615C16.5896 45.7294 16.5319 45.144 16.6442 44.5791C16.7566 44.0143 17.0339 43.4955 17.4411 43.0882C17.8484 42.681 18.3672 42.4037 18.932 42.2914C19.4968 42.179 20.0823 42.2367 20.6144 42.4571C21.1464 42.6774 21.6012 43.0506 21.9211 43.5295C22.2411 44.0083 22.4119 44.5713 22.4119 45.1472C22.4119 45.9194 22.1051 46.6601 21.559 47.2061C21.0129 47.7522 20.2723 48.059 19.5001 48.059ZM49.5884 48.059C49.0125 48.059 48.4496 47.8882 47.9707 47.5682C47.4919 47.2483 47.1187 46.7935 46.8983 46.2615C46.6779 45.7294 46.6203 45.144 46.7326 44.5791C46.845 44.0143 47.1223 43.4955 47.5295 43.0882C47.9367 42.681 48.4556 42.4037 49.0204 42.2914C49.5852 42.179 50.1707 42.2367 50.7027 42.4571C51.2348 42.6774 51.6895 43.0506 52.0095 43.5295C52.3294 44.0083 52.5002 44.5713 52.5002 45.1472C52.5002 45.9194 52.1934 46.6601 51.6474 47.2061C51.1013 47.7522 50.3607 48.059 49.5884 48.059V48.059ZM58.9605 26.7059L56.4234 35.1627C56.3799 35.3076 56.371 35.4607 56.3972 35.6097C56.4235 35.7587 56.4842 35.8994 56.5745 36.0208C56.6649 36.1422 56.7823 36.2407 56.9175 36.3086C57.0527 36.3765 57.2019 36.4119 57.3532 36.4119H58.9605L56.6311 44.1766H54.3443C54.1191 43.0812 53.5231 42.0969 52.6567 41.3897C51.7904 40.6825 50.7068 40.2956 49.5884 40.2942C48.5481 40.2972 47.5369 40.6378 46.7068 41.2648L48.1626 35.4413H53.4708C53.6946 35.4413 53.9115 35.364 54.0848 35.2225C54.2581 35.0811 54.3772 34.884 54.422 34.6648L55.3926 29.8118C55.4214 29.6708 55.4184 29.5251 55.384 29.3854C55.3495 29.2456 55.2844 29.1153 55.1934 29.0038C55.1023 28.8923 54.9876 28.8024 54.8575 28.7408C54.7275 28.6791 54.5853 28.6471 54.4414 28.6471H49.8612L50.3465 26.7059H58.9605ZM49.3759 30.5883H53.2583L52.6759 33.5001H48.6479L49.3759 30.5883ZM12.2507 31.5589H16.5883V29.6177H12.736L13.464 26.7059H18.5295V24.7647H13.9493L15.4051 18.9412H50.2863L43.9774 44.1766H24.256C24.0332 43.0795 23.438 42.0932 22.5713 41.3848C21.7045 40.6764 20.6195 40.2894 19.5001 40.2894C18.3806 40.2894 17.2956 40.6764 16.4289 41.3848C15.5621 42.0932 14.9669 43.0795 14.7442 44.1766H12.7059V41.2648C12.7059 41.0074 12.6037 40.7605 12.4216 40.5785C12.2396 40.3965 11.9928 40.2942 11.7353 40.2942H10.0669L11.0375 36.4119H14.6471V34.4707H11.5228L12.2507 31.5589Z" fill="black"/>
<path d="M31.1473 42.2354C33.6359 42.2332 36.0286 41.2753 37.8311 39.5594C39.6335 37.8435 40.7081 35.5009 40.8327 33.0154C40.9572 30.5299 40.1224 28.0915 38.5005 26.204C36.8787 24.3165 34.5938 23.124 32.1179 22.873V20.8824H30.1767V22.873C27.7008 23.124 25.4159 24.3165 23.794 26.204C22.1722 28.0915 21.3373 30.5299 21.4619 33.0154C21.5865 35.5009 22.661 37.8435 24.4635 39.5594C26.266 41.2753 28.6587 42.2332 31.1473 42.2354V42.2354ZM31.1473 24.7647C32.683 24.7647 34.1842 25.2201 35.4611 26.0733C36.738 26.9265 37.7333 28.1392 38.321 29.558C38.9087 30.9768 39.0624 32.5381 38.7628 34.0443C38.4632 35.5505 37.7237 36.934 36.6378 38.02C35.5519 39.1059 34.1683 39.8454 32.6621 40.145C31.1559 40.4446 29.5947 40.2908 28.1758 39.7032C26.757 39.1155 25.5443 38.1202 24.6911 36.8433C23.8379 35.5664 23.3825 34.0652 23.3825 32.5295C23.3848 30.4708 24.2037 28.4972 25.6593 27.0415C27.115 25.5858 29.0886 24.767 31.1473 24.7647Z" fill="black"/>
<path d="M31.1474 33.5001H35.0297V31.5589H32.1179V27.6765H30.1768V32.5295C30.1768 32.7869 30.279 33.0338 30.461 33.2158C30.6431 33.3978 30.8899 33.5001 31.1474 33.5001Z" fill="black"/>
</svg>
